<?xml version="1.0" encoding="utf-8" standalone="no"?>
<!DOCTYPE svg PUBLIC "-//W3C//DTD SVG 1.1//EN"
  "http://www.w3.org/Graphics/SVG/1.1/DTD/svg11.dtd">
<svg xmlns:xlink="http://www.w3.org/1999/xlink" width="374.4pt" height="187.2pt" viewBox="0 0 374.4 187.2" xmlns="http://www.w3.org/2000/svg" version="1.1">
 <metadata>
  <rdf:RDF xmlns:dc="http://purl.org/dc/elements/1.1/" xmlns:cc="http://creativecommons.org/ns#" xmlns:rdf="http://www.w3.org/1999/02/22-rdf-syntax-ns#">
   <cc:Work>
    <dc:type rdf:resource="http://purl.org/dc/dcmitype/StillImage"/>
    <dc:date>2023-11-15T13:21:23.424343</dc:date>
    <dc:format>image/svg+xml</dc:format>
    <dc:creator>
     <cc:Agent>
      <dc:title>Matplotlib v3.8.0, https://matplotlib.org/</dc:title>
     </cc:Agent>
    </dc:creator>
   </cc:Work>
  </rdf:RDF>
 </metadata>
 <defs>
  <style type="text/css">*{stroke-linejoin: round; stroke-linecap: butt}</style>
 </defs>
 <g id="figure_1">
  <g id="patch_1">
   <path d="M 0 187.2 
L 374.4 187.2 
L 374.4 0 
L 0 0 
z
" style="fill: #ffffff"/>
  </g>
  <g id="axes_1">
   <g id="patch_2">
    <path d="M 39.672 132.38625 
L 249.37375 132.38625 
L 249.37375 8.807492 
L 39.672 8.807492 
z
" style="fill: #ffffff"/>
   </g>
   <g id="matplotlib.axis_1">
    <g id="xtick_1">
     <g id="line2d_1"/>
     <g id="text_1">
      <!-- large city -->
      <g style="fill: #262626" transform="translate(71.339801 167.89625) rotate(-90) scale(0.08 -0.08)">
       <defs>
        <path id="LiberationSans-6c" d="M 431 0 
L 431 4638 
L 994 4638 
L 994 0 
L 431 0 
z
" transform="scale(0.015625)"/>
        <path id="LiberationSans-61" d="M 1294 -63 
Q 784 -63 528 206 
Q 272 475 272 944 
Q 272 1278 398 1492 
Q 525 1706 729 1828 
Q 934 1950 1196 1997 
Q 1459 2044 1731 2050 
L 2491 2063 
L 2491 2247 
Q 2491 2456 2447 2603 
Q 2403 2750 2312 2840 
Q 2222 2931 2086 2973 
Q 1950 3016 1766 3016 
Q 1603 3016 1472 2992 
Q 1341 2969 1244 2908 
Q 1147 2847 1087 2742 
Q 1028 2638 1009 2478 
L 422 2531 
Q 453 2731 540 2898 
Q 628 3066 789 3187 
Q 950 3309 1192 3376 
Q 1434 3444 1778 3444 
Q 2416 3444 2737 3151 
Q 3059 2859 3059 2306 
L 3059 850 
Q 3059 600 3125 473 
Q 3191 347 3375 347 
Q 3422 347 3469 353 
Q 3516 359 3559 369 
L 3559 19 
Q 3453 -6 3348 -18 
Q 3244 -31 3125 -31 
Q 2966 -31 2852 11 
Q 2738 53 2666 139 
Q 2594 225 2556 351 
Q 2519 478 2509 647 
L 2491 647 
Q 2400 484 2292 353 
Q 2184 222 2040 130 
Q 1897 38 1714 -12 
Q 1531 -63 1294 -63 
z
M 1422 359 
Q 1691 359 1892 457 
Q 2094 556 2226 709 
Q 2359 863 2425 1044 
Q 2491 1225 2491 1391 
L 2491 1669 
L 1875 1656 
Q 1669 1653 1483 1626 
Q 1297 1600 1156 1522 
Q 1016 1444 933 1303 
Q 850 1163 850 934 
Q 850 659 998 509 
Q 1147 359 1422 359 
z
" transform="scale(0.015625)"/>
        <path id="LiberationSans-72" d="M 444 0 
L 444 2594 
Q 444 2700 442 2811 
Q 441 2922 437 3025 
Q 434 3128 431 3218 
Q 428 3309 425 3381 
L 956 3381 
Q 959 3309 964 3217 
Q 969 3125 973 3028 
Q 978 2931 979 2842 
Q 981 2753 981 2691 
L 994 2691 
Q 1053 2884 1120 3026 
Q 1188 3169 1278 3261 
Q 1369 3353 1494 3398 
Q 1619 3444 1797 3444 
Q 1866 3444 1928 3433 
Q 1991 3422 2025 3413 
L 2025 2897 
Q 1969 2913 1894 2920 
Q 1819 2928 1725 2928 
Q 1531 2928 1395 2840 
Q 1259 2753 1173 2598 
Q 1088 2444 1047 2230 
Q 1006 2016 1006 1763 
L 1006 0 
L 444 0 
z
" transform="scale(0.015625)"/>
        <path id="LiberationSans-67" d="M 1713 -1328 
Q 1422 -1328 1197 -1268 
Q 972 -1209 812 -1098 
Q 653 -988 553 -834 
Q 453 -681 409 -494 
L 975 -413 
Q 1031 -647 1223 -773 
Q 1416 -900 1728 -900 
Q 1919 -900 2075 -847 
Q 2231 -794 2340 -676 
Q 2450 -559 2509 -371 
Q 2569 -184 2569 84 
L 2569 628 
L 2563 628 
Q 2500 500 2408 383 
Q 2316 266 2183 175 
Q 2050 84 1875 29 
Q 1700 -25 1475 -25 
Q 1153 -25 923 83 
Q 694 191 548 406 
Q 403 622 336 942 
Q 269 1263 269 1684 
Q 269 2091 336 2416 
Q 403 2741 554 2967 
Q 706 3194 948 3314 
Q 1191 3434 1538 3434 
Q 1897 3434 2161 3270 
Q 2425 3106 2569 2803 
L 2575 2803 
Q 2575 2881 2579 2978 
Q 2584 3075 2589 3161 
Q 2594 3247 2600 3309 
Q 2606 3372 2613 3381 
L 3147 3381 
Q 3144 3353 3141 3286 
Q 3138 3219 3134 3125 
Q 3131 3031 3129 2917 
Q 3128 2803 3128 2681 
L 3128 97 
Q 3128 -613 2779 -970 
Q 2431 -1328 1713 -1328 
z
M 2569 1691 
Q 2569 2044 2492 2295 
Q 2416 2547 2291 2706 
Q 2166 2866 2005 2941 
Q 1844 3016 1675 3016 
Q 1459 3016 1304 2941 
Q 1150 2866 1048 2705 
Q 947 2544 898 2292 
Q 850 2041 850 1691 
Q 850 1325 898 1076 
Q 947 828 1047 675 
Q 1147 522 1300 456 
Q 1453 391 1666 391 
Q 1834 391 1995 462 
Q 2156 534 2284 690 
Q 2413 847 2491 1094 
Q 2569 1341 2569 1691 
z
" transform="scale(0.015625)"/>
        <path id="LiberationSans-65" d="M 863 1572 
Q 863 1306 917 1082 
Q 972 859 1086 698 
Q 1200 538 1378 448 
Q 1556 359 1806 359 
Q 2172 359 2392 506 
Q 2613 653 2691 878 
L 3184 738 
Q 3131 597 3036 455 
Q 2941 313 2781 198 
Q 2622 84 2383 10 
Q 2144 -63 1806 -63 
Q 1056 -63 664 384 
Q 272 831 272 1713 
Q 272 2188 390 2517 
Q 509 2847 715 3053 
Q 922 3259 1197 3351 
Q 1472 3444 1784 3444 
Q 2209 3444 2495 3306 
Q 2781 3169 2954 2926 
Q 3128 2684 3201 2356 
Q 3275 2028 3275 1647 
L 3275 1572 
L 863 1572 
z
M 2694 2003 
Q 2647 2538 2422 2783 
Q 2197 3028 1775 3028 
Q 1634 3028 1479 2983 
Q 1325 2938 1194 2822 
Q 1063 2706 972 2507 
Q 881 2309 869 2003 
L 2694 2003 
z
" transform="scale(0.015625)"/>
        <path id="LiberationSans-20" transform="scale(0.015625)"/>
        <path id="LiberationSans-63" d="M 859 1706 
Q 859 1416 901 1172 
Q 944 928 1044 751 
Q 1144 575 1308 478 
Q 1472 381 1713 381 
Q 2013 381 2214 543 
Q 2416 706 2463 1044 
L 3031 1006 
Q 3003 797 2909 603 
Q 2816 409 2655 262 
Q 2494 116 2262 26 
Q 2031 -63 1728 -63 
Q 1331 -63 1053 71 
Q 775 206 601 442 
Q 428 678 350 998 
Q 272 1319 272 1694 
Q 272 2034 328 2295 
Q 384 2556 486 2751 
Q 588 2947 725 3080 
Q 863 3213 1023 3292 
Q 1184 3372 1362 3408 
Q 1541 3444 1722 3444 
Q 2006 3444 2228 3366 
Q 2450 3288 2611 3152 
Q 2772 3016 2872 2831 
Q 2972 2647 3013 2434 
L 2434 2391 
Q 2391 2672 2212 2837 
Q 2034 3003 1706 3003 
Q 1466 3003 1305 2923 
Q 1144 2844 1044 2683 
Q 944 2522 901 2278 
Q 859 2034 859 1706 
z
" transform="scale(0.015625)"/>
        <path id="LiberationSans-69" d="M 428 4100 
L 428 4638 
L 991 4638 
L 991 4100 
L 428 4100 
z
M 428 0 
L 428 3381 
L 991 3381 
L 991 0 
L 428 0 
z
" transform="scale(0.015625)"/>
        <path id="LiberationSans-74" d="M 1731 25 
Q 1603 -9 1470 -29 
Q 1338 -50 1163 -50 
Q 488 -50 488 716 
L 488 2972 
L 97 2972 
L 97 3381 
L 509 3381 
L 675 4138 
L 1050 4138 
L 1050 3381 
L 1675 3381 
L 1675 2972 
L 1050 2972 
L 1050 838 
Q 1050 594 1129 495 
Q 1209 397 1406 397 
Q 1488 397 1564 409 
Q 1641 422 1731 441 
L 1731 25 
z
" transform="scale(0.015625)"/>
        <path id="LiberationSans-79" d="M 1888 0 
Q 1769 -306 1645 -551 
Q 1522 -797 1369 -970 
Q 1216 -1144 1028 -1236 
Q 841 -1328 597 -1328 
Q 491 -1328 400 -1322 
Q 309 -1316 209 -1294 
L 209 -872 
Q 269 -881 344 -886 
Q 419 -891 472 -891 
Q 719 -891 931 -706 
Q 1144 -522 1303 -119 
L 1356 16 
L 16 3381 
L 616 3381 
L 1328 1513 
Q 1359 1428 1407 1287 
Q 1456 1147 1504 1006 
Q 1553 866 1590 753 
Q 1628 641 1634 613 
Q 1644 647 1680 748 
Q 1716 850 1761 975 
Q 1806 1100 1853 1228 
Q 1900 1356 1931 1450 
L 2594 3381 
L 3188 3381 
L 1888 0 
z
" transform="scale(0.015625)"/>
       </defs>
       <use xlink:href="#LiberationSans-6c"/>
       <use xlink:href="#LiberationSans-61" x="22.216797"/>
       <use xlink:href="#LiberationSans-72" x="77.832031"/>
       <use xlink:href="#LiberationSans-67" x="111.132812"/>
       <use xlink:href="#LiberationSans-65" x="166.748047"/>
       <use xlink:href="#LiberationSans-20" x="222.363281"/>
       <use xlink:href="#LiberationSans-63" x="250.146484"/>
       <use xlink:href="#LiberationSans-69" x="300.146484"/>
       <use xlink:href="#LiberationSans-74" x="322.363281"/>
       <use xlink:href="#LiberationSans-79" x="350.146484"/>
      </g>
     </g>
    </g>
    <g id="xtick_2">
     <g id="line2d_2"/>
     <g id="text_2">
      <!-- medium city -->
      <g style="fill: #262626" transform="translate(121.507684 178.56) rotate(-90) scale(0.08 -0.08)">
       <defs>
        <path id="LiberationSans-6d" d="M 2400 0 
L 2400 2144 
Q 2400 2391 2369 2556 
Q 2338 2722 2264 2823 
Q 2191 2925 2072 2967 
Q 1953 3009 1781 3009 
Q 1603 3009 1459 2939 
Q 1316 2869 1214 2736 
Q 1113 2603 1058 2408 
Q 1003 2213 1003 1959 
L 1003 0 
L 444 0 
L 444 2659 
Q 444 2766 442 2883 
Q 441 3000 437 3104 
Q 434 3209 431 3284 
Q 428 3359 425 3381 
L 956 3381 
Q 959 3366 962 3297 
Q 966 3228 970 3139 
Q 975 3050 978 2958 
Q 981 2866 981 2803 
L 991 2803 
Q 1066 2950 1153 3069 
Q 1241 3188 1358 3270 
Q 1475 3353 1626 3398 
Q 1778 3444 1978 3444 
Q 2363 3444 2586 3291 
Q 2809 3138 2897 2803 
L 2906 2803 
Q 2981 2950 3075 3069 
Q 3169 3188 3294 3270 
Q 3419 3353 3575 3398 
Q 3731 3444 3931 3444 
Q 4188 3444 4373 3375 
Q 4559 3306 4678 3162 
Q 4797 3019 4853 2792 
Q 4909 2566 4909 2253 
L 4909 0 
L 4353 0 
L 4353 2144 
Q 4353 2391 4322 2556 
Q 4291 2722 4217 2823 
Q 4144 2925 4025 2967 
Q 3906 3009 3734 3009 
Q 3556 3009 3412 2942 
Q 3269 2875 3167 2744 
Q 3066 2613 3011 2416 
Q 2956 2219 2956 1959 
L 2956 0 
L 2400 0 
z
" transform="scale(0.015625)"/>
        <path id="LiberationSans-64" d="M 2566 544 
Q 2409 219 2151 78 
Q 1894 -63 1513 -63 
Q 872 -63 570 368 
Q 269 800 269 1675 
Q 269 3444 1513 3444 
Q 1897 3444 2153 3303 
Q 2409 3163 2566 2856 
L 2572 2856 
Q 2572 2888 2570 2955 
Q 2569 3022 2567 3095 
Q 2566 3169 2566 3234 
Q 2566 3300 2566 3328 
L 2566 4638 
L 3128 4638 
L 3128 697 
Q 3128 575 3129 462 
Q 3131 350 3134 256 
Q 3138 163 3141 95 
Q 3144 28 3147 0 
L 2609 0 
Q 2603 31 2598 89 
Q 2594 147 2589 222 
Q 2584 297 2581 380 
Q 2578 463 2578 544 
L 2566 544 
z
M 859 1694 
Q 859 1344 903 1094 
Q 947 844 1044 683 
Q 1141 522 1291 447 
Q 1441 372 1656 372 
Q 1878 372 2048 444 
Q 2219 516 2333 677 
Q 2447 838 2506 1097 
Q 2566 1356 2566 1731 
Q 2566 2091 2506 2339 
Q 2447 2588 2331 2741 
Q 2216 2894 2048 2961 
Q 1881 3028 1663 3028 
Q 1456 3028 1306 2956 
Q 1156 2884 1056 2725 
Q 956 2566 907 2311 
Q 859 2056 859 1694 
z
" transform="scale(0.015625)"/>
        <path id="LiberationSans-75" d="M 981 3381 
L 981 1238 
Q 981 991 1017 825 
Q 1053 659 1134 557 
Q 1216 456 1348 414 
Q 1481 372 1678 372 
Q 1878 372 2039 442 
Q 2200 513 2314 645 
Q 2428 778 2490 973 
Q 2553 1169 2553 1422 
L 2553 3381 
L 3116 3381 
L 3116 722 
Q 3116 616 3117 498 
Q 3119 381 3122 276 
Q 3125 172 3128 97 
Q 3131 22 3134 0 
L 2603 0 
Q 2600 16 2597 84 
Q 2594 153 2589 242 
Q 2584 331 2581 423 
Q 2578 516 2578 578 
L 2569 578 
Q 2488 431 2391 312 
Q 2294 194 2166 111 
Q 2038 28 1872 -17 
Q 1706 -63 1488 -63 
Q 1206 -63 1003 6 
Q 800 75 669 219 
Q 538 363 477 588 
Q 416 813 416 1128 
L 416 3381 
L 981 3381 
z
" transform="scale(0.015625)"/>
       </defs>
       <use xlink:href="#LiberationSans-6d"/>
       <use xlink:href="#LiberationSans-65" x="83.300781"/>
       <use xlink:href="#LiberationSans-64" x="138.916016"/>
       <use xlink:href="#LiberationSans-69" x="194.53125"/>
       <use xlink:href="#LiberationSans-75" x="216.748047"/>
       <use xlink:href="#LiberationSans-6d" x="272.363281"/>
       <use xlink:href="#LiberationSans-20" x="355.664062"/>
       <use xlink:href="#LiberationSans-63" x="383.447266"/>
       <use xlink:href="#LiberationSans-69" x="433.447266"/>
       <use xlink:href="#LiberationSans-74" x="455.664062"/>
       <use xlink:href="#LiberationSans-79" x="483.447266"/>
      </g>
     </g>
    </g>
    <g id="xtick_3">
     <g id="line2d_3"/>
     <g id="text_3">
      <!-- small city -->
      <g style="fill: #262626" transform="translate(171.675566 168.77625) rotate(-90) scale(0.08 -0.08)">
       <defs>
        <path id="LiberationSans-73" d="M 2969 934 
Q 2969 697 2876 511 
Q 2784 325 2609 198 
Q 2434 72 2179 4 
Q 1925 -63 1597 -63 
Q 1303 -63 1067 -17 
Q 831 28 653 128 
Q 475 228 354 392 
Q 234 556 178 794 
L 675 891 
Q 747 619 972 492 
Q 1197 366 1597 366 
Q 1778 366 1929 391 
Q 2081 416 2190 477 
Q 2300 538 2361 639 
Q 2422 741 2422 891 
Q 2422 1044 2350 1142 
Q 2278 1241 2150 1306 
Q 2022 1372 1839 1420 
Q 1656 1469 1438 1528 
Q 1234 1581 1034 1647 
Q 834 1713 673 1820 
Q 513 1928 413 2087 
Q 313 2247 313 2488 
Q 313 2950 642 3192 
Q 972 3434 1603 3434 
Q 2163 3434 2492 3237 
Q 2822 3041 2909 2606 
L 2403 2544 
Q 2375 2675 2300 2764 
Q 2225 2853 2119 2908 
Q 2013 2963 1880 2986 
Q 1747 3009 1603 3009 
Q 1222 3009 1040 2893 
Q 859 2778 859 2544 
Q 859 2406 926 2317 
Q 994 2228 1114 2167 
Q 1234 2106 1403 2061 
Q 1572 2016 1775 1966 
Q 1909 1931 2050 1892 
Q 2191 1853 2323 1798 
Q 2456 1744 2573 1670 
Q 2691 1597 2778 1494 
Q 2866 1391 2917 1253 
Q 2969 1116 2969 934 
z
" transform="scale(0.015625)"/>
       </defs>
       <use xlink:href="#LiberationSans-73"/>
       <use xlink:href="#LiberationSans-6d" x="50"/>
       <use xlink:href="#LiberationSans-61" x="133.300781"/>
       <use xlink:href="#LiberationSans-6c" x="188.916016"/>
       <use xlink:href="#LiberationSans-6c" x="211.132812"/>
       <use xlink:href="#LiberationSans-20" x="233.349609"/>
       <use xlink:href="#LiberationSans-63" x="261.132812"/>
       <use xlink:href="#LiberationSans-69" x="311.132812"/>
       <use xlink:href="#LiberationSans-74" x="333.349609"/>
       <use xlink:href="#LiberationSans-79" x="361.132812"/>
      </g>
     </g>
    </g>
    <g id="xtick_4">
     <g id="line2d_4"/>
     <g id="text_4">
      <!-- rural area -->
      <g style="fill: #262626" transform="translate(221.843449 170.12125) rotate(-90) scale(0.08 -0.08)">
       <use xlink:href="#LiberationSans-72"/>
       <use xlink:href="#LiberationSans-75" x="33.300781"/>
       <use xlink:href="#LiberationSans-72" x="88.916016"/>
       <use xlink:href="#LiberationSans-61" x="122.216797"/>
       <use xlink:href="#LiberationSans-6c" x="177.832031"/>
       <use xlink:href="#LiberationSans-20" x="200.048828"/>
       <use xlink:href="#LiberationSans-61" x="227.832031"/>
       <use xlink:href="#LiberationSans-72" x="283.447266"/>
       <use xlink:href="#LiberationSans-65" x="316.748047"/>
       <use xlink:href="#LiberationSans-61" x="372.363281"/>
      </g>
     </g>
    </g>
   </g>
   <g id="matplotlib.axis_2">
    <g id="ytick_1">
     <g id="line2d_5"/>
     <g id="text_5">
      <!-- 0 -->
      <g style="fill: #262626" transform="translate(34.512 133.93625) rotate(-90) scale(0.08 -0.08)">
       <defs>
        <path id="LiberationSans-30" d="M 3309 2203 
Q 3309 1569 3189 1136 
Q 3069 703 2861 436 
Q 2653 169 2372 53 
Q 2091 -63 1772 -63 
Q 1450 -63 1172 53 
Q 894 169 689 434 
Q 484 700 367 1133 
Q 250 1566 250 2203 
Q 250 2869 367 3305 
Q 484 3741 690 4000 
Q 897 4259 1178 4364 
Q 1459 4469 1791 4469 
Q 2106 4469 2382 4364 
Q 2659 4259 2865 4000 
Q 3072 3741 3190 3305 
Q 3309 2869 3309 2203 
z
M 2738 2203 
Q 2738 2728 2675 3076 
Q 2613 3425 2491 3633 
Q 2369 3841 2192 3927 
Q 2016 4013 1791 4013 
Q 1553 4013 1372 3925 
Q 1191 3838 1067 3630 
Q 944 3422 881 3073 
Q 819 2725 819 2203 
Q 819 1697 883 1350 
Q 947 1003 1070 792 
Q 1194 581 1372 489 
Q 1550 397 1778 397 
Q 2000 397 2178 489 
Q 2356 581 2479 792 
Q 2603 1003 2670 1350 
Q 2738 1697 2738 2203 
z
" transform="scale(0.015625)"/>
       </defs>
       <use xlink:href="#LiberationSans-30"/>
      </g>
     </g>
    </g>
    <g id="ytick_2">
     <g id="line2d_6"/>
     <g id="text_6">
      <!-- 5 -->
      <g style="fill: #262626" transform="translate(34.512 109.766872) rotate(-90) scale(0.08 -0.08)">
       <defs>
        <path id="LiberationSans-35" d="M 3291 1434 
Q 3291 1103 3191 828 
Q 3091 553 2894 354 
Q 2697 156 2405 46 
Q 2113 -63 1728 -63 
Q 1381 -63 1123 18 
Q 866 100 687 242 
Q 509 384 404 575 
Q 300 766 256 984 
L 825 1050 
Q 859 925 921 808 
Q 984 691 1092 598 
Q 1200 506 1358 451 
Q 1516 397 1741 397 
Q 1959 397 2137 464 
Q 2316 531 2442 662 
Q 2569 794 2637 984 
Q 2706 1175 2706 1422 
Q 2706 1625 2640 1795 
Q 2575 1966 2453 2089 
Q 2331 2213 2154 2281 
Q 1978 2350 1753 2350 
Q 1613 2350 1494 2325 
Q 1375 2300 1273 2256 
Q 1172 2213 1089 2155 
Q 1006 2097 934 2034 
L 384 2034 
L 531 4403 
L 3034 4403 
L 3034 3925 
L 1044 3925 
L 959 2528 
Q 1109 2644 1334 2726 
Q 1559 2809 1869 2809 
Q 2197 2809 2459 2709 
Q 2722 2609 2906 2426 
Q 3091 2244 3191 1991 
Q 3291 1738 3291 1434 
z
" transform="scale(0.015625)"/>
       </defs>
       <use xlink:href="#LiberationSans-35"/>
      </g>
     </g>
    </g>
    <g id="ytick_3">
     <g id="line2d_7"/>
     <g id="text_7">
      <!-- 10 -->
      <g style="fill: #262626" transform="translate(34.512 90.046243) rotate(-90) scale(0.08 -0.08)">
       <defs>
        <path id="LiberationSans-31" d="M 488 0 
L 488 478 
L 1609 478 
L 1609 3866 
L 616 3156 
L 616 3688 
L 1656 4403 
L 2175 4403 
L 2175 478 
L 3247 478 
L 3247 0 
L 488 0 
z
" transform="scale(0.015625)"/>
       </defs>
       <use xlink:href="#LiberationSans-31"/>
       <use xlink:href="#LiberationSans-30" x="55.615234"/>
      </g>
     </g>
    </g>
    <g id="ytick_4">
     <g id="line2d_8"/>
     <g id="text_8">
      <!-- 15 -->
      <g style="fill: #262626" transform="translate(34.512 65.876865) rotate(-90) scale(0.08 -0.08)">
       <use xlink:href="#LiberationSans-31"/>
       <use xlink:href="#LiberationSans-35" x="55.615234"/>
      </g>
     </g>
    </g>
    <g id="ytick_5">
     <g id="line2d_9"/>
     <g id="text_9">
      <!-- 20 -->
      <g style="fill: #262626" transform="translate(34.512 41.707486) rotate(-90) scale(0.08 -0.08)">
       <defs>
        <path id="LiberationSans-32" d="M 322 0 
L 322 397 
Q 481 763 711 1042 
Q 941 1322 1194 1548 
Q 1447 1775 1695 1969 
Q 1944 2163 2144 2356 
Q 2344 2550 2467 2762 
Q 2591 2975 2591 3244 
Q 2591 3431 2534 3573 
Q 2478 3716 2372 3812 
Q 2266 3909 2117 3957 
Q 1969 4006 1788 4006 
Q 1619 4006 1470 3959 
Q 1322 3913 1206 3819 
Q 1091 3725 1017 3586 
Q 944 3447 922 3263 
L 347 3316 
Q 375 3553 478 3762 
Q 581 3972 762 4130 
Q 944 4288 1198 4378 
Q 1453 4469 1788 4469 
Q 2116 4469 2372 4391 
Q 2628 4313 2804 4159 
Q 2981 4006 3075 3781 
Q 3169 3556 3169 3263 
Q 3169 3041 3089 2841 
Q 3009 2641 2876 2459 
Q 2744 2278 2569 2109 
Q 2394 1941 2203 1780 
Q 2013 1619 1819 1461 
Q 1625 1303 1454 1143 
Q 1284 984 1150 820 
Q 1016 656 941 478 
L 3238 478 
L 3238 0 
L 322 0 
z
" transform="scale(0.015625)"/>
       </defs>
       <use xlink:href="#LiberationSans-32"/>
       <use xlink:href="#LiberationSans-30" x="55.615234"/>
      </g>
     </g>
    </g>
    <g id="ytick_6">
     <g id="line2d_10"/>
     <g id="text_10">
      <!-- 25 -->
      <g style="fill: #262626" transform="translate(34.512 17.538108) rotate(-90) scale(0.08 -0.08)">
       <use xlink:href="#LiberationSans-32"/>
       <use xlink:href="#LiberationSans-35" x="55.615234"/>
      </g>
     </g>
    </g>
    <g id="text_11">
     <!-- Occupational industry types -->
     <g style="fill: #262626" transform="translate(14.4375 119.730621) rotate(-90) scale(0.08 -0.08)">
      <defs>
       <path id="LiberationSans-4f" d="M 4672 2222 
Q 4672 1706 4523 1284 
Q 4375 863 4094 563 
Q 3813 263 3406 100 
Q 3000 -63 2484 -63 
Q 1941 -63 1531 107 
Q 1122 278 850 583 
Q 578 888 440 1306 
Q 303 1725 303 2222 
Q 303 2738 447 3153 
Q 591 3569 869 3861 
Q 1147 4153 1555 4311 
Q 1963 4469 2491 4469 
Q 3016 4469 3423 4309 
Q 3831 4150 4107 3856 
Q 4384 3563 4528 3147 
Q 4672 2731 4672 2222 
z
M 4063 2222 
Q 4063 2619 3961 2944 
Q 3859 3269 3661 3500 
Q 3463 3731 3169 3856 
Q 2875 3981 2491 3981 
Q 2097 3981 1800 3856 
Q 1503 3731 1304 3500 
Q 1106 3269 1007 2944 
Q 909 2619 909 2222 
Q 909 1825 1011 1495 
Q 1113 1166 1311 927 
Q 1509 688 1804 555 
Q 2100 422 2484 422 
Q 2897 422 3195 556 
Q 3494 691 3686 930 
Q 3878 1169 3970 1500 
Q 4063 1831 4063 2222 
z
" transform="scale(0.015625)"/>
       <path id="LiberationSans-70" d="M 3291 1706 
Q 3291 1322 3228 997 
Q 3166 672 3020 437 
Q 2875 203 2636 70 
Q 2397 -63 2047 -63 
Q 1684 -63 1412 75 
Q 1141 213 997 525 
L 981 525 
Q 984 519 986 469 
Q 988 419 989 344 
Q 991 269 992 176 
Q 994 84 994 -6 
L 994 -1328 
L 431 -1328 
L 431 2691 
Q 431 2813 429 2925 
Q 428 3038 425 3130 
Q 422 3222 419 3287 
Q 416 3353 413 3381 
L 956 3381 
Q 959 3372 964 3315 
Q 969 3259 973 3179 
Q 978 3100 983 3009 
Q 988 2919 988 2838 
L 1000 2838 
Q 1078 3000 1178 3114 
Q 1278 3228 1406 3301 
Q 1534 3375 1692 3408 
Q 1850 3441 2047 3441 
Q 2397 3441 2636 3316 
Q 2875 3191 3020 2964 
Q 3166 2738 3228 2417 
Q 3291 2097 3291 1706 
z
M 2700 1694 
Q 2700 2006 2662 2250 
Q 2625 2494 2533 2662 
Q 2441 2831 2287 2918 
Q 2134 3006 1903 3006 
Q 1716 3006 1550 2953 
Q 1384 2900 1261 2750 
Q 1138 2600 1066 2336 
Q 994 2072 994 1650 
Q 994 1291 1053 1042 
Q 1113 794 1227 641 
Q 1341 488 1509 420 
Q 1678 353 1897 353 
Q 2131 353 2286 443 
Q 2441 534 2533 706 
Q 2625 878 2662 1126 
Q 2700 1375 2700 1694 
z
" transform="scale(0.015625)"/>
       <path id="LiberationSans-6f" d="M 3291 1694 
Q 3291 806 2900 371 
Q 2509 -63 1766 -63 
Q 1413 -63 1134 43 
Q 856 150 664 369 
Q 472 588 370 917 
Q 269 1247 269 1694 
Q 269 3444 1784 3444 
Q 2178 3444 2464 3334 
Q 2750 3225 2933 3006 
Q 3116 2788 3203 2459 
Q 3291 2131 3291 1694 
z
M 2700 1694 
Q 2700 2088 2639 2344 
Q 2578 2600 2461 2753 
Q 2344 2906 2175 2967 
Q 2006 3028 1794 3028 
Q 1578 3028 1404 2964 
Q 1231 2900 1109 2745 
Q 988 2591 923 2334 
Q 859 2078 859 1694 
Q 859 1300 928 1042 
Q 997 784 1117 631 
Q 1238 478 1402 415 
Q 1566 353 1759 353 
Q 1975 353 2150 414 
Q 2325 475 2447 628 
Q 2569 781 2634 1040 
Q 2700 1300 2700 1694 
z
" transform="scale(0.015625)"/>
       <path id="LiberationSans-6e" d="M 2578 0 
L 2578 2144 
Q 2578 2391 2542 2556 
Q 2506 2722 2425 2823 
Q 2344 2925 2211 2967 
Q 2078 3009 1881 3009 
Q 1681 3009 1520 2939 
Q 1359 2869 1245 2736 
Q 1131 2603 1068 2408 
Q 1006 2213 1006 1959 
L 1006 0 
L 444 0 
L 444 2659 
Q 444 2766 442 2883 
Q 441 3000 437 3104 
Q 434 3209 431 3284 
Q 428 3359 425 3381 
L 956 3381 
Q 959 3366 962 3297 
Q 966 3228 970 3139 
Q 975 3050 978 2958 
Q 981 2866 981 2803 
L 991 2803 
Q 1072 2950 1169 3069 
Q 1266 3188 1394 3270 
Q 1522 3353 1687 3398 
Q 1853 3444 2072 3444 
Q 2353 3444 2556 3375 
Q 2759 3306 2890 3162 
Q 3022 3019 3083 2792 
Q 3144 2566 3144 2253 
L 3144 0 
L 2578 0 
z
" transform="scale(0.015625)"/>
      </defs>
      <use xlink:href="#LiberationSans-4f"/>
      <use xlink:href="#LiberationSans-63" x="77.783203"/>
      <use xlink:href="#LiberationSans-63" x="127.783203"/>
      <use xlink:href="#LiberationSans-75" x="177.783203"/>
      <use xlink:href="#LiberationSans-70" x="233.398438"/>
      <use xlink:href="#LiberationSans-61" x="289.013672"/>
      <use xlink:href="#LiberationSans-74" x="344.628906"/>
      <use xlink:href="#LiberationSans-69" x="372.412109"/>
      <use xlink:href="#LiberationSans-6f" x="394.628906"/>
      <use xlink:href="#LiberationSans-6e" x="450.244141"/>
      <use xlink:href="#LiberationSans-61" x="505.859375"/>
      <use xlink:href="#LiberationSans-6c" x="561.474609"/>
      <use xlink:href="#LiberationSans-20" x="583.691406"/>
      <use xlink:href="#LiberationSans-69" x="611.474609"/>
      <use xlink:href="#LiberationSans-6e" x="633.691406"/>
      <use xlink:href="#LiberationSans-64" x="689.306641"/>
      <use xlink:href="#LiberationSans-75" x="744.921875"/>
      <use xlink:href="#LiberationSans-73" x="800.537109"/>
      <use xlink:href="#LiberationSans-74" x="850.537109"/>
      <use xlink:href="#LiberationSans-72" x="878.320312"/>
      <use xlink:href="#LiberationSans-79" x="911.621094"/>
      <use xlink:href="#LiberationSans-20" x="961.621094"/>
      <use xlink:href="#LiberationSans-74" x="989.404297"/>
      <use xlink:href="#LiberationSans-79" x="1017.1875"/>
      <use xlink:href="#LiberationSans-70" x="1067.1875"/>
      <use xlink:href="#LiberationSans-65" x="1122.802734"/>
      <use xlink:href="#LiberationSans-73" x="1178.417969"/>
     </g>
     <!-- per 1,000 inscriptions -->
     <g style="fill: #262626" transform="translate(23.0545 108.615621) rotate(-90) scale(0.08 -0.08)">
      <defs>
       <path id="LiberationSans-2c" d="M 1203 684 
L 1203 159 
Q 1203 -6 1189 -142 
Q 1175 -278 1144 -395 
Q 1113 -513 1067 -616 
Q 1022 -719 959 -819 
L 575 -819 
Q 716 -616 792 -409 
Q 869 -203 869 0 
L 594 0 
L 594 684 
L 1203 684 
z
" transform="scale(0.015625)"/>
      </defs>
      <use xlink:href="#LiberationSans-70"/>
      <use xlink:href="#LiberationSans-65" x="55.615234"/>
      <use xlink:href="#LiberationSans-72" x="111.230469"/>
      <use xlink:href="#LiberationSans-20" x="144.53125"/>
      <use xlink:href="#LiberationSans-31" x="172.314453"/>
      <use xlink:href="#LiberationSans-2c" x="227.929688"/>
      <use xlink:href="#LiberationSans-30" x="255.712891"/>
      <use xlink:href="#LiberationSans-30" x="311.328125"/>
      <use xlink:href="#LiberationSans-30" x="366.943359"/>
      <use xlink:href="#LiberationSans-20" x="422.558594"/>
      <use xlink:href="#LiberationSans-69" x="450.341797"/>
      <use xlink:href="#LiberationSans-6e" x="472.558594"/>
      <use xlink:href="#LiberationSans-73" x="528.173828"/>
      <use xlink:href="#LiberationSans-63" x="578.173828"/>
      <use xlink:href="#LiberationSans-72" x="628.173828"/>
      <use xlink:href="#LiberationSans-69" x="661.474609"/>
      <use xlink:href="#LiberationSans-70" x="683.691406"/>
      <use xlink:href="#LiberationSans-74" x="739.306641"/>
      <use xlink:href="#LiberationSans-69" x="767.089844"/>
      <use xlink:href="#LiberationSans-6f" x="789.306641"/>
      <use xlink:href="#LiberationSans-6e" x="844.921875"/>
      <use xlink:href="#LiberationSans-73" x="900.537109"/>
     </g>
    </g>
   </g>
   <g id="patch_3">
    <path d="M 49.203898 132.38625 
L 89.338204 132.38625 
L 89.338204 110.911533 
L 49.203898 110.911533 
z
" clip-path="url(#p487fe56e80)" style="fill: #1f77b4"/>
   </g>
   <g id="patch_4">
    <path d="M 99.371781 132.38625 
L 139.506087 132.38625 
L 139.506087 113.077228 
L 99.371781 113.077228 
z
" clip-path="url(#p487fe56e80)" style="fill: #1f77b4"/>
   </g>
   <g id="patch_5">
    <path d="M 149.539663 132.38625 
L 189.673969 132.38625 
L 189.673969 96.574054 
L 149.539663 96.574054 
z
" clip-path="url(#p487fe56e80)" style="fill: #1f77b4"/>
   </g>
   <g id="patch_6">
    <path d="M 199.707546 132.38625 
L 239.841852 132.38625 
L 239.841852 120.720245 
L 199.707546 120.720245 
z
" clip-path="url(#p487fe56e80)" style="fill: #1f77b4"/>
   </g>
   <g id="patch_7">
    <path d="M 49.203898 110.911533 
L 89.338204 110.911533 
L 89.338204 90.515173 
L 49.203898 90.515173 
z
" clip-path="url(#p487fe56e80)" style="fill: #ff7f0e"/>
   </g>
   <g id="patch_8">
    <path d="M 99.371781 113.077228 
L 139.506087 113.077228 
L 139.506087 100.976908 
L 99.371781 100.976908 
z
" clip-path="url(#p487fe56e80)" style="fill: #ff7f0e"/>
   </g>
   <g id="patch_9">
    <path d="M 149.539663 96.574054 
L 189.673969 96.574054 
L 189.673969 86.435171 
L 149.539663 86.435171 
z
" clip-path="url(#p487fe56e80)" style="fill: #ff7f0e"/>
   </g>
   <g id="patch_10">
    <path d="M 199.707546 120.720245 
L 239.841852 120.720245 
L 239.841852 113.33971 
L 199.707546 113.33971 
z
" clip-path="url(#p487fe56e80)" style="fill: #ff7f0e"/>
   </g>
   <g id="patch_11">
    <path d="M 49.203898 90.515173 
L 89.338204 90.515173 
L 89.338204 76.558147 
L 49.203898 76.558147 
z
" clip-path="url(#p487fe56e80)" style="fill: #2ca02c"/>
   </g>
   <g id="patch_12">
    <path d="M 99.371781 100.976908 
L 139.506087 100.976908 
L 139.506087 93.179741 
L 99.371781 93.179741 
z
" clip-path="url(#p487fe56e80)" style="fill: #2ca02c"/>
   </g>
   <g id="patch_13">
    <path d="M 149.539663 86.435171 
L 189.673969 86.435171 
L 189.673969 74.932578 
L 149.539663 74.932578 
z
" clip-path="url(#p487fe56e80)" style="fill: #2ca02c"/>
   </g>
   <g id="patch_14">
    <path d="M 199.707546 113.33971 
L 239.841852 113.33971 
L 239.841852 105.551036 
L 199.707546 105.551036 
z
" clip-path="url(#p487fe56e80)" style="fill: #2ca02c"/>
   </g>
   <g id="patch_15">
    <path d="M 49.203898 76.558147 
L 89.338204 76.558147 
L 89.338204 64.049201 
L 49.203898 64.049201 
z
" clip-path="url(#p487fe56e80)" style="fill: #d62728"/>
   </g>
   <g id="patch_16">
    <path d="M 99.371781 93.179741 
L 139.506087 93.179741 
L 139.506087 85.419353 
L 99.371781 85.419353 
z
" clip-path="url(#p487fe56e80)" style="fill: #d62728"/>
   </g>
   <g id="patch_17">
    <path d="M 149.539663 74.932578 
L 189.673969 74.932578 
L 189.673969 69.714907 
L 149.539663 69.714907 
z
" clip-path="url(#p487fe56e80)" style="fill: #d62728"/>
   </g>
   <g id="patch_18">
    <path d="M 199.707546 105.551036 
L 239.841852 105.551036 
L 239.841852 101.809752 
L 199.707546 101.809752 
z
" clip-path="url(#p487fe56e80)" style="fill: #d62728"/>
   </g>
   <g id="patch_19">
    <path d="M 49.203898 64.049201 
L 89.338204 64.049201 
L 89.338204 53.388868 
L 49.203898 53.388868 
z
" clip-path="url(#p487fe56e80)" style="fill: #9467bd"/>
   </g>
   <g id="patch_20">
    <path d="M 99.371781 85.419353 
L 139.506087 85.419353 
L 139.506087 80.086385 
L 99.371781 80.086385 
z
" clip-path="url(#p487fe56e80)" style="fill: #9467bd"/>
   </g>
   <g id="patch_21">
    <path d="M 149.539663 69.714907 
L 189.673969 69.714907 
L 189.673969 60.524691 
L 149.539663 60.524691 
z
" clip-path="url(#p487fe56e80)" style="fill: #9467bd"/>
   </g>
   <g id="patch_22">
    <path d="M 199.707546 101.809752 
L 239.841852 101.809752 
L 239.841852 98.238526 
L 199.707546 98.238526 
z
" clip-path="url(#p487fe56e80)" style="fill: #9467bd"/>
   </g>
   <g id="patch_23">
    <path d="M 49.203898 53.388868 
L 89.338204 53.388868 
L 89.338204 43.868513 
L 49.203898 43.868513 
z
" clip-path="url(#p487fe56e80)" style="fill: #8c564b"/>
   </g>
   <g id="patch_24">
    <path d="M 99.371781 80.086385 
L 139.506087 80.086385 
L 139.506087 75.893569 
L 99.371781 75.893569 
z
" clip-path="url(#p487fe56e80)" style="fill: #8c564b"/>
   </g>
   <g id="patch_25">
    <path d="M 149.539663 60.524691 
L 189.673969 60.524691 
L 189.673969 60.524691 
L 149.539663 60.524691 
z
" clip-path="url(#p487fe56e80)" style="fill: #8c564b"/>
   </g>
   <g id="patch_26">
    <path d="M 199.707546 98.238526 
L 239.841852 98.238526 
L 239.841852 96.50393 
L 199.707546 96.50393 
z
" clip-path="url(#p487fe56e80)" style="fill: #8c564b"/>
   </g>
   <g id="patch_27">
    <path d="M 49.203898 43.868513 
L 89.338204 43.868513 
L 89.338204 36.658923 
L 49.203898 36.658923 
z
" clip-path="url(#p487fe56e80)" style="fill: #e377c2"/>
   </g>
   <g id="patch_28">
    <path d="M 99.371781 75.893569 
L 139.506087 75.893569 
L 139.506087 72.914463 
L 99.371781 72.914463 
z
" clip-path="url(#p487fe56e80)" style="fill: #e377c2"/>
   </g>
   <g id="patch_29">
    <path d="M 149.539663 60.524691 
L 189.673969 60.524691 
L 189.673969 54.476936 
L 149.539663 54.476936 
z
" clip-path="url(#p487fe56e80)" style="fill: #e377c2"/>
   </g>
   <g id="patch_30">
    <path d="M 199.707546 96.50393 
L 239.841852 96.50393 
L 239.841852 94.633288 
L 199.707546 94.633288 
z
" clip-path="url(#p487fe56e80)" style="fill: #e377c2"/>
   </g>
   <g id="patch_31">
    <path d="M 49.203898 36.658923 
L 89.338204 36.658923 
L 89.338204 29.541764 
L 49.203898 29.541764 
z
" clip-path="url(#p487fe56e80)" style="fill: #7f7f7f"/>
   </g>
   <g id="patch_32">
    <path d="M 99.371781 72.914463 
L 139.506087 72.914463 
L 139.506087 67.838949 
L 99.371781 67.838949 
z
" clip-path="url(#p487fe56e80)" style="fill: #7f7f7f"/>
   </g>
   <g id="patch_33">
    <path d="M 149.539663 54.476936 
L 189.673969 54.476936 
L 189.673969 45.168137 
L 149.539663 45.168137 
z
" clip-path="url(#p487fe56e80)" style="fill: #7f7f7f"/>
   </g>
   <g id="patch_34">
    <path d="M 199.707546 94.633288 
L 239.841852 94.633288 
L 239.841852 91.368167 
L 199.707546 91.368167 
z
" clip-path="url(#p487fe56e80)" style="fill: #7f7f7f"/>
   </g>
   <g id="patch_35">
    <path d="M 49.203898 29.541764 
L 89.338204 29.541764 
L 89.338204 23.995926 
L 49.203898 23.995926 
z
" clip-path="url(#p487fe56e80)" style="fill: #bcbd22"/>
   </g>
   <g id="patch_36">
    <path d="M 99.371781 67.838949 
L 139.506087 67.838949 
L 139.506087 67.838949 
L 99.371781 67.838949 
z
" clip-path="url(#p487fe56e80)" style="fill: #bcbd22"/>
   </g>
   <g id="patch_37">
    <path d="M 149.539663 45.168137 
L 189.673969 45.168137 
L 189.673969 40.958425 
L 149.539663 40.958425 
z
" clip-path="url(#p487fe56e80)" style="fill: #bcbd22"/>
   </g>
   <g id="patch_38">
    <path d="M 199.707546 91.368167 
L 239.841852 91.368167 
L 239.841852 91.368167 
L 199.707546 91.368167 
z
" clip-path="url(#p487fe56e80)" style="fill: #bcbd22"/>
   </g>
   <g id="patch_39">
    <path d="M 49.203898 23.995926 
L 89.338204 23.995926 
L 89.338204 23.995926 
L 49.203898 23.995926 
z
" clip-path="url(#p487fe56e80)" style="fill: #17becf"/>
   </g>
   <g id="patch_40">
    <path d="M 99.371781 67.838949 
L 139.506087 67.838949 
L 139.506087 60.667026 
L 99.371781 60.667026 
z
" clip-path="url(#p487fe56e80)" style="fill: #17becf"/>
   </g>
   <g id="patch_41">
    <path d="M 149.539663 40.958425 
L 189.673969 40.958425 
L 189.673969 34.969962 
L 149.539663 34.969962 
z
" clip-path="url(#p487fe56e80)" style="fill: #17becf"/>
   </g>
   <g id="patch_42">
    <path d="M 199.707546 91.368167 
L 239.841852 91.368167 
L 239.841852 88.919326 
L 199.707546 88.919326 
z
" clip-path="url(#p487fe56e80)" style="fill: #17becf"/>
   </g>
   <g id="patch_43">
    <path d="M 49.203898 23.995926 
L 89.338204 23.995926 
L 89.338204 19.651687 
L 49.203898 19.651687 
z
" clip-path="url(#p487fe56e80)" style="fill: #d3d3d3"/>
   </g>
   <g id="patch_44">
    <path d="M 99.371781 60.667026 
L 139.506087 60.667026 
L 139.506087 49.302288 
L 99.371781 49.302288 
z
" clip-path="url(#p487fe56e80)" style="fill: #d3d3d3"/>
   </g>
   <g id="patch_45">
    <path d="M 149.539663 34.969962 
L 189.673969 34.969962 
L 189.673969 14.692195 
L 149.539663 14.692195 
z
" clip-path="url(#p487fe56e80)" style="fill: #d3d3d3"/>
   </g>
   <g id="patch_46">
    <path d="M 199.707546 88.919326 
L 239.841852 88.919326 
L 239.841852 83.103329 
L 199.707546 83.103329 
z
" clip-path="url(#p487fe56e80)" style="fill: #d3d3d3"/>
   </g>
   <g id="patch_47">
    <path d="M 39.672 132.38625 
L 39.672 8.807492 
" style="fill: none; stroke: #262626; stroke-width: 1.25; stroke-linejoin: miter; stroke-linecap: square"/>
   </g>
   <g id="patch_48">
    <path d="M 249.37375 132.38625 
L 249.37375 8.807492 
" style="fill: none; stroke: #262626; stroke-width: 1.25; stroke-linejoin: miter; stroke-linecap: square"/>
   </g>
   <g id="patch_49">
    <path d="M 39.672 132.38625 
L 249.37375 132.38625 
" style="fill: none; stroke: #262626; stroke-width: 1.25; stroke-linejoin: miter; stroke-linecap: square"/>
   </g>
   <g id="patch_50">
    <path d="M 39.672 8.807492 
L 249.37375 8.807492 
" style="fill: none; stroke: #262626; stroke-width: 1.25; stroke-linejoin: miter; stroke-linecap: square"/>
   </g>
   <g id="legend_1">
    <g id="text_12">
     <!-- Industry type (Harris 2001) -->
     <g style="fill: #262626" transform="translate(262.21875 21.804992) scale(0.08 -0.08)">
      <defs>
       <path id="LiberationSans-49" d="M 591 0 
L 591 4403 
L 1188 4403 
L 1188 0 
L 591 0 
z
" transform="scale(0.015625)"/>
       <path id="LiberationSans-28" d="M 397 1663 
Q 397 2097 462 2494 
Q 528 2891 668 3256 
Q 809 3622 1028 3965 
Q 1247 4309 1550 4638 
L 2094 4638 
Q 1800 4309 1586 3964 
Q 1372 3619 1234 3251 
Q 1097 2884 1030 2487 
Q 963 2091 963 1656 
Q 963 1222 1030 825 
Q 1097 428 1234 59 
Q 1372 -309 1586 -653 
Q 1800 -997 2094 -1325 
L 1550 -1325 
Q 1247 -997 1028 -653 
Q 809 -309 668 56 
Q 528 422 462 817 
Q 397 1213 397 1650 
L 397 1663 
z
" transform="scale(0.015625)"/>
       <path id="LiberationSans-48" d="M 3503 0 
L 3503 2041 
L 1122 2041 
L 1122 0 
L 525 0 
L 525 4403 
L 1122 4403 
L 1122 2541 
L 3503 2541 
L 3503 4403 
L 4100 4403 
L 4100 0 
L 3503 0 
z
" transform="scale(0.015625)"/>
       <path id="LiberationSans-29" d="M 1734 1650 
Q 1734 1213 1668 817 
Q 1603 422 1462 56 
Q 1322 -309 1103 -653 
Q 884 -997 581 -1325 
L 38 -1325 
Q 331 -997 545 -653 
Q 759 -309 896 59 
Q 1034 428 1101 825 
Q 1169 1222 1169 1656 
Q 1169 2091 1101 2487 
Q 1034 2884 896 3251 
Q 759 3619 545 3964 
Q 331 4309 38 4638 
L 581 4638 
Q 884 4309 1103 3965 
Q 1322 3622 1462 3256 
Q 1603 2891 1668 2494 
Q 1734 2097 1734 1663 
L 1734 1650 
z
" transform="scale(0.015625)"/>
      </defs>
      <use xlink:href="#LiberationSans-49"/>
      <use xlink:href="#LiberationSans-6e" x="27.783203"/>
      <use xlink:href="#LiberationSans-64" x="83.398438"/>
      <use xlink:href="#LiberationSans-75" x="139.013672"/>
      <use xlink:href="#LiberationSans-73" x="194.628906"/>
      <use xlink:href="#LiberationSans-74" x="244.628906"/>
      <use xlink:href="#LiberationSans-72" x="272.412109"/>
      <use xlink:href="#LiberationSans-79" x="305.712891"/>
      <use xlink:href="#LiberationSans-20" x="355.712891"/>
      <use xlink:href="#LiberationSans-74" x="383.496094"/>
      <use xlink:href="#LiberationSans-79" x="411.279297"/>
      <use xlink:href="#LiberationSans-70" x="461.279297"/>
      <use xlink:href="#LiberationSans-65" x="516.894531"/>
      <use xlink:href="#LiberationSans-20" x="572.509766"/>
      <use xlink:href="#LiberationSans-28" x="600.292969"/>
      <use xlink:href="#LiberationSans-48" x="633.59375"/>
      <use xlink:href="#LiberationSans-61" x="705.810547"/>
      <use xlink:href="#LiberationSans-72" x="761.425781"/>
      <use xlink:href="#LiberationSans-72" x="794.726562"/>
      <use xlink:href="#LiberationSans-69" x="828.027344"/>
      <use xlink:href="#LiberationSans-73" x="850.244141"/>
      <use xlink:href="#LiberationSans-20" x="900.244141"/>
      <use xlink:href="#LiberationSans-32" x="928.027344"/>
      <use xlink:href="#LiberationSans-30" x="983.642578"/>
      <use xlink:href="#LiberationSans-30" x="1039.257812"/>
      <use xlink:href="#LiberationSans-31" x="1094.873047"/>
      <use xlink:href="#LiberationSans-29" x="1150.488281"/>
     </g>
    </g>
    <g id="patch_51">
     <path d="M 256.57375 33.262492 
L 272.57375 33.262492 
L 272.57375 27.662492 
L 256.57375 27.662492 
z
" style="fill: #1f77b4"/>
    </g>
    <g id="text_13">
     <!-- Managerial -->
     <g style="fill: #262626" transform="translate(278.97375 33.262492) scale(0.08 -0.08)">
      <defs>
       <path id="LiberationSans-4d" d="M 4269 0 
L 4269 2938 
Q 4269 3097 4272 3262 
Q 4275 3428 4281 3566 
Q 4288 3725 4297 3875 
Q 4253 3716 4206 3559 
Q 4166 3425 4117 3273 
Q 4069 3122 4022 3000 
L 2884 0 
L 2466 0 
L 1313 3000 
Q 1294 3047 1273 3109 
Q 1253 3172 1229 3242 
Q 1206 3313 1182 3386 
Q 1159 3459 1138 3531 
Q 1084 3697 1034 3875 
Q 1038 3700 1044 3528 
Q 1050 3381 1053 3220 
Q 1056 3059 1056 2938 
L 1056 0 
L 525 0 
L 525 4403 
L 1309 4403 
L 2481 1350 
Q 2503 1288 2534 1189 
Q 2566 1091 2594 987 
Q 2622 884 2645 792 
Q 2669 700 2678 650 
Q 2688 700 2713 794 
Q 2738 888 2770 991 
Q 2803 1094 2834 1191 
Q 2866 1288 2891 1350 
L 4041 4403 
L 4806 4403 
L 4806 0 
L 4269 0 
z
" transform="scale(0.015625)"/>
      </defs>
      <use xlink:href="#LiberationSans-4d"/>
      <use xlink:href="#LiberationSans-61" x="83.300781"/>
      <use xlink:href="#LiberationSans-6e" x="138.916016"/>
      <use xlink:href="#LiberationSans-61" x="194.53125"/>
      <use xlink:href="#LiberationSans-67" x="250.146484"/>
      <use xlink:href="#LiberationSans-65" x="305.761719"/>
      <use xlink:href="#LiberationSans-72" x="361.376953"/>
      <use xlink:href="#LiberationSans-69" x="394.677734"/>
      <use xlink:href="#LiberationSans-61" x="416.894531"/>
      <use xlink:href="#LiberationSans-6c" x="472.509766"/>
     </g>
    </g>
    <g id="patch_52">
     <path d="M 256.57375 44.719992 
L 272.57375 44.719992 
L 272.57375 39.119992 
L 256.57375 39.119992 
z
" style="fill: #ff7f0e"/>
    </g>
    <g id="text_14">
     <!-- Miscellaneous Services -->
     <g style="fill: #262626" transform="translate(278.97375 44.719992) scale(0.08 -0.08)">
      <defs>
       <path id="LiberationSans-53" d="M 3975 1216 
Q 3975 938 3867 703 
Q 3759 469 3534 298 
Q 3309 128 2967 32 
Q 2625 -63 2156 -63 
Q 1334 -63 875 225 
Q 416 513 291 1056 
L 869 1172 
Q 913 1000 1003 859 
Q 1094 719 1248 617 
Q 1403 516 1631 459 
Q 1859 403 2178 403 
Q 2444 403 2666 448 
Q 2888 494 3047 587 
Q 3206 681 3295 829 
Q 3384 978 3384 1184 
Q 3384 1400 3286 1534 
Q 3188 1669 3009 1756 
Q 2831 1844 2584 1903 
Q 2338 1963 2038 2031 
Q 1853 2072 1667 2120 
Q 1481 2169 1311 2236 
Q 1141 2303 991 2393 
Q 841 2484 731 2611 
Q 622 2738 559 2905 
Q 497 3072 497 3291 
Q 497 3603 623 3826 
Q 750 4050 975 4194 
Q 1200 4338 1506 4403 
Q 1813 4469 2169 4469 
Q 2578 4469 2868 4405 
Q 3159 4341 3359 4212 
Q 3559 4084 3679 3895 
Q 3800 3706 3872 3456 
L 3284 3353 
Q 3241 3513 3158 3638 
Q 3075 3763 2940 3847 
Q 2806 3931 2614 3975 
Q 2422 4019 2163 4019 
Q 1856 4019 1648 3964 
Q 1441 3909 1314 3815 
Q 1188 3722 1133 3595 
Q 1078 3469 1078 3322 
Q 1078 3125 1176 2998 
Q 1275 2872 1444 2787 
Q 1613 2703 1834 2647 
Q 2056 2591 2306 2534 
Q 2509 2488 2711 2439 
Q 2913 2391 3097 2323 
Q 3281 2256 3442 2165 
Q 3603 2075 3722 1944 
Q 3841 1813 3908 1634 
Q 3975 1456 3975 1216 
z
" transform="scale(0.015625)"/>
       <path id="LiberationSans-76" d="M 1916 0 
L 1250 0 
L 22 3381 
L 622 3381 
L 1366 1181 
Q 1388 1113 1417 1014 
Q 1447 916 1478 809 
Q 1509 703 1536 604 
Q 1563 506 1581 441 
Q 1600 506 1629 604 
Q 1659 703 1690 806 
Q 1722 909 1755 1007 
Q 1788 1106 1813 1175 
L 2581 3381 
L 3178 3381 
L 1916 0 
z
" transform="scale(0.015625)"/>
      </defs>
      <use xlink:href="#LiberationSans-4d"/>
      <use xlink:href="#LiberationSans-69" x="83.300781"/>
      <use xlink:href="#LiberationSans-73" x="105.517578"/>
      <use xlink:href="#LiberationSans-63" x="155.517578"/>
      <use xlink:href="#LiberationSans-65" x="205.517578"/>
      <use xlink:href="#LiberationSans-6c" x="261.132812"/>
      <use xlink:href="#LiberationSans-6c" x="283.349609"/>
      <use xlink:href="#LiberationSans-61" x="305.566406"/>
      <use xlink:href="#LiberationSans-6e" x="361.181641"/>
      <use xlink:href="#LiberationSans-65" x="416.796875"/>
      <use xlink:href="#LiberationSans-6f" x="472.412109"/>
      <use xlink:href="#LiberationSans-75" x="528.027344"/>
      <use xlink:href="#LiberationSans-73" x="583.642578"/>
      <use xlink:href="#LiberationSans-20" x="633.642578"/>
      <use xlink:href="#LiberationSans-53" x="661.425781"/>
      <use xlink:href="#LiberationSans-65" x="728.125"/>
      <use xlink:href="#LiberationSans-72" x="783.740234"/>
      <use xlink:href="#LiberationSans-76" x="817.041016"/>
      <use xlink:href="#LiberationSans-69" x="867.041016"/>
      <use xlink:href="#LiberationSans-63" x="889.257812"/>
      <use xlink:href="#LiberationSans-65" x="939.257812"/>
      <use xlink:href="#LiberationSans-73" x="994.873047"/>
     </g>
    </g>
    <g id="patch_53">
     <path d="M 256.57375 56.177492 
L 272.57375 56.177492 
L 272.57375 50.577492 
L 256.57375 50.577492 
z
" style="fill: #2ca02c"/>
    </g>
    <g id="text_15">
     <!-- Metal-Working -->
     <g style="fill: #262626" transform="translate(278.97375 56.177492) scale(0.08 -0.08)">
      <defs>
       <path id="LiberationSans-2d" d="M 284 1450 
L 284 1950 
L 1847 1950 
L 1847 1450 
L 284 1450 
z
" transform="scale(0.015625)"/>
       <path id="LiberationSans-57" d="M 4722 0 
L 4009 0 
L 3247 2797 
Q 3213 2916 3173 3078 
Q 3134 3241 3103 3388 
Q 3066 3559 3028 3738 
Q 2988 3556 2950 3384 
Q 2916 3234 2878 3075 
Q 2841 2916 2806 2797 
L 2038 0 
L 1325 0 
L 28 4403 
L 650 4403 
L 1441 1606 
Q 1494 1409 1542 1215 
Q 1591 1022 1625 869 
Q 1666 688 1700 525 
Q 1747 741 1797 950 
Q 1819 1038 1841 1134 
Q 1863 1231 1886 1325 
Q 1909 1419 1932 1505 
Q 1956 1591 1975 1663 
L 2741 4403 
L 3313 4403 
L 4078 1663 
Q 4097 1591 4120 1505 
Q 4144 1419 4167 1326 
Q 4191 1234 4212 1137 
Q 4234 1041 4256 953 
Q 4306 744 4353 525 
Q 4356 525 4381 633 
Q 4406 741 4443 903 
Q 4481 1066 4526 1255 
Q 4572 1444 4619 1606 
L 5397 4403 
L 6019 4403 
L 4722 0 
z
" transform="scale(0.015625)"/>
       <path id="LiberationSans-6b" d="M 2550 0 
L 1406 1544 
L 994 1203 
L 994 0 
L 431 0 
L 431 4638 
L 994 4638 
L 994 1741 
L 2478 3381 
L 3138 3381 
L 1766 1928 
L 3209 0 
L 2550 0 
z
" transform="scale(0.015625)"/>
      </defs>
      <use xlink:href="#LiberationSans-4d"/>
      <use xlink:href="#LiberationSans-65" x="83.300781"/>
      <use xlink:href="#LiberationSans-74" x="138.916016"/>
      <use xlink:href="#LiberationSans-61" x="166.699219"/>
      <use xlink:href="#LiberationSans-6c" x="222.314453"/>
      <use xlink:href="#LiberationSans-2d" x="244.53125"/>
      <use xlink:href="#LiberationSans-57" x="277.832031"/>
      <use xlink:href="#LiberationSans-6f" x="370.466797"/>
      <use xlink:href="#LiberationSans-72" x="426.082031"/>
      <use xlink:href="#LiberationSans-6b" x="459.382812"/>
      <use xlink:href="#LiberationSans-69" x="509.382812"/>
      <use xlink:href="#LiberationSans-6e" x="531.599609"/>
      <use xlink:href="#LiberationSans-67" x="587.214844"/>
     </g>
    </g>
    <g id="patch_54">
     <path d="M 256.57375 67.634992 
L 272.57375 67.634992 
L 272.57375 62.034992 
L 256.57375 62.034992 
z
" style="fill: #d62728"/>
    </g>
    <g id="text_16">
     <!-- Retail -->
     <g style="fill: #262626" transform="translate(278.97375 67.634992) scale(0.08 -0.08)">
      <defs>
       <path id="LiberationSans-52" d="M 3638 0 
L 2494 1828 
L 1122 1828 
L 1122 0 
L 525 0 
L 525 4403 
L 2597 4403 
Q 2972 4403 3261 4317 
Q 3550 4231 3747 4068 
Q 3944 3906 4047 3672 
Q 4150 3438 4150 3144 
Q 4150 2934 4089 2731 
Q 4028 2528 3897 2359 
Q 3766 2191 3562 2069 
Q 3359 1947 3075 1897 
L 4325 0 
L 3638 0 
z
M 3550 3138 
Q 3550 3338 3481 3484 
Q 3413 3631 3281 3729 
Q 3150 3828 2962 3876 
Q 2775 3925 2538 3925 
L 1122 3925 
L 1122 2300 
L 2563 2300 
Q 2819 2300 3006 2364 
Q 3194 2428 3314 2540 
Q 3434 2653 3492 2806 
Q 3550 2959 3550 3138 
z
" transform="scale(0.015625)"/>
      </defs>
      <use xlink:href="#LiberationSans-52"/>
      <use xlink:href="#LiberationSans-65" x="72.216797"/>
      <use xlink:href="#LiberationSans-74" x="127.832031"/>
      <use xlink:href="#LiberationSans-61" x="155.615234"/>
      <use xlink:href="#LiberationSans-69" x="211.230469"/>
      <use xlink:href="#LiberationSans-6c" x="233.447266"/>
     </g>
    </g>
    <g id="patch_55">
     <path d="M 256.57375 79.092492 
L 272.57375 79.092492 
L 272.57375 73.492492 
L 256.57375 73.492492 
z
" style="fill: #9467bd"/>
    </g>
    <g id="text_17">
     <!-- Building -->
     <g style="fill: #262626" transform="translate(278.97375 79.092492) scale(0.08 -0.08)">
      <defs>
       <path id="LiberationSans-42" d="M 3931 1241 
Q 3931 906 3800 670 
Q 3669 434 3447 286 
Q 3225 138 2931 69 
Q 2638 0 2313 0 
L 525 0 
L 525 4403 
L 2125 4403 
Q 2491 4403 2778 4342 
Q 3066 4281 3266 4150 
Q 3466 4019 3570 3817 
Q 3675 3616 3675 3334 
Q 3675 3150 3623 2987 
Q 3572 2825 3467 2692 
Q 3363 2559 3205 2464 
Q 3047 2369 2838 2322 
Q 3103 2291 3308 2200 
Q 3513 2109 3650 1968 
Q 3788 1828 3859 1642 
Q 3931 1456 3931 1241 
z
M 3075 3263 
Q 3075 3619 2831 3772 
Q 2588 3925 2125 3925 
L 1122 3925 
L 1122 2531 
L 2125 2531 
Q 2388 2531 2569 2582 
Q 2750 2634 2862 2729 
Q 2975 2825 3025 2959 
Q 3075 3094 3075 3263 
z
M 3328 1288 
Q 3328 1497 3251 1644 
Q 3175 1791 3031 1884 
Q 2888 1978 2686 2022 
Q 2484 2066 2234 2066 
L 1122 2066 
L 1122 478 
L 2281 478 
Q 2509 478 2701 515 
Q 2894 553 3033 647 
Q 3172 741 3250 897 
Q 3328 1053 3328 1288 
z
" transform="scale(0.015625)"/>
      </defs>
      <use xlink:href="#LiberationSans-42"/>
      <use xlink:href="#LiberationSans-75" x="66.699219"/>
      <use xlink:href="#LiberationSans-69" x="122.314453"/>
      <use xlink:href="#LiberationSans-6c" x="144.53125"/>
      <use xlink:href="#LiberationSans-64" x="166.748047"/>
      <use xlink:href="#LiberationSans-69" x="222.363281"/>
      <use xlink:href="#LiberationSans-6e" x="244.580078"/>
      <use xlink:href="#LiberationSans-67" x="300.195312"/>
     </g>
    </g>
    <g id="patch_56">
     <path d="M 256.57375 90.549992 
L 272.57375 90.549992 
L 272.57375 84.949992 
L 256.57375 84.949992 
z
" style="fill: #8c564b"/>
    </g>
    <g id="text_18">
     <!-- Food-Production -->
     <g style="fill: #262626" transform="translate(278.97375 90.549992) scale(0.08 -0.08)">
      <defs>
       <path id="LiberationSans-46" d="M 1122 3916 
L 1122 2278 
L 3578 2278 
L 3578 1784 
L 1122 1784 
L 1122 0 
L 525 0 
L 525 4403 
L 3653 4403 
L 3653 3916 
L 1122 3916 
z
" transform="scale(0.015625)"/>
       <path id="LiberationSans-50" d="M 3931 3078 
Q 3931 2791 3836 2542 
Q 3741 2294 3552 2111 
Q 3363 1928 3078 1822 
Q 2794 1716 2416 1716 
L 1122 1716 
L 1122 0 
L 525 0 
L 525 4403 
L 2378 4403 
Q 2769 4403 3059 4308 
Q 3350 4213 3544 4039 
Q 3738 3866 3834 3620 
Q 3931 3375 3931 3078 
z
M 3331 3072 
Q 3331 3491 3075 3708 
Q 2819 3925 2306 3925 
L 1122 3925 
L 1122 2188 
L 2331 2188 
Q 2847 2188 3089 2416 
Q 3331 2644 3331 3072 
z
" transform="scale(0.015625)"/>
      </defs>
      <use xlink:href="#LiberationSans-46"/>
      <use xlink:href="#LiberationSans-6f" x="61.083984"/>
      <use xlink:href="#LiberationSans-6f" x="116.699219"/>
      <use xlink:href="#LiberationSans-64" x="172.314453"/>
      <use xlink:href="#LiberationSans-2d" x="227.929688"/>
      <use xlink:href="#LiberationSans-50" x="261.230469"/>
      <use xlink:href="#LiberationSans-72" x="327.929688"/>
      <use xlink:href="#LiberationSans-6f" x="361.230469"/>
      <use xlink:href="#LiberationSans-64" x="416.845703"/>
      <use xlink:href="#LiberationSans-75" x="472.460938"/>
      <use xlink:href="#LiberationSans-63" x="528.076172"/>
      <use xlink:href="#LiberationSans-74" x="578.076172"/>
      <use xlink:href="#LiberationSans-69" x="605.859375"/>
      <use xlink:href="#LiberationSans-6f" x="628.076172"/>
      <use xlink:href="#LiberationSans-6e" x="683.691406"/>
     </g>
    </g>
    <g id="patch_57">
     <path d="M 256.57375 102.007492 
L 272.57375 102.007492 
L 272.57375 96.407492 
L 256.57375 96.407492 
z
" style="fill: #e377c2"/>
    </g>
    <g id="text_19">
     <!-- Education -->
     <g style="fill: #262626" transform="translate(278.97375 102.007492) scale(0.08 -0.08)">
      <defs>
       <path id="LiberationSans-45" d="M 525 0 
L 525 4403 
L 3866 4403 
L 3866 3916 
L 1122 3916 
L 1122 2503 
L 3678 2503 
L 3678 2022 
L 1122 2022 
L 1122 488 
L 3994 488 
L 3994 0 
L 525 0 
z
" transform="scale(0.015625)"/>
      </defs>
      <use xlink:href="#LiberationSans-45"/>
      <use xlink:href="#LiberationSans-64" x="66.699219"/>
      <use xlink:href="#LiberationSans-75" x="122.314453"/>
      <use xlink:href="#LiberationSans-63" x="177.929688"/>
      <use xlink:href="#LiberationSans-61" x="227.929688"/>
      <use xlink:href="#LiberationSans-74" x="283.544922"/>
      <use xlink:href="#LiberationSans-69" x="311.328125"/>
      <use xlink:href="#LiberationSans-6f" x="333.544922"/>
      <use xlink:href="#LiberationSans-6e" x="389.160156"/>
     </g>
    </g>
    <g id="patch_58">
     <path d="M 256.57375 113.464992 
L 272.57375 113.464992 
L 272.57375 107.864992 
L 256.57375 107.864992 
z
" style="fill: #7f7f7f"/>
    </g>
    <g id="text_20">
     <!-- Clothing -->
     <g style="fill: #262626" transform="translate(278.97375 113.464992) scale(0.08 -0.08)">
      <defs>
       <path id="LiberationSans-43" d="M 2475 3981 
Q 2100 3981 1811 3856 
Q 1522 3731 1326 3500 
Q 1131 3269 1031 2944 
Q 931 2619 931 2222 
Q 931 1825 1039 1495 
Q 1147 1166 1348 928 
Q 1550 691 1842 559 
Q 2134 428 2500 428 
Q 2756 428 2967 495 
Q 3178 563 3348 684 
Q 3519 806 3653 973 
Q 3788 1141 3891 1344 
L 4378 1100 
Q 4259 853 4084 640 
Q 3909 428 3673 272 
Q 3438 116 3139 26 
Q 2841 -63 2472 -63 
Q 1938 -63 1536 107 
Q 1134 278 864 583 
Q 594 888 459 1306 
Q 325 1725 325 2222 
Q 325 2738 467 3153 
Q 609 3569 882 3861 
Q 1156 4153 1556 4311 
Q 1956 4469 2469 4469 
Q 3172 4469 3644 4194 
Q 4116 3919 4338 3378 
L 3772 3191 
Q 3709 3347 3603 3489 
Q 3497 3631 3337 3740 
Q 3178 3850 2964 3915 
Q 2750 3981 2475 3981 
z
" transform="scale(0.015625)"/>
       <path id="LiberationSans-68" d="M 991 2803 
Q 1084 2975 1193 3095 
Q 1303 3216 1434 3294 
Q 1566 3372 1722 3408 
Q 1878 3444 2072 3444 
Q 2397 3444 2605 3356 
Q 2813 3269 2933 3111 
Q 3053 2953 3098 2734 
Q 3144 2516 3144 2253 
L 3144 0 
L 2578 0 
L 2578 2144 
Q 2578 2359 2551 2521 
Q 2525 2684 2450 2792 
Q 2375 2900 2237 2954 
Q 2100 3009 1881 3009 
Q 1681 3009 1520 2937 
Q 1359 2866 1245 2734 
Q 1131 2603 1068 2415 
Q 1006 2228 1006 1994 
L 1006 0 
L 444 0 
L 444 4638 
L 1006 4638 
L 1006 3431 
Q 1006 3328 1003 3225 
Q 1000 3122 995 3034 
Q 991 2947 987 2886 
Q 984 2825 981 2803 
L 991 2803 
z
" transform="scale(0.015625)"/>
      </defs>
      <use xlink:href="#LiberationSans-43"/>
      <use xlink:href="#LiberationSans-6c" x="72.216797"/>
      <use xlink:href="#LiberationSans-6f" x="94.433594"/>
      <use xlink:href="#LiberationSans-74" x="150.048828"/>
      <use xlink:href="#LiberationSans-68" x="177.832031"/>
      <use xlink:href="#LiberationSans-69" x="233.447266"/>
      <use xlink:href="#LiberationSans-6e" x="255.664062"/>
      <use xlink:href="#LiberationSans-67" x="311.279297"/>
     </g>
    </g>
    <g id="patch_59">
     <path d="M 256.57375 124.922492 
L 272.57375 124.922492 
L 272.57375 119.322492 
L 256.57375 119.322492 
z
" style="fill: #bcbd22"/>
    </g>
    <g id="text_21">
     <!-- Transport -->
     <g style="fill: #262626" transform="translate(278.97375 124.922492) scale(0.08 -0.08)">
      <defs>
       <path id="LiberationSans-54" d="M 2250 3916 
L 2250 0 
L 1656 0 
L 1656 3916 
L 144 3916 
L 144 4403 
L 3763 4403 
L 3763 3916 
L 2250 3916 
z
" transform="scale(0.015625)"/>
      </defs>
      <use xlink:href="#LiberationSans-54"/>
      <use xlink:href="#LiberationSans-72" x="57.333984"/>
      <use xlink:href="#LiberationSans-61" x="90.634766"/>
      <use xlink:href="#LiberationSans-6e" x="146.25"/>
      <use xlink:href="#LiberationSans-73" x="201.865234"/>
      <use xlink:href="#LiberationSans-70" x="251.865234"/>
      <use xlink:href="#LiberationSans-6f" x="307.480469"/>
      <use xlink:href="#LiberationSans-72" x="363.095703"/>
      <use xlink:href="#LiberationSans-74" x="396.396484"/>
     </g>
    </g>
    <g id="patch_60">
     <path d="M 256.57375 136.379992 
L 272.57375 136.379992 
L 272.57375 130.779992 
L 256.57375 130.779992 
z
" style="fill: #17becf"/>
    </g>
    <g id="text_22">
     <!-- Performing Arts -->
     <g style="fill: #262626" transform="translate(278.97375 136.379992) scale(0.08 -0.08)">
      <defs>
       <path id="LiberationSans-66" d="M 1128 2972 
L 1128 0 
L 566 0 
L 566 2972 
L 91 2972 
L 91 3381 
L 566 3381 
L 566 3763 
Q 566 3947 600 4105 
Q 634 4263 726 4380 
Q 819 4497 978 4564 
Q 1138 4631 1391 4631 
Q 1491 4631 1598 4622 
Q 1706 4613 1788 4594 
L 1788 4166 
Q 1734 4175 1664 4183 
Q 1594 4191 1538 4191 
Q 1413 4191 1333 4156 
Q 1253 4122 1208 4058 
Q 1163 3994 1145 3900 
Q 1128 3806 1128 3684 
L 1128 3381 
L 1788 3381 
L 1788 2972 
L 1128 2972 
z
" transform="scale(0.015625)"/>
       <path id="LiberationSans-41" d="M 3647 0 
L 3144 1288 
L 1138 1288 
L 631 0 
L 13 0 
L 1809 4403 
L 2488 4403 
L 4256 0 
L 3647 0 
z
M 2400 3206 
Q 2350 3331 2304 3459 
Q 2259 3588 2225 3692 
Q 2191 3797 2167 3867 
Q 2144 3938 2141 3953 
Q 2134 3938 2112 3866 
Q 2091 3794 2055 3687 
Q 2019 3581 1973 3453 
Q 1928 3325 1881 3200 
L 1319 1753 
L 2966 1753 
L 2400 3206 
z
" transform="scale(0.015625)"/>
      </defs>
      <use xlink:href="#LiberationSans-50"/>
      <use xlink:href="#LiberationSans-65" x="66.699219"/>
      <use xlink:href="#LiberationSans-72" x="122.314453"/>
      <use xlink:href="#LiberationSans-66" x="155.615234"/>
      <use xlink:href="#LiberationSans-6f" x="183.398438"/>
      <use xlink:href="#LiberationSans-72" x="239.013672"/>
      <use xlink:href="#LiberationSans-6d" x="272.314453"/>
      <use xlink:href="#LiberationSans-69" x="355.615234"/>
      <use xlink:href="#LiberationSans-6e" x="377.832031"/>
      <use xlink:href="#LiberationSans-67" x="433.447266"/>
      <use xlink:href="#LiberationSans-20" x="489.0625"/>
      <use xlink:href="#LiberationSans-41" x="511.345703"/>
      <use xlink:href="#LiberationSans-72" x="578.044922"/>
      <use xlink:href="#LiberationSans-74" x="611.345703"/>
      <use xlink:href="#LiberationSans-73" x="639.128906"/>
     </g>
    </g>
    <g id="patch_61">
     <path d="M 256.57375 147.837492 
L 272.57375 147.837492 
L 272.57375 142.237492 
L 256.57375 142.237492 
z
" style="fill: #d3d3d3"/>
    </g>
    <g id="text_23">
     <!-- Unclassified -->
     <g style="fill: #262626" transform="translate(278.97375 147.837492) scale(0.08 -0.08)">
      <defs>
       <path id="LiberationSans-55" d="M 2284 -63 
Q 1922 -63 1597 34 
Q 1272 131 1026 336 
Q 781 541 637 855 
Q 494 1169 494 1600 
L 494 4403 
L 1091 4403 
L 1091 1650 
Q 1091 1316 1180 1083 
Q 1269 850 1428 703 
Q 1588 556 1805 489 
Q 2022 422 2281 422 
Q 2538 422 2766 490 
Q 2994 559 3166 709 
Q 3338 859 3436 1101 
Q 3534 1344 3534 1691 
L 3534 4403 
L 4128 4403 
L 4128 1656 
Q 4128 1216 3983 892 
Q 3838 569 3588 356 
Q 3338 144 3002 40 
Q 2666 -63 2284 -63 
z
" transform="scale(0.015625)"/>
      </defs>
      <use xlink:href="#LiberationSans-55"/>
      <use xlink:href="#LiberationSans-6e" x="72.216797"/>
      <use xlink:href="#LiberationSans-63" x="127.832031"/>
      <use xlink:href="#LiberationSans-6c" x="177.832031"/>
      <use xlink:href="#LiberationSans-61" x="200.048828"/>
      <use xlink:href="#LiberationSans-73" x="255.664062"/>
      <use xlink:href="#LiberationSans-73" x="305.664062"/>
      <use xlink:href="#LiberationSans-69" x="355.664062"/>
      <use xlink:href="#LiberationSans-66" x="377.880859"/>
      <use xlink:href="#LiberationSans-69" x="405.664062"/>
      <use xlink:href="#LiberationSans-65" x="427.880859"/>
      <use xlink:href="#LiberationSans-64" x="483.496094"/>
     </g>
    </g>
   </g>
  </g>
 </g>
 <defs>
  <clipPath id="p487fe56e80">
   <rect x="39.672" y="8.807492" width="209.70175" height="123.578758"/>
  </clipPath>
 </defs>
</svg>
