<?xml version="1.0" encoding="utf-8" standalone="no"?>
<!DOCTYPE svg PUBLIC "-//W3C//DTD SVG 1.1//EN"
  "http://www.w3.org/Graphics/SVG/1.1/DTD/svg11.dtd">
<svg xmlns:xlink="http://www.w3.org/1999/xlink" width="360pt" height="360pt" viewBox="0 0 360 360" xmlns="http://www.w3.org/2000/svg" version="1.1">
 <metadata>
  <rdf:RDF xmlns:dc="http://purl.org/dc/elements/1.1/" xmlns:cc="http://creativecommons.org/ns#" xmlns:rdf="http://www.w3.org/1999/02/22-rdf-syntax-ns#">
   <cc:Work>
    <dc:type rdf:resource="http://purl.org/dc/dcmitype/StillImage"/>
    <dc:date>2023-11-21T09:22:56.098202</dc:date>
    <dc:format>image/svg+xml</dc:format>
    <dc:creator>
     <cc:Agent>
      <dc:title>Matplotlib v3.8.0, https://matplotlib.org/</dc:title>
     </cc:Agent>
    </dc:creator>
   </cc:Work>
  </rdf:RDF>
 </metadata>
 <defs>
  <style type="text/css">*{stroke-linejoin: round; stroke-linecap: butt}</style>
 </defs>
 <g id="figure_1">
  <g id="patch_1">
   <path d="M 0 360 
L 360 360 
L 360 0 
L 0 0 
z
" style="fill: #ffffff"/>
  </g>
  <g id="axes_1">
   <g id="LineCollection_1">
    <path d="M 214.814683 149.591034 
L 254.061289 67.254545 
" clip-path="url(#pbecba5e653)" style="fill: none; stroke: #808080; stroke-opacity: 0.8; stroke-width: 4.643856"/>
    <path d="M 214.814683 149.591034 
L 251.399896 191.628596 
" clip-path="url(#pbecba5e653)" style="fill: none; stroke: #808080; stroke-opacity: 0.8; stroke-width: 2.321928"/>
    <path d="M 214.814683 149.591034 
L 173.818842 174.239401 
" clip-path="url(#pbecba5e653)" style="fill: none; stroke: #808080; stroke-opacity: 0.8; stroke-width: 2.321928"/>
    <path d="M 214.814683 149.591034 
L 135.933105 107.911119 
" clip-path="url(#pbecba5e653)" style="fill: none; stroke: #808080; stroke-opacity: 0.8; stroke-width: 3.321928"/>
    <path d="M 127.781071 171.682818 
L 115.637951 231.551687 
" clip-path="url(#pbecba5e653)" style="fill: none; stroke: #808080; stroke-opacity: 0.8; stroke-width: 2.321928"/>
    <path d="M 127.781071 171.682818 
L 210.302139 296.345455 
" clip-path="url(#pbecba5e653)" style="fill: none; stroke: #808080; stroke-opacity: 0.8; stroke-width: 3.321928"/>
    <path d="M 127.781071 171.682818 
L 263.080781 244.031209 
" clip-path="url(#pbecba5e653)" style="fill: none; stroke: #808080; stroke-opacity: 0.8; stroke-width: 3.906891"/>
    <path d="M 127.781071 171.682818 
L 163.530923 261.223813 
" clip-path="url(#pbecba5e653)" style="fill: none; stroke: #808080; stroke-opacity: 0.8; stroke-width: 3.321928"/>
    <path d="M 127.781071 171.682818 
L 173.818842 174.239401 
" clip-path="url(#pbecba5e653)" style="fill: none; stroke: #808080; stroke-opacity: 0.8; stroke-width: 2.321928"/>
    <path d="M 127.781071 171.682818 
L 135.933105 107.911119 
" clip-path="url(#pbecba5e653)" style="fill: none; stroke: #808080; stroke-opacity: 0.8; stroke-width: 2.321928"/>
    <path d="M 299.789256 94.857227 
L 296.073369 157.652453 
" clip-path="url(#pbecba5e653)" style="fill: none; stroke: #808080; stroke-opacity: 0.8; stroke-width: 2.321928"/>
    <path d="M 299.789256 94.857227 
L 254.061289 67.254545 
" clip-path="url(#pbecba5e653)" style="fill: none; stroke: #808080; stroke-opacity: 0.8; stroke-width: 2.321928"/>
    <path d="M 218.879835 244.826527 
L 296.073369 157.652453 
" clip-path="url(#pbecba5e653)" style="fill: none; stroke: #808080; stroke-opacity: 0.8; stroke-width: 3.321928"/>
    <path d="M 218.879835 244.826527 
L 254.061289 67.254545 
" clip-path="url(#pbecba5e653)" style="fill: none; stroke: #808080; stroke-opacity: 0.8; stroke-width: 3.906891"/>
    <path d="M 218.879835 244.826527 
L 210.302139 296.345455 
" clip-path="url(#pbecba5e653)" style="fill: none; stroke: #808080; stroke-opacity: 0.8; stroke-width: 2.321928"/>
    <path d="M 218.879835 244.826527 
L 263.080781 244.031209 
" clip-path="url(#pbecba5e653)" style="fill: none; stroke: #808080; stroke-opacity: 0.8; stroke-width: 2.321928"/>
    <path d="M 218.879835 244.826527 
L 251.399896 191.628596 
" clip-path="url(#pbecba5e653)" style="fill: none; stroke: #808080; stroke-opacity: 0.8; stroke-width: 2.321928"/>
    <path d="M 218.879835 244.826527 
L 163.530923 261.223813 
" clip-path="url(#pbecba5e653)" style="fill: none; stroke: #808080; stroke-opacity: 0.8; stroke-width: 2.321928"/>
    <path d="M 218.879835 244.826527 
L 173.818842 174.239401 
" clip-path="url(#pbecba5e653)" style="fill: none; stroke: #808080; stroke-opacity: 0.8; stroke-width: 3.321928"/>
    <path d="M 254.061289 67.254545 
L 296.073369 157.652453 
" clip-path="url(#pbecba5e653)" style="fill: none; stroke: #808080; stroke-opacity: 0.8; stroke-width: 7.451211"/>
    <path d="M 254.061289 67.254545 
L 115.637951 231.551687 
" clip-path="url(#pbecba5e653)" style="fill: none; stroke: #808080; stroke-opacity: 0.8; stroke-width: 5.643856"/>
    <path d="M 254.061289 67.254545 
L 210.302139 296.345455 
" clip-path="url(#pbecba5e653)" style="fill: none; stroke: #808080; stroke-opacity: 0.8; stroke-width: 5.129283"/>
    <path d="M 254.061289 67.254545 
L 263.080781 244.031209 
" clip-path="url(#pbecba5e653)" style="fill: none; stroke: #808080; stroke-opacity: 0.8; stroke-width: 6.491853"/>
    <path d="M 254.061289 67.254545 
L 251.399896 191.628596 
" clip-path="url(#pbecba5e653)" style="fill: none; stroke: #808080; stroke-opacity: 0.8; stroke-width: 3.321928"/>
    <path d="M 254.061289 67.254545 
L 173.818842 174.239401 
" clip-path="url(#pbecba5e653)" style="fill: none; stroke: #808080; stroke-opacity: 0.8; stroke-width: 6.78136"/>
    <path d="M 254.061289 67.254545 
L 135.933105 107.911119 
" clip-path="url(#pbecba5e653)" style="fill: none; stroke: #808080; stroke-opacity: 0.8; stroke-width: 3.321928"/>
    <path d="M 296.073369 157.652453 
L 115.637951 231.551687 
" clip-path="url(#pbecba5e653)" style="fill: none; stroke: #808080; stroke-opacity: 0.8; stroke-width: 4.906891"/>
    <path d="M 296.073369 157.652453 
L 210.302139 296.345455 
" clip-path="url(#pbecba5e653)" style="fill: none; stroke: #808080; stroke-opacity: 0.8; stroke-width: 3.906891"/>
    <path d="M 296.073369 157.652453 
L 263.080781 244.031209 
" clip-path="url(#pbecba5e653)" style="fill: none; stroke: #808080; stroke-opacity: 0.8; stroke-width: 3.321928"/>
    <path d="M 296.073369 157.652453 
L 251.399896 191.628596 
" clip-path="url(#pbecba5e653)" style="fill: none; stroke: #808080; stroke-opacity: 0.8; stroke-width: 2.321928"/>
    <path d="M 296.073369 157.652453 
L 173.818842 174.239401 
" clip-path="url(#pbecba5e653)" style="fill: none; stroke: #808080; stroke-opacity: 0.8; stroke-width: 6.78136"/>
    <path d="M 69.210744 254.354967 
L 115.637951 231.551687 
" clip-path="url(#pbecba5e653)" style="fill: none; stroke: #808080; stroke-opacity: 0.8; stroke-width: 2.321928"/>
    <path d="M 115.637951 231.551687 
L 163.530923 261.223813 
" clip-path="url(#pbecba5e653)" style="fill: none; stroke: #808080; stroke-opacity: 0.8; stroke-width: 2.321928"/>
    <path d="M 115.637951 231.551687 
L 173.818842 174.239401 
" clip-path="url(#pbecba5e653)" style="fill: none; stroke: #808080; stroke-opacity: 0.8; stroke-width: 4.906891"/>
    <path d="M 173.818842 174.239401 
L 210.302139 296.345455 
" clip-path="url(#pbecba5e653)" style="fill: none; stroke: #808080; stroke-opacity: 0.8; stroke-width: 3.321928"/>
    <path d="M 173.818842 174.239401 
L 263.080781 244.031209 
" clip-path="url(#pbecba5e653)" style="fill: none; stroke: #808080; stroke-opacity: 0.8; stroke-width: 3.321928"/>
    <path d="M 251.399896 191.628596 
L 263.080781 244.031209 
" clip-path="url(#pbecba5e653)" style="fill: none; stroke: #808080; stroke-opacity: 0.8; stroke-width: 2.321928"/>
    <path d="M 263.080781 244.031209 
L 210.302139 296.345455 
" clip-path="url(#pbecba5e653)" style="fill: none; stroke: #808080; stroke-opacity: 0.8; stroke-width: 6.129283"/>
   </g>
   <g id="PathCollection_1">
    <path d="M 214.814683 156.519237 
C 216.652064 156.519237 218.414438 155.789238 219.713663 154.490013 
C 221.012887 153.190789 221.742887 151.428415 221.742887 149.591034 
C 221.742887 147.753653 221.012887 145.991279 219.713663 144.692054 
C 218.414438 143.39283 216.652064 142.66283 214.814683 142.66283 
C 212.977302 142.66283 211.214928 143.39283 209.915704 144.692054 
C 208.616479 145.991279 207.88648 147.753653 207.88648 149.591034 
C 207.88648 151.428415 208.616479 153.190789 209.915704 154.490013 
C 211.214928 155.789238 212.977302 156.519237 214.814683 156.519237 
z
" clip-path="url(#pbecba5e653)" style="fill: #ff0000; fill-opacity: 0.8; stroke: #ff0000; stroke-opacity: 0.8"/>
    <path d="M 127.781071 175.651445 
C 128.833563 175.651445 129.843089 175.233286 130.587314 174.489061 
C 131.331538 173.744837 131.749698 172.73531 131.749698 171.682818 
C 131.749698 170.630326 131.331538 169.6208 130.587314 168.876575 
C 129.843089 168.132351 128.833563 167.714191 127.781071 167.714191 
C 126.728578 167.714191 125.719052 168.132351 124.974828 168.876575 
C 124.230603 169.6208 123.812444 170.630326 123.812444 171.682818 
C 123.812444 172.73531 124.230603 173.744837 124.974828 174.489061 
C 125.719052 175.233286 126.728578 175.651445 127.781071 175.651445 
z
" clip-path="url(#pbecba5e653)" style="fill: #ffc0cb; fill-opacity: 0.8; stroke: #ffc0cb; stroke-opacity: 0.8"/>
    <path d="M 299.789256 98.497282 
C 300.75461 98.497282 301.680555 98.113743 302.363164 97.431134 
C 303.045772 96.748526 303.429311 95.822581 303.429311 94.857227 
C 303.429311 93.891873 303.045772 92.965928 302.363164 92.283319 
C 301.680555 91.600711 300.75461 91.217172 299.789256 91.217172 
C 298.823902 91.217172 297.897957 91.600711 297.215349 92.283319 
C 296.53274 92.965928 296.149201 93.891873 296.149201 94.857227 
C 296.149201 95.822581 296.53274 96.748526 297.215349 97.431134 
C 297.897957 98.113743 298.823902 98.497282 299.789256 98.497282 
z
" clip-path="url(#pbecba5e653)" style="fill: #0000ff; fill-opacity: 0.8; stroke: #0000ff; stroke-opacity: 0.8"/>
    <path d="M 218.879835 249.35422 
C 220.080593 249.35422 221.232333 248.877154 222.081397 248.02809 
C 222.930461 247.179025 223.407527 246.027286 223.407527 244.826527 
C 223.407527 243.625769 222.930461 242.47403 222.081397 241.624965 
C 221.232333 240.775901 220.080593 240.298835 218.879835 240.298835 
C 217.679077 240.298835 216.527337 240.775901 215.678273 241.624965 
C 214.829209 242.47403 214.352142 243.625769 214.352142 244.826527 
C 214.352142 246.027286 214.829209 247.179025 215.678273 248.02809 
C 216.527337 248.877154 217.679077 249.35422 218.879835 249.35422 
z
" clip-path="url(#pbecba5e653)" style="fill: #00ced1; fill-opacity: 0.8; stroke: #00ced1; stroke-opacity: 0.8"/>
    <path d="M 254.061289 79.613753 
C 257.338989 79.613753 260.482885 78.311509 262.800568 75.993825 
C 265.118252 73.676141 266.420496 70.532245 266.420496 67.254545 
C 266.420496 63.976845 265.118252 60.83295 262.800568 58.515266 
C 260.482885 56.197582 257.338989 54.895338 254.061289 54.895338 
C 250.783589 54.895338 247.639694 56.197582 245.32201 58.515266 
C 243.004326 60.83295 241.702082 63.976845 241.702082 67.254545 
C 241.702082 70.532245 243.004326 73.676141 245.32201 75.993825 
C 247.639694 78.311509 250.783589 79.613753 254.061289 79.613753 
z
" clip-path="url(#pbecba5e653)" style="fill: #008000; fill-opacity: 0.8; stroke: #008000; stroke-opacity: 0.8"/>
    <path d="M 296.073369 165.268227 
C 298.093095 165.268227 300.030371 164.465781 301.458534 163.037618 
C 302.886696 161.609456 303.689142 159.67218 303.689142 157.652453 
C 303.689142 155.632727 302.886696 153.695451 301.458534 152.267289 
C 300.030371 150.839126 298.093095 150.03668 296.073369 150.03668 
C 294.053642 150.03668 292.116366 150.839126 290.688204 152.267289 
C 289.260042 153.695451 288.457596 155.632727 288.457596 157.652453 
C 288.457596 159.67218 289.260042 161.609456 290.688204 163.037618 
C 292.116366 164.465781 294.053642 165.268227 296.073369 165.268227 
z
" clip-path="url(#pbecba5e653)" style="fill: #00ced1; fill-opacity: 0.8; stroke: #00ced1; stroke-opacity: 0.8"/>
    <path d="M 69.210744 259.150799 
C 70.482613 259.150799 71.702561 258.64548 72.601909 257.746132 
C 73.501256 256.846785 74.006575 255.626837 74.006575 254.354967 
C 74.006575 253.083098 73.501256 251.86315 72.601909 250.963802 
C 71.702561 250.064455 70.482613 249.559136 69.210744 249.559136 
C 67.938874 249.559136 66.718926 250.064455 65.819579 250.963802 
C 64.920231 251.86315 64.414912 253.083098 64.414912 254.354967 
C 64.414912 255.626837 64.920231 256.846785 65.819579 257.746132 
C 66.718926 258.64548 67.938874 259.150799 69.210744 259.150799 
z
" clip-path="url(#pbecba5e653)" style="fill: #00ced1; fill-opacity: 0.8; stroke: #00ced1; stroke-opacity: 0.8"/>
    <path d="M 115.637951 237.382639 
C 117.184338 237.382639 118.667596 236.768253 119.761057 235.674793 
C 120.854517 234.581333 121.468903 233.098074 121.468903 231.551687 
C 121.468903 230.005301 120.854517 228.522042 119.761057 227.428582 
C 118.667596 226.335121 117.184338 225.720736 115.637951 225.720736 
C 114.091565 225.720736 112.608306 226.335121 111.514846 227.428582 
C 110.421385 228.522042 109.806999 230.005301 109.806999 231.551687 
C 109.806999 233.098074 110.421385 234.581333 111.514846 235.674793 
C 112.608306 236.768253 114.091565 237.382639 115.637951 237.382639 
z
" clip-path="url(#pbecba5e653)" style="fill: #00ced1; fill-opacity: 0.8; stroke: #00ced1; stroke-opacity: 0.8"/>
    <path d="M 173.818842 181.415751 
C 175.722033 181.415751 177.547529 180.659606 178.893288 179.313847 
C 180.239047 177.968088 180.995192 176.142592 180.995192 174.239401 
C 180.995192 172.336211 180.239047 170.510714 178.893288 169.164956 
C 177.547529 167.819197 175.722033 167.063051 173.818842 167.063051 
C 171.915652 167.063051 170.090155 167.819197 168.744397 169.164956 
C 167.398638 170.510714 166.642492 172.336211 166.642492 174.239401 
C 166.642492 176.142592 167.398638 177.968088 168.744397 179.313847 
C 170.090155 180.659606 171.915652 181.415751 173.818842 181.415751 
z
" clip-path="url(#pbecba5e653)" style="fill: #0000ff; fill-opacity: 0.8; stroke: #0000ff; stroke-opacity: 0.8"/>
    <path d="M 251.399896 195.370253 
C 252.392195 195.370253 253.343986 194.976008 254.045647 194.274347 
C 254.747309 193.572685 255.141553 192.620895 255.141553 191.628596 
C 255.141553 190.636296 254.747309 189.684506 254.045647 188.982844 
C 253.343986 188.281183 252.392195 187.886938 251.399896 187.886938 
C 250.407597 187.886938 249.455806 188.281183 248.754145 188.982844 
C 248.052483 189.684506 247.658238 190.636296 247.658238 191.628596 
C 247.658238 192.620895 248.052483 193.572685 248.754145 194.274347 
C 249.455806 194.976008 250.407597 195.370253 251.399896 195.370253 
z
" clip-path="url(#pbecba5e653)" style="fill: #ffa500; fill-opacity: 0.8; stroke: #ffa500; stroke-opacity: 0.8"/>
    <path d="M 263.080781 248.955638 
C 264.386755 248.955638 265.639416 248.436769 266.562879 247.513306 
C 267.486341 246.589843 268.00521 245.337182 268.00521 244.031209 
C 268.00521 242.725235 267.486341 241.472574 266.562879 240.549112 
C 265.639416 239.625649 264.386755 239.10678 263.080781 239.10678 
C 261.774808 239.10678 260.522147 239.625649 259.598684 240.549112 
C 258.675221 241.472574 258.156353 242.725235 258.156353 244.031209 
C 258.156353 245.337182 258.675221 246.589843 259.598684 247.513306 
C 260.522147 248.436769 261.774808 248.955638 263.080781 248.955638 
z
" clip-path="url(#pbecba5e653)" style="fill: #ff0000; fill-opacity: 0.8; stroke: #ff0000; stroke-opacity: 0.8"/>
    <path d="M 210.302139 301.957941 
C 211.790587 301.957941 213.218273 301.366574 214.270766 300.314082 
C 215.323258 299.261589 215.914625 297.833903 215.914625 296.345455 
C 215.914625 294.857006 215.323258 293.42932 214.270766 292.376828 
C 213.218273 291.324335 211.790587 290.732968 210.302139 290.732968 
C 208.81369 290.732968 207.386004 291.324335 206.333512 292.376828 
C 205.281019 293.42932 204.689653 294.857006 204.689653 296.345455 
C 204.689653 297.833903 205.281019 299.261589 206.333512 300.314082 
C 207.386004 301.366574 208.81369 301.957941 210.302139 301.957941 
z
" clip-path="url(#pbecba5e653)" style="fill: #ffa500; fill-opacity: 0.8; stroke: #ffa500; stroke-opacity: 0.8"/>
    <path d="M 163.530923 264.863868 
C 164.496277 264.863868 165.422223 264.480328 166.104831 263.79772 
C 166.787439 263.115112 167.170978 262.189166 167.170978 261.223813 
C 167.170978 260.258459 166.787439 259.332513 166.104831 258.649905 
C 165.422223 257.967297 164.496277 257.583758 163.530923 257.583758 
C 162.565569 257.583758 161.639624 257.967297 160.957016 258.649905 
C 160.274407 259.332513 159.890868 260.258459 159.890868 261.223813 
C 159.890868 262.189166 160.274407 263.115112 160.957016 263.79772 
C 161.639624 264.480328 162.565569 264.863868 163.530923 264.863868 
z
" clip-path="url(#pbecba5e653)" style="fill: #800080; fill-opacity: 0.8; stroke: #800080; stroke-opacity: 0.8"/>
    <path d="M 135.933105 111.619218 
C 136.916505 111.619218 137.859759 111.22851 138.555127 110.533141 
C 139.250496 109.837773 139.641205 108.894519 139.641205 107.911119 
C 139.641205 106.92772 139.250496 105.984466 138.555127 105.289097 
C 137.859759 104.593729 136.916505 104.20302 135.933105 104.20302 
C 134.949706 104.20302 134.006452 104.593729 133.311083 105.289097 
C 132.615715 105.984466 132.225006 106.92772 132.225006 107.911119 
C 132.225006 108.894519 132.615715 109.837773 133.311083 110.533141 
C 134.006452 111.22851 134.949706 111.619218 135.933105 111.619218 
z
" clip-path="url(#pbecba5e653)" style="fill: #ffa500; fill-opacity: 0.8; stroke: #ffa500; stroke-opacity: 0.8"/>
   </g>
   <g id="text_1">
    <g clip-path="url(#pbecba5e653)">
     <!-- medicus -->
     <g style="opacity: 0.8" transform="translate(203.644371 151.142596) scale(0.06 -0.06)">
      <defs>
       <path id="LiberationSans-6d" d="M 2400 0 
L 2400 2144 
Q 2400 2391 2369 2556 
Q 2338 2722 2264 2823 
Q 2191 2925 2072 2967 
Q 1953 3009 1781 3009 
Q 1603 3009 1459 2939 
Q 1316 2869 1214 2736 
Q 1113 2603 1058 2408 
Q 1003 2213 1003 1959 
L 1003 0 
L 444 0 
L 444 2659 
Q 444 2766 442 2883 
Q 441 3000 437 3104 
Q 434 3209 431 3284 
Q 428 3359 425 3381 
L 956 3381 
Q 959 3366 962 3297 
Q 966 3228 970 3139 
Q 975 3050 978 2958 
Q 981 2866 981 2803 
L 991 2803 
Q 1066 2950 1153 3069 
Q 1241 3188 1358 3270 
Q 1475 3353 1626 3398 
Q 1778 3444 1978 3444 
Q 2363 3444 2586 3291 
Q 2809 3138 2897 2803 
L 2906 2803 
Q 2981 2950 3075 3069 
Q 3169 3188 3294 3270 
Q 3419 3353 3575 3398 
Q 3731 3444 3931 3444 
Q 4188 3444 4373 3375 
Q 4559 3306 4678 3162 
Q 4797 3019 4853 2792 
Q 4909 2566 4909 2253 
L 4909 0 
L 4353 0 
L 4353 2144 
Q 4353 2391 4322 2556 
Q 4291 2722 4217 2823 
Q 4144 2925 4025 2967 
Q 3906 3009 3734 3009 
Q 3556 3009 3412 2942 
Q 3269 2875 3167 2744 
Q 3066 2613 3011 2416 
Q 2956 2219 2956 1959 
L 2956 0 
L 2400 0 
z
" transform="scale(0.015625)"/>
       <path id="LiberationSans-65" d="M 863 1572 
Q 863 1306 917 1082 
Q 972 859 1086 698 
Q 1200 538 1378 448 
Q 1556 359 1806 359 
Q 2172 359 2392 506 
Q 2613 653 2691 878 
L 3184 738 
Q 3131 597 3036 455 
Q 2941 313 2781 198 
Q 2622 84 2383 10 
Q 2144 -63 1806 -63 
Q 1056 -63 664 384 
Q 272 831 272 1713 
Q 272 2188 390 2517 
Q 509 2847 715 3053 
Q 922 3259 1197 3351 
Q 1472 3444 1784 3444 
Q 2209 3444 2495 3306 
Q 2781 3169 2954 2926 
Q 3128 2684 3201 2356 
Q 3275 2028 3275 1647 
L 3275 1572 
L 863 1572 
z
M 2694 2003 
Q 2647 2538 2422 2783 
Q 2197 3028 1775 3028 
Q 1634 3028 1479 2983 
Q 1325 2938 1194 2822 
Q 1063 2706 972 2507 
Q 881 2309 869 2003 
L 2694 2003 
z
" transform="scale(0.015625)"/>
       <path id="LiberationSans-64" d="M 2566 544 
Q 2409 219 2151 78 
Q 1894 -63 1513 -63 
Q 872 -63 570 368 
Q 269 800 269 1675 
Q 269 3444 1513 3444 
Q 1897 3444 2153 3303 
Q 2409 3163 2566 2856 
L 2572 2856 
Q 2572 2888 2570 2955 
Q 2569 3022 2567 3095 
Q 2566 3169 2566 3234 
Q 2566 3300 2566 3328 
L 2566 4638 
L 3128 4638 
L 3128 697 
Q 3128 575 3129 462 
Q 3131 350 3134 256 
Q 3138 163 3141 95 
Q 3144 28 3147 0 
L 2609 0 
Q 2603 31 2598 89 
Q 2594 147 2589 222 
Q 2584 297 2581 380 
Q 2578 463 2578 544 
L 2566 544 
z
M 859 1694 
Q 859 1344 903 1094 
Q 947 844 1044 683 
Q 1141 522 1291 447 
Q 1441 372 1656 372 
Q 1878 372 2048 444 
Q 2219 516 2333 677 
Q 2447 838 2506 1097 
Q 2566 1356 2566 1731 
Q 2566 2091 2506 2339 
Q 2447 2588 2331 2741 
Q 2216 2894 2048 2961 
Q 1881 3028 1663 3028 
Q 1456 3028 1306 2956 
Q 1156 2884 1056 2725 
Q 956 2566 907 2311 
Q 859 2056 859 1694 
z
" transform="scale(0.015625)"/>
       <path id="LiberationSans-69" d="M 428 4100 
L 428 4638 
L 991 4638 
L 991 4100 
L 428 4100 
z
M 428 0 
L 428 3381 
L 991 3381 
L 991 0 
L 428 0 
z
" transform="scale(0.015625)"/>
       <path id="LiberationSans-63" d="M 859 1706 
Q 859 1416 901 1172 
Q 944 928 1044 751 
Q 1144 575 1308 478 
Q 1472 381 1713 381 
Q 2013 381 2214 543 
Q 2416 706 2463 1044 
L 3031 1006 
Q 3003 797 2909 603 
Q 2816 409 2655 262 
Q 2494 116 2262 26 
Q 2031 -63 1728 -63 
Q 1331 -63 1053 71 
Q 775 206 601 442 
Q 428 678 350 998 
Q 272 1319 272 1694 
Q 272 2034 328 2295 
Q 384 2556 486 2751 
Q 588 2947 725 3080 
Q 863 3213 1023 3292 
Q 1184 3372 1362 3408 
Q 1541 3444 1722 3444 
Q 2006 3444 2228 3366 
Q 2450 3288 2611 3152 
Q 2772 3016 2872 2831 
Q 2972 2647 3013 2434 
L 2434 2391 
Q 2391 2672 2212 2837 
Q 2034 3003 1706 3003 
Q 1466 3003 1305 2923 
Q 1144 2844 1044 2683 
Q 944 2522 901 2278 
Q 859 2034 859 1706 
z
" transform="scale(0.015625)"/>
       <path id="LiberationSans-75" d="M 981 3381 
L 981 1238 
Q 981 991 1017 825 
Q 1053 659 1134 557 
Q 1216 456 1348 414 
Q 1481 372 1678 372 
Q 1878 372 2039 442 
Q 2200 513 2314 645 
Q 2428 778 2490 973 
Q 2553 1169 2553 1422 
L 2553 3381 
L 3116 3381 
L 3116 722 
Q 3116 616 3117 498 
Q 3119 381 3122 276 
Q 3125 172 3128 97 
Q 3131 22 3134 0 
L 2603 0 
Q 2600 16 2597 84 
Q 2594 153 2589 242 
Q 2584 331 2581 423 
Q 2578 516 2578 578 
L 2569 578 
Q 2488 431 2391 312 
Q 2294 194 2166 111 
Q 2038 28 1872 -17 
Q 1706 -63 1488 -63 
Q 1206 -63 1003 6 
Q 800 75 669 219 
Q 538 363 477 588 
Q 416 813 416 1128 
L 416 3381 
L 981 3381 
z
" transform="scale(0.015625)"/>
       <path id="LiberationSans-73" d="M 2969 934 
Q 2969 697 2876 511 
Q 2784 325 2609 198 
Q 2434 72 2179 4 
Q 1925 -63 1597 -63 
Q 1303 -63 1067 -17 
Q 831 28 653 128 
Q 475 228 354 392 
Q 234 556 178 794 
L 675 891 
Q 747 619 972 492 
Q 1197 366 1597 366 
Q 1778 366 1929 391 
Q 2081 416 2190 477 
Q 2300 538 2361 639 
Q 2422 741 2422 891 
Q 2422 1044 2350 1142 
Q 2278 1241 2150 1306 
Q 2022 1372 1839 1420 
Q 1656 1469 1438 1528 
Q 1234 1581 1034 1647 
Q 834 1713 673 1820 
Q 513 1928 413 2087 
Q 313 2247 313 2488 
Q 313 2950 642 3192 
Q 972 3434 1603 3434 
Q 2163 3434 2492 3237 
Q 2822 3041 2909 2606 
L 2403 2544 
Q 2375 2675 2300 2764 
Q 2225 2853 2119 2908 
Q 2013 2963 1880 2986 
Q 1747 3009 1603 3009 
Q 1222 3009 1040 2893 
Q 859 2778 859 2544 
Q 859 2406 926 2317 
Q 994 2228 1114 2167 
Q 1234 2106 1403 2061 
Q 1572 2016 1775 1966 
Q 1909 1931 2050 1892 
Q 2191 1853 2323 1798 
Q 2456 1744 2573 1670 
Q 2691 1597 2778 1494 
Q 2866 1391 2917 1253 
Q 2969 1116 2969 934 
z
" transform="scale(0.015625)"/>
      </defs>
      <use xlink:href="#LiberationSans-6d"/>
      <use xlink:href="#LiberationSans-65" x="83.300781"/>
      <use xlink:href="#LiberationSans-64" x="138.916016"/>
      <use xlink:href="#LiberationSans-69" x="194.53125"/>
      <use xlink:href="#LiberationSans-63" x="216.748047"/>
      <use xlink:href="#LiberationSans-75" x="266.748047"/>
      <use xlink:href="#LiberationSans-73" x="322.363281"/>
     </g>
    </g>
   </g>
   <g id="text_2">
    <g clip-path="url(#pbecba5e653)">
     <!-- pistor -->
     <g style="opacity: 0.8" transform="translate(120.445602 173.234381) scale(0.06 -0.06)">
      <defs>
       <path id="LiberationSans-70" d="M 3291 1706 
Q 3291 1322 3228 997 
Q 3166 672 3020 437 
Q 2875 203 2636 70 
Q 2397 -63 2047 -63 
Q 1684 -63 1412 75 
Q 1141 213 997 525 
L 981 525 
Q 984 519 986 469 
Q 988 419 989 344 
Q 991 269 992 176 
Q 994 84 994 -6 
L 994 -1328 
L 431 -1328 
L 431 2691 
Q 431 2813 429 2925 
Q 428 3038 425 3130 
Q 422 3222 419 3287 
Q 416 3353 413 3381 
L 956 3381 
Q 959 3372 964 3315 
Q 969 3259 973 3179 
Q 978 3100 983 3009 
Q 988 2919 988 2838 
L 1000 2838 
Q 1078 3000 1178 3114 
Q 1278 3228 1406 3301 
Q 1534 3375 1692 3408 
Q 1850 3441 2047 3441 
Q 2397 3441 2636 3316 
Q 2875 3191 3020 2964 
Q 3166 2738 3228 2417 
Q 3291 2097 3291 1706 
z
M 2700 1694 
Q 2700 2006 2662 2250 
Q 2625 2494 2533 2662 
Q 2441 2831 2287 2918 
Q 2134 3006 1903 3006 
Q 1716 3006 1550 2953 
Q 1384 2900 1261 2750 
Q 1138 2600 1066 2336 
Q 994 2072 994 1650 
Q 994 1291 1053 1042 
Q 1113 794 1227 641 
Q 1341 488 1509 420 
Q 1678 353 1897 353 
Q 2131 353 2286 443 
Q 2441 534 2533 706 
Q 2625 878 2662 1126 
Q 2700 1375 2700 1694 
z
" transform="scale(0.015625)"/>
       <path id="LiberationSans-74" d="M 1731 25 
Q 1603 -9 1470 -29 
Q 1338 -50 1163 -50 
Q 488 -50 488 716 
L 488 2972 
L 97 2972 
L 97 3381 
L 509 3381 
L 675 4138 
L 1050 4138 
L 1050 3381 
L 1675 3381 
L 1675 2972 
L 1050 2972 
L 1050 838 
Q 1050 594 1129 495 
Q 1209 397 1406 397 
Q 1488 397 1564 409 
Q 1641 422 1731 441 
L 1731 25 
z
" transform="scale(0.015625)"/>
       <path id="LiberationSans-6f" d="M 3291 1694 
Q 3291 806 2900 371 
Q 2509 -63 1766 -63 
Q 1413 -63 1134 43 
Q 856 150 664 369 
Q 472 588 370 917 
Q 269 1247 269 1694 
Q 269 3444 1784 3444 
Q 2178 3444 2464 3334 
Q 2750 3225 2933 3006 
Q 3116 2788 3203 2459 
Q 3291 2131 3291 1694 
z
M 2700 1694 
Q 2700 2088 2639 2344 
Q 2578 2600 2461 2753 
Q 2344 2906 2175 2967 
Q 2006 3028 1794 3028 
Q 1578 3028 1404 2964 
Q 1231 2900 1109 2745 
Q 988 2591 923 2334 
Q 859 2078 859 1694 
Q 859 1300 928 1042 
Q 997 784 1117 631 
Q 1238 478 1402 415 
Q 1566 353 1759 353 
Q 1975 353 2150 414 
Q 2325 475 2447 628 
Q 2569 781 2634 1040 
Q 2700 1300 2700 1694 
z
" transform="scale(0.015625)"/>
       <path id="LiberationSans-72" d="M 444 0 
L 444 2594 
Q 444 2700 442 2811 
Q 441 2922 437 3025 
Q 434 3128 431 3218 
Q 428 3309 425 3381 
L 956 3381 
Q 959 3309 964 3217 
Q 969 3125 973 3028 
Q 978 2931 979 2842 
Q 981 2753 981 2691 
L 994 2691 
Q 1053 2884 1120 3026 
Q 1188 3169 1278 3261 
Q 1369 3353 1494 3398 
Q 1619 3444 1797 3444 
Q 1866 3444 1928 3433 
Q 1991 3422 2025 3413 
L 2025 2897 
Q 1969 2913 1894 2920 
Q 1819 2928 1725 2928 
Q 1531 2928 1395 2840 
Q 1259 2753 1173 2598 
Q 1088 2444 1047 2230 
Q 1006 2016 1006 1763 
L 1006 0 
L 444 0 
z
" transform="scale(0.015625)"/>
      </defs>
      <use xlink:href="#LiberationSans-70"/>
      <use xlink:href="#LiberationSans-69" x="55.615234"/>
      <use xlink:href="#LiberationSans-73" x="77.832031"/>
      <use xlink:href="#LiberationSans-74" x="127.832031"/>
      <use xlink:href="#LiberationSans-6f" x="155.615234"/>
      <use xlink:href="#LiberationSans-72" x="211.230469"/>
     </g>
    </g>
   </g>
   <g id="text_3">
    <g clip-path="url(#pbecba5e653)">
     <!-- arcarius -->
     <g style="opacity: 0.8" transform="translate(289.120037 96.408789) scale(0.06 -0.06)">
      <defs>
       <path id="LiberationSans-61" d="M 1294 -63 
Q 784 -63 528 206 
Q 272 475 272 944 
Q 272 1278 398 1492 
Q 525 1706 729 1828 
Q 934 1950 1196 1997 
Q 1459 2044 1731 2050 
L 2491 2063 
L 2491 2247 
Q 2491 2456 2447 2603 
Q 2403 2750 2312 2840 
Q 2222 2931 2086 2973 
Q 1950 3016 1766 3016 
Q 1603 3016 1472 2992 
Q 1341 2969 1244 2908 
Q 1147 2847 1087 2742 
Q 1028 2638 1009 2478 
L 422 2531 
Q 453 2731 540 2898 
Q 628 3066 789 3187 
Q 950 3309 1192 3376 
Q 1434 3444 1778 3444 
Q 2416 3444 2737 3151 
Q 3059 2859 3059 2306 
L 3059 850 
Q 3059 600 3125 473 
Q 3191 347 3375 347 
Q 3422 347 3469 353 
Q 3516 359 3559 369 
L 3559 19 
Q 3453 -6 3348 -18 
Q 3244 -31 3125 -31 
Q 2966 -31 2852 11 
Q 2738 53 2666 139 
Q 2594 225 2556 351 
Q 2519 478 2509 647 
L 2491 647 
Q 2400 484 2292 353 
Q 2184 222 2040 130 
Q 1897 38 1714 -12 
Q 1531 -63 1294 -63 
z
M 1422 359 
Q 1691 359 1892 457 
Q 2094 556 2226 709 
Q 2359 863 2425 1044 
Q 2491 1225 2491 1391 
L 2491 1669 
L 1875 1656 
Q 1669 1653 1483 1626 
Q 1297 1600 1156 1522 
Q 1016 1444 933 1303 
Q 850 1163 850 934 
Q 850 659 998 509 
Q 1147 359 1422 359 
z
" transform="scale(0.015625)"/>
      </defs>
      <use xlink:href="#LiberationSans-61"/>
      <use xlink:href="#LiberationSans-72" x="55.615234"/>
      <use xlink:href="#LiberationSans-63" x="88.916016"/>
      <use xlink:href="#LiberationSans-61" x="138.916016"/>
      <use xlink:href="#LiberationSans-72" x="194.53125"/>
      <use xlink:href="#LiberationSans-69" x="227.832031"/>
      <use xlink:href="#LiberationSans-75" x="250.048828"/>
      <use xlink:href="#LiberationSans-73" x="305.664062"/>
     </g>
    </g>
   </g>
   <g id="text_4">
    <g clip-path="url(#pbecba5e653)">
     <!-- argentarius -->
     <g style="opacity: 0.8" transform="translate(203.872335 246.37809) scale(0.06 -0.06)">
      <defs>
       <path id="LiberationSans-67" d="M 1713 -1328 
Q 1422 -1328 1197 -1268 
Q 972 -1209 812 -1098 
Q 653 -988 553 -834 
Q 453 -681 409 -494 
L 975 -413 
Q 1031 -647 1223 -773 
Q 1416 -900 1728 -900 
Q 1919 -900 2075 -847 
Q 2231 -794 2340 -676 
Q 2450 -559 2509 -371 
Q 2569 -184 2569 84 
L 2569 628 
L 2563 628 
Q 2500 500 2408 383 
Q 2316 266 2183 175 
Q 2050 84 1875 29 
Q 1700 -25 1475 -25 
Q 1153 -25 923 83 
Q 694 191 548 406 
Q 403 622 336 942 
Q 269 1263 269 1684 
Q 269 2091 336 2416 
Q 403 2741 554 2967 
Q 706 3194 948 3314 
Q 1191 3434 1538 3434 
Q 1897 3434 2161 3270 
Q 2425 3106 2569 2803 
L 2575 2803 
Q 2575 2881 2579 2978 
Q 2584 3075 2589 3161 
Q 2594 3247 2600 3309 
Q 2606 3372 2613 3381 
L 3147 3381 
Q 3144 3353 3141 3286 
Q 3138 3219 3134 3125 
Q 3131 3031 3129 2917 
Q 3128 2803 3128 2681 
L 3128 97 
Q 3128 -613 2779 -970 
Q 2431 -1328 1713 -1328 
z
M 2569 1691 
Q 2569 2044 2492 2295 
Q 2416 2547 2291 2706 
Q 2166 2866 2005 2941 
Q 1844 3016 1675 3016 
Q 1459 3016 1304 2941 
Q 1150 2866 1048 2705 
Q 947 2544 898 2292 
Q 850 2041 850 1691 
Q 850 1325 898 1076 
Q 947 828 1047 675 
Q 1147 522 1300 456 
Q 1453 391 1666 391 
Q 1834 391 1995 462 
Q 2156 534 2284 690 
Q 2413 847 2491 1094 
Q 2569 1341 2569 1691 
z
" transform="scale(0.015625)"/>
       <path id="LiberationSans-6e" d="M 2578 0 
L 2578 2144 
Q 2578 2391 2542 2556 
Q 2506 2722 2425 2823 
Q 2344 2925 2211 2967 
Q 2078 3009 1881 3009 
Q 1681 3009 1520 2939 
Q 1359 2869 1245 2736 
Q 1131 2603 1068 2408 
Q 1006 2213 1006 1959 
L 1006 0 
L 444 0 
L 444 2659 
Q 444 2766 442 2883 
Q 441 3000 437 3104 
Q 434 3209 431 3284 
Q 428 3359 425 3381 
L 956 3381 
Q 959 3366 962 3297 
Q 966 3228 970 3139 
Q 975 3050 978 2958 
Q 981 2866 981 2803 
L 991 2803 
Q 1072 2950 1169 3069 
Q 1266 3188 1394 3270 
Q 1522 3353 1687 3398 
Q 1853 3444 2072 3444 
Q 2353 3444 2556 3375 
Q 2759 3306 2890 3162 
Q 3022 3019 3083 2792 
Q 3144 2566 3144 2253 
L 3144 0 
L 2578 0 
z
" transform="scale(0.015625)"/>
      </defs>
      <use xlink:href="#LiberationSans-61"/>
      <use xlink:href="#LiberationSans-72" x="55.615234"/>
      <use xlink:href="#LiberationSans-67" x="88.916016"/>
      <use xlink:href="#LiberationSans-65" x="144.53125"/>
      <use xlink:href="#LiberationSans-6e" x="200.146484"/>
      <use xlink:href="#LiberationSans-74" x="255.761719"/>
      <use xlink:href="#LiberationSans-61" x="283.544922"/>
      <use xlink:href="#LiberationSans-72" x="339.160156"/>
      <use xlink:href="#LiberationSans-69" x="372.460938"/>
      <use xlink:href="#LiberationSans-75" x="394.677734"/>
      <use xlink:href="#LiberationSans-73" x="450.292969"/>
     </g>
    </g>
   </g>
   <g id="text_5">
    <g clip-path="url(#pbecba5e653)">
     <!-- curator -->
     <g style="opacity: 0.8" transform="translate(244.725196 68.806108) scale(0.06 -0.06)">
      <use xlink:href="#LiberationSans-63"/>
      <use xlink:href="#LiberationSans-75" x="50"/>
      <use xlink:href="#LiberationSans-72" x="105.615234"/>
      <use xlink:href="#LiberationSans-61" x="138.916016"/>
      <use xlink:href="#LiberationSans-74" x="194.53125"/>
      <use xlink:href="#LiberationSans-6f" x="222.314453"/>
      <use xlink:href="#LiberationSans-72" x="277.929688"/>
     </g>
    </g>
   </g>
   <g id="text_6">
    <g clip-path="url(#pbecba5e653)">
     <!-- aerarius -->
     <g style="opacity: 0.8" transform="translate(285.235869 159.204016) scale(0.06 -0.06)">
      <use xlink:href="#LiberationSans-61"/>
      <use xlink:href="#LiberationSans-65" x="55.615234"/>
      <use xlink:href="#LiberationSans-72" x="111.230469"/>
      <use xlink:href="#LiberationSans-61" x="144.53125"/>
      <use xlink:href="#LiberationSans-72" x="200.146484"/>
      <use xlink:href="#LiberationSans-69" x="233.447266"/>
      <use xlink:href="#LiberationSans-75" x="255.664062"/>
      <use xlink:href="#LiberationSans-73" x="311.279297"/>
     </g>
    </g>
   </g>
   <g id="text_7">
    <g clip-path="url(#pbecba5e653)">
     <!-- fossor -->
     <g style="opacity: 0.8" transform="translate(61.041838 255.90653) scale(0.06 -0.06)">
      <defs>
       <path id="LiberationSans-66" d="M 1128 2972 
L 1128 0 
L 566 0 
L 566 2972 
L 91 2972 
L 91 3381 
L 566 3381 
L 566 3763 
Q 566 3947 600 4105 
Q 634 4263 726 4380 
Q 819 4497 978 4564 
Q 1138 4631 1391 4631 
Q 1491 4631 1598 4622 
Q 1706 4613 1788 4594 
L 1788 4166 
Q 1734 4175 1664 4183 
Q 1594 4191 1538 4191 
Q 1413 4191 1333 4156 
Q 1253 4122 1208 4058 
Q 1163 3994 1145 3900 
Q 1128 3806 1128 3684 
L 1128 3381 
L 1788 3381 
L 1788 2972 
L 1128 2972 
z
" transform="scale(0.015625)"/>
      </defs>
      <use xlink:href="#LiberationSans-66"/>
      <use xlink:href="#LiberationSans-6f" x="27.783203"/>
      <use xlink:href="#LiberationSans-73" x="83.398438"/>
      <use xlink:href="#LiberationSans-73" x="133.398438"/>
      <use xlink:href="#LiberationSans-6f" x="183.398438"/>
      <use xlink:href="#LiberationSans-72" x="239.013672"/>
     </g>
    </g>
   </g>
   <g id="text_8">
    <g clip-path="url(#pbecba5e653)">
     <!-- faber -->
     <g style="opacity: 0.8" transform="translate(108.800764 233.10325) scale(0.06 -0.06)">
      <defs>
       <path id="LiberationSans-62" d="M 3291 1706 
Q 3291 -63 2047 -63 
Q 1663 -63 1408 76 
Q 1153 216 994 525 
L 988 525 
Q 988 444 983 356 
Q 978 269 973 194 
Q 969 119 964 66 
Q 959 13 956 0 
L 413 0 
Q 416 28 419 95 
Q 422 163 425 256 
Q 428 350 429 462 
Q 431 575 431 697 
L 431 4638 
L 994 4638 
L 994 3316 
Q 994 3222 992 3136 
Q 991 3050 988 2984 
Q 984 2906 981 2838 
L 994 2838 
Q 1150 3163 1408 3303 
Q 1666 3444 2047 3444 
Q 2688 3444 2989 3012 
Q 3291 2581 3291 1706 
z
M 2700 1688 
Q 2700 2038 2656 2288 
Q 2613 2538 2516 2698 
Q 2419 2859 2269 2934 
Q 2119 3009 1903 3009 
Q 1681 3009 1511 2937 
Q 1341 2866 1227 2706 
Q 1113 2547 1053 2287 
Q 994 2028 994 1653 
Q 994 1291 1053 1044 
Q 1113 797 1227 642 
Q 1341 488 1509 420 
Q 1678 353 1897 353 
Q 2103 353 2253 425 
Q 2403 497 2503 656 
Q 2603 816 2651 1070 
Q 2700 1325 2700 1688 
z
" transform="scale(0.015625)"/>
      </defs>
      <use xlink:href="#LiberationSans-66"/>
      <use xlink:href="#LiberationSans-61" x="27.783203"/>
      <use xlink:href="#LiberationSans-62" x="83.398438"/>
      <use xlink:href="#LiberationSans-65" x="139.013672"/>
      <use xlink:href="#LiberationSans-72" x="194.628906"/>
     </g>
    </g>
   </g>
   <g id="text_9">
    <g clip-path="url(#pbecba5e653)">
     <!-- scriba -->
     <g style="opacity: 0.8" transform="translate(165.816811 175.790964) scale(0.06 -0.06)">
      <use xlink:href="#LiberationSans-73"/>
      <use xlink:href="#LiberationSans-63" x="50"/>
      <use xlink:href="#LiberationSans-72" x="100"/>
      <use xlink:href="#LiberationSans-69" x="133.300781"/>
      <use xlink:href="#LiberationSans-62" x="155.517578"/>
      <use xlink:href="#LiberationSans-61" x="211.132812"/>
     </g>
    </g>
   </g>
   <g id="text_10">
    <g clip-path="url(#pbecba5e653)">
     <!-- negotiator -->
     <g style="opacity: 0.8" transform="translate(238.057865 193.180158) scale(0.06 -0.06)">
      <use xlink:href="#LiberationSans-6e"/>
      <use xlink:href="#LiberationSans-65" x="55.615234"/>
      <use xlink:href="#LiberationSans-67" x="111.230469"/>
      <use xlink:href="#LiberationSans-6f" x="166.845703"/>
      <use xlink:href="#LiberationSans-74" x="222.460938"/>
      <use xlink:href="#LiberationSans-69" x="250.244141"/>
      <use xlink:href="#LiberationSans-61" x="272.460938"/>
      <use xlink:href="#LiberationSans-74" x="328.076172"/>
      <use xlink:href="#LiberationSans-6f" x="355.859375"/>
      <use xlink:href="#LiberationSans-72" x="411.474609"/>
     </g>
    </g>
   </g>
   <g id="text_11">
    <g clip-path="url(#pbecba5e653)">
     <!-- mensor -->
     <g style="opacity: 0.8" transform="translate(253.078125 245.582771) scale(0.06 -0.06)">
      <use xlink:href="#LiberationSans-6d"/>
      <use xlink:href="#LiberationSans-65" x="83.300781"/>
      <use xlink:href="#LiberationSans-6e" x="138.916016"/>
      <use xlink:href="#LiberationSans-73" x="194.53125"/>
      <use xlink:href="#LiberationSans-6f" x="244.53125"/>
      <use xlink:href="#LiberationSans-72" x="300.146484"/>
     </g>
    </g>
   </g>
   <g id="text_12">
    <g clip-path="url(#pbecba5e653)">
     <!-- frumentarius -->
     <g style="opacity: 0.8" transform="translate(193.630576 297.897017) scale(0.06 -0.06)">
      <use xlink:href="#LiberationSans-66"/>
      <use xlink:href="#LiberationSans-72" x="27.783203"/>
      <use xlink:href="#LiberationSans-75" x="61.083984"/>
      <use xlink:href="#LiberationSans-6d" x="116.699219"/>
      <use xlink:href="#LiberationSans-65" x="200"/>
      <use xlink:href="#LiberationSans-6e" x="255.615234"/>
      <use xlink:href="#LiberationSans-74" x="311.230469"/>
      <use xlink:href="#LiberationSans-61" x="339.013672"/>
      <use xlink:href="#LiberationSans-72" x="394.628906"/>
      <use xlink:href="#LiberationSans-69" x="427.929688"/>
      <use xlink:href="#LiberationSans-75" x="450.146484"/>
      <use xlink:href="#LiberationSans-73" x="505.761719"/>
     </g>
    </g>
   </g>
   <g id="text_13">
    <g clip-path="url(#pbecba5e653)">
     <!-- ornatrix -->
     <g style="opacity: 0.8" transform="translate(153.528267 262.775375) scale(0.06 -0.06)">
      <defs>
       <path id="LiberationSans-78" d="M 2503 0 
L 1594 1388 
L 678 0 
L 72 0 
L 1275 1738 
L 128 3381 
L 750 3381 
L 1594 2066 
L 2431 3381 
L 3059 3381 
L 1913 1744 
L 3131 0 
L 2503 0 
z
" transform="scale(0.015625)"/>
      </defs>
      <use xlink:href="#LiberationSans-6f"/>
      <use xlink:href="#LiberationSans-72" x="55.615234"/>
      <use xlink:href="#LiberationSans-6e" x="88.916016"/>
      <use xlink:href="#LiberationSans-61" x="144.53125"/>
      <use xlink:href="#LiberationSans-74" x="200.146484"/>
      <use xlink:href="#LiberationSans-72" x="227.929688"/>
      <use xlink:href="#LiberationSans-69" x="261.230469"/>
      <use xlink:href="#LiberationSans-78" x="283.447266"/>
     </g>
    </g>
   </g>
   <g id="text_14">
    <g clip-path="url(#pbecba5e653)">
     <!-- vestiarius -->
     <g style="opacity: 0.8" transform="translate(123.262793 109.462682) scale(0.06 -0.06)">
      <defs>
       <path id="LiberationSans-76" d="M 1916 0 
L 1250 0 
L 22 3381 
L 622 3381 
L 1366 1181 
Q 1388 1113 1417 1014 
Q 1447 916 1478 809 
Q 1509 703 1536 604 
Q 1563 506 1581 441 
Q 1600 506 1629 604 
Q 1659 703 1690 806 
Q 1722 909 1755 1007 
Q 1788 1106 1813 1175 
L 2581 3381 
L 3178 3381 
L 1916 0 
z
" transform="scale(0.015625)"/>
      </defs>
      <use xlink:href="#LiberationSans-76"/>
      <use xlink:href="#LiberationSans-65" x="50"/>
      <use xlink:href="#LiberationSans-73" x="105.615234"/>
      <use xlink:href="#LiberationSans-74" x="155.615234"/>
      <use xlink:href="#LiberationSans-69" x="183.398438"/>
      <use xlink:href="#LiberationSans-61" x="205.615234"/>
      <use xlink:href="#LiberationSans-72" x="261.230469"/>
      <use xlink:href="#LiberationSans-69" x="294.53125"/>
      <use xlink:href="#LiberationSans-75" x="316.748047"/>
      <use xlink:href="#LiberationSans-73" x="372.363281"/>
     </g>
    </g>
   </g>
  </g>
 </g>
 <defs>
  <clipPath id="pbecba5e653">
   <rect x="45" y="43.2" width="279" height="277.2"/>
  </clipPath>
 </defs>
</svg>
