<?xml version="1.0" encoding="utf-8" standalone="no"?>
<!DOCTYPE svg PUBLIC "-//W3C//DTD SVG 1.1//EN"
  "http://www.w3.org/Graphics/SVG/1.1/DTD/svg11.dtd">
<svg xmlns:xlink="http://www.w3.org/1999/xlink" width="360pt" height="360pt" viewBox="0 0 360 360" xmlns="http://www.w3.org/2000/svg" version="1.1">
 <metadata>
  <rdf:RDF xmlns:dc="http://purl.org/dc/elements/1.1/" xmlns:cc="http://creativecommons.org/ns#" xmlns:rdf="http://www.w3.org/1999/02/22-rdf-syntax-ns#">
   <cc:Work>
    <dc:type rdf:resource="http://purl.org/dc/dcmitype/StillImage"/>
    <dc:date>2023-11-21T09:23:40.407317</dc:date>
    <dc:format>image/svg+xml</dc:format>
    <dc:creator>
     <cc:Agent>
      <dc:title>Matplotlib v3.8.0, https://matplotlib.org/</dc:title>
     </cc:Agent>
    </dc:creator>
   </cc:Work>
  </rdf:RDF>
 </metadata>
 <defs>
  <style type="text/css">*{stroke-linejoin: round; stroke-linecap: butt}</style>
 </defs>
 <g id="figure_1">
  <g id="patch_1">
   <path d="M 0 360 
L 360 360 
L 360 0 
L 0 0 
z
" style="fill: #ffffff"/>
  </g>
  <g id="axes_1">
   <g id="LineCollection_1">
    <path d="M 230.455055 192.880578 
L 223.331696 162.834501 
" clip-path="url(#pe26a251e77)" style="fill: none; stroke: #808080; stroke-opacity: 0.8; stroke-width: 2.321928"/>
    <path d="M 230.455055 192.880578 
L 244.448531 296.345455 
" clip-path="url(#pe26a251e77)" style="fill: none; stroke: #808080; stroke-opacity: 0.8; stroke-width: 3.906891"/>
    <path d="M 299.789256 142.352603 
L 282.477359 143.11895 
" clip-path="url(#pe26a251e77)" style="fill: none; stroke: #808080; stroke-opacity: 0.8; stroke-width: 2.321928"/>
    <path d="M 256.991362 101.167315 
L 223.331696 162.834501 
" clip-path="url(#pe26a251e77)" style="fill: none; stroke: #808080; stroke-opacity: 0.8; stroke-width: 6.965784"/>
    <path d="M 256.991362 101.167315 
L 207.476655 67.254545 
" clip-path="url(#pe26a251e77)" style="fill: none; stroke: #808080; stroke-opacity: 0.8; stroke-width: 4.643856"/>
    <path d="M 256.991362 101.167315 
L 108.688872 156.079134 
" clip-path="url(#pe26a251e77)" style="fill: none; stroke: #808080; stroke-opacity: 0.8; stroke-width: 7.321928"/>
    <path d="M 256.991362 101.167315 
L 282.477359 143.11895 
" clip-path="url(#pe26a251e77)" style="fill: none; stroke: #808080; stroke-opacity: 0.8; stroke-width: 3.321928"/>
    <path d="M 256.991362 101.167315 
L 73.719308 78.68176 
" clip-path="url(#pe26a251e77)" style="fill: none; stroke: #808080; stroke-opacity: 0.8; stroke-width: 6.78136"/>
    <path d="M 256.991362 101.167315 
L 220.642519 129.194037 
" clip-path="url(#pe26a251e77)" style="fill: none; stroke: #808080; stroke-opacity: 0.8; stroke-width: 3.321928"/>
    <path d="M 256.991362 101.167315 
L 208.185992 150.18062 
" clip-path="url(#pe26a251e77)" style="fill: none; stroke: #808080; stroke-opacity: 0.8; stroke-width: 4.643856"/>
    <path d="M 256.991362 101.167315 
L 194.02602 213.206505 
" clip-path="url(#pe26a251e77)" style="fill: none; stroke: #808080; stroke-opacity: 0.8; stroke-width: 6.022368"/>
    <path d="M 223.331696 162.834501 
L 108.688872 156.079134 
" clip-path="url(#pe26a251e77)" style="fill: none; stroke: #808080; stroke-opacity: 0.8; stroke-width: 4.906891"/>
    <path d="M 223.331696 162.834501 
L 282.477359 143.11895 
" clip-path="url(#pe26a251e77)" style="fill: none; stroke: #808080; stroke-opacity: 0.8; stroke-width: 3.906891"/>
    <path d="M 223.331696 162.834501 
L 220.642519 129.194037 
" clip-path="url(#pe26a251e77)" style="fill: none; stroke: #808080; stroke-opacity: 0.8; stroke-width: 2.321928"/>
    <path d="M 223.331696 162.834501 
L 208.185992 150.18062 
" clip-path="url(#pe26a251e77)" style="fill: none; stroke: #808080; stroke-opacity: 0.8; stroke-width: 2.321928"/>
    <path d="M 223.331696 162.834501 
L 194.02602 213.206505 
" clip-path="url(#pe26a251e77)" style="fill: none; stroke: #808080; stroke-opacity: 0.8; stroke-width: 3.321928"/>
    <path d="M 73.719308 78.68176 
L 108.688872 156.079134 
" clip-path="url(#pe26a251e77)" style="fill: none; stroke: #808080; stroke-opacity: 0.8; stroke-width: 3.906891"/>
    <path d="M 73.719308 78.68176 
L 208.185992 150.18062 
" clip-path="url(#pe26a251e77)" style="fill: none; stroke: #808080; stroke-opacity: 0.8; stroke-width: 5.321928"/>
    <path d="M 73.719308 78.68176 
L 194.02602 213.206505 
" clip-path="url(#pe26a251e77)" style="fill: none; stroke: #808080; stroke-opacity: 0.8; stroke-width: 5.129283"/>
    <path d="M 207.476655 67.254545 
L 108.688872 156.079134 
" clip-path="url(#pe26a251e77)" style="fill: none; stroke: #808080; stroke-opacity: 0.8; stroke-width: 6.643856"/>
    <path d="M 207.476655 67.254545 
L 213.250725 98.091866 
" clip-path="url(#pe26a251e77)" style="fill: none; stroke: #808080; stroke-opacity: 0.8; stroke-width: 2.321928"/>
    <path d="M 208.185992 150.18062 
L 108.688872 156.079134 
" clip-path="url(#pe26a251e77)" style="fill: none; stroke: #808080; stroke-opacity: 0.8; stroke-width: 4.643856"/>
    <path d="M 208.185992 150.18062 
L 220.642519 129.194037 
" clip-path="url(#pe26a251e77)" style="fill: none; stroke: #808080; stroke-opacity: 0.8; stroke-width: 2.321928"/>
    <path d="M 208.185992 150.18062 
L 194.02602 213.206505 
" clip-path="url(#pe26a251e77)" style="fill: none; stroke: #808080; stroke-opacity: 0.8; stroke-width: 7.451211"/>
    <path d="M 108.688872 156.079134 
L 69.210744 231.949011 
" clip-path="url(#pe26a251e77)" style="fill: none; stroke: #808080; stroke-opacity: 0.8; stroke-width: 3.906891"/>
    <path d="M 108.688872 156.079134 
L 194.02602 213.206505 
" clip-path="url(#pe26a251e77)" style="fill: none; stroke: #808080; stroke-opacity: 0.8; stroke-width: 6.228819"/>
    <path d="M 220.642519 129.194037 
L 213.250725 98.091866 
" clip-path="url(#pe26a251e77)" style="fill: none; stroke: #808080; stroke-opacity: 0.8; stroke-width: 2.321928"/>
   </g>
   <g id="PathCollection_1">
    <path d="M 230.455055 198.028393 
C 231.820271 198.028393 233.129756 197.485987 234.095109 196.520633 
C 235.060463 195.555279 235.60287 194.245794 235.60287 192.880578 
C 235.60287 191.515361 235.060463 190.205877 234.095109 189.240523 
C 233.129756 188.275169 231.820271 187.732763 230.455055 187.732763 
C 229.089838 187.732763 227.780353 188.275169 226.815 189.240523 
C 225.849646 190.205877 225.307239 191.515361 225.307239 192.880578 
C 225.307239 194.245794 225.849646 195.555279 226.815 196.520633 
C 227.780353 197.485987 229.089838 198.028393 230.455055 198.028393 
z
" clip-path="url(#pe26a251e77)" style="fill: #ff0000; fill-opacity: 0.8; stroke: #ff0000; stroke-opacity: 0.8"/>
    <path d="M 299.789256 145.136486 
C 300.52755 145.136486 301.235705 144.843158 301.757758 144.321105 
C 302.279811 143.799053 302.573138 143.090898 302.573138 142.352603 
C 302.573138 141.614309 302.279811 140.906154 301.757758 140.384101 
C 301.235705 139.862049 300.52755 139.568721 299.789256 139.568721 
C 299.050962 139.568721 298.342807 139.862049 297.820754 140.384101 
C 297.298701 140.906154 297.005374 141.614309 297.005374 142.352603 
C 297.005374 143.090898 297.298701 143.799053 297.820754 144.321105 
C 298.342807 144.843158 299.050962 145.136486 299.789256 145.136486 
z
" clip-path="url(#pe26a251e77)" style="fill: #0000ff; fill-opacity: 0.8; stroke: #0000ff; stroke-opacity: 0.8"/>
    <path d="M 256.991362 111.691097 
C 259.782301 111.691097 262.459307 110.582245 264.4328 108.608753 
C 266.406292 106.63526 267.515144 103.958255 267.515144 101.167315 
C 267.515144 98.376375 266.406292 95.699369 264.4328 93.725877 
C 262.459307 91.752384 259.782301 90.643532 256.991362 90.643532 
C 254.200422 90.643532 251.523416 91.752384 249.549924 93.725877 
C 247.576431 95.699369 246.467579 98.376375 246.467579 101.167315 
C 246.467579 103.958255 247.576431 106.63526 249.549924 108.608753 
C 251.523416 110.582245 254.200422 111.691097 256.991362 111.691097 
z
" clip-path="url(#pe26a251e77)" style="fill: #008000; fill-opacity: 0.8; stroke: #008000; stroke-opacity: 0.8"/>
    <path d="M 223.331696 167.306637 
C 224.51772 167.306637 225.655328 166.835425 226.493974 165.996779 
C 227.332619 165.158133 227.803832 164.020526 227.803832 162.834501 
C 227.803832 161.648477 227.332619 160.51087 226.493974 159.672224 
C 225.655328 158.833578 224.51772 158.362366 223.331696 158.362366 
C 222.145672 158.362366 221.008064 158.833578 220.169418 159.672224 
C 219.330772 160.51087 218.85956 161.648477 218.85956 162.834501 
C 218.85956 164.020526 219.330772 165.158133 220.169418 165.996779 
C 221.008064 166.835425 222.145672 167.306637 223.331696 167.306637 
z
" clip-path="url(#pe26a251e77)" style="fill: #00ced1; fill-opacity: 0.8; stroke: #00ced1; stroke-opacity: 0.8"/>
    <path d="M 73.719308 82.835072 
C 74.820779 82.835072 75.877285 82.397453 76.656143 81.618595 
C 77.435001 80.839737 77.87262 79.783231 77.87262 78.68176 
C 77.87262 77.580289 77.435001 76.523782 76.656143 75.744925 
C 75.877285 74.966067 74.820779 74.528448 73.719308 74.528448 
C 72.617837 74.528448 71.561331 74.966067 70.782473 75.744925 
C 70.003615 76.523782 69.565996 77.580289 69.565996 78.68176 
C 69.565996 79.783231 70.003615 80.839737 70.782473 81.618595 
C 71.561331 82.397453 72.617837 82.835072 73.719308 82.835072 
z
" clip-path="url(#pe26a251e77)" style="fill: #ff0000; fill-opacity: 0.8; stroke: #ff0000; stroke-opacity: 0.8"/>
    <path d="M 207.476655 70.8946 
C 208.442009 70.8946 209.367954 70.511061 210.050562 69.828453 
C 210.733171 69.145845 211.11671 68.219899 211.11671 67.254545 
C 211.11671 66.289192 210.733171 65.363246 210.050562 64.680638 
C 209.367954 63.99803 208.442009 63.614491 207.476655 63.614491 
C 206.511301 63.614491 205.585356 63.99803 204.902747 64.680638 
C 204.220139 65.363246 203.8366 66.289192 203.8366 67.254545 
C 203.8366 68.219899 204.220139 69.145845 204.902747 69.828453 
C 205.585356 70.511061 206.511301 70.8946 207.476655 70.8946 
z
" clip-path="url(#pe26a251e77)" style="fill: #00ced1; fill-opacity: 0.8; stroke: #00ced1; stroke-opacity: 0.8"/>
    <path d="M 208.185992 153.497245 
C 209.065572 153.497245 209.909244 153.147784 210.5312 152.525828 
C 211.153157 151.903871 211.502617 151.060199 211.502617 150.18062 
C 211.502617 149.301041 211.153157 148.457368 210.5312 147.835412 
C 209.909244 147.213456 209.065572 146.863995 208.185992 146.863995 
C 207.306413 146.863995 206.462741 147.213456 205.840785 147.835412 
C 205.218828 148.457368 204.869368 149.301041 204.869368 150.18062 
C 204.869368 151.060199 205.218828 151.903871 205.840785 152.525828 
C 206.462741 153.147784 207.306413 153.497245 208.185992 153.497245 
z
" clip-path="url(#pe26a251e77)" style="fill: #ff0000; fill-opacity: 0.8; stroke: #ff0000; stroke-opacity: 0.8"/>
    <path d="M 108.688872 164.839842 
C 111.012239 164.839842 113.24076 163.916758 114.883628 162.27389 
C 116.526497 160.631021 117.44958 158.402501 117.44958 156.079134 
C 117.44958 153.755767 116.526497 151.527247 114.883628 149.884378 
C 113.24076 148.24151 111.012239 147.318426 108.688872 147.318426 
C 106.365505 147.318426 104.136985 148.24151 102.494116 149.884378 
C 100.851248 151.527247 99.928165 153.755767 99.928165 156.079134 
C 99.928165 158.402501 100.851248 160.631021 102.494116 162.27389 
C 104.136985 163.916758 106.365505 164.839842 108.688872 164.839842 
z
" clip-path="url(#pe26a251e77)" style="fill: #00ced1; fill-opacity: 0.8; stroke: #00ced1; stroke-opacity: 0.8"/>
    <path d="M 194.02602 217.329611 
C 195.11948 217.329611 196.168302 216.895174 196.941496 216.121981 
C 197.714689 215.348788 198.149125 214.299965 198.149125 213.206505 
C 198.149125 212.113045 197.714689 211.064222 196.941496 210.291029 
C 196.168302 209.517836 195.11948 209.083399 194.02602 209.083399 
C 192.932559 209.083399 191.883737 209.517836 191.110544 210.291029 
C 190.33735 211.064222 189.902914 212.113045 189.902914 213.206505 
C 189.902914 214.299965 190.33735 215.348788 191.110544 216.121981 
C 191.883737 216.895174 192.932559 217.329611 194.02602 217.329611 
z
" clip-path="url(#pe26a251e77)" style="fill: #0000ff; fill-opacity: 0.8; stroke: #0000ff; stroke-opacity: 0.8"/>
    <path d="M 220.642519 133.13104 
C 221.686625 133.13104 222.688107 132.716213 223.426401 131.977919 
C 224.164695 131.239625 224.579523 130.238142 224.579523 129.194037 
C 224.579523 128.149931 224.164695 127.148449 223.426401 126.410154 
C 222.688107 125.67186 221.686625 125.257033 220.642519 125.257033 
C 219.598413 125.257033 218.596931 125.67186 217.858637 126.410154 
C 217.120343 127.148449 216.705515 128.149931 216.705515 129.194037 
C 216.705515 130.238142 217.120343 131.239625 217.858637 131.977919 
C 218.596931 132.716213 219.598413 133.13104 220.642519 133.13104 
z
" clip-path="url(#pe26a251e77)" style="fill: #ffa500; fill-opacity: 0.8; stroke: #ffa500; stroke-opacity: 0.8"/>
    <path d="M 244.448531 299.129337 
C 245.186825 299.129337 245.89498 298.836009 246.417033 298.313957 
C 246.939086 297.791904 247.232413 297.083749 247.232413 296.345455 
C 247.232413 295.60716 246.939086 294.899005 246.417033 294.376953 
C 245.89498 293.8549 245.186825 293.561572 244.448531 293.561572 
C 243.710237 293.561572 243.002082 293.8549 242.480029 294.376953 
C 241.957976 294.899005 241.664649 295.60716 241.664649 296.345455 
C 241.664649 297.083749 241.957976 297.791904 242.480029 298.313957 
C 243.002082 298.836009 243.710237 299.129337 244.448531 299.129337 
z
" clip-path="url(#pe26a251e77)" style="fill: #ff0000; fill-opacity: 0.8; stroke: #ff0000; stroke-opacity: 0.8"/>
    <path d="M 69.210744 235.413113 
C 70.129434 235.413113 71.010621 235.048113 71.660234 234.398501 
C 72.309846 233.748888 72.674845 232.867701 72.674845 231.949011 
C 72.674845 231.03032 72.309846 230.149133 71.660234 229.499521 
C 71.010621 228.849909 70.129434 228.484909 69.210744 228.484909 
C 68.292053 228.484909 67.410866 228.849909 66.761254 229.499521 
C 66.111642 230.149133 65.746642 231.03032 65.746642 231.949011 
C 65.746642 232.867701 66.111642 233.748888 66.761254 234.398501 
C 67.410866 235.048113 68.292053 235.413113 69.210744 235.413113 
z
" clip-path="url(#pe26a251e77)" style="fill: #00ced1; fill-opacity: 0.8; stroke: #00ced1; stroke-opacity: 0.8"/>
    <path d="M 282.477359 146.281228 
C 283.316005 146.281228 284.120415 145.94803 284.713427 145.355018 
C 285.306439 144.762006 285.639637 143.957596 285.639637 143.11895 
C 285.639637 142.280304 285.306439 141.475894 284.713427 140.882882 
C 284.120415 140.28987 283.316005 139.956673 282.477359 139.956673 
C 281.638713 139.956673 280.834304 140.28987 280.241291 140.882882 
C 279.648279 141.475894 279.315082 142.280304 279.315082 143.11895 
C 279.315082 143.957596 279.648279 144.762006 280.241291 145.355018 
C 280.834304 145.94803 281.638713 146.281228 282.477359 146.281228 
z
" clip-path="url(#pe26a251e77)" style="fill: #ffa500; fill-opacity: 0.8; stroke: #ffa500; stroke-opacity: 0.8"/>
    <path d="M 213.250725 100.737617 
C 213.952386 100.737617 214.625404 100.458844 215.121554 99.962695 
C 215.617703 99.466545 215.896476 98.793528 215.896476 98.091866 
C 215.896476 97.390205 215.617703 96.717187 215.121554 96.221037 
C 214.625404 95.724888 213.952386 95.446115 213.250725 95.446115 
C 212.549063 95.446115 211.876046 95.724888 211.379896 96.221037 
C 210.883747 96.717187 210.604974 97.390205 210.604974 98.091866 
C 210.604974 98.793528 210.883747 99.466545 211.379896 99.962695 
C 211.876046 100.458844 212.549063 100.737617 213.250725 100.737617 
z
" clip-path="url(#pe26a251e77)" style="fill: #ffa500; fill-opacity: 0.8; stroke: #ffa500; stroke-opacity: 0.8"/>
   </g>
   <g id="text_1">
    <g clip-path="url(#pe26a251e77)">
     <!-- medicus -->
     <g style="opacity: 0.8" transform="translate(219.284742 194.43214) scale(0.06 -0.06)">
      <defs>
       <path id="LiberationSans-6d" d="M 2400 0 
L 2400 2144 
Q 2400 2391 2369 2556 
Q 2338 2722 2264 2823 
Q 2191 2925 2072 2967 
Q 1953 3009 1781 3009 
Q 1603 3009 1459 2939 
Q 1316 2869 1214 2736 
Q 1113 2603 1058 2408 
Q 1003 2213 1003 1959 
L 1003 0 
L 444 0 
L 444 2659 
Q 444 2766 442 2883 
Q 441 3000 437 3104 
Q 434 3209 431 3284 
Q 428 3359 425 3381 
L 956 3381 
Q 959 3366 962 3297 
Q 966 3228 970 3139 
Q 975 3050 978 2958 
Q 981 2866 981 2803 
L 991 2803 
Q 1066 2950 1153 3069 
Q 1241 3188 1358 3270 
Q 1475 3353 1626 3398 
Q 1778 3444 1978 3444 
Q 2363 3444 2586 3291 
Q 2809 3138 2897 2803 
L 2906 2803 
Q 2981 2950 3075 3069 
Q 3169 3188 3294 3270 
Q 3419 3353 3575 3398 
Q 3731 3444 3931 3444 
Q 4188 3444 4373 3375 
Q 4559 3306 4678 3162 
Q 4797 3019 4853 2792 
Q 4909 2566 4909 2253 
L 4909 0 
L 4353 0 
L 4353 2144 
Q 4353 2391 4322 2556 
Q 4291 2722 4217 2823 
Q 4144 2925 4025 2967 
Q 3906 3009 3734 3009 
Q 3556 3009 3412 2942 
Q 3269 2875 3167 2744 
Q 3066 2613 3011 2416 
Q 2956 2219 2956 1959 
L 2956 0 
L 2400 0 
z
" transform="scale(0.015625)"/>
       <path id="LiberationSans-65" d="M 863 1572 
Q 863 1306 917 1082 
Q 972 859 1086 698 
Q 1200 538 1378 448 
Q 1556 359 1806 359 
Q 2172 359 2392 506 
Q 2613 653 2691 878 
L 3184 738 
Q 3131 597 3036 455 
Q 2941 313 2781 198 
Q 2622 84 2383 10 
Q 2144 -63 1806 -63 
Q 1056 -63 664 384 
Q 272 831 272 1713 
Q 272 2188 390 2517 
Q 509 2847 715 3053 
Q 922 3259 1197 3351 
Q 1472 3444 1784 3444 
Q 2209 3444 2495 3306 
Q 2781 3169 2954 2926 
Q 3128 2684 3201 2356 
Q 3275 2028 3275 1647 
L 3275 1572 
L 863 1572 
z
M 2694 2003 
Q 2647 2538 2422 2783 
Q 2197 3028 1775 3028 
Q 1634 3028 1479 2983 
Q 1325 2938 1194 2822 
Q 1063 2706 972 2507 
Q 881 2309 869 2003 
L 2694 2003 
z
" transform="scale(0.015625)"/>
       <path id="LiberationSans-64" d="M 2566 544 
Q 2409 219 2151 78 
Q 1894 -63 1513 -63 
Q 872 -63 570 368 
Q 269 800 269 1675 
Q 269 3444 1513 3444 
Q 1897 3444 2153 3303 
Q 2409 3163 2566 2856 
L 2572 2856 
Q 2572 2888 2570 2955 
Q 2569 3022 2567 3095 
Q 2566 3169 2566 3234 
Q 2566 3300 2566 3328 
L 2566 4638 
L 3128 4638 
L 3128 697 
Q 3128 575 3129 462 
Q 3131 350 3134 256 
Q 3138 163 3141 95 
Q 3144 28 3147 0 
L 2609 0 
Q 2603 31 2598 89 
Q 2594 147 2589 222 
Q 2584 297 2581 380 
Q 2578 463 2578 544 
L 2566 544 
z
M 859 1694 
Q 859 1344 903 1094 
Q 947 844 1044 683 
Q 1141 522 1291 447 
Q 1441 372 1656 372 
Q 1878 372 2048 444 
Q 2219 516 2333 677 
Q 2447 838 2506 1097 
Q 2566 1356 2566 1731 
Q 2566 2091 2506 2339 
Q 2447 2588 2331 2741 
Q 2216 2894 2048 2961 
Q 1881 3028 1663 3028 
Q 1456 3028 1306 2956 
Q 1156 2884 1056 2725 
Q 956 2566 907 2311 
Q 859 2056 859 1694 
z
" transform="scale(0.015625)"/>
       <path id="LiberationSans-69" d="M 428 4100 
L 428 4638 
L 991 4638 
L 991 4100 
L 428 4100 
z
M 428 0 
L 428 3381 
L 991 3381 
L 991 0 
L 428 0 
z
" transform="scale(0.015625)"/>
       <path id="LiberationSans-63" d="M 859 1706 
Q 859 1416 901 1172 
Q 944 928 1044 751 
Q 1144 575 1308 478 
Q 1472 381 1713 381 
Q 2013 381 2214 543 
Q 2416 706 2463 1044 
L 3031 1006 
Q 3003 797 2909 603 
Q 2816 409 2655 262 
Q 2494 116 2262 26 
Q 2031 -63 1728 -63 
Q 1331 -63 1053 71 
Q 775 206 601 442 
Q 428 678 350 998 
Q 272 1319 272 1694 
Q 272 2034 328 2295 
Q 384 2556 486 2751 
Q 588 2947 725 3080 
Q 863 3213 1023 3292 
Q 1184 3372 1362 3408 
Q 1541 3444 1722 3444 
Q 2006 3444 2228 3366 
Q 2450 3288 2611 3152 
Q 2772 3016 2872 2831 
Q 2972 2647 3013 2434 
L 2434 2391 
Q 2391 2672 2212 2837 
Q 2034 3003 1706 3003 
Q 1466 3003 1305 2923 
Q 1144 2844 1044 2683 
Q 944 2522 901 2278 
Q 859 2034 859 1706 
z
" transform="scale(0.015625)"/>
       <path id="LiberationSans-75" d="M 981 3381 
L 981 1238 
Q 981 991 1017 825 
Q 1053 659 1134 557 
Q 1216 456 1348 414 
Q 1481 372 1678 372 
Q 1878 372 2039 442 
Q 2200 513 2314 645 
Q 2428 778 2490 973 
Q 2553 1169 2553 1422 
L 2553 3381 
L 3116 3381 
L 3116 722 
Q 3116 616 3117 498 
Q 3119 381 3122 276 
Q 3125 172 3128 97 
Q 3131 22 3134 0 
L 2603 0 
Q 2600 16 2597 84 
Q 2594 153 2589 242 
Q 2584 331 2581 423 
Q 2578 516 2578 578 
L 2569 578 
Q 2488 431 2391 312 
Q 2294 194 2166 111 
Q 2038 28 1872 -17 
Q 1706 -63 1488 -63 
Q 1206 -63 1003 6 
Q 800 75 669 219 
Q 538 363 477 588 
Q 416 813 416 1128 
L 416 3381 
L 981 3381 
z
" transform="scale(0.015625)"/>
       <path id="LiberationSans-73" d="M 2969 934 
Q 2969 697 2876 511 
Q 2784 325 2609 198 
Q 2434 72 2179 4 
Q 1925 -63 1597 -63 
Q 1303 -63 1067 -17 
Q 831 28 653 128 
Q 475 228 354 392 
Q 234 556 178 794 
L 675 891 
Q 747 619 972 492 
Q 1197 366 1597 366 
Q 1778 366 1929 391 
Q 2081 416 2190 477 
Q 2300 538 2361 639 
Q 2422 741 2422 891 
Q 2422 1044 2350 1142 
Q 2278 1241 2150 1306 
Q 2022 1372 1839 1420 
Q 1656 1469 1438 1528 
Q 1234 1581 1034 1647 
Q 834 1713 673 1820 
Q 513 1928 413 2087 
Q 313 2247 313 2488 
Q 313 2950 642 3192 
Q 972 3434 1603 3434 
Q 2163 3434 2492 3237 
Q 2822 3041 2909 2606 
L 2403 2544 
Q 2375 2675 2300 2764 
Q 2225 2853 2119 2908 
Q 2013 2963 1880 2986 
Q 1747 3009 1603 3009 
Q 1222 3009 1040 2893 
Q 859 2778 859 2544 
Q 859 2406 926 2317 
Q 994 2228 1114 2167 
Q 1234 2106 1403 2061 
Q 1572 2016 1775 1966 
Q 1909 1931 2050 1892 
Q 2191 1853 2323 1798 
Q 2456 1744 2573 1670 
Q 2691 1597 2778 1494 
Q 2866 1391 2917 1253 
Q 2969 1116 2969 934 
z
" transform="scale(0.015625)"/>
      </defs>
      <use xlink:href="#LiberationSans-6d"/>
      <use xlink:href="#LiberationSans-65" x="83.300781"/>
      <use xlink:href="#LiberationSans-64" x="138.916016"/>
      <use xlink:href="#LiberationSans-69" x="194.53125"/>
      <use xlink:href="#LiberationSans-63" x="216.748047"/>
      <use xlink:href="#LiberationSans-75" x="266.748047"/>
      <use xlink:href="#LiberationSans-73" x="322.363281"/>
     </g>
    </g>
   </g>
   <g id="text_2">
    <g clip-path="url(#pe26a251e77)">
     <!-- arcarius -->
     <g style="opacity: 0.8" transform="translate(289.120037 143.904166) scale(0.06 -0.06)">
      <defs>
       <path id="LiberationSans-61" d="M 1294 -63 
Q 784 -63 528 206 
Q 272 475 272 944 
Q 272 1278 398 1492 
Q 525 1706 729 1828 
Q 934 1950 1196 1997 
Q 1459 2044 1731 2050 
L 2491 2063 
L 2491 2247 
Q 2491 2456 2447 2603 
Q 2403 2750 2312 2840 
Q 2222 2931 2086 2973 
Q 1950 3016 1766 3016 
Q 1603 3016 1472 2992 
Q 1341 2969 1244 2908 
Q 1147 2847 1087 2742 
Q 1028 2638 1009 2478 
L 422 2531 
Q 453 2731 540 2898 
Q 628 3066 789 3187 
Q 950 3309 1192 3376 
Q 1434 3444 1778 3444 
Q 2416 3444 2737 3151 
Q 3059 2859 3059 2306 
L 3059 850 
Q 3059 600 3125 473 
Q 3191 347 3375 347 
Q 3422 347 3469 353 
Q 3516 359 3559 369 
L 3559 19 
Q 3453 -6 3348 -18 
Q 3244 -31 3125 -31 
Q 2966 -31 2852 11 
Q 2738 53 2666 139 
Q 2594 225 2556 351 
Q 2519 478 2509 647 
L 2491 647 
Q 2400 484 2292 353 
Q 2184 222 2040 130 
Q 1897 38 1714 -12 
Q 1531 -63 1294 -63 
z
M 1422 359 
Q 1691 359 1892 457 
Q 2094 556 2226 709 
Q 2359 863 2425 1044 
Q 2491 1225 2491 1391 
L 2491 1669 
L 1875 1656 
Q 1669 1653 1483 1626 
Q 1297 1600 1156 1522 
Q 1016 1444 933 1303 
Q 850 1163 850 934 
Q 850 659 998 509 
Q 1147 359 1422 359 
z
" transform="scale(0.015625)"/>
       <path id="LiberationSans-72" d="M 444 0 
L 444 2594 
Q 444 2700 442 2811 
Q 441 2922 437 3025 
Q 434 3128 431 3218 
Q 428 3309 425 3381 
L 956 3381 
Q 959 3309 964 3217 
Q 969 3125 973 3028 
Q 978 2931 979 2842 
Q 981 2753 981 2691 
L 994 2691 
Q 1053 2884 1120 3026 
Q 1188 3169 1278 3261 
Q 1369 3353 1494 3398 
Q 1619 3444 1797 3444 
Q 1866 3444 1928 3433 
Q 1991 3422 2025 3413 
L 2025 2897 
Q 1969 2913 1894 2920 
Q 1819 2928 1725 2928 
Q 1531 2928 1395 2840 
Q 1259 2753 1173 2598 
Q 1088 2444 1047 2230 
Q 1006 2016 1006 1763 
L 1006 0 
L 444 0 
z
" transform="scale(0.015625)"/>
      </defs>
      <use xlink:href="#LiberationSans-61"/>
      <use xlink:href="#LiberationSans-72" x="55.615234"/>
      <use xlink:href="#LiberationSans-63" x="88.916016"/>
      <use xlink:href="#LiberationSans-61" x="138.916016"/>
      <use xlink:href="#LiberationSans-72" x="194.53125"/>
      <use xlink:href="#LiberationSans-69" x="227.832031"/>
      <use xlink:href="#LiberationSans-75" x="250.048828"/>
      <use xlink:href="#LiberationSans-73" x="305.664062"/>
     </g>
    </g>
   </g>
   <g id="text_3">
    <g clip-path="url(#pe26a251e77)">
     <!-- curator -->
     <g style="opacity: 0.8" transform="translate(247.655268 102.718877) scale(0.06 -0.06)">
      <defs>
       <path id="LiberationSans-74" d="M 1731 25 
Q 1603 -9 1470 -29 
Q 1338 -50 1163 -50 
Q 488 -50 488 716 
L 488 2972 
L 97 2972 
L 97 3381 
L 509 3381 
L 675 4138 
L 1050 4138 
L 1050 3381 
L 1675 3381 
L 1675 2972 
L 1050 2972 
L 1050 838 
Q 1050 594 1129 495 
Q 1209 397 1406 397 
Q 1488 397 1564 409 
Q 1641 422 1731 441 
L 1731 25 
z
" transform="scale(0.015625)"/>
       <path id="LiberationSans-6f" d="M 3291 1694 
Q 3291 806 2900 371 
Q 2509 -63 1766 -63 
Q 1413 -63 1134 43 
Q 856 150 664 369 
Q 472 588 370 917 
Q 269 1247 269 1694 
Q 269 3444 1784 3444 
Q 2178 3444 2464 3334 
Q 2750 3225 2933 3006 
Q 3116 2788 3203 2459 
Q 3291 2131 3291 1694 
z
M 2700 1694 
Q 2700 2088 2639 2344 
Q 2578 2600 2461 2753 
Q 2344 2906 2175 2967 
Q 2006 3028 1794 3028 
Q 1578 3028 1404 2964 
Q 1231 2900 1109 2745 
Q 988 2591 923 2334 
Q 859 2078 859 1694 
Q 859 1300 928 1042 
Q 997 784 1117 631 
Q 1238 478 1402 415 
Q 1566 353 1759 353 
Q 1975 353 2150 414 
Q 2325 475 2447 628 
Q 2569 781 2634 1040 
Q 2700 1300 2700 1694 
z
" transform="scale(0.015625)"/>
      </defs>
      <use xlink:href="#LiberationSans-63"/>
      <use xlink:href="#LiberationSans-75" x="50"/>
      <use xlink:href="#LiberationSans-72" x="105.615234"/>
      <use xlink:href="#LiberationSans-61" x="138.916016"/>
      <use xlink:href="#LiberationSans-74" x="194.53125"/>
      <use xlink:href="#LiberationSans-6f" x="222.314453"/>
      <use xlink:href="#LiberationSans-72" x="277.929688"/>
     </g>
    </g>
   </g>
   <g id="text_4">
    <g clip-path="url(#pe26a251e77)">
     <!-- aerarius -->
     <g style="opacity: 0.8" transform="translate(212.494196 164.386064) scale(0.06 -0.06)">
      <use xlink:href="#LiberationSans-61"/>
      <use xlink:href="#LiberationSans-65" x="55.615234"/>
      <use xlink:href="#LiberationSans-72" x="111.230469"/>
      <use xlink:href="#LiberationSans-61" x="144.53125"/>
      <use xlink:href="#LiberationSans-72" x="200.146484"/>
      <use xlink:href="#LiberationSans-69" x="233.447266"/>
      <use xlink:href="#LiberationSans-75" x="255.664062"/>
      <use xlink:href="#LiberationSans-73" x="311.279297"/>
     </g>
    </g>
   </g>
   <g id="text_5">
    <g clip-path="url(#pe26a251e77)">
     <!-- gladiator -->
     <g style="opacity: 0.8" transform="translate(62.212433 80.233322) scale(0.06 -0.06)">
      <defs>
       <path id="LiberationSans-67" d="M 1713 -1328 
Q 1422 -1328 1197 -1268 
Q 972 -1209 812 -1098 
Q 653 -988 553 -834 
Q 453 -681 409 -494 
L 975 -413 
Q 1031 -647 1223 -773 
Q 1416 -900 1728 -900 
Q 1919 -900 2075 -847 
Q 2231 -794 2340 -676 
Q 2450 -559 2509 -371 
Q 2569 -184 2569 84 
L 2569 628 
L 2563 628 
Q 2500 500 2408 383 
Q 2316 266 2183 175 
Q 2050 84 1875 29 
Q 1700 -25 1475 -25 
Q 1153 -25 923 83 
Q 694 191 548 406 
Q 403 622 336 942 
Q 269 1263 269 1684 
Q 269 2091 336 2416 
Q 403 2741 554 2967 
Q 706 3194 948 3314 
Q 1191 3434 1538 3434 
Q 1897 3434 2161 3270 
Q 2425 3106 2569 2803 
L 2575 2803 
Q 2575 2881 2579 2978 
Q 2584 3075 2589 3161 
Q 2594 3247 2600 3309 
Q 2606 3372 2613 3381 
L 3147 3381 
Q 3144 3353 3141 3286 
Q 3138 3219 3134 3125 
Q 3131 3031 3129 2917 
Q 3128 2803 3128 2681 
L 3128 97 
Q 3128 -613 2779 -970 
Q 2431 -1328 1713 -1328 
z
M 2569 1691 
Q 2569 2044 2492 2295 
Q 2416 2547 2291 2706 
Q 2166 2866 2005 2941 
Q 1844 3016 1675 3016 
Q 1459 3016 1304 2941 
Q 1150 2866 1048 2705 
Q 947 2544 898 2292 
Q 850 2041 850 1691 
Q 850 1325 898 1076 
Q 947 828 1047 675 
Q 1147 522 1300 456 
Q 1453 391 1666 391 
Q 1834 391 1995 462 
Q 2156 534 2284 690 
Q 2413 847 2491 1094 
Q 2569 1341 2569 1691 
z
" transform="scale(0.015625)"/>
       <path id="LiberationSans-6c" d="M 431 0 
L 431 4638 
L 994 4638 
L 994 0 
L 431 0 
z
" transform="scale(0.015625)"/>
      </defs>
      <use xlink:href="#LiberationSans-67"/>
      <use xlink:href="#LiberationSans-6c" x="55.615234"/>
      <use xlink:href="#LiberationSans-61" x="77.832031"/>
      <use xlink:href="#LiberationSans-64" x="133.447266"/>
      <use xlink:href="#LiberationSans-69" x="189.0625"/>
      <use xlink:href="#LiberationSans-61" x="211.279297"/>
      <use xlink:href="#LiberationSans-74" x="266.894531"/>
      <use xlink:href="#LiberationSans-6f" x="294.677734"/>
      <use xlink:href="#LiberationSans-72" x="350.292969"/>
     </g>
    </g>
   </g>
   <g id="text_6">
    <g clip-path="url(#pe26a251e77)">
     <!-- centonarius -->
     <g style="opacity: 0.8" transform="translate(191.968061 68.806108) scale(0.06 -0.06)">
      <defs>
       <path id="LiberationSans-6e" d="M 2578 0 
L 2578 2144 
Q 2578 2391 2542 2556 
Q 2506 2722 2425 2823 
Q 2344 2925 2211 2967 
Q 2078 3009 1881 3009 
Q 1681 3009 1520 2939 
Q 1359 2869 1245 2736 
Q 1131 2603 1068 2408 
Q 1006 2213 1006 1959 
L 1006 0 
L 444 0 
L 444 2659 
Q 444 2766 442 2883 
Q 441 3000 437 3104 
Q 434 3209 431 3284 
Q 428 3359 425 3381 
L 956 3381 
Q 959 3366 962 3297 
Q 966 3228 970 3139 
Q 975 3050 978 2958 
Q 981 2866 981 2803 
L 991 2803 
Q 1072 2950 1169 3069 
Q 1266 3188 1394 3270 
Q 1522 3353 1687 3398 
Q 1853 3444 2072 3444 
Q 2353 3444 2556 3375 
Q 2759 3306 2890 3162 
Q 3022 3019 3083 2792 
Q 3144 2566 3144 2253 
L 3144 0 
L 2578 0 
z
" transform="scale(0.015625)"/>
      </defs>
      <use xlink:href="#LiberationSans-63"/>
      <use xlink:href="#LiberationSans-65" x="50"/>
      <use xlink:href="#LiberationSans-6e" x="105.615234"/>
      <use xlink:href="#LiberationSans-74" x="161.230469"/>
      <use xlink:href="#LiberationSans-6f" x="189.013672"/>
      <use xlink:href="#LiberationSans-6e" x="244.628906"/>
      <use xlink:href="#LiberationSans-61" x="300.244141"/>
      <use xlink:href="#LiberationSans-72" x="355.859375"/>
      <use xlink:href="#LiberationSans-69" x="389.160156"/>
      <use xlink:href="#LiberationSans-75" x="411.376953"/>
      <use xlink:href="#LiberationSans-73" x="466.992188"/>
     </g>
    </g>
   </g>
   <g id="text_7">
    <g clip-path="url(#pe26a251e77)">
     <!-- scaenicus -->
     <g style="opacity: 0.8" transform="translate(194.846305 151.732182) scale(0.06 -0.06)">
      <use xlink:href="#LiberationSans-73"/>
      <use xlink:href="#LiberationSans-63" x="50"/>
      <use xlink:href="#LiberationSans-61" x="100"/>
      <use xlink:href="#LiberationSans-65" x="155.615234"/>
      <use xlink:href="#LiberationSans-6e" x="211.230469"/>
      <use xlink:href="#LiberationSans-69" x="266.845703"/>
      <use xlink:href="#LiberationSans-63" x="289.0625"/>
      <use xlink:href="#LiberationSans-75" x="339.0625"/>
      <use xlink:href="#LiberationSans-73" x="394.677734"/>
     </g>
    </g>
   </g>
   <g id="text_8">
    <g clip-path="url(#pe26a251e77)">
     <!-- faber -->
     <g style="opacity: 0.8" transform="translate(101.851685 157.630697) scale(0.06 -0.06)">
      <defs>
       <path id="LiberationSans-66" d="M 1128 2972 
L 1128 0 
L 566 0 
L 566 2972 
L 91 2972 
L 91 3381 
L 566 3381 
L 566 3763 
Q 566 3947 600 4105 
Q 634 4263 726 4380 
Q 819 4497 978 4564 
Q 1138 4631 1391 4631 
Q 1491 4631 1598 4622 
Q 1706 4613 1788 4594 
L 1788 4166 
Q 1734 4175 1664 4183 
Q 1594 4191 1538 4191 
Q 1413 4191 1333 4156 
Q 1253 4122 1208 4058 
Q 1163 3994 1145 3900 
Q 1128 3806 1128 3684 
L 1128 3381 
L 1788 3381 
L 1788 2972 
L 1128 2972 
z
" transform="scale(0.015625)"/>
       <path id="LiberationSans-62" d="M 3291 1706 
Q 3291 -63 2047 -63 
Q 1663 -63 1408 76 
Q 1153 216 994 525 
L 988 525 
Q 988 444 983 356 
Q 978 269 973 194 
Q 969 119 964 66 
Q 959 13 956 0 
L 413 0 
Q 416 28 419 95 
Q 422 163 425 256 
Q 428 350 429 462 
Q 431 575 431 697 
L 431 4638 
L 994 4638 
L 994 3316 
Q 994 3222 992 3136 
Q 991 3050 988 2984 
Q 984 2906 981 2838 
L 994 2838 
Q 1150 3163 1408 3303 
Q 1666 3444 2047 3444 
Q 2688 3444 2989 3012 
Q 3291 2581 3291 1706 
z
M 2700 1688 
Q 2700 2038 2656 2288 
Q 2613 2538 2516 2698 
Q 2419 2859 2269 2934 
Q 2119 3009 1903 3009 
Q 1681 3009 1511 2937 
Q 1341 2866 1227 2706 
Q 1113 2547 1053 2287 
Q 994 2028 994 1653 
Q 994 1291 1053 1044 
Q 1113 797 1227 642 
Q 1341 488 1509 420 
Q 1678 353 1897 353 
Q 2103 353 2253 425 
Q 2403 497 2503 656 
Q 2603 816 2651 1070 
Q 2700 1325 2700 1688 
z
" transform="scale(0.015625)"/>
      </defs>
      <use xlink:href="#LiberationSans-66"/>
      <use xlink:href="#LiberationSans-61" x="27.783203"/>
      <use xlink:href="#LiberationSans-62" x="83.398438"/>
      <use xlink:href="#LiberationSans-65" x="139.013672"/>
      <use xlink:href="#LiberationSans-72" x="194.628906"/>
     </g>
    </g>
   </g>
   <g id="text_9">
    <g clip-path="url(#pe26a251e77)">
     <!-- scriba -->
     <g style="opacity: 0.8" transform="translate(186.023988 214.758068) scale(0.06 -0.06)">
      <use xlink:href="#LiberationSans-73"/>
      <use xlink:href="#LiberationSans-63" x="50"/>
      <use xlink:href="#LiberationSans-72" x="100"/>
      <use xlink:href="#LiberationSans-69" x="133.300781"/>
      <use xlink:href="#LiberationSans-62" x="155.517578"/>
      <use xlink:href="#LiberationSans-61" x="211.132812"/>
     </g>
    </g>
   </g>
   <g id="text_10">
    <g clip-path="url(#pe26a251e77)">
     <!-- negotiator -->
     <g style="opacity: 0.8" transform="translate(207.300488 130.745599) scale(0.06 -0.06)">
      <use xlink:href="#LiberationSans-6e"/>
      <use xlink:href="#LiberationSans-65" x="55.615234"/>
      <use xlink:href="#LiberationSans-67" x="111.230469"/>
      <use xlink:href="#LiberationSans-6f" x="166.845703"/>
      <use xlink:href="#LiberationSans-74" x="222.460938"/>
      <use xlink:href="#LiberationSans-69" x="250.244141"/>
      <use xlink:href="#LiberationSans-61" x="272.460938"/>
      <use xlink:href="#LiberationSans-74" x="328.076172"/>
      <use xlink:href="#LiberationSans-6f" x="355.859375"/>
      <use xlink:href="#LiberationSans-72" x="411.474609"/>
     </g>
    </g>
   </g>
   <g id="text_11">
    <g clip-path="url(#pe26a251e77)">
     <!-- mensor -->
     <g style="opacity: 0.8" transform="translate(234.445875 297.897017) scale(0.06 -0.06)">
      <use xlink:href="#LiberationSans-6d"/>
      <use xlink:href="#LiberationSans-65" x="83.300781"/>
      <use xlink:href="#LiberationSans-6e" x="138.916016"/>
      <use xlink:href="#LiberationSans-73" x="194.53125"/>
      <use xlink:href="#LiberationSans-6f" x="244.53125"/>
      <use xlink:href="#LiberationSans-72" x="300.146484"/>
     </g>
    </g>
   </g>
   <g id="text_12">
    <g clip-path="url(#pe26a251e77)">
     <!-- sagittarius -->
     <g style="opacity: 0.8" transform="translate(55.538713 233.500573) scale(0.06 -0.06)">
      <use xlink:href="#LiberationSans-73"/>
      <use xlink:href="#LiberationSans-61" x="50"/>
      <use xlink:href="#LiberationSans-67" x="105.615234"/>
      <use xlink:href="#LiberationSans-69" x="161.230469"/>
      <use xlink:href="#LiberationSans-74" x="183.447266"/>
      <use xlink:href="#LiberationSans-74" x="211.230469"/>
      <use xlink:href="#LiberationSans-61" x="239.013672"/>
      <use xlink:href="#LiberationSans-72" x="294.628906"/>
      <use xlink:href="#LiberationSans-69" x="327.929688"/>
      <use xlink:href="#LiberationSans-75" x="350.146484"/>
      <use xlink:href="#LiberationSans-73" x="405.761719"/>
     </g>
    </g>
   </g>
   <g id="text_13">
    <g clip-path="url(#pe26a251e77)">
     <!-- frumentarius -->
     <g style="opacity: 0.8" transform="translate(265.805797 144.670513) scale(0.06 -0.06)">
      <use xlink:href="#LiberationSans-66"/>
      <use xlink:href="#LiberationSans-72" x="27.783203"/>
      <use xlink:href="#LiberationSans-75" x="61.083984"/>
      <use xlink:href="#LiberationSans-6d" x="116.699219"/>
      <use xlink:href="#LiberationSans-65" x="200"/>
      <use xlink:href="#LiberationSans-6e" x="255.615234"/>
      <use xlink:href="#LiberationSans-74" x="311.230469"/>
      <use xlink:href="#LiberationSans-61" x="339.013672"/>
      <use xlink:href="#LiberationSans-72" x="394.628906"/>
      <use xlink:href="#LiberationSans-69" x="427.929688"/>
      <use xlink:href="#LiberationSans-75" x="450.146484"/>
      <use xlink:href="#LiberationSans-73" x="505.761719"/>
     </g>
    </g>
   </g>
   <g id="text_14">
    <g clip-path="url(#pe26a251e77)">
     <!-- vestiarius -->
     <g style="opacity: 0.8" transform="translate(200.580412 99.643429) scale(0.06 -0.06)">
      <defs>
       <path id="LiberationSans-76" d="M 1916 0 
L 1250 0 
L 22 3381 
L 622 3381 
L 1366 1181 
Q 1388 1113 1417 1014 
Q 1447 916 1478 809 
Q 1509 703 1536 604 
Q 1563 506 1581 441 
Q 1600 506 1629 604 
Q 1659 703 1690 806 
Q 1722 909 1755 1007 
Q 1788 1106 1813 1175 
L 2581 3381 
L 3178 3381 
L 1916 0 
z
" transform="scale(0.015625)"/>
      </defs>
      <use xlink:href="#LiberationSans-76"/>
      <use xlink:href="#LiberationSans-65" x="50"/>
      <use xlink:href="#LiberationSans-73" x="105.615234"/>
      <use xlink:href="#LiberationSans-74" x="155.615234"/>
      <use xlink:href="#LiberationSans-69" x="183.398438"/>
      <use xlink:href="#LiberationSans-61" x="205.615234"/>
      <use xlink:href="#LiberationSans-72" x="261.230469"/>
      <use xlink:href="#LiberationSans-69" x="294.53125"/>
      <use xlink:href="#LiberationSans-75" x="316.748047"/>
      <use xlink:href="#LiberationSans-73" x="372.363281"/>
     </g>
    </g>
   </g>
  </g>
 </g>
 <defs>
  <clipPath id="pe26a251e77">
   <rect x="45" y="43.2" width="279" height="277.2"/>
  </clipPath>
 </defs>
</svg>
