<?xml version="1.0" encoding="utf-8" standalone="no"?>
<!DOCTYPE svg PUBLIC "-//W3C//DTD SVG 1.1//EN"
  "http://www.w3.org/Graphics/SVG/1.1/DTD/svg11.dtd">
<svg height="187.2pt" version="1.1" viewBox="0 0 374.4 187.2" width="374.4pt" xmlns="http://www.w3.org/2000/svg" xmlns:xlink="http://www.w3.org/1999/xlink">
 <metadata>
  <rdf:RDF xmlns:cc="http://creativecommons.org/ns#" xmlns:dc="http://purl.org/dc/elements/1.1/" xmlns:rdf="http://www.w3.org/1999/02/22-rdf-syntax-ns#">
   <cc:Work>
    <dc:type rdf:resource="http://purl.org/dc/dcmitype/StillImage"/>
    <dc:date>2023-11-14T17:36:53.635335</dc:date>
    <dc:format>image/svg+xml</dc:format>
    <dc:creator>
     <cc:Agent>
      <dc:title>Matplotlib v3.4.3, https://matplotlib.org/</dc:title>
     </cc:Agent>
    </dc:creator>
   </cc:Work>
  </rdf:RDF>
 </metadata>
 <defs>
  <style type="text/css">*{stroke-linecap:butt;stroke-linejoin:round;}</style>
 </defs>
 <g id="figure_1">
  <g id="patch_1">
   <path d="M 0 187.2 
L 374.4 187.2 
L 374.4 0 
L 0 0 
z
" style="fill:#ffffff;"/>
  </g>
  <g id="axes_1">
   <g id="patch_2">
    <path d="M 45.84125 156.145 
L 364.222412 156.145 
L 364.222412 8.64 
L 45.84125 8.64 
z
" style="fill:#ffffff;"/>
   </g>
   <g id="matplotlib.axis_1">
    <g id="xtick_1">
     <g id="line2d_1"/>
     <g id="text_1">
      <!-- 0 -->
      <g style="fill:#262626;" transform="translate(48.752055 165.4425)scale(0.08 -0.08)">
       <defs>
        <path d="M 3309 2203 
Q 3309 1100 2920 518 
Q 2531 -63 1772 -63 
Q 1013 -63 631 515 
Q 250 1094 250 2203 
Q 250 3338 620 3903 
Q 991 4469 1791 4469 
Q 2569 4469 2939 3897 
Q 3309 3325 3309 2203 
z
M 2738 2203 
Q 2738 3156 2517 3584 
Q 2297 4013 1791 4013 
Q 1272 4013 1045 3591 
Q 819 3169 819 2203 
Q 819 1266 1048 831 
Q 1278 397 1778 397 
Q 2275 397 2506 840 
Q 2738 1284 2738 2203 
z
" id="LiberationSans-30" transform="scale(0.015625)"/>
       </defs>
       <use xlink:href="#LiberationSans-30"/>
      </g>
     </g>
    </g>
    <g id="xtick_2">
     <g id="line2d_2"/>
     <g id="text_2">
      <!-- 50 -->
      <g style="fill:#262626;" transform="translate(97.87948 165.4425)scale(0.08 -0.08)">
       <defs>
        <path d="M 3291 1434 
Q 3291 738 2877 337 
Q 2463 -63 1728 -63 
Q 1113 -63 734 206 
Q 356 475 256 984 
L 825 1050 
Q 1003 397 1741 397 
Q 2194 397 2450 670 
Q 2706 944 2706 1422 
Q 2706 1838 2448 2094 
Q 2191 2350 1753 2350 
Q 1525 2350 1328 2278 
Q 1131 2206 934 2034 
L 384 2034 
L 531 4403 
L 3034 4403 
L 3034 3925 
L 1044 3925 
L 959 2528 
Q 1325 2809 1869 2809 
Q 2519 2809 2905 2428 
Q 3291 2047 3291 1434 
z
" id="LiberationSans-35" transform="scale(0.015625)"/>
       </defs>
       <use xlink:href="#LiberationSans-35"/>
       <use x="55.615234" xlink:href="#LiberationSans-30"/>
      </g>
     </g>
    </g>
    <g id="xtick_3">
     <g id="line2d_3"/>
     <g id="text_3">
      <!-- 100 -->
      <g style="fill:#262626;" transform="translate(147.006906 165.4425)scale(0.08 -0.08)">
       <defs>
        <path d="M 488 0 
L 488 478 
L 1609 478 
L 1609 3866 
L 616 3156 
L 616 3688 
L 1656 4403 
L 2175 4403 
L 2175 478 
L 3247 478 
L 3247 0 
L 488 0 
z
" id="LiberationSans-31" transform="scale(0.015625)"/>
       </defs>
       <use xlink:href="#LiberationSans-31"/>
       <use x="55.615234" xlink:href="#LiberationSans-30"/>
       <use x="111.230469" xlink:href="#LiberationSans-30"/>
      </g>
     </g>
    </g>
    <g id="xtick_4">
     <g id="line2d_4"/>
     <g id="text_4">
      <!-- 150 -->
      <g style="fill:#262626;" transform="translate(198.358706 165.4425)scale(0.08 -0.08)">
       <use xlink:href="#LiberationSans-31"/>
       <use x="55.615234" xlink:href="#LiberationSans-35"/>
       <use x="111.230469" xlink:href="#LiberationSans-30"/>
      </g>
     </g>
    </g>
    <g id="xtick_5">
     <g id="line2d_5"/>
     <g id="text_5">
      <!-- 200 -->
      <g style="fill:#262626;" transform="translate(249.710506 165.4425)scale(0.08 -0.08)">
       <defs>
        <path d="M 322 0 
L 322 397 
Q 481 763 711 1042 
Q 941 1322 1194 1548 
Q 1447 1775 1695 1969 
Q 1944 2163 2144 2356 
Q 2344 2550 2467 2762 
Q 2591 2975 2591 3244 
Q 2591 3606 2378 3806 
Q 2166 4006 1788 4006 
Q 1428 4006 1195 3811 
Q 963 3616 922 3263 
L 347 3316 
Q 409 3844 795 4156 
Q 1181 4469 1788 4469 
Q 2453 4469 2811 4155 
Q 3169 3841 3169 3263 
Q 3169 3006 3051 2753 
Q 2934 2500 2703 2247 
Q 2472 1994 1819 1463 
Q 1459 1169 1246 933 
Q 1034 697 941 478 
L 3238 478 
L 3238 0 
L 322 0 
z
" id="LiberationSans-32" transform="scale(0.015625)"/>
       </defs>
       <use xlink:href="#LiberationSans-32"/>
       <use x="55.615234" xlink:href="#LiberationSans-30"/>
       <use x="111.230469" xlink:href="#LiberationSans-30"/>
      </g>
     </g>
    </g>
    <g id="xtick_6">
     <g id="line2d_6"/>
     <g id="text_6">
      <!-- 250 -->
      <g style="fill:#262626;" transform="translate(301.062307 165.4425)scale(0.08 -0.08)">
       <use xlink:href="#LiberationSans-32"/>
       <use x="55.615234" xlink:href="#LiberationSans-35"/>
       <use x="111.230469" xlink:href="#LiberationSans-30"/>
      </g>
     </g>
    </g>
    <g id="xtick_7">
     <g id="line2d_7"/>
     <g id="text_7">
      <!-- 300 -->
      <g style="fill:#262626;" transform="translate(352.414107 165.4425)scale(0.08 -0.08)">
       <defs>
        <path d="M 3278 1216 
Q 3278 606 2890 271 
Q 2503 -63 1784 -63 
Q 1116 -63 717 239 
Q 319 541 244 1131 
L 825 1184 
Q 938 403 1784 403 
Q 2209 403 2451 612 
Q 2694 822 2694 1234 
Q 2694 1594 2417 1795 
Q 2141 1997 1619 1997 
L 1300 1997 
L 1300 2484 
L 1606 2484 
Q 2069 2484 2323 2686 
Q 2578 2888 2578 3244 
Q 2578 3597 2370 3801 
Q 2163 4006 1753 4006 
Q 1381 4006 1151 3815 
Q 922 3625 884 3278 
L 319 3322 
Q 381 3863 767 4166 
Q 1153 4469 1759 4469 
Q 2422 4469 2789 4161 
Q 3156 3853 3156 3303 
Q 3156 2881 2920 2617 
Q 2684 2353 2234 2259 
L 2234 2247 
Q 2728 2194 3003 1916 
Q 3278 1638 3278 1216 
z
" id="LiberationSans-33" transform="scale(0.015625)"/>
       </defs>
       <use xlink:href="#LiberationSans-33"/>
       <use x="55.615234" xlink:href="#LiberationSans-30"/>
       <use x="111.230469" xlink:href="#LiberationSans-30"/>
      </g>
     </g>
    </g>
    <g id="text_8">
     <!-- duration -->
     <g style="fill:#262626;" transform="translate(190.578081 176.9)scale(0.08 -0.08)">
      <defs>
       <path d="M 2566 544 
Q 2409 219 2151 78 
Q 1894 -63 1513 -63 
Q 872 -63 570 368 
Q 269 800 269 1675 
Q 269 3444 1513 3444 
Q 1897 3444 2153 3303 
Q 2409 3163 2566 2856 
L 2572 2856 
L 2566 3234 
L 2566 4638 
L 3128 4638 
L 3128 697 
Q 3128 169 3147 0 
L 2609 0 
Q 2600 50 2589 231 
Q 2578 413 2578 544 
L 2566 544 
z
M 859 1694 
Q 859 984 1046 678 
Q 1234 372 1656 372 
Q 2134 372 2350 703 
Q 2566 1034 2566 1731 
Q 2566 2403 2350 2715 
Q 2134 3028 1663 3028 
Q 1238 3028 1048 2714 
Q 859 2400 859 1694 
z
" id="LiberationSans-64" transform="scale(0.015625)"/>
       <path d="M 981 3381 
L 981 1238 
Q 981 903 1047 718 
Q 1113 534 1256 453 
Q 1400 372 1678 372 
Q 2084 372 2318 650 
Q 2553 928 2553 1422 
L 2553 3381 
L 3116 3381 
L 3116 722 
Q 3116 131 3134 0 
L 2603 0 
Q 2600 16 2597 84 
Q 2594 153 2589 242 
Q 2584 331 2578 578 
L 2569 578 
Q 2375 228 2120 82 
Q 1866 -63 1488 -63 
Q 931 -63 673 214 
Q 416 491 416 1128 
L 416 3381 
L 981 3381 
z
" id="LiberationSans-75" transform="scale(0.015625)"/>
       <path d="M 444 0 
L 444 2594 
Q 444 2950 425 3381 
L 956 3381 
Q 981 2806 981 2691 
L 994 2691 
Q 1128 3125 1303 3284 
Q 1478 3444 1797 3444 
Q 1909 3444 2025 3413 
L 2025 2897 
Q 1913 2928 1725 2928 
Q 1375 2928 1190 2626 
Q 1006 2325 1006 1763 
L 1006 0 
L 444 0 
z
" id="LiberationSans-72" transform="scale(0.015625)"/>
       <path d="M 1294 -63 
Q 784 -63 528 206 
Q 272 475 272 944 
Q 272 1469 617 1750 
Q 963 2031 1731 2050 
L 2491 2063 
L 2491 2247 
Q 2491 2659 2316 2837 
Q 2141 3016 1766 3016 
Q 1388 3016 1216 2887 
Q 1044 2759 1009 2478 
L 422 2531 
Q 566 3444 1778 3444 
Q 2416 3444 2737 3151 
Q 3059 2859 3059 2306 
L 3059 850 
Q 3059 600 3125 473 
Q 3191 347 3375 347 
Q 3456 347 3559 369 
L 3559 19 
Q 3347 -31 3125 -31 
Q 2813 -31 2670 133 
Q 2528 297 2509 647 
L 2491 647 
Q 2275 259 1989 98 
Q 1703 -63 1294 -63 
z
M 1422 359 
Q 1731 359 1972 500 
Q 2213 641 2352 886 
Q 2491 1131 2491 1391 
L 2491 1669 
L 1875 1656 
Q 1478 1650 1273 1575 
Q 1069 1500 959 1344 
Q 850 1188 850 934 
Q 850 659 998 509 
Q 1147 359 1422 359 
z
" id="LiberationSans-61" transform="scale(0.015625)"/>
       <path d="M 1731 25 
Q 1453 -50 1163 -50 
Q 488 -50 488 716 
L 488 2972 
L 97 2972 
L 97 3381 
L 509 3381 
L 675 4138 
L 1050 4138 
L 1050 3381 
L 1675 3381 
L 1675 2972 
L 1050 2972 
L 1050 838 
Q 1050 594 1129 495 
Q 1209 397 1406 397 
Q 1519 397 1731 441 
L 1731 25 
z
" id="LiberationSans-74" transform="scale(0.015625)"/>
       <path d="M 428 4100 
L 428 4638 
L 991 4638 
L 991 4100 
L 428 4100 
z
M 428 0 
L 428 3381 
L 991 3381 
L 991 0 
L 428 0 
z
" id="LiberationSans-69" transform="scale(0.015625)"/>
       <path d="M 3291 1694 
Q 3291 806 2900 371 
Q 2509 -63 1766 -63 
Q 1025 -63 647 389 
Q 269 841 269 1694 
Q 269 3444 1784 3444 
Q 2559 3444 2925 3017 
Q 3291 2591 3291 1694 
z
M 2700 1694 
Q 2700 2394 2492 2711 
Q 2284 3028 1794 3028 
Q 1300 3028 1079 2704 
Q 859 2381 859 1694 
Q 859 1025 1076 689 
Q 1294 353 1759 353 
Q 2266 353 2483 678 
Q 2700 1003 2700 1694 
z
" id="LiberationSans-6f" transform="scale(0.015625)"/>
       <path d="M 2578 0 
L 2578 2144 
Q 2578 2478 2512 2662 
Q 2447 2847 2303 2928 
Q 2159 3009 1881 3009 
Q 1475 3009 1240 2731 
Q 1006 2453 1006 1959 
L 1006 0 
L 444 0 
L 444 2659 
Q 444 3250 425 3381 
L 956 3381 
Q 959 3366 962 3297 
Q 966 3228 970 3139 
Q 975 3050 981 2803 
L 991 2803 
Q 1184 3153 1439 3298 
Q 1694 3444 2072 3444 
Q 2628 3444 2886 3167 
Q 3144 2891 3144 2253 
L 3144 0 
L 2578 0 
z
" id="LiberationSans-6e" transform="scale(0.015625)"/>
      </defs>
      <use xlink:href="#LiberationSans-64"/>
      <use x="55.615234" xlink:href="#LiberationSans-75"/>
      <use x="111.230469" xlink:href="#LiberationSans-72"/>
      <use x="144.53125" xlink:href="#LiberationSans-61"/>
      <use x="200.146484" xlink:href="#LiberationSans-74"/>
      <use x="227.929688" xlink:href="#LiberationSans-69"/>
      <use x="250.146484" xlink:href="#LiberationSans-6f"/>
      <use x="305.761719" xlink:href="#LiberationSans-6e"/>
     </g>
    </g>
   </g>
   <g id="matplotlib.axis_2">
    <g id="ytick_1">
     <g id="line2d_8"/>
     <g id="text_9">
      <!-- 0 -->
      <g style="fill:#262626;" transform="translate(37.8925 159.04375)scale(0.08 -0.08)">
       <use xlink:href="#LiberationSans-30"/>
      </g>
     </g>
    </g>
    <g id="ytick_2">
     <g id="line2d_9"/>
     <g id="text_10">
      <!-- 10000 -->
      <g style="fill:#262626;" transform="translate(20.0975 132.837062)scale(0.08 -0.08)">
       <use xlink:href="#LiberationSans-31"/>
       <use x="55.615234" xlink:href="#LiberationSans-30"/>
       <use x="111.230469" xlink:href="#LiberationSans-30"/>
       <use x="166.845703" xlink:href="#LiberationSans-30"/>
       <use x="222.460938" xlink:href="#LiberationSans-30"/>
      </g>
     </g>
    </g>
    <g id="ytick_3">
     <g id="line2d_10"/>
     <g id="text_11">
      <!-- 20000 -->
      <g style="fill:#262626;" transform="translate(20.0975 106.630373)scale(0.08 -0.08)">
       <use xlink:href="#LiberationSans-32"/>
       <use x="55.615234" xlink:href="#LiberationSans-30"/>
       <use x="111.230469" xlink:href="#LiberationSans-30"/>
       <use x="166.845703" xlink:href="#LiberationSans-30"/>
       <use x="222.460938" xlink:href="#LiberationSans-30"/>
      </g>
     </g>
    </g>
    <g id="ytick_4">
     <g id="line2d_11"/>
     <g id="text_12">
      <!-- 30000 -->
      <g style="fill:#262626;" transform="translate(20.0975 80.423685)scale(0.08 -0.08)">
       <use xlink:href="#LiberationSans-33"/>
       <use x="55.615234" xlink:href="#LiberationSans-30"/>
       <use x="111.230469" xlink:href="#LiberationSans-30"/>
       <use x="166.845703" xlink:href="#LiberationSans-30"/>
       <use x="222.460938" xlink:href="#LiberationSans-30"/>
      </g>
     </g>
    </g>
    <g id="ytick_5">
     <g id="line2d_12"/>
     <g id="text_13">
      <!-- 40000 -->
      <g style="fill:#262626;" transform="translate(20.0975 54.216997)scale(0.08 -0.08)">
       <defs>
        <path d="M 2753 997 
L 2753 0 
L 2222 0 
L 2222 997 
L 147 997 
L 147 1434 
L 2163 4403 
L 2753 4403 
L 2753 1441 
L 3372 1441 
L 3372 997 
L 2753 997 
z
M 2222 3769 
Q 2216 3750 2134 3603 
Q 2053 3456 2013 3397 
L 884 1734 
L 716 1503 
L 666 1441 
L 2222 1441 
L 2222 3769 
z
" id="LiberationSans-34" transform="scale(0.015625)"/>
       </defs>
       <use xlink:href="#LiberationSans-34"/>
       <use x="55.615234" xlink:href="#LiberationSans-30"/>
       <use x="111.230469" xlink:href="#LiberationSans-30"/>
       <use x="166.845703" xlink:href="#LiberationSans-30"/>
       <use x="222.460938" xlink:href="#LiberationSans-30"/>
      </g>
     </g>
    </g>
    <g id="ytick_6">
     <g id="line2d_13"/>
     <g id="text_14">
      <!-- 50000 -->
      <g style="fill:#262626;" transform="translate(20.0975 28.010309)scale(0.08 -0.08)">
       <use xlink:href="#LiberationSans-35"/>
       <use x="55.615234" xlink:href="#LiberationSans-30"/>
       <use x="111.230469" xlink:href="#LiberationSans-30"/>
       <use x="166.845703" xlink:href="#LiberationSans-30"/>
       <use x="222.460938" xlink:href="#LiberationSans-30"/>
      </g>
     </g>
    </g>
    <g id="text_15">
     <!-- Count -->
     <g style="fill:#262626;" transform="translate(14.4375 93.065625)rotate(-90)scale(0.08 -0.08)">
      <defs>
       <path d="M 2475 3981 
Q 1744 3981 1337 3511 
Q 931 3041 931 2222 
Q 931 1413 1354 920 
Q 1778 428 2500 428 
Q 3425 428 3891 1344 
L 4378 1100 
Q 4106 531 3614 234 
Q 3122 -63 2472 -63 
Q 1806 -63 1320 214 
Q 834 491 579 1005 
Q 325 1519 325 2222 
Q 325 3275 894 3872 
Q 1463 4469 2469 4469 
Q 3172 4469 3644 4194 
Q 4116 3919 4338 3378 
L 3772 3191 
Q 3619 3575 3280 3778 
Q 2941 3981 2475 3981 
z
" id="LiberationSans-43" transform="scale(0.015625)"/>
      </defs>
      <use xlink:href="#LiberationSans-43"/>
      <use x="72.216797" xlink:href="#LiberationSans-6f"/>
      <use x="127.832031" xlink:href="#LiberationSans-75"/>
      <use x="183.447266" xlink:href="#LiberationSans-6e"/>
      <use x="239.0625" xlink:href="#LiberationSans-74"/>
     </g>
    </g>
   </g>
   <g id="patch_3">
    <path clip-path="url(#pa42955d44d)" d="M 45.84125 156.145 
L 56.11161 156.145 
L 56.11161 110.563707 
L 45.84125 110.563707 
z
" style="fill:#808000;stroke:#000000;stroke-linejoin:miter;stroke-width:0.879273;"/>
   </g>
   <g id="patch_4">
    <path clip-path="url(#pa42955d44d)" d="M 56.11161 156.145 
L 66.38197 156.145 
L 66.38197 137.716457 
L 56.11161 137.716457 
z
" style="fill:#808000;stroke:#000000;stroke-linejoin:miter;stroke-width:0.879273;"/>
   </g>
   <g id="patch_5">
    <path clip-path="url(#pa42955d44d)" d="M 66.38197 156.145 
L 76.65233 156.145 
L 76.65233 141.443048 
L 66.38197 141.443048 
z
" style="fill:#808000;stroke:#000000;stroke-linejoin:miter;stroke-width:0.879273;"/>
   </g>
   <g id="patch_6">
    <path clip-path="url(#pa42955d44d)" d="M 76.65233 156.145 
L 86.92269 156.145 
L 86.92269 131.804228 
L 76.65233 131.804228 
z
" style="fill:#808000;stroke:#000000;stroke-linejoin:miter;stroke-width:0.879273;"/>
   </g>
   <g id="patch_7">
    <path clip-path="url(#pa42955d44d)" d="M 86.92269 156.145 
L 97.19305 156.145 
L 97.19305 131.749194 
L 86.92269 131.749194 
z
" style="fill:#808000;stroke:#000000;stroke-linejoin:miter;stroke-width:0.879273;"/>
   </g>
   <g id="patch_8">
    <path clip-path="url(#pa42955d44d)" d="M 97.19305 156.145 
L 107.46341 156.145 
L 107.46341 87.648579 
L 97.19305 87.648579 
z
" style="fill:#808000;stroke:#000000;stroke-linejoin:miter;stroke-width:0.879273;"/>
   </g>
   <g id="patch_9">
    <path clip-path="url(#pa42955d44d)" d="M 107.46341 156.145 
L 117.73377 156.145 
L 117.73377 134.838962 
L 107.46341 134.838962 
z
" style="fill:#808000;stroke:#000000;stroke-linejoin:miter;stroke-width:0.879273;"/>
   </g>
   <g id="patch_10">
    <path clip-path="url(#pa42955d44d)" d="M 117.73377 156.145 
L 128.004131 156.145 
L 128.004131 148.322304 
L 117.73377 148.322304 
z
" style="fill:#808000;stroke:#000000;stroke-linejoin:miter;stroke-width:0.879273;"/>
   </g>
   <g id="patch_11">
    <path clip-path="url(#pa42955d44d)" d="M 128.004131 156.145 
L 138.274491 156.145 
L 138.274491 136.138814 
L 128.004131 136.138814 
z
" style="fill:#808000;stroke:#000000;stroke-linejoin:miter;stroke-width:0.879273;"/>
   </g>
   <g id="patch_12">
    <path clip-path="url(#pa42955d44d)" d="M 138.274491 156.145 
L 148.544851 156.145 
L 148.544851 154.318394 
L 138.274491 154.318394 
z
" style="fill:#808000;stroke:#000000;stroke-linejoin:miter;stroke-width:0.879273;"/>
   </g>
   <g id="patch_13">
    <path clip-path="url(#pa42955d44d)" d="M 148.544851 156.145 
L 158.815211 156.145 
L 158.815211 15.664048 
L 148.544851 15.664048 
z
" style="fill:#808000;stroke:#000000;stroke-linejoin:miter;stroke-width:0.879273;"/>
   </g>
   <g id="patch_14">
    <path clip-path="url(#pa42955d44d)" d="M 158.815211 156.145 
L 169.085571 156.145 
L 169.085571 154.26336 
L 158.815211 154.26336 
z
" style="fill:#808000;stroke:#000000;stroke-linejoin:miter;stroke-width:0.879273;"/>
   </g>
   <g id="patch_15">
    <path clip-path="url(#pa42955d44d)" d="M 169.085571 156.145 
L 179.355931 156.145 
L 179.355931 153.975086 
L 169.085571 153.975086 
z
" style="fill:#808000;stroke:#000000;stroke-linejoin:miter;stroke-width:0.879273;"/>
   </g>
   <g id="patch_16">
    <path clip-path="url(#pa42955d44d)" d="M 179.355931 156.145 
L 189.626291 156.145 
L 189.626291 146.535007 
L 179.355931 146.535007 
z
" style="fill:#808000;stroke:#000000;stroke-linejoin:miter;stroke-width:0.879273;"/>
   </g>
   <g id="patch_17">
    <path clip-path="url(#pa42955d44d)" d="M 189.626291 156.145 
L 199.896651 156.145 
L 199.896651 154.871355 
L 189.626291 154.871355 
z
" style="fill:#808000;stroke:#000000;stroke-linejoin:miter;stroke-width:0.879273;"/>
   </g>
   <g id="patch_18">
    <path clip-path="url(#pa42955d44d)" d="M 199.896651 156.145 
L 210.167011 156.145 
L 210.167011 130.863408 
L 199.896651 130.863408 
z
" style="fill:#808000;stroke:#000000;stroke-linejoin:miter;stroke-width:0.879273;"/>
   </g>
   <g id="patch_19">
    <path clip-path="url(#pa42955d44d)" d="M 210.167011 156.145 
L 220.437371 156.145 
L 220.437371 154.873976 
L 210.167011 154.873976 
z
" style="fill:#808000;stroke:#000000;stroke-linejoin:miter;stroke-width:0.879273;"/>
   </g>
   <g id="patch_20">
    <path clip-path="url(#pa42955d44d)" d="M 220.437371 156.145 
L 230.707731 156.145 
L 230.707731 154.166395 
L 220.437371 154.166395 
z
" style="fill:#808000;stroke:#000000;stroke-linejoin:miter;stroke-width:0.879273;"/>
   </g>
   <g id="patch_21">
    <path clip-path="url(#pa42955d44d)" d="M 230.707731 156.145 
L 240.978091 156.145 
L 240.978091 153.802122 
L 230.707731 153.802122 
z
" style="fill:#808000;stroke:#000000;stroke-linejoin:miter;stroke-width:0.879273;"/>
   </g>
   <g id="patch_22">
    <path clip-path="url(#pa42955d44d)" d="M 240.978091 156.145 
L 251.248451 156.145 
L 251.248451 155.880312 
L 240.978091 155.880312 
z
" style="fill:#808000;stroke:#000000;stroke-linejoin:miter;stroke-width:0.879273;"/>
   </g>
   <g id="patch_23">
    <path clip-path="url(#pa42955d44d)" d="M 251.248451 156.145 
L 261.518811 156.145 
L 261.518811 78.806442 
L 251.248451 78.806442 
z
" style="fill:#808000;stroke:#000000;stroke-linejoin:miter;stroke-width:0.879273;"/>
   </g>
   <g id="patch_24">
    <path clip-path="url(#pa42955d44d)" d="M 261.518811 156.145 
L 271.789172 156.145 
L 271.789172 156.087345 
L 261.518811 156.087345 
z
" style="fill:#808000;stroke:#000000;stroke-linejoin:miter;stroke-width:0.879273;"/>
   </g>
   <g id="patch_25">
    <path clip-path="url(#pa42955d44d)" d="M 271.789172 156.145 
L 282.059532 156.145 
L 282.059532 155.463626 
L 271.789172 155.463626 
z
" style="fill:#808000;stroke:#000000;stroke-linejoin:miter;stroke-width:0.879273;"/>
   </g>
   <g id="patch_26">
    <path clip-path="url(#pa42955d44d)" d="M 282.059532 156.145 
L 292.329892 156.145 
L 292.329892 154.593564 
L 282.059532 154.593564 
z
" style="fill:#808000;stroke:#000000;stroke-linejoin:miter;stroke-width:0.879273;"/>
   </g>
   <g id="patch_27">
    <path clip-path="url(#pa42955d44d)" d="M 292.329892 156.145 
L 302.600252 156.145 
L 302.600252 156.110931 
L 292.329892 156.110931 
z
" style="fill:#808000;stroke:#000000;stroke-linejoin:miter;stroke-width:0.879273;"/>
   </g>
   <g id="patch_28">
    <path clip-path="url(#pa42955d44d)" d="M 302.600252 156.145 
L 312.870612 156.145 
L 312.870612 154.171636 
L 302.600252 154.171636 
z
" style="fill:#808000;stroke:#000000;stroke-linejoin:miter;stroke-width:0.879273;"/>
   </g>
   <g id="patch_29">
    <path clip-path="url(#pa42955d44d)" d="M 312.870612 156.145 
L 323.140972 156.145 
L 323.140972 155.571074 
L 312.870612 155.571074 
z
" style="fill:#808000;stroke:#000000;stroke-linejoin:miter;stroke-width:0.879273;"/>
   </g>
   <g id="patch_30">
    <path clip-path="url(#pa42955d44d)" d="M 323.140972 156.145 
L 333.411332 156.145 
L 333.411332 155.982519 
L 323.140972 155.982519 
z
" style="fill:#808000;stroke:#000000;stroke-linejoin:miter;stroke-width:0.879273;"/>
   </g>
   <g id="patch_31">
    <path clip-path="url(#pa42955d44d)" d="M 333.411332 156.145 
L 343.681692 156.145 
L 343.681692 156.040173 
L 333.411332 156.040173 
z
" style="fill:#808000;stroke:#000000;stroke-linejoin:miter;stroke-width:0.879273;"/>
   </g>
   <g id="patch_32">
    <path clip-path="url(#pa42955d44d)" d="M 343.681692 156.145 
L 353.952052 156.145 
L 353.952052 156.092587 
L 343.681692 156.092587 
z
" style="fill:#808000;stroke:#000000;stroke-linejoin:miter;stroke-width:0.879273;"/>
   </g>
   <g id="patch_33">
    <path d="M 45.84125 156.145 
L 45.84125 8.64 
" style="fill:none;stroke:#262626;stroke-linecap:square;stroke-linejoin:miter;stroke-width:1.25;"/>
   </g>
   <g id="patch_34">
    <path d="M 364.222412 156.145 
L 364.222412 8.64 
" style="fill:none;stroke:#262626;stroke-linecap:square;stroke-linejoin:miter;stroke-width:1.25;"/>
   </g>
   <g id="patch_35">
    <path d="M 45.84125 156.145 
L 364.222412 156.145 
" style="fill:none;stroke:#262626;stroke-linecap:square;stroke-linejoin:miter;stroke-width:1.25;"/>
   </g>
   <g id="patch_36">
    <path d="M 45.84125 8.64 
L 364.222412 8.64 
" style="fill:none;stroke:#262626;stroke-linecap:square;stroke-linejoin:miter;stroke-width:1.25;"/>
   </g>
  </g>
 </g>
 <defs>
  <clipPath id="pa42955d44d">
   <rect height="147.505" width="318.381162" x="45.84125" y="8.64"/>
  </clipPath>
 </defs>
</svg>
