<?xml version="1.0" encoding="utf-8" standalone="no"?>
<!DOCTYPE svg PUBLIC "-//W3C//DTD SVG 1.1//EN"
  "http://www.w3.org/Graphics/SVG/1.1/DTD/svg11.dtd">
<svg xmlns:xlink="http://www.w3.org/1999/xlink" width="432pt" height="187.2pt" viewBox="0 0 432 187.2" xmlns="http://www.w3.org/2000/svg" version="1.1">
 <metadata>
  <rdf:RDF xmlns:dc="http://purl.org/dc/elements/1.1/" xmlns:cc="http://creativecommons.org/ns#" xmlns:rdf="http://www.w3.org/1999/02/22-rdf-syntax-ns#">
   <cc:Work>
    <dc:type rdf:resource="http://purl.org/dc/dcmitype/StillImage"/>
    <dc:date>2023-11-21T09:34:06.323673</dc:date>
    <dc:format>image/svg+xml</dc:format>
    <dc:creator>
     <cc:Agent>
      <dc:title>Matplotlib v3.8.0, https://matplotlib.org/</dc:title>
     </cc:Agent>
    </dc:creator>
   </cc:Work>
  </rdf:RDF>
 </metadata>
 <defs>
  <style type="text/css">*{stroke-linejoin: round; stroke-linecap: butt}</style>
 </defs>
 <g id="figure_1">
  <g id="patch_1">
   <path d="M 0 187.2 
L 432 187.2 
L 432 0 
L 0 0 
z
" style="fill: #ffffff"/>
  </g>
  <g id="axes_1">
   <g id="patch_2">
    <path d="M 52.16 167.6025 
L 363.61408 167.6025 
L 363.61408 8.64 
L 52.16 8.64 
z
" style="fill: #ffffff"/>
   </g>
   <g id="matplotlib.axis_1">
    <g id="xtick_1">
     <g id="line2d_1"/>
     <g id="text_1">
      <!-- 0.0 -->
      <g style="fill: #262626" transform="translate(46.6 176.9) scale(0.08 -0.08)">
       <defs>
        <path id="LiberationSans-30" d="M 3309 2203 
Q 3309 1569 3189 1136 
Q 3069 703 2861 436 
Q 2653 169 2372 53 
Q 2091 -63 1772 -63 
Q 1450 -63 1172 53 
Q 894 169 689 434 
Q 484 700 367 1133 
Q 250 1566 250 2203 
Q 250 2869 367 3305 
Q 484 3741 690 4000 
Q 897 4259 1178 4364 
Q 1459 4469 1791 4469 
Q 2106 4469 2382 4364 
Q 2659 4259 2865 4000 
Q 3072 3741 3190 3305 
Q 3309 2869 3309 2203 
z
M 2738 2203 
Q 2738 2728 2675 3076 
Q 2613 3425 2491 3633 
Q 2369 3841 2192 3927 
Q 2016 4013 1791 4013 
Q 1553 4013 1372 3925 
Q 1191 3838 1067 3630 
Q 944 3422 881 3073 
Q 819 2725 819 2203 
Q 819 1697 883 1350 
Q 947 1003 1070 792 
Q 1194 581 1372 489 
Q 1550 397 1778 397 
Q 2000 397 2178 489 
Q 2356 581 2479 792 
Q 2603 1003 2670 1350 
Q 2738 1697 2738 2203 
z
" transform="scale(0.015625)"/>
        <path id="LiberationSans-2e" d="M 584 0 
L 584 684 
L 1194 684 
L 1194 0 
L 584 0 
z
" transform="scale(0.015625)"/>
       </defs>
       <use xlink:href="#LiberationSans-30"/>
       <use xlink:href="#LiberationSans-2e" x="55.615234"/>
       <use xlink:href="#LiberationSans-30" x="83.398438"/>
      </g>
     </g>
    </g>
    <g id="xtick_2">
     <g id="line2d_2"/>
     <g id="text_2">
      <!-- 0.2 -->
      <g style="fill: #262626" transform="translate(105.924587 176.9) scale(0.08 -0.08)">
       <defs>
        <path id="LiberationSans-32" d="M 322 0 
L 322 397 
Q 481 763 711 1042 
Q 941 1322 1194 1548 
Q 1447 1775 1695 1969 
Q 1944 2163 2144 2356 
Q 2344 2550 2467 2762 
Q 2591 2975 2591 3244 
Q 2591 3431 2534 3573 
Q 2478 3716 2372 3812 
Q 2266 3909 2117 3957 
Q 1969 4006 1788 4006 
Q 1619 4006 1470 3959 
Q 1322 3913 1206 3819 
Q 1091 3725 1017 3586 
Q 944 3447 922 3263 
L 347 3316 
Q 375 3553 478 3762 
Q 581 3972 762 4130 
Q 944 4288 1198 4378 
Q 1453 4469 1788 4469 
Q 2116 4469 2372 4391 
Q 2628 4313 2804 4159 
Q 2981 4006 3075 3781 
Q 3169 3556 3169 3263 
Q 3169 3041 3089 2841 
Q 3009 2641 2876 2459 
Q 2744 2278 2569 2109 
Q 2394 1941 2203 1780 
Q 2013 1619 1819 1461 
Q 1625 1303 1454 1143 
Q 1284 984 1150 820 
Q 1016 656 941 478 
L 3238 478 
L 3238 0 
L 322 0 
z
" transform="scale(0.015625)"/>
       </defs>
       <use xlink:href="#LiberationSans-30"/>
       <use xlink:href="#LiberationSans-2e" x="55.615234"/>
       <use xlink:href="#LiberationSans-32" x="83.398438"/>
      </g>
     </g>
    </g>
    <g id="xtick_3">
     <g id="line2d_3"/>
     <g id="text_3">
      <!-- 0.4 -->
      <g style="fill: #262626" transform="translate(165.249173 176.9) scale(0.08 -0.08)">
       <defs>
        <path id="LiberationSans-34" d="M 2753 997 
L 2753 0 
L 2222 0 
L 2222 997 
L 147 997 
L 147 1434 
L 2163 4403 
L 2753 4403 
L 2753 1441 
L 3372 1441 
L 3372 997 
L 2753 997 
z
M 2222 3769 
Q 2216 3753 2191 3708 
Q 2166 3663 2134 3606 
Q 2103 3550 2070 3492 
Q 2038 3434 2013 3397 
L 884 1734 
Q 869 1709 839 1668 
Q 809 1628 778 1586 
Q 747 1544 715 1503 
Q 684 1463 666 1441 
L 2222 1441 
L 2222 3769 
z
" transform="scale(0.015625)"/>
       </defs>
       <use xlink:href="#LiberationSans-30"/>
       <use xlink:href="#LiberationSans-2e" x="55.615234"/>
       <use xlink:href="#LiberationSans-34" x="83.398438"/>
      </g>
     </g>
    </g>
    <g id="xtick_4">
     <g id="line2d_4"/>
     <g id="text_4">
      <!-- 0.6 -->
      <g style="fill: #262626" transform="translate(224.57376 176.9) scale(0.08 -0.08)">
       <defs>
        <path id="LiberationSans-36" d="M 3278 1441 
Q 3278 1109 3186 832 
Q 3094 556 2914 357 
Q 2734 159 2468 48 
Q 2203 -63 1856 -63 
Q 1472 -63 1184 84 
Q 897 231 706 507 
Q 516 784 420 1186 
Q 325 1588 325 2100 
Q 325 2688 433 3131 
Q 541 3575 744 3872 
Q 947 4169 1239 4319 
Q 1531 4469 1900 4469 
Q 2125 4469 2322 4422 
Q 2519 4375 2680 4270 
Q 2841 4166 2962 3994 
Q 3084 3822 3156 3572 
L 2619 3475 
Q 2531 3759 2339 3886 
Q 2147 4013 1894 4013 
Q 1663 4013 1475 3903 
Q 1288 3794 1156 3576 
Q 1025 3359 954 3031 
Q 884 2703 884 2266 
Q 1038 2550 1316 2698 
Q 1594 2847 1953 2847 
Q 2253 2847 2497 2750 
Q 2741 2653 2914 2470 
Q 3088 2288 3183 2027 
Q 3278 1766 3278 1441 
z
M 2706 1416 
Q 2706 1644 2650 1828 
Q 2594 2013 2481 2142 
Q 2369 2272 2203 2342 
Q 2038 2413 1819 2413 
Q 1666 2413 1509 2367 
Q 1353 2322 1226 2220 
Q 1100 2119 1020 1953 
Q 941 1788 941 1550 
Q 941 1306 1003 1095 
Q 1066 884 1183 728 
Q 1300 572 1465 481 
Q 1631 391 1838 391 
Q 2041 391 2202 461 
Q 2363 531 2475 664 
Q 2588 797 2647 987 
Q 2706 1178 2706 1416 
z
" transform="scale(0.015625)"/>
       </defs>
       <use xlink:href="#LiberationSans-30"/>
       <use xlink:href="#LiberationSans-2e" x="55.615234"/>
       <use xlink:href="#LiberationSans-36" x="83.398438"/>
      </g>
     </g>
    </g>
    <g id="xtick_5">
     <g id="line2d_5"/>
     <g id="text_5">
      <!-- 0.8 -->
      <g style="fill: #262626" transform="translate(283.898347 176.9) scale(0.08 -0.08)">
       <defs>
        <path id="LiberationSans-38" d="M 3281 1228 
Q 3281 947 3192 711 
Q 3103 475 2920 303 
Q 2738 131 2453 34 
Q 2169 -63 1781 -63 
Q 1394 -63 1111 34 
Q 828 131 642 301 
Q 456 472 367 708 
Q 278 944 278 1222 
Q 278 1463 351 1650 
Q 425 1838 548 1973 
Q 672 2109 830 2192 
Q 988 2275 1156 2303 
L 1156 2316 
Q 972 2359 826 2456 
Q 681 2553 582 2689 
Q 484 2825 432 2990 
Q 381 3156 381 3341 
Q 381 3572 470 3776 
Q 559 3981 734 4136 
Q 909 4291 1168 4380 
Q 1428 4469 1769 4469 
Q 2128 4469 2392 4378 
Q 2656 4288 2829 4133 
Q 3003 3978 3087 3772 
Q 3172 3566 3172 3334 
Q 3172 3153 3120 2987 
Q 3069 2822 2970 2686 
Q 2872 2550 2726 2454 
Q 2581 2359 2391 2322 
L 2391 2309 
Q 2581 2278 2743 2195 
Q 2906 2113 3025 1977 
Q 3144 1841 3212 1653 
Q 3281 1466 3281 1228 
z
M 2588 3303 
Q 2588 3469 2545 3606 
Q 2503 3744 2406 3842 
Q 2309 3941 2153 3995 
Q 1997 4050 1769 4050 
Q 1547 4050 1394 3995 
Q 1241 3941 1142 3842 
Q 1044 3744 1000 3606 
Q 956 3469 956 3303 
Q 956 3172 990 3034 
Q 1025 2897 1115 2784 
Q 1206 2672 1365 2600 
Q 1525 2528 1775 2528 
Q 2041 2528 2202 2600 
Q 2363 2672 2448 2784 
Q 2534 2897 2561 3034 
Q 2588 3172 2588 3303 
z
M 2697 1281 
Q 2697 1441 2653 1589 
Q 2609 1738 2503 1852 
Q 2397 1966 2217 2036 
Q 2038 2106 1769 2106 
Q 1522 2106 1348 2036 
Q 1175 1966 1067 1850 
Q 959 1734 909 1582 
Q 859 1431 859 1269 
Q 859 1066 909 898 
Q 959 731 1068 611 
Q 1178 491 1356 425 
Q 1534 359 1788 359 
Q 2044 359 2219 425 
Q 2394 491 2500 611 
Q 2606 731 2651 901 
Q 2697 1072 2697 1281 
z
" transform="scale(0.015625)"/>
       </defs>
       <use xlink:href="#LiberationSans-30"/>
       <use xlink:href="#LiberationSans-2e" x="55.615234"/>
       <use xlink:href="#LiberationSans-38" x="83.398438"/>
      </g>
     </g>
    </g>
    <g id="xtick_6">
     <g id="line2d_6"/>
     <g id="text_6">
      <!-- 1.0 -->
      <g style="fill: #262626" transform="translate(343.222933 176.9) scale(0.08 -0.08)">
       <defs>
        <path id="LiberationSans-31" d="M 488 0 
L 488 478 
L 1609 478 
L 1609 3866 
L 616 3156 
L 616 3688 
L 1656 4403 
L 2175 4403 
L 2175 478 
L 3247 478 
L 3247 0 
L 488 0 
z
" transform="scale(0.015625)"/>
       </defs>
       <use xlink:href="#LiberationSans-31"/>
       <use xlink:href="#LiberationSans-2e" x="55.615234"/>
       <use xlink:href="#LiberationSans-30" x="83.398438"/>
      </g>
     </g>
    </g>
   </g>
   <g id="matplotlib.axis_2">
    <g id="ytick_1">
     <g id="line2d_7"/>
     <g id="text_7">
      <!-- curator -->
      <g style="fill: #262626" transform="translate(23.76375 24.662741) scale(0.08 -0.08)">
       <defs>
        <path id="LiberationSans-63" d="M 859 1706 
Q 859 1416 901 1172 
Q 944 928 1044 751 
Q 1144 575 1308 478 
Q 1472 381 1713 381 
Q 2013 381 2214 543 
Q 2416 706 2463 1044 
L 3031 1006 
Q 3003 797 2909 603 
Q 2816 409 2655 262 
Q 2494 116 2262 26 
Q 2031 -63 1728 -63 
Q 1331 -63 1053 71 
Q 775 206 601 442 
Q 428 678 350 998 
Q 272 1319 272 1694 
Q 272 2034 328 2295 
Q 384 2556 486 2751 
Q 588 2947 725 3080 
Q 863 3213 1023 3292 
Q 1184 3372 1362 3408 
Q 1541 3444 1722 3444 
Q 2006 3444 2228 3366 
Q 2450 3288 2611 3152 
Q 2772 3016 2872 2831 
Q 2972 2647 3013 2434 
L 2434 2391 
Q 2391 2672 2212 2837 
Q 2034 3003 1706 3003 
Q 1466 3003 1305 2923 
Q 1144 2844 1044 2683 
Q 944 2522 901 2278 
Q 859 2034 859 1706 
z
" transform="scale(0.015625)"/>
        <path id="LiberationSans-75" d="M 981 3381 
L 981 1238 
Q 981 991 1017 825 
Q 1053 659 1134 557 
Q 1216 456 1348 414 
Q 1481 372 1678 372 
Q 1878 372 2039 442 
Q 2200 513 2314 645 
Q 2428 778 2490 973 
Q 2553 1169 2553 1422 
L 2553 3381 
L 3116 3381 
L 3116 722 
Q 3116 616 3117 498 
Q 3119 381 3122 276 
Q 3125 172 3128 97 
Q 3131 22 3134 0 
L 2603 0 
Q 2600 16 2597 84 
Q 2594 153 2589 242 
Q 2584 331 2581 423 
Q 2578 516 2578 578 
L 2569 578 
Q 2488 431 2391 312 
Q 2294 194 2166 111 
Q 2038 28 1872 -17 
Q 1706 -63 1488 -63 
Q 1206 -63 1003 6 
Q 800 75 669 219 
Q 538 363 477 588 
Q 416 813 416 1128 
L 416 3381 
L 981 3381 
z
" transform="scale(0.015625)"/>
        <path id="LiberationSans-72" d="M 444 0 
L 444 2594 
Q 444 2700 442 2811 
Q 441 2922 437 3025 
Q 434 3128 431 3218 
Q 428 3309 425 3381 
L 956 3381 
Q 959 3309 964 3217 
Q 969 3125 973 3028 
Q 978 2931 979 2842 
Q 981 2753 981 2691 
L 994 2691 
Q 1053 2884 1120 3026 
Q 1188 3169 1278 3261 
Q 1369 3353 1494 3398 
Q 1619 3444 1797 3444 
Q 1866 3444 1928 3433 
Q 1991 3422 2025 3413 
L 2025 2897 
Q 1969 2913 1894 2920 
Q 1819 2928 1725 2928 
Q 1531 2928 1395 2840 
Q 1259 2753 1173 2598 
Q 1088 2444 1047 2230 
Q 1006 2016 1006 1763 
L 1006 0 
L 444 0 
z
" transform="scale(0.015625)"/>
        <path id="LiberationSans-61" d="M 1294 -63 
Q 784 -63 528 206 
Q 272 475 272 944 
Q 272 1278 398 1492 
Q 525 1706 729 1828 
Q 934 1950 1196 1997 
Q 1459 2044 1731 2050 
L 2491 2063 
L 2491 2247 
Q 2491 2456 2447 2603 
Q 2403 2750 2312 2840 
Q 2222 2931 2086 2973 
Q 1950 3016 1766 3016 
Q 1603 3016 1472 2992 
Q 1341 2969 1244 2908 
Q 1147 2847 1087 2742 
Q 1028 2638 1009 2478 
L 422 2531 
Q 453 2731 540 2898 
Q 628 3066 789 3187 
Q 950 3309 1192 3376 
Q 1434 3444 1778 3444 
Q 2416 3444 2737 3151 
Q 3059 2859 3059 2306 
L 3059 850 
Q 3059 600 3125 473 
Q 3191 347 3375 347 
Q 3422 347 3469 353 
Q 3516 359 3559 369 
L 3559 19 
Q 3453 -6 3348 -18 
Q 3244 -31 3125 -31 
Q 2966 -31 2852 11 
Q 2738 53 2666 139 
Q 2594 225 2556 351 
Q 2519 478 2509 647 
L 2491 647 
Q 2400 484 2292 353 
Q 2184 222 2040 130 
Q 1897 38 1714 -12 
Q 1531 -63 1294 -63 
z
M 1422 359 
Q 1691 359 1892 457 
Q 2094 556 2226 709 
Q 2359 863 2425 1044 
Q 2491 1225 2491 1391 
L 2491 1669 
L 1875 1656 
Q 1669 1653 1483 1626 
Q 1297 1600 1156 1522 
Q 1016 1444 933 1303 
Q 850 1163 850 934 
Q 850 659 998 509 
Q 1147 359 1422 359 
z
" transform="scale(0.015625)"/>
        <path id="LiberationSans-74" d="M 1731 25 
Q 1603 -9 1470 -29 
Q 1338 -50 1163 -50 
Q 488 -50 488 716 
L 488 2972 
L 97 2972 
L 97 3381 
L 509 3381 
L 675 4138 
L 1050 4138 
L 1050 3381 
L 1675 3381 
L 1675 2972 
L 1050 2972 
L 1050 838 
Q 1050 594 1129 495 
Q 1209 397 1406 397 
Q 1488 397 1564 409 
Q 1641 422 1731 441 
L 1731 25 
z
" transform="scale(0.015625)"/>
        <path id="LiberationSans-6f" d="M 3291 1694 
Q 3291 806 2900 371 
Q 2509 -63 1766 -63 
Q 1413 -63 1134 43 
Q 856 150 664 369 
Q 472 588 370 917 
Q 269 1247 269 1694 
Q 269 3444 1784 3444 
Q 2178 3444 2464 3334 
Q 2750 3225 2933 3006 
Q 3116 2788 3203 2459 
Q 3291 2131 3291 1694 
z
M 2700 1694 
Q 2700 2088 2639 2344 
Q 2578 2600 2461 2753 
Q 2344 2906 2175 2967 
Q 2006 3028 1794 3028 
Q 1578 3028 1404 2964 
Q 1231 2900 1109 2745 
Q 988 2591 923 2334 
Q 859 2078 859 1694 
Q 859 1300 928 1042 
Q 997 784 1117 631 
Q 1238 478 1402 415 
Q 1566 353 1759 353 
Q 1975 353 2150 414 
Q 2325 475 2447 628 
Q 2569 781 2634 1040 
Q 2700 1300 2700 1694 
z
" transform="scale(0.015625)"/>
       </defs>
       <use xlink:href="#LiberationSans-63"/>
       <use xlink:href="#LiberationSans-75" x="50"/>
       <use xlink:href="#LiberationSans-72" x="105.615234"/>
       <use xlink:href="#LiberationSans-61" x="138.916016"/>
       <use xlink:href="#LiberationSans-74" x="194.53125"/>
       <use xlink:href="#LiberationSans-6f" x="222.314453"/>
       <use xlink:href="#LiberationSans-72" x="277.929688"/>
      </g>
     </g>
    </g>
    <g id="ytick_2">
     <g id="line2d_8"/>
     <g id="text_8">
      <!-- faber -->
      <g style="fill: #262626" transform="translate(30.4275 39.408799) scale(0.08 -0.08)">
       <defs>
        <path id="LiberationSans-66" d="M 1128 2972 
L 1128 0 
L 566 0 
L 566 2972 
L 91 2972 
L 91 3381 
L 566 3381 
L 566 3763 
Q 566 3947 600 4105 
Q 634 4263 726 4380 
Q 819 4497 978 4564 
Q 1138 4631 1391 4631 
Q 1491 4631 1598 4622 
Q 1706 4613 1788 4594 
L 1788 4166 
Q 1734 4175 1664 4183 
Q 1594 4191 1538 4191 
Q 1413 4191 1333 4156 
Q 1253 4122 1208 4058 
Q 1163 3994 1145 3900 
Q 1128 3806 1128 3684 
L 1128 3381 
L 1788 3381 
L 1788 2972 
L 1128 2972 
z
" transform="scale(0.015625)"/>
        <path id="LiberationSans-62" d="M 3291 1706 
Q 3291 -63 2047 -63 
Q 1663 -63 1408 76 
Q 1153 216 994 525 
L 988 525 
Q 988 444 983 356 
Q 978 269 973 194 
Q 969 119 964 66 
Q 959 13 956 0 
L 413 0 
Q 416 28 419 95 
Q 422 163 425 256 
Q 428 350 429 462 
Q 431 575 431 697 
L 431 4638 
L 994 4638 
L 994 3316 
Q 994 3222 992 3136 
Q 991 3050 988 2984 
Q 984 2906 981 2838 
L 994 2838 
Q 1150 3163 1408 3303 
Q 1666 3444 2047 3444 
Q 2688 3444 2989 3012 
Q 3291 2581 3291 1706 
z
M 2700 1688 
Q 2700 2038 2656 2288 
Q 2613 2538 2516 2698 
Q 2419 2859 2269 2934 
Q 2119 3009 1903 3009 
Q 1681 3009 1511 2937 
Q 1341 2866 1227 2706 
Q 1113 2547 1053 2287 
Q 994 2028 994 1653 
Q 994 1291 1053 1044 
Q 1113 797 1227 642 
Q 1341 488 1509 420 
Q 1678 353 1897 353 
Q 2103 353 2253 425 
Q 2403 497 2503 656 
Q 2603 816 2651 1070 
Q 2700 1325 2700 1688 
z
" transform="scale(0.015625)"/>
        <path id="LiberationSans-65" d="M 863 1572 
Q 863 1306 917 1082 
Q 972 859 1086 698 
Q 1200 538 1378 448 
Q 1556 359 1806 359 
Q 2172 359 2392 506 
Q 2613 653 2691 878 
L 3184 738 
Q 3131 597 3036 455 
Q 2941 313 2781 198 
Q 2622 84 2383 10 
Q 2144 -63 1806 -63 
Q 1056 -63 664 384 
Q 272 831 272 1713 
Q 272 2188 390 2517 
Q 509 2847 715 3053 
Q 922 3259 1197 3351 
Q 1472 3444 1784 3444 
Q 2209 3444 2495 3306 
Q 2781 3169 2954 2926 
Q 3128 2684 3201 2356 
Q 3275 2028 3275 1647 
L 3275 1572 
L 863 1572 
z
M 2694 2003 
Q 2647 2538 2422 2783 
Q 2197 3028 1775 3028 
Q 1634 3028 1479 2983 
Q 1325 2938 1194 2822 
Q 1063 2706 972 2507 
Q 881 2309 869 2003 
L 2694 2003 
z
" transform="scale(0.015625)"/>
       </defs>
       <use xlink:href="#LiberationSans-66"/>
       <use xlink:href="#LiberationSans-61" x="27.783203"/>
       <use xlink:href="#LiberationSans-62" x="83.398438"/>
       <use xlink:href="#LiberationSans-65" x="139.013672"/>
       <use xlink:href="#LiberationSans-72" x="194.628906"/>
      </g>
     </g>
    </g>
    <g id="ytick_3">
     <g id="line2d_9"/>
     <g id="text_9">
      <!-- fullo -->
      <g style="fill: #262626" transform="translate(33.985 54.154856) scale(0.08 -0.08)">
       <defs>
        <path id="LiberationSans-6c" d="M 431 0 
L 431 4638 
L 994 4638 
L 994 0 
L 431 0 
z
" transform="scale(0.015625)"/>
       </defs>
       <use xlink:href="#LiberationSans-66"/>
       <use xlink:href="#LiberationSans-75" x="27.783203"/>
       <use xlink:href="#LiberationSans-6c" x="83.398438"/>
       <use xlink:href="#LiberationSans-6c" x="105.615234"/>
       <use xlink:href="#LiberationSans-6f" x="127.832031"/>
      </g>
     </g>
    </g>
    <g id="ytick_4">
     <g id="line2d_10"/>
     <g id="text_10">
      <!-- scriba -->
      <g style="fill: #262626" transform="translate(27.32125 68.900914) scale(0.08 -0.08)">
       <defs>
        <path id="LiberationSans-73" d="M 2969 934 
Q 2969 697 2876 511 
Q 2784 325 2609 198 
Q 2434 72 2179 4 
Q 1925 -63 1597 -63 
Q 1303 -63 1067 -17 
Q 831 28 653 128 
Q 475 228 354 392 
Q 234 556 178 794 
L 675 891 
Q 747 619 972 492 
Q 1197 366 1597 366 
Q 1778 366 1929 391 
Q 2081 416 2190 477 
Q 2300 538 2361 639 
Q 2422 741 2422 891 
Q 2422 1044 2350 1142 
Q 2278 1241 2150 1306 
Q 2022 1372 1839 1420 
Q 1656 1469 1438 1528 
Q 1234 1581 1034 1647 
Q 834 1713 673 1820 
Q 513 1928 413 2087 
Q 313 2247 313 2488 
Q 313 2950 642 3192 
Q 972 3434 1603 3434 
Q 2163 3434 2492 3237 
Q 2822 3041 2909 2606 
L 2403 2544 
Q 2375 2675 2300 2764 
Q 2225 2853 2119 2908 
Q 2013 2963 1880 2986 
Q 1747 3009 1603 3009 
Q 1222 3009 1040 2893 
Q 859 2778 859 2544 
Q 859 2406 926 2317 
Q 994 2228 1114 2167 
Q 1234 2106 1403 2061 
Q 1572 2016 1775 1966 
Q 1909 1931 2050 1892 
Q 2191 1853 2323 1798 
Q 2456 1744 2573 1670 
Q 2691 1597 2778 1494 
Q 2866 1391 2917 1253 
Q 2969 1116 2969 934 
z
" transform="scale(0.015625)"/>
        <path id="LiberationSans-69" d="M 428 4100 
L 428 4638 
L 991 4638 
L 991 4100 
L 428 4100 
z
M 428 0 
L 428 3381 
L 991 3381 
L 991 0 
L 428 0 
z
" transform="scale(0.015625)"/>
       </defs>
       <use xlink:href="#LiberationSans-73"/>
       <use xlink:href="#LiberationSans-63" x="50"/>
       <use xlink:href="#LiberationSans-72" x="100"/>
       <use xlink:href="#LiberationSans-69" x="133.300781"/>
       <use xlink:href="#LiberationSans-62" x="155.517578"/>
       <use xlink:href="#LiberationSans-61" x="211.132812"/>
      </g>
     </g>
    </g>
    <g id="ytick_5">
     <g id="line2d_11"/>
     <g id="text_11">
      <!-- aerarius -->
      <g style="fill: #262626" transform="translate(19.76 83.646971) scale(0.08 -0.08)">
       <use xlink:href="#LiberationSans-61"/>
       <use xlink:href="#LiberationSans-65" x="55.615234"/>
       <use xlink:href="#LiberationSans-72" x="111.230469"/>
       <use xlink:href="#LiberationSans-61" x="144.53125"/>
       <use xlink:href="#LiberationSans-72" x="200.146484"/>
       <use xlink:href="#LiberationSans-69" x="233.447266"/>
       <use xlink:href="#LiberationSans-75" x="255.664062"/>
       <use xlink:href="#LiberationSans-73" x="311.279297"/>
      </g>
     </g>
    </g>
    <g id="ytick_6">
     <g id="line2d_12"/>
     <g id="text_12">
      <!-- argentarius -->
      <g style="fill: #262626" transform="translate(8.64 98.393029) scale(0.08 -0.08)">
       <defs>
        <path id="LiberationSans-67" d="M 1713 -1328 
Q 1422 -1328 1197 -1268 
Q 972 -1209 812 -1098 
Q 653 -988 553 -834 
Q 453 -681 409 -494 
L 975 -413 
Q 1031 -647 1223 -773 
Q 1416 -900 1728 -900 
Q 1919 -900 2075 -847 
Q 2231 -794 2340 -676 
Q 2450 -559 2509 -371 
Q 2569 -184 2569 84 
L 2569 628 
L 2563 628 
Q 2500 500 2408 383 
Q 2316 266 2183 175 
Q 2050 84 1875 29 
Q 1700 -25 1475 -25 
Q 1153 -25 923 83 
Q 694 191 548 406 
Q 403 622 336 942 
Q 269 1263 269 1684 
Q 269 2091 336 2416 
Q 403 2741 554 2967 
Q 706 3194 948 3314 
Q 1191 3434 1538 3434 
Q 1897 3434 2161 3270 
Q 2425 3106 2569 2803 
L 2575 2803 
Q 2575 2881 2579 2978 
Q 2584 3075 2589 3161 
Q 2594 3247 2600 3309 
Q 2606 3372 2613 3381 
L 3147 3381 
Q 3144 3353 3141 3286 
Q 3138 3219 3134 3125 
Q 3131 3031 3129 2917 
Q 3128 2803 3128 2681 
L 3128 97 
Q 3128 -613 2779 -970 
Q 2431 -1328 1713 -1328 
z
M 2569 1691 
Q 2569 2044 2492 2295 
Q 2416 2547 2291 2706 
Q 2166 2866 2005 2941 
Q 1844 3016 1675 3016 
Q 1459 3016 1304 2941 
Q 1150 2866 1048 2705 
Q 947 2544 898 2292 
Q 850 2041 850 1691 
Q 850 1325 898 1076 
Q 947 828 1047 675 
Q 1147 522 1300 456 
Q 1453 391 1666 391 
Q 1834 391 1995 462 
Q 2156 534 2284 690 
Q 2413 847 2491 1094 
Q 2569 1341 2569 1691 
z
" transform="scale(0.015625)"/>
        <path id="LiberationSans-6e" d="M 2578 0 
L 2578 2144 
Q 2578 2391 2542 2556 
Q 2506 2722 2425 2823 
Q 2344 2925 2211 2967 
Q 2078 3009 1881 3009 
Q 1681 3009 1520 2939 
Q 1359 2869 1245 2736 
Q 1131 2603 1068 2408 
Q 1006 2213 1006 1959 
L 1006 0 
L 444 0 
L 444 2659 
Q 444 2766 442 2883 
Q 441 3000 437 3104 
Q 434 3209 431 3284 
Q 428 3359 425 3381 
L 956 3381 
Q 959 3366 962 3297 
Q 966 3228 970 3139 
Q 975 3050 978 2958 
Q 981 2866 981 2803 
L 991 2803 
Q 1072 2950 1169 3069 
Q 1266 3188 1394 3270 
Q 1522 3353 1687 3398 
Q 1853 3444 2072 3444 
Q 2353 3444 2556 3375 
Q 2759 3306 2890 3162 
Q 3022 3019 3083 2792 
Q 3144 2566 3144 2253 
L 3144 0 
L 2578 0 
z
" transform="scale(0.015625)"/>
       </defs>
       <use xlink:href="#LiberationSans-61"/>
       <use xlink:href="#LiberationSans-72" x="55.615234"/>
       <use xlink:href="#LiberationSans-67" x="88.916016"/>
       <use xlink:href="#LiberationSans-65" x="144.53125"/>
       <use xlink:href="#LiberationSans-6e" x="200.146484"/>
       <use xlink:href="#LiberationSans-74" x="255.761719"/>
       <use xlink:href="#LiberationSans-61" x="283.544922"/>
       <use xlink:href="#LiberationSans-72" x="339.160156"/>
       <use xlink:href="#LiberationSans-69" x="372.460938"/>
       <use xlink:href="#LiberationSans-75" x="394.677734"/>
       <use xlink:href="#LiberationSans-73" x="450.292969"/>
      </g>
     </g>
    </g>
    <g id="ytick_7">
     <g id="line2d_13"/>
     <g id="text_13">
      <!-- negotians -->
      <g style="fill: #262626" transform="translate(13.9675 113.139086) scale(0.08 -0.08)">
       <use xlink:href="#LiberationSans-6e"/>
       <use xlink:href="#LiberationSans-65" x="55.615234"/>
       <use xlink:href="#LiberationSans-67" x="111.230469"/>
       <use xlink:href="#LiberationSans-6f" x="166.845703"/>
       <use xlink:href="#LiberationSans-74" x="222.460938"/>
       <use xlink:href="#LiberationSans-69" x="250.244141"/>
       <use xlink:href="#LiberationSans-61" x="272.460938"/>
       <use xlink:href="#LiberationSans-6e" x="328.076172"/>
       <use xlink:href="#LiberationSans-73" x="383.691406"/>
      </g>
     </g>
    </g>
    <g id="ytick_8">
     <g id="line2d_14"/>
     <g id="text_14">
      <!-- medicus -->
      <g style="fill: #262626" transform="translate(18.8725 127.885144) scale(0.08 -0.08)">
       <defs>
        <path id="LiberationSans-6d" d="M 2400 0 
L 2400 2144 
Q 2400 2391 2369 2556 
Q 2338 2722 2264 2823 
Q 2191 2925 2072 2967 
Q 1953 3009 1781 3009 
Q 1603 3009 1459 2939 
Q 1316 2869 1214 2736 
Q 1113 2603 1058 2408 
Q 1003 2213 1003 1959 
L 1003 0 
L 444 0 
L 444 2659 
Q 444 2766 442 2883 
Q 441 3000 437 3104 
Q 434 3209 431 3284 
Q 428 3359 425 3381 
L 956 3381 
Q 959 3366 962 3297 
Q 966 3228 970 3139 
Q 975 3050 978 2958 
Q 981 2866 981 2803 
L 991 2803 
Q 1066 2950 1153 3069 
Q 1241 3188 1358 3270 
Q 1475 3353 1626 3398 
Q 1778 3444 1978 3444 
Q 2363 3444 2586 3291 
Q 2809 3138 2897 2803 
L 2906 2803 
Q 2981 2950 3075 3069 
Q 3169 3188 3294 3270 
Q 3419 3353 3575 3398 
Q 3731 3444 3931 3444 
Q 4188 3444 4373 3375 
Q 4559 3306 4678 3162 
Q 4797 3019 4853 2792 
Q 4909 2566 4909 2253 
L 4909 0 
L 4353 0 
L 4353 2144 
Q 4353 2391 4322 2556 
Q 4291 2722 4217 2823 
Q 4144 2925 4025 2967 
Q 3906 3009 3734 3009 
Q 3556 3009 3412 2942 
Q 3269 2875 3167 2744 
Q 3066 2613 3011 2416 
Q 2956 2219 2956 1959 
L 2956 0 
L 2400 0 
z
" transform="scale(0.015625)"/>
        <path id="LiberationSans-64" d="M 2566 544 
Q 2409 219 2151 78 
Q 1894 -63 1513 -63 
Q 872 -63 570 368 
Q 269 800 269 1675 
Q 269 3444 1513 3444 
Q 1897 3444 2153 3303 
Q 2409 3163 2566 2856 
L 2572 2856 
Q 2572 2888 2570 2955 
Q 2569 3022 2567 3095 
Q 2566 3169 2566 3234 
Q 2566 3300 2566 3328 
L 2566 4638 
L 3128 4638 
L 3128 697 
Q 3128 575 3129 462 
Q 3131 350 3134 256 
Q 3138 163 3141 95 
Q 3144 28 3147 0 
L 2609 0 
Q 2603 31 2598 89 
Q 2594 147 2589 222 
Q 2584 297 2581 380 
Q 2578 463 2578 544 
L 2566 544 
z
M 859 1694 
Q 859 1344 903 1094 
Q 947 844 1044 683 
Q 1141 522 1291 447 
Q 1441 372 1656 372 
Q 1878 372 2048 444 
Q 2219 516 2333 677 
Q 2447 838 2506 1097 
Q 2566 1356 2566 1731 
Q 2566 2091 2506 2339 
Q 2447 2588 2331 2741 
Q 2216 2894 2048 2961 
Q 1881 3028 1663 3028 
Q 1456 3028 1306 2956 
Q 1156 2884 1056 2725 
Q 956 2566 907 2311 
Q 859 2056 859 1694 
z
" transform="scale(0.015625)"/>
       </defs>
       <use xlink:href="#LiberationSans-6d"/>
       <use xlink:href="#LiberationSans-65" x="83.300781"/>
       <use xlink:href="#LiberationSans-64" x="138.916016"/>
       <use xlink:href="#LiberationSans-69" x="194.53125"/>
       <use xlink:href="#LiberationSans-63" x="216.748047"/>
       <use xlink:href="#LiberationSans-75" x="266.748047"/>
       <use xlink:href="#LiberationSans-73" x="322.363281"/>
      </g>
     </g>
    </g>
    <g id="ytick_9">
     <g id="line2d_15"/>
     <g id="text_15">
      <!-- negotiator -->
      <g style="fill: #262626" transform="translate(13.08125 142.631201) scale(0.08 -0.08)">
       <use xlink:href="#LiberationSans-6e"/>
       <use xlink:href="#LiberationSans-65" x="55.615234"/>
       <use xlink:href="#LiberationSans-67" x="111.230469"/>
       <use xlink:href="#LiberationSans-6f" x="166.845703"/>
       <use xlink:href="#LiberationSans-74" x="222.460938"/>
       <use xlink:href="#LiberationSans-69" x="250.244141"/>
       <use xlink:href="#LiberationSans-61" x="272.460938"/>
       <use xlink:href="#LiberationSans-74" x="328.076172"/>
       <use xlink:href="#LiberationSans-6f" x="355.859375"/>
       <use xlink:href="#LiberationSans-72" x="411.474609"/>
      </g>
     </g>
    </g>
    <g id="ytick_10">
     <g id="line2d_16"/>
     <g id="text_16">
      <!-- mensor -->
      <g style="fill: #262626" transform="translate(21.98625 157.377259) scale(0.08 -0.08)">
       <use xlink:href="#LiberationSans-6d"/>
       <use xlink:href="#LiberationSans-65" x="83.300781"/>
       <use xlink:href="#LiberationSans-6e" x="138.916016"/>
       <use xlink:href="#LiberationSans-73" x="194.53125"/>
       <use xlink:href="#LiberationSans-6f" x="244.53125"/>
       <use xlink:href="#LiberationSans-72" x="300.146484"/>
      </g>
     </g>
    </g>
   </g>
   <g id="patch_3">
    <path d="M 52.16 18.81478 
L 348.782933 18.81478 
L 348.782933 15.865568 
L 52.16 15.865568 
z
" clip-path="url(#p3406e9ea61)" style="fill: #0000ff"/>
   </g>
   <g id="patch_4">
    <path d="M 52.16 33.560837 
L 118.18409 33.560837 
L 118.18409 30.611626 
L 52.16 30.611626 
z
" clip-path="url(#p3406e9ea61)" style="fill: #0000ff"/>
   </g>
   <g id="patch_5">
    <path d="M 52.16 48.306895 
L 62.840367 48.306895 
L 62.840367 45.357683 
L 52.16 45.357683 
z
" clip-path="url(#p3406e9ea61)" style="fill: #0000ff"/>
   </g>
   <g id="patch_6">
    <path d="M 52.16 63.052952 
L 152.167077 63.052952 
L 152.167077 60.103741 
L 52.16 60.103741 
z
" clip-path="url(#p3406e9ea61)" style="fill: #0000ff"/>
   </g>
   <g id="patch_7">
    <path d="M 52.16 77.79901 
L 164.78933 77.79901 
L 164.78933 74.849798 
L 52.16 74.849798 
z
" clip-path="url(#p3406e9ea61)" style="fill: #0000ff"/>
   </g>
   <g id="patch_8">
    <path d="M 52.16 92.545067 
L 91.968642 92.545067 
L 91.968642 89.595856 
L 52.16 89.595856 
z
" clip-path="url(#p3406e9ea61)" style="fill: #0000ff"/>
   </g>
   <g id="patch_9">
    <path d="M 52.16 107.291125 
L 75.948091 107.291125 
L 75.948091 104.341913 
L 52.16 104.341913 
z
" clip-path="url(#p3406e9ea61)" style="fill: #0000ff"/>
   </g>
   <g id="patch_10">
    <path d="M 52.16 122.037182 
L 145.37048 122.037182 
L 145.37048 119.087971 
L 52.16 119.087971 
z
" clip-path="url(#p3406e9ea61)" style="fill: #0000ff"/>
   </g>
   <g id="patch_11">
    <path d="M 52.16 136.78324 
L 79.34639 136.78324 
L 79.34639 133.834028 
L 52.16 133.834028 
z
" clip-path="url(#p3406e9ea61)" style="fill: #0000ff"/>
   </g>
   <g id="patch_12">
    <path d="M 52.16 151.529297 
L 99.250711 151.529297 
L 99.250711 148.580086 
L 52.16 148.580086 
z
" clip-path="url(#p3406e9ea61)" style="fill: #0000ff"/>
   </g>
   <g id="patch_13">
    <path d="M 52.16 21.763991 
L 348.782933 21.763991 
L 348.782933 18.81478 
L 52.16 18.81478 
z
" clip-path="url(#p3406e9ea61)" style="fill: #ff0000"/>
   </g>
   <g id="patch_14">
    <path d="M 52.16 36.510049 
L 190.584036 36.510049 
L 190.584036 33.560837 
L 52.16 33.560837 
z
" clip-path="url(#p3406e9ea61)" style="fill: #ff0000"/>
   </g>
   <g id="patch_15">
    <path d="M 52.16 51.256106 
L 111.484587 51.256106 
L 111.484587 48.306895 
L 52.16 48.306895 
z
" clip-path="url(#p3406e9ea61)" style="fill: #ff0000"/>
   </g>
   <g id="patch_16">
    <path d="M 52.16 66.002164 
L 206.403925 66.002164 
L 206.403925 63.052952 
L 52.16 63.052952 
z
" clip-path="url(#p3406e9ea61)" style="fill: #ff0000"/>
   </g>
   <g id="patch_17">
    <path d="M 52.16 80.748221 
L 226.178788 80.748221 
L 226.178788 77.79901 
L 52.16 77.79901 
z
" clip-path="url(#p3406e9ea61)" style="fill: #ff0000"/>
   </g>
   <g id="patch_18">
    <path d="M 52.16 95.494279 
L 186.629063 95.494279 
L 186.629063 92.545067 
L 52.16 92.545067 
z
" clip-path="url(#p3406e9ea61)" style="fill: #ff0000"/>
   </g>
   <g id="patch_19">
    <path d="M 52.16 110.240336 
L 123.349504 110.240336 
L 123.349504 107.291125 
L 52.16 107.291125 
z
" clip-path="url(#p3406e9ea61)" style="fill: #ff0000"/>
   </g>
   <g id="patch_20">
    <path d="M 52.16 124.986394 
L 135.214421 124.986394 
L 135.214421 122.037182 
L 52.16 122.037182 
z
" clip-path="url(#p3406e9ea61)" style="fill: #ff0000"/>
   </g>
   <g id="patch_21">
    <path d="M 52.16 139.732451 
L 135.214421 139.732451 
L 135.214421 136.78324 
L 52.16 136.78324 
z
" clip-path="url(#p3406e9ea61)" style="fill: #ff0000"/>
   </g>
   <g id="patch_22">
    <path d="M 52.16 154.478509 
L 158.944256 154.478509 
L 158.944256 151.529297 
L 52.16 151.529297 
z
" clip-path="url(#p3406e9ea61)" style="fill: #ff0000"/>
   </g>
   <g id="patch_23">
    <path d="M 52.16 24.713203 
L 348.782933 24.713203 
L 348.782933 21.763991 
L 52.16 21.763991 
z
" clip-path="url(#p3406e9ea61)" style="fill: #008000"/>
   </g>
   <g id="patch_24">
    <path d="M 52.16 39.45926 
L 164.070131 39.45926 
L 164.070131 36.510049 
L 52.16 36.510049 
z
" clip-path="url(#p3406e9ea61)" style="fill: #008000"/>
   </g>
   <g id="patch_25">
    <path d="M 52.16 54.205318 
L 150.029515 54.205318 
L 150.029515 51.256106 
L 52.16 51.256106 
z
" clip-path="url(#p3406e9ea61)" style="fill: #008000"/>
   </g>
   <g id="patch_26">
    <path d="M 52.16 68.951375 
L 115.342535 68.951375 
L 115.342535 66.002164 
L 52.16 66.002164 
z
" clip-path="url(#p3406e9ea61)" style="fill: #008000"/>
   </g>
   <g id="patch_27">
    <path d="M 52.16 83.697433 
L 108.835435 83.697433 
L 108.835435 80.748221 
L 52.16 80.748221 
z
" clip-path="url(#p3406e9ea61)" style="fill: #008000"/>
   </g>
   <g id="patch_28">
    <path d="M 52.16 98.44349 
L 107.505135 98.44349 
L 107.505135 95.494279 
L 52.16 95.494279 
z
" clip-path="url(#p3406e9ea61)" style="fill: #008000"/>
   </g>
   <g id="patch_29">
    <path d="M 52.16 113.189548 
L 96.740997 113.189548 
L 96.740997 110.240336 
L 52.16 110.240336 
z
" clip-path="url(#p3406e9ea61)" style="fill: #008000"/>
   </g>
   <g id="patch_30">
    <path d="M 52.16 127.935605 
L 82.730178 127.935605 
L 82.730178 124.986394 
L 52.16 124.986394 
z
" clip-path="url(#p3406e9ea61)" style="fill: #008000"/>
   </g>
   <g id="patch_31">
    <path d="M 52.16 142.681663 
L 75.295623 142.681663 
L 75.295623 139.732451 
L 52.16 139.732451 
z
" clip-path="url(#p3406e9ea61)" style="fill: #008000"/>
   </g>
   <g id="patch_32">
    <path d="M 52.16 157.42772 
L 74.590873 157.42772 
L 74.590873 154.478509 
L 52.16 154.478509 
z
" clip-path="url(#p3406e9ea61)" style="fill: #008000"/>
   </g>
   <g id="patch_33">
    <path d="M 52.16 27.662414 
L 348.782933 27.662414 
L 348.782933 24.713203 
L 52.16 24.713203 
z
" clip-path="url(#p3406e9ea61)" style="fill: #800080"/>
   </g>
   <g id="patch_34">
    <path d="M 52.16 42.408472 
L 328.11552 42.408472 
L 328.11552 39.45926 
L 52.16 39.45926 
z
" clip-path="url(#p3406e9ea61)" style="fill: #800080"/>
   </g>
   <g id="patch_35">
    <path d="M 52.16 57.154529 
L 212.668002 57.154529 
L 212.668002 54.205318 
L 52.16 54.205318 
z
" clip-path="url(#p3406e9ea61)" style="fill: #800080"/>
   </g>
   <g id="patch_36">
    <path d="M 52.16 71.900587 
L 338.372037 71.900587 
L 338.372037 68.951375 
L 52.16 68.951375 
z
" clip-path="url(#p3406e9ea61)" style="fill: #800080"/>
   </g>
   <g id="patch_37">
    <path d="M 52.16 86.646644 
L 342.542165 86.646644 
L 342.542165 83.697433 
L 52.16 83.697433 
z
" clip-path="url(#p3406e9ea61)" style="fill: #800080"/>
   </g>
   <g id="patch_38">
    <path d="M 52.16 101.392702 
L 308.173985 101.392702 
L 308.173985 98.44349 
L 52.16 98.44349 
z
" clip-path="url(#p3406e9ea61)" style="fill: #800080"/>
   </g>
   <g id="patch_39">
    <path d="M 52.16 116.138759 
L 332.340538 116.138759 
L 332.340538 113.189548 
L 52.16 113.189548 
z
" clip-path="url(#p3406e9ea61)" style="fill: #800080"/>
   </g>
   <g id="patch_40">
    <path d="M 52.16 130.884817 
L 308.99328 130.884817 
L 308.99328 127.935605 
L 52.16 127.935605 
z
" clip-path="url(#p3406e9ea61)" style="fill: #800080"/>
   </g>
   <g id="patch_41">
    <path d="M 52.16 145.630874 
L 290.158148 145.630874 
L 290.158148 142.681663 
L 52.16 142.681663 
z
" clip-path="url(#p3406e9ea61)" style="fill: #800080"/>
   </g>
   <g id="patch_42">
    <path d="M 52.16 160.376932 
L 334.481597 160.376932 
L 334.481597 157.42772 
L 52.16 157.42772 
z
" clip-path="url(#p3406e9ea61)" style="fill: #800080"/>
   </g>
   <g id="patch_43">
    <path d="M 52.16 167.6025 
L 52.16 8.64 
" style="fill: none; stroke: #262626; stroke-width: 1.25; stroke-linejoin: miter; stroke-linecap: square"/>
   </g>
   <g id="patch_44">
    <path d="M 363.61408 167.6025 
L 363.61408 8.64 
" style="fill: none; stroke: #262626; stroke-width: 1.25; stroke-linejoin: miter; stroke-linecap: square"/>
   </g>
   <g id="patch_45">
    <path d="M 52.16 167.6025 
L 363.61408 167.6025 
" style="fill: none; stroke: #262626; stroke-width: 1.25; stroke-linejoin: miter; stroke-linecap: square"/>
   </g>
   <g id="patch_46">
    <path d="M 52.16 8.64 
L 363.61408 8.64 
" style="fill: none; stroke: #262626; stroke-width: 1.25; stroke-linejoin: miter; stroke-linecap: square"/>
   </g>
   <g id="legend_1">
    <g id="text_17">
     <!-- Metrics -->
     <g style="fill: #262626" transform="translate(376.951146 28.80425) scale(0.08 -0.08)">
      <defs>
       <path id="LiberationSans-4d" d="M 4269 0 
L 4269 2938 
Q 4269 3097 4272 3262 
Q 4275 3428 4281 3566 
Q 4288 3725 4297 3875 
Q 4253 3716 4206 3559 
Q 4166 3425 4117 3273 
Q 4069 3122 4022 3000 
L 2884 0 
L 2466 0 
L 1313 3000 
Q 1294 3047 1273 3109 
Q 1253 3172 1229 3242 
Q 1206 3313 1182 3386 
Q 1159 3459 1138 3531 
Q 1084 3697 1034 3875 
Q 1038 3700 1044 3528 
Q 1050 3381 1053 3220 
Q 1056 3059 1056 2938 
L 1056 0 
L 525 0 
L 525 4403 
L 1309 4403 
L 2481 1350 
Q 2503 1288 2534 1189 
Q 2566 1091 2594 987 
Q 2622 884 2645 792 
Q 2669 700 2678 650 
Q 2688 700 2713 794 
Q 2738 888 2770 991 
Q 2803 1094 2834 1191 
Q 2866 1288 2891 1350 
L 4041 4403 
L 4806 4403 
L 4806 0 
L 4269 0 
z
" transform="scale(0.015625)"/>
      </defs>
      <use xlink:href="#LiberationSans-4d"/>
      <use xlink:href="#LiberationSans-65" x="83.300781"/>
      <use xlink:href="#LiberationSans-74" x="138.916016"/>
      <use xlink:href="#LiberationSans-72" x="166.699219"/>
      <use xlink:href="#LiberationSans-69" x="200"/>
      <use xlink:href="#LiberationSans-63" x="222.216797"/>
      <use xlink:href="#LiberationSans-73" x="272.216797"/>
     </g>
     <!-- (normalized) -->
     <g style="fill: #262626" transform="translate(376.951146 37.42125) scale(0.08 -0.08)">
      <defs>
       <path id="LiberationSans-28" d="M 397 1663 
Q 397 2097 462 2494 
Q 528 2891 668 3256 
Q 809 3622 1028 3965 
Q 1247 4309 1550 4638 
L 2094 4638 
Q 1800 4309 1586 3964 
Q 1372 3619 1234 3251 
Q 1097 2884 1030 2487 
Q 963 2091 963 1656 
Q 963 1222 1030 825 
Q 1097 428 1234 59 
Q 1372 -309 1586 -653 
Q 1800 -997 2094 -1325 
L 1550 -1325 
Q 1247 -997 1028 -653 
Q 809 -309 668 56 
Q 528 422 462 817 
Q 397 1213 397 1650 
L 397 1663 
z
" transform="scale(0.015625)"/>
       <path id="LiberationSans-7a" d="M 153 0 
L 153 428 
L 2219 2947 
L 278 2947 
L 278 3381 
L 2853 3381 
L 2853 2953 
L 784 434 
L 2969 434 
L 2969 0 
L 153 0 
z
" transform="scale(0.015625)"/>
       <path id="LiberationSans-29" d="M 1734 1650 
Q 1734 1213 1668 817 
Q 1603 422 1462 56 
Q 1322 -309 1103 -653 
Q 884 -997 581 -1325 
L 38 -1325 
Q 331 -997 545 -653 
Q 759 -309 896 59 
Q 1034 428 1101 825 
Q 1169 1222 1169 1656 
Q 1169 2091 1101 2487 
Q 1034 2884 896 3251 
Q 759 3619 545 3964 
Q 331 4309 38 4638 
L 581 4638 
Q 884 4309 1103 3965 
Q 1322 3622 1462 3256 
Q 1603 2891 1668 2494 
Q 1734 2097 1734 1663 
L 1734 1650 
z
" transform="scale(0.015625)"/>
      </defs>
      <use xlink:href="#LiberationSans-28"/>
      <use xlink:href="#LiberationSans-6e" x="33.300781"/>
      <use xlink:href="#LiberationSans-6f" x="88.916016"/>
      <use xlink:href="#LiberationSans-72" x="144.53125"/>
      <use xlink:href="#LiberationSans-6d" x="177.832031"/>
      <use xlink:href="#LiberationSans-61" x="261.132812"/>
      <use xlink:href="#LiberationSans-6c" x="316.748047"/>
      <use xlink:href="#LiberationSans-69" x="338.964844"/>
      <use xlink:href="#LiberationSans-7a" x="361.181641"/>
      <use xlink:href="#LiberationSans-65" x="411.181641"/>
      <use xlink:href="#LiberationSans-64" x="466.796875"/>
      <use xlink:href="#LiberationSans-29" x="522.412109"/>
     </g>
    </g>
    <g id="line2d_17">
     <path d="M 377.44638 43.454688 
L 382.44638 43.454688 
L 387.44638 43.454688 
" style="fill: none; stroke: #0000ff; stroke-width: 2.5; stroke-linecap: round"/>
    </g>
    <g id="text_18">
     <!-- wordcount -->
     <g style="fill: #262626" transform="translate(391.44638 45.204688) scale(0.05 -0.05)">
      <defs>
       <path id="LiberationSans-77" d="M 3669 0 
L 3016 0 
L 2475 2181 
Q 2450 2266 2423 2391 
Q 2397 2516 2372 2634 
Q 2341 2772 2313 2919 
Q 2284 2778 2253 2641 
Q 2228 2522 2198 2394 
Q 2169 2266 2144 2169 
L 1588 0 
L 938 0 
L -9 3381 
L 547 3381 
L 1119 1084 
Q 1141 1013 1162 908 
Q 1184 803 1206 703 
Q 1228 588 1253 466 
Q 1278 584 1306 697 
Q 1331 794 1356 894 
Q 1381 994 1400 1059 
L 2013 3381 
L 2616 3381 
L 3206 1059 
Q 3228 978 3253 875 
Q 3278 772 3300 681 
Q 3325 575 3350 466 
Q 3375 584 3400 697 
Q 3422 794 3445 898 
Q 3469 1003 3491 1084 
L 4088 3381 
L 4638 3381 
L 3669 0 
z
" transform="scale(0.015625)"/>
      </defs>
      <use xlink:href="#LiberationSans-77"/>
      <use xlink:href="#LiberationSans-6f" x="72.216797"/>
      <use xlink:href="#LiberationSans-72" x="127.832031"/>
      <use xlink:href="#LiberationSans-64" x="161.132812"/>
      <use xlink:href="#LiberationSans-63" x="216.748047"/>
      <use xlink:href="#LiberationSans-6f" x="266.748047"/>
      <use xlink:href="#LiberationSans-75" x="322.363281"/>
      <use xlink:href="#LiberationSans-6e" x="377.978516"/>
      <use xlink:href="#LiberationSans-74" x="433.59375"/>
     </g>
    </g>
    <g id="line2d_18">
     <path d="M 377.44638 50.615625 
L 382.44638 50.615625 
L 387.44638 50.615625 
" style="fill: none; stroke: #ff0000; stroke-width: 2.5; stroke-linecap: round"/>
    </g>
    <g id="text_19">
     <!-- degree -->
     <g style="fill: #262626" transform="translate(391.44638 52.365625) scale(0.05 -0.05)">
      <use xlink:href="#LiberationSans-64"/>
      <use xlink:href="#LiberationSans-65" x="55.615234"/>
      <use xlink:href="#LiberationSans-67" x="111.230469"/>
      <use xlink:href="#LiberationSans-72" x="166.845703"/>
      <use xlink:href="#LiberationSans-65" x="200.146484"/>
      <use xlink:href="#LiberationSans-65" x="255.761719"/>
     </g>
    </g>
    <g id="line2d_19">
     <path d="M 377.44638 57.776563 
L 382.44638 57.776563 
L 387.44638 57.776563 
" style="fill: none; stroke: #008000; stroke-width: 2.5; stroke-linecap: round"/>
    </g>
    <g id="text_20">
     <!-- betweenness -->
     <g style="fill: #262626" transform="translate(391.44638 59.526563) scale(0.05 -0.05)">
      <use xlink:href="#LiberationSans-62"/>
      <use xlink:href="#LiberationSans-65" x="55.615234"/>
      <use xlink:href="#LiberationSans-74" x="111.230469"/>
      <use xlink:href="#LiberationSans-77" x="139.013672"/>
      <use xlink:href="#LiberationSans-65" x="211.230469"/>
      <use xlink:href="#LiberationSans-65" x="266.845703"/>
      <use xlink:href="#LiberationSans-6e" x="322.460938"/>
      <use xlink:href="#LiberationSans-6e" x="378.076172"/>
      <use xlink:href="#LiberationSans-65" x="433.691406"/>
      <use xlink:href="#LiberationSans-73" x="489.306641"/>
      <use xlink:href="#LiberationSans-73" x="539.306641"/>
     </g>
    </g>
    <g id="line2d_20">
     <path d="M 377.44638 64.9375 
L 382.44638 64.9375 
L 387.44638 64.9375 
" style="fill: none; stroke: #800080; stroke-width: 2.5; stroke-linecap: round"/>
    </g>
    <g id="text_21">
     <!-- closeness -->
     <g style="fill: #262626" transform="translate(391.44638 66.6875) scale(0.05 -0.05)">
      <use xlink:href="#LiberationSans-63"/>
      <use xlink:href="#LiberationSans-6c" x="50"/>
      <use xlink:href="#LiberationSans-6f" x="72.216797"/>
      <use xlink:href="#LiberationSans-73" x="127.832031"/>
      <use xlink:href="#LiberationSans-65" x="177.832031"/>
      <use xlink:href="#LiberationSans-6e" x="233.447266"/>
      <use xlink:href="#LiberationSans-65" x="289.0625"/>
      <use xlink:href="#LiberationSans-73" x="344.677734"/>
      <use xlink:href="#LiberationSans-73" x="394.677734"/>
     </g>
    </g>
   </g>
  </g>
 </g>
 <defs>
  <clipPath id="p3406e9ea61">
   <rect x="52.16" y="8.64" width="311.45408" height="158.9625"/>
  </clipPath>
 </defs>
</svg>
