<?xml version="1.0" encoding="utf-8" standalone="no"?>
<!DOCTYPE svg PUBLIC "-//W3C//DTD SVG 1.1//EN"
  "http://www.w3.org/Graphics/SVG/1.1/DTD/svg11.dtd">
<svg xmlns:xlink="http://www.w3.org/1999/xlink" width="374.4pt" height="288pt" viewBox="0 0 374.4 288" xmlns="http://www.w3.org/2000/svg" version="1.1">
 <metadata>
  <rdf:RDF xmlns:dc="http://purl.org/dc/elements/1.1/" xmlns:cc="http://creativecommons.org/ns#" xmlns:rdf="http://www.w3.org/1999/02/22-rdf-syntax-ns#">
   <cc:Work>
    <dc:type rdf:resource="http://purl.org/dc/dcmitype/StillImage"/>
    <dc:date>2023-11-16T15:11:35.880382</dc:date>
    <dc:format>image/svg+xml</dc:format>
    <dc:creator>
     <cc:Agent>
      <dc:title>Matplotlib v3.7.3, https://matplotlib.org/</dc:title>
     </cc:Agent>
    </dc:creator>
   </cc:Work>
  </rdf:RDF>
 </metadata>
 <defs>
  <style type="text/css">*{stroke-linejoin: round; stroke-linecap: butt}</style>
 </defs>
 <g id="figure_1">
  <g id="patch_1">
   <path d="M 0 288 
L 374.4 288 
L 374.4 0 
L 0 0 
z
" style="fill: #ffffff"/>
  </g>
  <g id="axes_1">
   <g id="patch_2">
    <path d="M 48.06375 85.004407 
L 182.784916 85.004407 
L 182.784916 36.20026 
L 48.06375 36.20026 
z
" style="fill: #ffffff"/>
   </g>
   <g id="matplotlib.axis_1">
    <g id="xtick_1">
     <g id="line2d_1"/>
     <g id="text_1">
      <!-- −200 -->
      <g style="fill: #262626" transform="translate(41.182581 94.301907) scale(0.08 -0.08)">
       <defs>
        <path id="LiberationSans-2212" d="M 316 1900 
L 316 2356 
L 3425 2356 
L 3425 1900 
L 316 1900 
z
" transform="scale(0.015625)"/>
        <path id="LiberationSans-32" d="M 322 0 
L 322 397 
Q 481 763 711 1042 
Q 941 1322 1194 1548 
Q 1447 1775 1695 1969 
Q 1944 2163 2144 2356 
Q 2344 2550 2467 2762 
Q 2591 2975 2591 3244 
Q 2591 3606 2378 3806 
Q 2166 4006 1788 4006 
Q 1428 4006 1195 3811 
Q 963 3616 922 3263 
L 347 3316 
Q 409 3844 795 4156 
Q 1181 4469 1788 4469 
Q 2453 4469 2811 4155 
Q 3169 3841 3169 3263 
Q 3169 3006 3051 2753 
Q 2934 2500 2703 2247 
Q 2472 1994 1819 1463 
Q 1459 1169 1246 933 
Q 1034 697 941 478 
L 3238 478 
L 3238 0 
L 322 0 
z
" transform="scale(0.015625)"/>
        <path id="LiberationSans-30" d="M 3309 2203 
Q 3309 1100 2920 518 
Q 2531 -63 1772 -63 
Q 1013 -63 631 515 
Q 250 1094 250 2203 
Q 250 3338 620 3903 
Q 991 4469 1791 4469 
Q 2569 4469 2939 3897 
Q 3309 3325 3309 2203 
z
M 2738 2203 
Q 2738 3156 2517 3584 
Q 2297 4013 1791 4013 
Q 1272 4013 1045 3591 
Q 819 3169 819 2203 
Q 819 1266 1048 831 
Q 1278 397 1778 397 
Q 2275 397 2506 840 
Q 2738 1284 2738 2203 
z
" transform="scale(0.015625)"/>
       </defs>
       <use xlink:href="#LiberationSans-2212"/>
       <use xlink:href="#LiberationSans-32" x="58.398438"/>
       <use xlink:href="#LiberationSans-30" x="114.013672"/>
       <use xlink:href="#LiberationSans-30" x="169.628906"/>
      </g>
     </g>
    </g>
    <g id="xtick_2">
     <g id="line2d_2"/>
     <g id="text_2">
      <!-- 0 -->
      <g style="fill: #262626" transform="translate(80.58377 94.301907) scale(0.08 -0.08)">
       <use xlink:href="#LiberationSans-30"/>
      </g>
     </g>
    </g>
    <g id="xtick_3">
     <g id="line2d_3"/>
     <g id="text_3">
      <!-- 200 -->
      <g style="fill: #262626" transform="translate(108.751208 94.301907) scale(0.08 -0.08)">
       <use xlink:href="#LiberationSans-32"/>
       <use xlink:href="#LiberationSans-30" x="55.615234"/>
       <use xlink:href="#LiberationSans-30" x="111.230469"/>
      </g>
     </g>
    </g>
    <g id="xtick_4">
     <g id="line2d_4"/>
     <g id="text_4">
      <!-- 400 -->
      <g style="fill: #262626" transform="translate(141.367396 94.301907) scale(0.08 -0.08)">
       <defs>
        <path id="LiberationSans-34" d="M 2753 997 
L 2753 0 
L 2222 0 
L 2222 997 
L 147 997 
L 147 1434 
L 2163 4403 
L 2753 4403 
L 2753 1441 
L 3372 1441 
L 3372 997 
L 2753 997 
z
M 2222 3769 
Q 2216 3750 2134 3603 
Q 2053 3456 2013 3397 
L 884 1734 
L 716 1503 
L 666 1441 
L 2222 1441 
L 2222 3769 
z
" transform="scale(0.015625)"/>
       </defs>
       <use xlink:href="#LiberationSans-34"/>
       <use xlink:href="#LiberationSans-30" x="55.615234"/>
       <use xlink:href="#LiberationSans-30" x="111.230469"/>
      </g>
     </g>
    </g>
    <g id="xtick_5">
     <g id="line2d_5"/>
     <g id="text_5">
      <!-- 600 -->
      <g style="fill: #262626" transform="translate(173.983585 94.301907) scale(0.08 -0.08)">
       <defs>
        <path id="LiberationSans-36" d="M 3278 1441 
Q 3278 744 2900 340 
Q 2522 -63 1856 -63 
Q 1113 -63 719 490 
Q 325 1044 325 2100 
Q 325 3244 734 3856 
Q 1144 4469 1900 4469 
Q 2897 4469 3156 3572 
L 2619 3475 
Q 2453 4013 1894 4013 
Q 1413 4013 1148 3564 
Q 884 3116 884 2266 
Q 1038 2550 1316 2698 
Q 1594 2847 1953 2847 
Q 2563 2847 2920 2465 
Q 3278 2084 3278 1441 
z
M 2706 1416 
Q 2706 1894 2472 2153 
Q 2238 2413 1819 2413 
Q 1425 2413 1183 2183 
Q 941 1953 941 1550 
Q 941 1041 1192 716 
Q 1444 391 1838 391 
Q 2244 391 2475 664 
Q 2706 938 2706 1416 
z
" transform="scale(0.015625)"/>
       </defs>
       <use xlink:href="#LiberationSans-36"/>
       <use xlink:href="#LiberationSans-30" x="55.615234"/>
       <use xlink:href="#LiberationSans-30" x="111.230469"/>
      </g>
     </g>
    </g>
   </g>
   <g id="matplotlib.axis_2">
    <g id="ytick_1">
     <g id="line2d_6"/>
     <g id="text_6">
      <!-- 0 -->
      <g style="fill: #262626" transform="translate(40.115 85.716275) scale(0.08 -0.08)">
       <use xlink:href="#LiberationSans-30"/>
      </g>
     </g>
    </g>
    <g id="ytick_2">
     <g id="line2d_7"/>
     <g id="text_7">
      <!-- 1000 -->
      <g style="fill: #262626" transform="translate(26.76875 54.227697) scale(0.08 -0.08)">
       <defs>
        <path id="LiberationSans-31" d="M 488 0 
L 488 478 
L 1609 478 
L 1609 3866 
L 616 3156 
L 616 3688 
L 1656 4403 
L 2175 4403 
L 2175 478 
L 3247 478 
L 3247 0 
L 488 0 
z
" transform="scale(0.015625)"/>
       </defs>
       <use xlink:href="#LiberationSans-31"/>
       <use xlink:href="#LiberationSans-30" x="55.615234"/>
       <use xlink:href="#LiberationSans-30" x="111.230469"/>
       <use xlink:href="#LiberationSans-30" x="166.845703"/>
      </g>
     </g>
    </g>
    <g id="text_8">
     <!-- occups mentions count -->
     <g style="fill: #262626" transform="translate(21.10875 101.511708) rotate(-90) scale(0.08 -0.08)">
      <defs>
       <path id="LiberationSans-6f" d="M 3291 1694 
Q 3291 806 2900 371 
Q 2509 -63 1766 -63 
Q 1025 -63 647 389 
Q 269 841 269 1694 
Q 269 3444 1784 3444 
Q 2559 3444 2925 3017 
Q 3291 2591 3291 1694 
z
M 2700 1694 
Q 2700 2394 2492 2711 
Q 2284 3028 1794 3028 
Q 1300 3028 1079 2704 
Q 859 2381 859 1694 
Q 859 1025 1076 689 
Q 1294 353 1759 353 
Q 2266 353 2483 678 
Q 2700 1003 2700 1694 
z
" transform="scale(0.015625)"/>
       <path id="LiberationSans-63" d="M 859 1706 
Q 859 1031 1071 706 
Q 1284 381 1713 381 
Q 2013 381 2214 543 
Q 2416 706 2463 1044 
L 3031 1006 
Q 2966 519 2616 228 
Q 2266 -63 1728 -63 
Q 1019 -63 645 385 
Q 272 834 272 1694 
Q 272 2547 647 2995 
Q 1022 3444 1722 3444 
Q 2241 3444 2583 3175 
Q 2925 2906 3013 2434 
L 2434 2391 
Q 2391 2672 2212 2837 
Q 2034 3003 1706 3003 
Q 1259 3003 1059 2706 
Q 859 2409 859 1706 
z
" transform="scale(0.015625)"/>
       <path id="LiberationSans-75" d="M 981 3381 
L 981 1238 
Q 981 903 1047 718 
Q 1113 534 1256 453 
Q 1400 372 1678 372 
Q 2084 372 2318 650 
Q 2553 928 2553 1422 
L 2553 3381 
L 3116 3381 
L 3116 722 
Q 3116 131 3134 0 
L 2603 0 
Q 2600 16 2597 84 
Q 2594 153 2589 242 
Q 2584 331 2578 578 
L 2569 578 
Q 2375 228 2120 82 
Q 1866 -63 1488 -63 
Q 931 -63 673 214 
Q 416 491 416 1128 
L 416 3381 
L 981 3381 
z
" transform="scale(0.015625)"/>
       <path id="LiberationSans-70" d="M 3291 1706 
Q 3291 -63 2047 -63 
Q 1266 -63 997 525 
L 981 525 
Q 994 500 994 -6 
L 994 -1328 
L 431 -1328 
L 431 2691 
Q 431 3213 413 3381 
L 956 3381 
Q 959 3369 965 3292 
Q 972 3216 980 3056 
Q 988 2897 988 2838 
L 1000 2838 
Q 1150 3150 1397 3295 
Q 1644 3441 2047 3441 
Q 2672 3441 2981 3022 
Q 3291 2603 3291 1706 
z
M 2700 1694 
Q 2700 2400 2509 2703 
Q 2319 3006 1903 3006 
Q 1569 3006 1380 2865 
Q 1191 2725 1092 2426 
Q 994 2128 994 1650 
Q 994 984 1206 668 
Q 1419 353 1897 353 
Q 2316 353 2508 661 
Q 2700 969 2700 1694 
z
" transform="scale(0.015625)"/>
       <path id="LiberationSans-73" d="M 2969 934 
Q 2969 456 2608 196 
Q 2247 -63 1597 -63 
Q 966 -63 623 145 
Q 281 353 178 794 
L 675 891 
Q 747 619 972 492 
Q 1197 366 1597 366 
Q 2025 366 2223 497 
Q 2422 628 2422 891 
Q 2422 1091 2284 1216 
Q 2147 1341 1841 1422 
L 1438 1528 
Q 953 1653 748 1773 
Q 544 1894 428 2066 
Q 313 2238 313 2488 
Q 313 2950 642 3192 
Q 972 3434 1603 3434 
Q 2163 3434 2492 3237 
Q 2822 3041 2909 2606 
L 2403 2544 
Q 2356 2769 2151 2889 
Q 1947 3009 1603 3009 
Q 1222 3009 1040 2893 
Q 859 2778 859 2544 
Q 859 2400 934 2306 
Q 1009 2213 1156 2147 
Q 1303 2081 1775 1966 
Q 2222 1853 2419 1758 
Q 2616 1663 2730 1547 
Q 2844 1431 2906 1279 
Q 2969 1128 2969 934 
z
" transform="scale(0.015625)"/>
       <path id="LiberationSans-20" transform="scale(0.015625)"/>
       <path id="LiberationSans-6d" d="M 2400 0 
L 2400 2144 
Q 2400 2634 2265 2821 
Q 2131 3009 1781 3009 
Q 1422 3009 1212 2734 
Q 1003 2459 1003 1959 
L 1003 0 
L 444 0 
L 444 2659 
Q 444 3250 425 3381 
L 956 3381 
Q 959 3366 962 3297 
Q 966 3228 970 3139 
Q 975 3050 981 2803 
L 991 2803 
Q 1172 3163 1406 3303 
Q 1641 3444 1978 3444 
Q 2363 3444 2586 3291 
Q 2809 3138 2897 2803 
L 2906 2803 
Q 3081 3144 3329 3294 
Q 3578 3444 3931 3444 
Q 4444 3444 4676 3166 
Q 4909 2888 4909 2253 
L 4909 0 
L 4353 0 
L 4353 2144 
Q 4353 2634 4218 2821 
Q 4084 3009 3734 3009 
Q 3366 3009 3161 2736 
Q 2956 2463 2956 1959 
L 2956 0 
L 2400 0 
z
" transform="scale(0.015625)"/>
       <path id="LiberationSans-65" d="M 863 1572 
Q 863 991 1103 675 
Q 1344 359 1806 359 
Q 2172 359 2392 506 
Q 2613 653 2691 878 
L 3184 738 
Q 2881 -63 1806 -63 
Q 1056 -63 664 384 
Q 272 831 272 1713 
Q 272 2550 664 2997 
Q 1056 3444 1784 3444 
Q 3275 3444 3275 1647 
L 3275 1572 
L 863 1572 
z
M 2694 2003 
Q 2647 2538 2422 2783 
Q 2197 3028 1775 3028 
Q 1366 3028 1127 2754 
Q 888 2481 869 2003 
L 2694 2003 
z
" transform="scale(0.015625)"/>
       <path id="LiberationSans-6e" d="M 2578 0 
L 2578 2144 
Q 2578 2478 2512 2662 
Q 2447 2847 2303 2928 
Q 2159 3009 1881 3009 
Q 1475 3009 1240 2731 
Q 1006 2453 1006 1959 
L 1006 0 
L 444 0 
L 444 2659 
Q 444 3250 425 3381 
L 956 3381 
Q 959 3366 962 3297 
Q 966 3228 970 3139 
Q 975 3050 981 2803 
L 991 2803 
Q 1184 3153 1439 3298 
Q 1694 3444 2072 3444 
Q 2628 3444 2886 3167 
Q 3144 2891 3144 2253 
L 3144 0 
L 2578 0 
z
" transform="scale(0.015625)"/>
       <path id="LiberationSans-74" d="M 1731 25 
Q 1453 -50 1163 -50 
Q 488 -50 488 716 
L 488 2972 
L 97 2972 
L 97 3381 
L 509 3381 
L 675 4138 
L 1050 4138 
L 1050 3381 
L 1675 3381 
L 1675 2972 
L 1050 2972 
L 1050 838 
Q 1050 594 1129 495 
Q 1209 397 1406 397 
Q 1519 397 1731 441 
L 1731 25 
z
" transform="scale(0.015625)"/>
       <path id="LiberationSans-69" d="M 428 4100 
L 428 4638 
L 991 4638 
L 991 4100 
L 428 4100 
z
M 428 0 
L 428 3381 
L 991 3381 
L 991 0 
L 428 0 
z
" transform="scale(0.015625)"/>
      </defs>
      <use xlink:href="#LiberationSans-6f"/>
      <use xlink:href="#LiberationSans-63" x="55.615234"/>
      <use xlink:href="#LiberationSans-63" x="105.615234"/>
      <use xlink:href="#LiberationSans-75" x="155.615234"/>
      <use xlink:href="#LiberationSans-70" x="211.230469"/>
      <use xlink:href="#LiberationSans-73" x="266.845703"/>
      <use xlink:href="#LiberationSans-20" x="316.845703"/>
      <use xlink:href="#LiberationSans-6d" x="344.628906"/>
      <use xlink:href="#LiberationSans-65" x="427.929688"/>
      <use xlink:href="#LiberationSans-6e" x="483.544922"/>
      <use xlink:href="#LiberationSans-74" x="539.160156"/>
      <use xlink:href="#LiberationSans-69" x="566.943359"/>
      <use xlink:href="#LiberationSans-6f" x="589.160156"/>
      <use xlink:href="#LiberationSans-6e" x="644.775391"/>
      <use xlink:href="#LiberationSans-73" x="700.390625"/>
      <use xlink:href="#LiberationSans-20" x="750.390625"/>
      <use xlink:href="#LiberationSans-63" x="778.173828"/>
      <use xlink:href="#LiberationSans-6f" x="828.173828"/>
      <use xlink:href="#LiberationSans-75" x="883.789062"/>
      <use xlink:href="#LiberationSans-6e" x="939.404297"/>
      <use xlink:href="#LiberationSans-74" x="995.019531"/>
     </g>
    </g>
   </g>
   <g id="patch_3">
    <path d="M 54.187439 82.786036 
L 62.341486 81.495005 
L 70.495534 80.329927 
L 78.649581 72.835646 
L 86.966709 43.803177 
L 95.120756 56.020745 
L 103.274803 46.164821 
L 111.42885 42.19726 
L 119.582897 54.099942 
L 127.736944 72.583737 
L 135.890991 77.432978 
L 144.045038 75.449198 
L 152.199085 80.392905 
L 160.353132 81.715425 
L 168.507179 81.998822 
L 176.661227 82.502639 
L 176.661227 82.156265 
L 168.507179 81.620959 
L 160.353132 80.833745 
L 152.199085 79.38527 
L 144.045038 74.221143 
L 135.890991 76.015992 
L 127.736944 70.505491 
L 119.582897 51.171504 
L 111.42885 38.41863 
L 103.274803 42.323214 
L 95.120756 52.871888 
L 86.966709 40.622831 
L 78.649581 70.820377 
L 70.495534 79.542713 
L 62.341486 81.117142 
L 54.187439 82.691571 
z
" clip-path="url(#p2c8b5ba4b0)" style="fill: #808080; opacity: 0.5; stroke: #808080; stroke-linejoin: miter"/>
   </g>
   <g id="patch_4">
    <path d="M 54.187439 82.786036 
L 62.341486 81.400539 
L 70.495534 80.235462 
L 78.649581 72.457783 
L 86.966709 43.425314 
L 95.120756 55.70586 
L 103.274803 45.188675 
L 111.42885 41.221114 
L 119.582897 53.690591 
L 127.736944 72.363317 
L 135.890991 77.118092 
L 144.045038 75.197289 
L 152.199085 80.203973 
L 160.353132 81.58947 
L 168.507179 81.935845 
L 176.661227 82.471151 
L 176.661227 82.187753 
L 168.507179 81.652448 
L 160.353132 81.085653 
L 152.199085 79.60569 
L 144.045038 74.410075 
L 135.890991 76.204924 
L 127.736944 70.883354 
L 119.582897 51.738299 
L 111.42885 38.765005 
L 103.274803 43.110428 
L 95.120756 53.123796 
L 86.966709 41.063671 
L 78.649581 71.19824 
L 70.495534 79.637179 
L 62.341486 81.14863 
L 54.187439 82.691571 
z
" clip-path="url(#p2c8b5ba4b0)" style="fill: #0000ff; opacity: 0.8; stroke: #0000ff; stroke-linejoin: miter"/>
   </g>
   <g id="patch_5">
    <path d="M 48.06375 85.004407 
L 48.06375 36.20026 
" style="fill: none; stroke: #262626; stroke-width: 1.25; stroke-linejoin: miter; stroke-linecap: square"/>
   </g>
   <g id="patch_6">
    <path d="M 182.784916 85.004407 
L 182.784916 36.20026 
" style="fill: none; stroke: #262626; stroke-width: 1.25; stroke-linejoin: miter; stroke-linecap: square"/>
   </g>
   <g id="patch_7">
    <path d="M 48.06375 85.004407 
L 182.784916 85.004407 
" style="fill: none; stroke: #262626; stroke-width: 1.25; stroke-linejoin: miter; stroke-linecap: square"/>
   </g>
   <g id="patch_8">
    <path d="M 48.06375 36.20026 
L 182.784916 36.20026 
" style="fill: none; stroke: #262626; stroke-width: 1.25; stroke-linejoin: miter; stroke-linecap: square"/>
   </g>
   <g id="text_9">
    <!-- (A) occups count -->
    <g style="fill: #262626" transform="translate(79.410083 30.20026) scale(0.096 -0.096)">
     <defs>
      <path id="LiberationSans-28" d="M 397 1663 
Q 397 2566 680 3284 
Q 963 4003 1550 4638 
L 2094 4638 
Q 1509 3988 1236 3256 
Q 963 2525 963 1656 
Q 963 791 1233 62 
Q 1503 -666 2094 -1325 
L 1550 -1325 
Q 959 -688 678 32 
Q 397 753 397 1650 
L 397 1663 
z
" transform="scale(0.015625)"/>
      <path id="LiberationSans-41" d="M 3647 0 
L 3144 1288 
L 1138 1288 
L 631 0 
L 13 0 
L 1809 4403 
L 2488 4403 
L 4256 0 
L 3647 0 
z
M 2141 3953 
L 2113 3866 
Q 2034 3606 1881 3200 
L 1319 1753 
L 2966 1753 
L 2400 3206 
Q 2313 3422 2225 3694 
L 2141 3953 
z
" transform="scale(0.015625)"/>
      <path id="LiberationSans-29" d="M 1734 1650 
Q 1734 747 1451 28 
Q 1169 -691 581 -1325 
L 38 -1325 
Q 625 -669 897 57 
Q 1169 784 1169 1656 
Q 1169 2528 895 3256 
Q 622 3984 38 4638 
L 581 4638 
Q 1172 4000 1453 3279 
Q 1734 2559 1734 1663 
L 1734 1650 
z
" transform="scale(0.015625)"/>
     </defs>
     <use xlink:href="#LiberationSans-28"/>
     <use xlink:href="#LiberationSans-41" x="33.300781"/>
     <use xlink:href="#LiberationSans-29" x="100"/>
     <use xlink:href="#LiberationSans-20" x="133.300781"/>
     <use xlink:href="#LiberationSans-6f" x="161.083984"/>
     <use xlink:href="#LiberationSans-63" x="216.699219"/>
     <use xlink:href="#LiberationSans-63" x="266.699219"/>
     <use xlink:href="#LiberationSans-75" x="316.699219"/>
     <use xlink:href="#LiberationSans-70" x="372.314453"/>
     <use xlink:href="#LiberationSans-73" x="427.929688"/>
     <use xlink:href="#LiberationSans-20" x="477.929688"/>
     <use xlink:href="#LiberationSans-63" x="505.712891"/>
     <use xlink:href="#LiberationSans-6f" x="555.712891"/>
     <use xlink:href="#LiberationSans-75" x="611.328125"/>
     <use xlink:href="#LiberationSans-6e" x="666.943359"/>
     <use xlink:href="#LiberationSans-74" x="722.558594"/>
    </g>
   </g>
   <g id="legend_1">
    <g id="patch_9">
     <path d="M 55.26375 17.579431 
L 71.26375 17.579431 
L 71.26375 11.979431 
L 55.26375 11.979431 
z
" style="fill: #0000ff; opacity: 0.8; stroke: #0000ff; stroke-linejoin: miter"/>
    </g>
    <g id="text_10">
     <!-- occups -->
     <g style="fill: #262626" transform="translate(77.66375 17.579431) scale(0.08 -0.08)">
      <use xlink:href="#LiberationSans-6f"/>
      <use xlink:href="#LiberationSans-63" x="55.615234"/>
      <use xlink:href="#LiberationSans-63" x="105.615234"/>
      <use xlink:href="#LiberationSans-75" x="155.615234"/>
      <use xlink:href="#LiberationSans-70" x="211.230469"/>
      <use xlink:href="#LiberationSans-73" x="266.845703"/>
     </g>
    </g>
   </g>
  </g>
  <g id="axes_2">
   <g id="patch_10">
    <path d="M 226.495 85.004407 
L 361.216166 85.004407 
L 361.216166 36.20026 
L 226.495 36.20026 
z
" style="fill: #ffffff"/>
   </g>
   <g id="matplotlib.axis_3">
    <g id="xtick_6">
     <g id="line2d_8"/>
     <g id="text_11">
      <!-- −200 -->
      <g style="fill: #262626" transform="translate(219.613831 94.301907) scale(0.08 -0.08)">
       <use xlink:href="#LiberationSans-2212"/>
       <use xlink:href="#LiberationSans-32" x="58.398438"/>
       <use xlink:href="#LiberationSans-30" x="114.013672"/>
       <use xlink:href="#LiberationSans-30" x="169.628906"/>
      </g>
     </g>
    </g>
    <g id="xtick_7">
     <g id="line2d_9"/>
     <g id="text_12">
      <!-- 0 -->
      <g style="fill: #262626" transform="translate(259.01502 94.301907) scale(0.08 -0.08)">
       <use xlink:href="#LiberationSans-30"/>
      </g>
     </g>
    </g>
    <g id="xtick_8">
     <g id="line2d_10"/>
     <g id="text_13">
      <!-- 200 -->
      <g style="fill: #262626" transform="translate(287.182458 94.301907) scale(0.08 -0.08)">
       <use xlink:href="#LiberationSans-32"/>
       <use xlink:href="#LiberationSans-30" x="55.615234"/>
       <use xlink:href="#LiberationSans-30" x="111.230469"/>
      </g>
     </g>
    </g>
    <g id="xtick_9">
     <g id="line2d_11"/>
     <g id="text_14">
      <!-- 400 -->
      <g style="fill: #262626" transform="translate(319.798646 94.301907) scale(0.08 -0.08)">
       <use xlink:href="#LiberationSans-34"/>
       <use xlink:href="#LiberationSans-30" x="55.615234"/>
       <use xlink:href="#LiberationSans-30" x="111.230469"/>
      </g>
     </g>
    </g>
    <g id="xtick_10">
     <g id="line2d_12"/>
     <g id="text_15">
      <!-- 600 -->
      <g style="fill: #262626" transform="translate(352.414835 94.301907) scale(0.08 -0.08)">
       <use xlink:href="#LiberationSans-36"/>
       <use xlink:href="#LiberationSans-30" x="55.615234"/>
       <use xlink:href="#LiberationSans-30" x="111.230469"/>
      </g>
     </g>
    </g>
   </g>
   <g id="matplotlib.axis_4">
    <g id="ytick_3">
     <g id="line2d_13"/>
     <g id="text_16">
      <!-- 0 -->
      <g style="fill: #262626" transform="translate(218.54625 87.680015) scale(0.08 -0.08)">
       <use xlink:href="#LiberationSans-30"/>
      </g>
     </g>
    </g>
    <g id="ytick_4">
     <g id="line2d_14"/>
     <g id="text_17">
      <!-- 2 -->
      <g style="fill: #262626" transform="translate(218.54625 67.169065) scale(0.08 -0.08)">
       <use xlink:href="#LiberationSans-32"/>
      </g>
     </g>
    </g>
    <g id="ytick_5">
     <g id="line2d_15"/>
     <g id="text_18">
      <!-- 4 -->
      <g style="fill: #262626" transform="translate(218.54625 46.658115) scale(0.08 -0.08)">
       <use xlink:href="#LiberationSans-34"/>
      </g>
     </g>
    </g>
    <g id="text_19">
     <!-- occups -->
     <g style="fill: #262626" transform="translate(212.88625 73.275458) rotate(-90) scale(0.08 -0.08)">
      <use xlink:href="#LiberationSans-6f"/>
      <use xlink:href="#LiberationSans-63" x="55.615234"/>
      <use xlink:href="#LiberationSans-63" x="105.615234"/>
      <use xlink:href="#LiberationSans-75" x="155.615234"/>
      <use xlink:href="#LiberationSans-70" x="211.230469"/>
      <use xlink:href="#LiberationSans-73" x="266.845703"/>
     </g>
    </g>
   </g>
   <g id="patch_11">
    <path d="M 232.618689 82.786036 
L 240.772736 62.461216 
L 248.926784 55.960258 
L 257.080831 45.724234 
L 265.397959 41.713441 
L 273.552006 56.196584 
L 281.706053 51.254047 
L 289.8601 46.378178 
L 298.014147 52.72857 
L 306.168194 64.168392 
L 314.322241 76.392833 
L 322.476288 72.710348 
L 330.630335 76.33856 
L 338.784382 79.638723 
L 346.938429 67.478063 
L 355.092477 74.948595 
L 355.092477 64.493481 
L 346.938429 59.980443 
L 338.784382 75.937663 
L 330.630335 73.437792 
L 322.476288 70.609581 
L 314.322241 73.906025 
L 306.168194 59.512366 
L 298.014147 49.39051 
L 289.8601 43.427922 
L 281.706053 47.657724 
L 273.552006 53.337202 
L 265.397959 39.110097 
L 257.080831 38.41863 
L 248.926784 46.081359 
L 240.772736 51.235319 
L 232.618689 76.409449 
z
" clip-path="url(#pbede15123d)" style="fill: #808080; opacity: 0.5; stroke: #808080; stroke-linejoin: miter"/>
   </g>
   <g id="patch_12">
    <path d="M 232.618689 82.734264 
L 240.772736 60.224255 
L 248.926784 55.507331 
L 257.080831 43.656931 
L 265.397959 41.307407 
L 273.552006 55.903032 
L 281.706053 50.377049 
L 289.8601 45.792226 
L 298.014147 52.12943 
L 306.168194 63.217965 
L 314.322241 76.041678 
L 322.476288 72.208563 
L 330.630335 75.887498 
L 338.784382 79.135186 
L 346.938429 65.852241 
L 355.092477 73.199106 
L 355.092477 66.302932 
L 346.938429 61.250538 
L 338.784382 76.748659 
L 330.630335 73.824561 
L 322.476288 70.987633 
L 314.322241 74.52579 
L 306.168194 60.475182 
L 298.014147 50.24198 
L 289.8601 43.533392 
L 281.706053 48.344229 
L 273.552006 53.753815 
L 265.397959 39.479556 
L 257.080831 39.915457 
L 248.926784 48.032071 
L 240.772736 51.588321 
L 232.618689 78.235217 
z
" clip-path="url(#pbede15123d)" style="fill: #0000ff; opacity: 0.8; stroke: #0000ff; stroke-linejoin: miter"/>
   </g>
   <g id="patch_13">
    <path d="M 226.495 85.004407 
L 226.495 36.20026 
" style="fill: none; stroke: #262626; stroke-width: 1.25; stroke-linejoin: miter; stroke-linecap: square"/>
   </g>
   <g id="patch_14">
    <path d="M 361.216166 85.004407 
L 361.216166 36.20026 
" style="fill: none; stroke: #262626; stroke-width: 1.25; stroke-linejoin: miter; stroke-linecap: square"/>
   </g>
   <g id="patch_15">
    <path d="M 226.495 85.004407 
L 361.216166 85.004407 
" style="fill: none; stroke: #262626; stroke-width: 1.25; stroke-linejoin: miter; stroke-linecap: square"/>
   </g>
   <g id="patch_16">
    <path d="M 226.495 36.20026 
L 361.216166 36.20026 
" style="fill: none; stroke: #262626; stroke-width: 1.25; stroke-linejoin: miter; stroke-linecap: square"/>
   </g>
   <g id="text_20">
    <!-- (B) occups per 100 inscrs -->
    <g style="fill: #262626" transform="translate(239.437083 30.20026) scale(0.096 -0.096)">
     <defs>
      <path id="LiberationSans-42" d="M 3931 1241 
Q 3931 653 3503 326 
Q 3075 0 2313 0 
L 525 0 
L 525 4403 
L 2125 4403 
Q 3675 4403 3675 3334 
Q 3675 2944 3456 2678 
Q 3238 2413 2838 2322 
Q 3363 2259 3647 1970 
Q 3931 1681 3931 1241 
z
M 3075 3263 
Q 3075 3619 2831 3772 
Q 2588 3925 2125 3925 
L 1122 3925 
L 1122 2531 
L 2125 2531 
Q 2603 2531 2839 2711 
Q 3075 2891 3075 3263 
z
M 3328 1288 
Q 3328 2066 2234 2066 
L 1122 2066 
L 1122 478 
L 2281 478 
Q 2828 478 3078 681 
Q 3328 884 3328 1288 
z
" transform="scale(0.015625)"/>
      <path id="LiberationSans-72" d="M 444 0 
L 444 2594 
Q 444 2950 425 3381 
L 956 3381 
Q 981 2806 981 2691 
L 994 2691 
Q 1128 3125 1303 3284 
Q 1478 3444 1797 3444 
Q 1909 3444 2025 3413 
L 2025 2897 
Q 1913 2928 1725 2928 
Q 1375 2928 1190 2626 
Q 1006 2325 1006 1763 
L 1006 0 
L 444 0 
z
" transform="scale(0.015625)"/>
     </defs>
     <use xlink:href="#LiberationSans-28"/>
     <use xlink:href="#LiberationSans-42" x="33.300781"/>
     <use xlink:href="#LiberationSans-29" x="100"/>
     <use xlink:href="#LiberationSans-20" x="133.300781"/>
     <use xlink:href="#LiberationSans-6f" x="161.083984"/>
     <use xlink:href="#LiberationSans-63" x="216.699219"/>
     <use xlink:href="#LiberationSans-63" x="266.699219"/>
     <use xlink:href="#LiberationSans-75" x="316.699219"/>
     <use xlink:href="#LiberationSans-70" x="372.314453"/>
     <use xlink:href="#LiberationSans-73" x="427.929688"/>
     <use xlink:href="#LiberationSans-20" x="477.929688"/>
     <use xlink:href="#LiberationSans-70" x="505.712891"/>
     <use xlink:href="#LiberationSans-65" x="561.328125"/>
     <use xlink:href="#LiberationSans-72" x="616.943359"/>
     <use xlink:href="#LiberationSans-20" x="650.244141"/>
     <use xlink:href="#LiberationSans-31" x="678.027344"/>
     <use xlink:href="#LiberationSans-30" x="733.642578"/>
     <use xlink:href="#LiberationSans-30" x="789.257812"/>
     <use xlink:href="#LiberationSans-20" x="844.873047"/>
     <use xlink:href="#LiberationSans-69" x="872.65625"/>
     <use xlink:href="#LiberationSans-6e" x="894.873047"/>
     <use xlink:href="#LiberationSans-73" x="950.488281"/>
     <use xlink:href="#LiberationSans-63" x="1000.488281"/>
     <use xlink:href="#LiberationSans-72" x="1050.488281"/>
     <use xlink:href="#LiberationSans-73" x="1083.789062"/>
    </g>
   </g>
  </g>
  <g id="axes_3">
   <g id="patch_17">
    <path d="M 48.06375 176.703453 
L 182.784916 176.703453 
L 182.784916 127.899307 
L 48.06375 127.899307 
z
" style="fill: #ffffff"/>
   </g>
   <g id="matplotlib.axis_5">
    <g id="xtick_11">
     <g id="line2d_16"/>
     <g id="text_21">
      <!-- −200 -->
      <g style="fill: #262626" transform="translate(41.182581 186.000953) scale(0.08 -0.08)">
       <use xlink:href="#LiberationSans-2212"/>
       <use xlink:href="#LiberationSans-32" x="58.398438"/>
       <use xlink:href="#LiberationSans-30" x="114.013672"/>
       <use xlink:href="#LiberationSans-30" x="169.628906"/>
      </g>
     </g>
    </g>
    <g id="xtick_12">
     <g id="line2d_17"/>
     <g id="text_22">
      <!-- 0 -->
      <g style="fill: #262626" transform="translate(80.58377 186.000953) scale(0.08 -0.08)">
       <use xlink:href="#LiberationSans-30"/>
      </g>
     </g>
    </g>
    <g id="xtick_13">
     <g id="line2d_18"/>
     <g id="text_23">
      <!-- 200 -->
      <g style="fill: #262626" transform="translate(108.751208 186.000953) scale(0.08 -0.08)">
       <use xlink:href="#LiberationSans-32"/>
       <use xlink:href="#LiberationSans-30" x="55.615234"/>
       <use xlink:href="#LiberationSans-30" x="111.230469"/>
      </g>
     </g>
    </g>
    <g id="xtick_14">
     <g id="line2d_19"/>
     <g id="text_24">
      <!-- 400 -->
      <g style="fill: #262626" transform="translate(141.367396 186.000953) scale(0.08 -0.08)">
       <use xlink:href="#LiberationSans-34"/>
       <use xlink:href="#LiberationSans-30" x="55.615234"/>
       <use xlink:href="#LiberationSans-30" x="111.230469"/>
      </g>
     </g>
    </g>
    <g id="xtick_15">
     <g id="line2d_20"/>
     <g id="text_25">
      <!-- 600 -->
      <g style="fill: #262626" transform="translate(173.983585 186.000953) scale(0.08 -0.08)">
       <use xlink:href="#LiberationSans-36"/>
       <use xlink:href="#LiberationSans-30" x="55.615234"/>
       <use xlink:href="#LiberationSans-30" x="111.230469"/>
      </g>
     </g>
    </g>
   </g>
   <g id="matplotlib.axis_6">
    <g id="ytick_6">
     <g id="line2d_21"/>
     <g id="text_26">
      <!-- 0 -->
      <g style="fill: #262626" transform="translate(40.115 179.157134) scale(0.08 -0.08)">
       <use xlink:href="#LiberationSans-30"/>
      </g>
     </g>
    </g>
    <g id="ytick_7">
     <g id="line2d_22"/>
     <g id="text_27">
      <!-- 2 -->
      <g style="fill: #262626" transform="translate(40.115 160.408022) scale(0.08 -0.08)">
       <use xlink:href="#LiberationSans-32"/>
      </g>
     </g>
    </g>
    <g id="ytick_8">
     <g id="line2d_23"/>
     <g id="text_28">
      <!-- 4 -->
      <g style="fill: #262626" transform="translate(40.115 141.65891) scale(0.08 -0.08)">
       <use xlink:href="#LiberationSans-34"/>
      </g>
     </g>
    </g>
    <g id="text_29">
     <!-- occups -->
     <g style="fill: #262626" transform="translate(34.455 164.974505) rotate(-90) scale(0.08 -0.08)">
      <use xlink:href="#LiberationSans-6f"/>
      <use xlink:href="#LiberationSans-63" x="55.615234"/>
      <use xlink:href="#LiberationSans-63" x="105.615234"/>
      <use xlink:href="#LiberationSans-75" x="155.615234"/>
      <use xlink:href="#LiberationSans-70" x="211.230469"/>
      <use xlink:href="#LiberationSans-73" x="266.845703"/>
     </g>
    </g>
   </g>
   <g id="patch_18">
    <path d="M 54.187439 174.485083 
L 62.341486 161.805355 
L 70.495534 153.01334 
L 78.649581 144.131258 
L 86.966709 133.635442 
L 95.120756 150.62402 
L 103.274803 149.382438 
L 111.42885 146.636104 
L 119.582897 151.100085 
L 127.736944 155.904374 
L 135.890991 164.86271 
L 144.045038 161.551818 
L 152.199085 165.258737 
L 160.353132 168.893744 
L 168.507179 166.586991 
L 176.661227 170.039361 
L 176.661227 162.70854 
L 168.507179 162.123271 
L 160.353132 162.962937 
L 152.199085 160.782494 
L 144.045038 158.917386 
L 135.890991 161.813046 
L 127.736944 151.711416 
L 119.582897 148.508306 
L 111.42885 143.969811 
L 103.274803 146.609869 
L 95.120756 148.065554 
L 86.966709 130.117677 
L 78.649581 135.786713 
L 70.495534 141.055913 
L 62.341486 155.558727 
L 54.187439 168.313845 
z
" clip-path="url(#pe8c6c7d5ab)" style="fill: #808080; opacity: 0.5; stroke: #808080; stroke-linejoin: miter"/>
   </g>
   <g id="patch_19">
    <path d="M 54.187439 174.446175 
L 62.341486 160.985713 
L 70.495534 149.954916 
L 78.649581 141.852039 
L 86.966709 132.827022 
L 95.120756 150.208611 
L 103.274803 148.725863 
L 111.42885 145.983854 
L 119.582897 150.584405 
L 127.736944 155.217007 
L 135.890991 164.282898 
L 144.045038 160.986854 
L 152.199085 164.299388 
L 160.353132 168.004136 
L 168.507179 165.608505 
L 176.661227 168.981543 
L 176.661227 163.415647 
L 168.507179 162.753008 
L 160.353132 164.700942 
L 152.199085 161.516064 
L 144.045038 159.380668 
L 135.890991 162.306273 
L 127.736944 152.378943 
L 119.582897 148.888303 
L 111.42885 144.143094 
L 103.274803 147.125771 
L 95.120756 148.287851 
L 86.966709 130.875641 
L 78.649581 136.856446 
L 70.495534 142.653006 
L 62.341486 155.843923 
L 54.187439 168.796051 
z
" clip-path="url(#pe8c6c7d5ab)" style="fill: #0000ff; opacity: 0.8; stroke: #0000ff; stroke-linejoin: miter"/>
   </g>
   <g id="patch_20">
    <path d="M 48.06375 176.703453 
L 48.06375 127.899307 
" style="fill: none; stroke: #262626; stroke-width: 1.25; stroke-linejoin: miter; stroke-linecap: square"/>
   </g>
   <g id="patch_21">
    <path d="M 182.784916 176.703453 
L 182.784916 127.899307 
" style="fill: none; stroke: #262626; stroke-width: 1.25; stroke-linejoin: miter; stroke-linecap: square"/>
   </g>
   <g id="patch_22">
    <path d="M 48.06375 176.703453 
L 182.784916 176.703453 
" style="fill: none; stroke: #262626; stroke-width: 1.25; stroke-linejoin: miter; stroke-linecap: square"/>
   </g>
   <g id="patch_23">
    <path d="M 48.06375 127.899307 
L 182.784916 127.899307 
" style="fill: none; stroke: #262626; stroke-width: 1.25; stroke-linejoin: miter; stroke-linecap: square"/>
   </g>
   <g id="text_30">
    <!-- (C) occups per 1000 words -->
    <g style="fill: #262626" transform="translate(57.802583 121.899307) scale(0.096 -0.096)">
     <defs>
      <path id="LiberationSans-43" d="M 2475 3981 
Q 1744 3981 1337 3511 
Q 931 3041 931 2222 
Q 931 1413 1354 920 
Q 1778 428 2500 428 
Q 3425 428 3891 1344 
L 4378 1100 
Q 4106 531 3614 234 
Q 3122 -63 2472 -63 
Q 1806 -63 1320 214 
Q 834 491 579 1005 
Q 325 1519 325 2222 
Q 325 3275 894 3872 
Q 1463 4469 2469 4469 
Q 3172 4469 3644 4194 
Q 4116 3919 4338 3378 
L 3772 3191 
Q 3619 3575 3280 3778 
Q 2941 3981 2475 3981 
z
" transform="scale(0.015625)"/>
      <path id="LiberationSans-77" d="M 3669 0 
L 3016 0 
L 2425 2391 
L 2313 2919 
Q 2284 2778 2225 2514 
Q 2166 2250 1588 0 
L 938 0 
L -9 3381 
L 547 3381 
L 1119 1084 
Q 1141 1009 1253 466 
L 1306 697 
L 2013 3381 
L 2616 3381 
L 3206 1059 
L 3350 466 
L 3447 900 
L 4088 3381 
L 4638 3381 
L 3669 0 
z
" transform="scale(0.015625)"/>
      <path id="LiberationSans-64" d="M 2566 544 
Q 2409 219 2151 78 
Q 1894 -63 1513 -63 
Q 872 -63 570 368 
Q 269 800 269 1675 
Q 269 3444 1513 3444 
Q 1897 3444 2153 3303 
Q 2409 3163 2566 2856 
L 2572 2856 
L 2566 3234 
L 2566 4638 
L 3128 4638 
L 3128 697 
Q 3128 169 3147 0 
L 2609 0 
Q 2600 50 2589 231 
Q 2578 413 2578 544 
L 2566 544 
z
M 859 1694 
Q 859 984 1046 678 
Q 1234 372 1656 372 
Q 2134 372 2350 703 
Q 2566 1034 2566 1731 
Q 2566 2403 2350 2715 
Q 2134 3028 1663 3028 
Q 1238 3028 1048 2714 
Q 859 2400 859 1694 
z
" transform="scale(0.015625)"/>
     </defs>
     <use xlink:href="#LiberationSans-28"/>
     <use xlink:href="#LiberationSans-43" x="33.300781"/>
     <use xlink:href="#LiberationSans-29" x="105.517578"/>
     <use xlink:href="#LiberationSans-20" x="138.818359"/>
     <use xlink:href="#LiberationSans-6f" x="166.601562"/>
     <use xlink:href="#LiberationSans-63" x="222.216797"/>
     <use xlink:href="#LiberationSans-63" x="272.216797"/>
     <use xlink:href="#LiberationSans-75" x="322.216797"/>
     <use xlink:href="#LiberationSans-70" x="377.832031"/>
     <use xlink:href="#LiberationSans-73" x="433.447266"/>
     <use xlink:href="#LiberationSans-20" x="483.447266"/>
     <use xlink:href="#LiberationSans-70" x="511.230469"/>
     <use xlink:href="#LiberationSans-65" x="566.845703"/>
     <use xlink:href="#LiberationSans-72" x="622.460938"/>
     <use xlink:href="#LiberationSans-20" x="655.761719"/>
     <use xlink:href="#LiberationSans-31" x="683.544922"/>
     <use xlink:href="#LiberationSans-30" x="739.160156"/>
     <use xlink:href="#LiberationSans-30" x="794.775391"/>
     <use xlink:href="#LiberationSans-30" x="850.390625"/>
     <use xlink:href="#LiberationSans-20" x="906.005859"/>
     <use xlink:href="#LiberationSans-77" x="933.789062"/>
     <use xlink:href="#LiberationSans-6f" x="1006.005859"/>
     <use xlink:href="#LiberationSans-72" x="1061.621094"/>
     <use xlink:href="#LiberationSans-64" x="1094.921875"/>
     <use xlink:href="#LiberationSans-73" x="1150.537109"/>
    </g>
   </g>
  </g>
  <g id="axes_4">
   <g id="patch_24">
    <path d="M 226.495 176.703453 
L 361.216166 176.703453 
L 361.216166 127.899307 
L 226.495 127.899307 
z
" style="fill: #ffffff"/>
   </g>
   <g id="matplotlib.axis_7">
    <g id="xtick_16">
     <g id="line2d_24"/>
     <g id="text_31">
      <!-- −200 -->
      <g style="fill: #262626" transform="translate(219.613831 186.000953) scale(0.08 -0.08)">
       <use xlink:href="#LiberationSans-2212"/>
       <use xlink:href="#LiberationSans-32" x="58.398438"/>
       <use xlink:href="#LiberationSans-30" x="114.013672"/>
       <use xlink:href="#LiberationSans-30" x="169.628906"/>
      </g>
     </g>
    </g>
    <g id="xtick_17">
     <g id="line2d_25"/>
     <g id="text_32">
      <!-- 0 -->
      <g style="fill: #262626" transform="translate(259.01502 186.000953) scale(0.08 -0.08)">
       <use xlink:href="#LiberationSans-30"/>
      </g>
     </g>
    </g>
    <g id="xtick_18">
     <g id="line2d_26"/>
     <g id="text_33">
      <!-- 200 -->
      <g style="fill: #262626" transform="translate(287.182458 186.000953) scale(0.08 -0.08)">
       <use xlink:href="#LiberationSans-32"/>
       <use xlink:href="#LiberationSans-30" x="55.615234"/>
       <use xlink:href="#LiberationSans-30" x="111.230469"/>
      </g>
     </g>
    </g>
    <g id="xtick_19">
     <g id="line2d_27"/>
     <g id="text_34">
      <!-- 400 -->
      <g style="fill: #262626" transform="translate(319.798646 186.000953) scale(0.08 -0.08)">
       <use xlink:href="#LiberationSans-34"/>
       <use xlink:href="#LiberationSans-30" x="55.615234"/>
       <use xlink:href="#LiberationSans-30" x="111.230469"/>
      </g>
     </g>
    </g>
    <g id="xtick_20">
     <g id="line2d_28"/>
     <g id="text_35">
      <!-- 600 -->
      <g style="fill: #262626" transform="translate(352.414835 186.000953) scale(0.08 -0.08)">
       <use xlink:href="#LiberationSans-36"/>
       <use xlink:href="#LiberationSans-30" x="55.615234"/>
       <use xlink:href="#LiberationSans-30" x="111.230469"/>
      </g>
     </g>
    </g>
   </g>
   <g id="matplotlib.axis_8">
    <g id="ytick_9">
     <g id="line2d_29"/>
     <g id="text_36">
      <!-- 0 -->
      <g style="fill: #262626" transform="translate(218.54625 177.584591) scale(0.08 -0.08)">
       <use xlink:href="#LiberationSans-30"/>
      </g>
     </g>
    </g>
    <g id="ytick_10">
     <g id="line2d_30"/>
     <g id="text_37">
      <!-- 100 -->
      <g style="fill: #262626" transform="translate(209.64875 157.508841) scale(0.08 -0.08)">
       <use xlink:href="#LiberationSans-31"/>
       <use xlink:href="#LiberationSans-30" x="55.615234"/>
       <use xlink:href="#LiberationSans-30" x="111.230469"/>
      </g>
     </g>
    </g>
    <g id="ytick_11">
     <g id="line2d_31"/>
     <g id="text_38">
      <!-- 200 -->
      <g style="fill: #262626" transform="translate(209.64875 137.433092) scale(0.08 -0.08)">
       <use xlink:href="#LiberationSans-32"/>
       <use xlink:href="#LiberationSans-30" x="55.615234"/>
       <use xlink:href="#LiberationSans-30" x="111.230469"/>
      </g>
     </g>
    </g>
    <g id="text_39">
     <!-- unique occups -->
     <g style="fill: #262626" transform="translate(203.98875 178.09638) rotate(-90) scale(0.08 -0.08)">
      <defs>
       <path id="LiberationSans-71" d="M 1513 -63 
Q 869 -63 569 371 
Q 269 806 269 1675 
Q 269 3444 1513 3444 
Q 1897 3444 2147 3308 
Q 2397 3172 2566 2856 
L 2572 2856 
Q 2572 2950 2584 3179 
Q 2597 3409 2609 3425 
L 3150 3425 
Q 3128 3241 3128 2503 
L 3128 -1328 
L 2566 -1328 
L 2566 44 
L 2578 556 
L 2572 556 
Q 2403 222 2156 79 
Q 1909 -63 1513 -63 
z
M 2566 1731 
Q 2566 2391 2350 2709 
Q 2134 3028 1663 3028 
Q 1234 3028 1046 2709 
Q 859 2391 859 1694 
Q 859 984 1048 678 
Q 1238 372 1656 372 
Q 2134 372 2350 712 
Q 2566 1053 2566 1731 
z
" transform="scale(0.015625)"/>
      </defs>
      <use xlink:href="#LiberationSans-75"/>
      <use xlink:href="#LiberationSans-6e" x="55.615234"/>
      <use xlink:href="#LiberationSans-69" x="111.230469"/>
      <use xlink:href="#LiberationSans-71" x="133.447266"/>
      <use xlink:href="#LiberationSans-75" x="189.0625"/>
      <use xlink:href="#LiberationSans-65" x="244.677734"/>
      <use xlink:href="#LiberationSans-20" x="300.292969"/>
      <use xlink:href="#LiberationSans-6f" x="328.076172"/>
      <use xlink:href="#LiberationSans-63" x="383.691406"/>
      <use xlink:href="#LiberationSans-63" x="433.691406"/>
      <use xlink:href="#LiberationSans-75" x="483.691406"/>
      <use xlink:href="#LiberationSans-70" x="539.306641"/>
      <use xlink:href="#LiberationSans-73" x="594.921875"/>
     </g>
    </g>
   </g>
   <g id="patch_25">
    <path d="M 232.618689 174.485083 
L 240.772736 171.473721 
L 248.926784 168.060843 
L 257.080831 155.814636 
L 265.397959 134.935857 
L 273.552006 141.360097 
L 281.706053 142.564642 
L 289.8601 140.958582 
L 298.014147 148.386609 
L 306.168194 159.026756 
L 314.322241 162.439633 
L 322.476288 161.034331 
L 330.630335 167.257813 
L 338.784382 169.867661 
L 346.938429 170.469933 
L 355.092477 173.079781 
L 355.092477 171.072206 
L 346.938429 168.663116 
L 338.784382 166.856298 
L 330.630335 163.844936 
L 322.476288 156.216151 
L 314.322241 157.420696 
L 306.168194 155.011606 
L 298.014147 144.170702 
L 289.8601 135.939644 
L 281.706053 137.746462 
L 273.552006 136.140402 
L 265.397959 130.117677 
L 257.080831 152.201001 
L 248.926784 165.450996 
L 240.772736 170.068418 
L 232.618689 173.882811 
z
" clip-path="url(#p151365ffe5)" style="fill: #808080; opacity: 0.5; stroke: #808080; stroke-linejoin: miter"/>
   </g>
   <g id="patch_26">
    <path d="M 232.618689 174.485083 
L 240.772736 171.072206 
L 248.926784 167.659328 
L 257.080831 155.212364 
L 265.397959 134.132827 
L 273.552006 140.356309 
L 281.706053 141.560854 
L 289.8601 140.155552 
L 298.014147 147.784336 
L 306.168194 158.022969 
L 314.322241 161.435846 
L 322.476288 160.030544 
L 330.630335 166.655541 
L 338.784382 169.666903 
L 346.938429 170.269176 
L 355.092477 172.678266 
L 355.092477 171.272963 
L 346.938429 168.663116 
L 338.784382 167.257813 
L 330.630335 164.447208 
L 322.476288 156.818424 
L 314.322241 158.424484 
L 306.168194 155.413121 
L 298.014147 144.772974 
L 289.8601 136.341159 
L 281.706053 138.147977 
L 273.552006 136.943432 
L 265.397959 131.322222 
L 257.080831 152.803274 
L 248.926784 165.852511 
L 240.772736 170.068418 
L 232.618689 174.083568 
z
" clip-path="url(#p151365ffe5)" style="fill: #0000ff; opacity: 0.8; stroke: #0000ff; stroke-linejoin: miter"/>
   </g>
   <g id="patch_27">
    <path d="M 226.495 176.703453 
L 226.495 127.899307 
" style="fill: none; stroke: #262626; stroke-width: 1.25; stroke-linejoin: miter; stroke-linecap: square"/>
   </g>
   <g id="patch_28">
    <path d="M 361.216166 176.703453 
L 361.216166 127.899307 
" style="fill: none; stroke: #262626; stroke-width: 1.25; stroke-linejoin: miter; stroke-linecap: square"/>
   </g>
   <g id="patch_29">
    <path d="M 226.495 176.703453 
L 361.216166 176.703453 
" style="fill: none; stroke: #262626; stroke-width: 1.25; stroke-linejoin: miter; stroke-linecap: square"/>
   </g>
   <g id="patch_30">
    <path d="M 226.495 127.899307 
L 361.216166 127.899307 
" style="fill: none; stroke: #262626; stroke-width: 1.25; stroke-linejoin: miter; stroke-linecap: square"/>
   </g>
   <g id="text_40">
    <!-- (D) unique occups -->
    <g style="fill: #262626" transform="translate(254.905083 121.899307) scale(0.096 -0.096)">
     <defs>
      <path id="LiberationSans-44" d="M 4316 2247 
Q 4316 1566 4050 1055 
Q 3784 544 3296 272 
Q 2809 0 2172 0 
L 525 0 
L 525 4403 
L 1981 4403 
Q 3100 4403 3708 3842 
Q 4316 3281 4316 2247 
z
M 3716 2247 
Q 3716 3066 3267 3495 
Q 2819 3925 1969 3925 
L 1122 3925 
L 1122 478 
L 2103 478 
Q 2588 478 2955 690 
Q 3322 903 3519 1303 
Q 3716 1703 3716 2247 
z
" transform="scale(0.015625)"/>
     </defs>
     <use xlink:href="#LiberationSans-28"/>
     <use xlink:href="#LiberationSans-44" x="33.300781"/>
     <use xlink:href="#LiberationSans-29" x="105.517578"/>
     <use xlink:href="#LiberationSans-20" x="138.818359"/>
     <use xlink:href="#LiberationSans-75" x="166.601562"/>
     <use xlink:href="#LiberationSans-6e" x="222.216797"/>
     <use xlink:href="#LiberationSans-69" x="277.832031"/>
     <use xlink:href="#LiberationSans-71" x="300.048828"/>
     <use xlink:href="#LiberationSans-75" x="355.664062"/>
     <use xlink:href="#LiberationSans-65" x="411.279297"/>
     <use xlink:href="#LiberationSans-20" x="466.894531"/>
     <use xlink:href="#LiberationSans-6f" x="494.677734"/>
     <use xlink:href="#LiberationSans-63" x="550.292969"/>
     <use xlink:href="#LiberationSans-63" x="600.292969"/>
     <use xlink:href="#LiberationSans-75" x="650.292969"/>
     <use xlink:href="#LiberationSans-70" x="705.908203"/>
     <use xlink:href="#LiberationSans-73" x="761.523438"/>
    </g>
   </g>
  </g>
  <g id="axes_5">
   <g id="patch_31">
    <path d="M 48.06375 268.4025 
L 182.784916 268.4025 
L 182.784916 219.598353 
L 48.06375 219.598353 
z
" style="fill: #ffffff"/>
   </g>
   <g id="matplotlib.axis_9">
    <g id="xtick_21">
     <g id="line2d_32"/>
     <g id="text_41">
      <!-- −200 -->
      <g style="fill: #262626" transform="translate(41.182581 277.7) scale(0.08 -0.08)">
       <use xlink:href="#LiberationSans-2212"/>
       <use xlink:href="#LiberationSans-32" x="58.398438"/>
       <use xlink:href="#LiberationSans-30" x="114.013672"/>
       <use xlink:href="#LiberationSans-30" x="169.628906"/>
      </g>
     </g>
    </g>
    <g id="xtick_22">
     <g id="line2d_33"/>
     <g id="text_42">
      <!-- 0 -->
      <g style="fill: #262626" transform="translate(80.58377 277.7) scale(0.08 -0.08)">
       <use xlink:href="#LiberationSans-30"/>
      </g>
     </g>
    </g>
    <g id="xtick_23">
     <g id="line2d_34"/>
     <g id="text_43">
      <!-- 200 -->
      <g style="fill: #262626" transform="translate(108.751208 277.7) scale(0.08 -0.08)">
       <use xlink:href="#LiberationSans-32"/>
       <use xlink:href="#LiberationSans-30" x="55.615234"/>
       <use xlink:href="#LiberationSans-30" x="111.230469"/>
      </g>
     </g>
    </g>
    <g id="xtick_24">
     <g id="line2d_35"/>
     <g id="text_44">
      <!-- 400 -->
      <g style="fill: #262626" transform="translate(141.367396 277.7) scale(0.08 -0.08)">
       <use xlink:href="#LiberationSans-34"/>
       <use xlink:href="#LiberationSans-30" x="55.615234"/>
       <use xlink:href="#LiberationSans-30" x="111.230469"/>
      </g>
     </g>
    </g>
    <g id="xtick_25">
     <g id="line2d_36"/>
     <g id="text_45">
      <!-- 600 -->
      <g style="fill: #262626" transform="translate(173.983585 277.7) scale(0.08 -0.08)">
       <use xlink:href="#LiberationSans-36"/>
       <use xlink:href="#LiberationSans-30" x="55.615234"/>
       <use xlink:href="#LiberationSans-30" x="111.230469"/>
      </g>
     </g>
    </g>
   </g>
   <g id="matplotlib.axis_10">
    <g id="ytick_12">
     <g id="line2d_37"/>
     <g id="text_46">
      <!-- 0.0025 -->
      <g style="fill: #262626" transform="translate(20.0975 253.822533) scale(0.08 -0.08)">
       <defs>
        <path id="LiberationSans-2e" d="M 584 0 
L 584 684 
L 1194 684 
L 1194 0 
L 584 0 
z
" transform="scale(0.015625)"/>
        <path id="LiberationSans-35" d="M 3291 1434 
Q 3291 738 2877 337 
Q 2463 -63 1728 -63 
Q 1113 -63 734 206 
Q 356 475 256 984 
L 825 1050 
Q 1003 397 1741 397 
Q 2194 397 2450 670 
Q 2706 944 2706 1422 
Q 2706 1838 2448 2094 
Q 2191 2350 1753 2350 
Q 1525 2350 1328 2278 
Q 1131 2206 934 2034 
L 384 2034 
L 531 4403 
L 3034 4403 
L 3034 3925 
L 1044 3925 
L 959 2528 
Q 1325 2809 1869 2809 
Q 2519 2809 2905 2428 
Q 3291 2047 3291 1434 
z
" transform="scale(0.015625)"/>
       </defs>
       <use xlink:href="#LiberationSans-30"/>
       <use xlink:href="#LiberationSans-2e" x="55.615234"/>
       <use xlink:href="#LiberationSans-30" x="83.398438"/>
       <use xlink:href="#LiberationSans-30" x="139.013672"/>
       <use xlink:href="#LiberationSans-32" x="194.628906"/>
       <use xlink:href="#LiberationSans-35" x="250.244141"/>
      </g>
     </g>
    </g>
    <g id="ytick_13">
     <g id="line2d_38"/>
     <g id="text_47">
      <!-- 0.0050 -->
      <g style="fill: #262626" transform="translate(20.0975 235.972395) scale(0.08 -0.08)">
       <use xlink:href="#LiberationSans-30"/>
       <use xlink:href="#LiberationSans-2e" x="55.615234"/>
       <use xlink:href="#LiberationSans-30" x="83.398438"/>
       <use xlink:href="#LiberationSans-30" x="139.013672"/>
       <use xlink:href="#LiberationSans-35" x="194.628906"/>
       <use xlink:href="#LiberationSans-30" x="250.244141"/>
      </g>
     </g>
    </g>
    <g id="text_48">
     <!-- unique occups -->
     <g style="fill: #262626" transform="translate(14.4375 269.795427) rotate(-90) scale(0.08 -0.08)">
      <use xlink:href="#LiberationSans-75"/>
      <use xlink:href="#LiberationSans-6e" x="55.615234"/>
      <use xlink:href="#LiberationSans-69" x="111.230469"/>
      <use xlink:href="#LiberationSans-71" x="133.447266"/>
      <use xlink:href="#LiberationSans-75" x="189.0625"/>
      <use xlink:href="#LiberationSans-65" x="244.677734"/>
      <use xlink:href="#LiberationSans-20" x="300.292969"/>
      <use xlink:href="#LiberationSans-6f" x="328.076172"/>
      <use xlink:href="#LiberationSans-63" x="383.691406"/>
      <use xlink:href="#LiberationSans-63" x="433.691406"/>
      <use xlink:href="#LiberationSans-75" x="483.691406"/>
      <use xlink:href="#LiberationSans-70" x="539.306641"/>
      <use xlink:href="#LiberationSans-73" x="594.921875"/>
     </g>
    </g>
   </g>
   <g id="patch_32">
    <path d="M 54.187439 266.18413 
L 62.341486 250.72322 
L 70.495534 239.366062 
L 78.649581 230.090048 
L 86.966709 231.799135 
L 95.120756 238.037725 
L 103.274803 242.784999 
L 111.42885 242.335101 
L 119.582897 244.975553 
L 127.736944 247.435007 
L 135.890991 251.644079 
L 144.045038 249.747204 
L 152.199085 250.381966 
L 160.353132 253.067108 
L 168.507179 246.749661 
L 176.661227 256.36183 
L 176.661227 241.323901 
L 168.507179 237.259774 
L 160.353132 242.149755 
L 152.199085 242.336525 
L 144.045038 243.163368 
L 135.890991 244.345996 
L 127.736944 242.402777 
L 119.582897 241.008663 
L 111.42885 238.295957 
L 103.274803 239.168616 
L 95.120756 233.145088 
L 86.966709 226.469822 
L 78.649581 221.816724 
L 70.495534 228.335292 
L 62.341486 243.110337 
L 54.187439 258.489362 
z
" clip-path="url(#p58a02fc72b)" style="fill: #808080; opacity: 0.5; stroke: #808080; stroke-linejoin: miter"/>
   </g>
   <g id="patch_33">
    <path d="M 54.187439 266.002161 
L 62.341486 249.649777 
L 70.495534 237.966576 
L 78.649581 228.022023 
L 86.966709 230.527642 
L 95.120756 237.170125 
L 103.274803 242.183923 
L 111.42885 241.679328 
L 119.582897 244.453091 
L 127.736944 246.572088 
L 135.890991 250.054152 
L 144.045038 248.512058 
L 152.199085 249.015899 
L 160.353132 251.841519 
L 168.507179 245.227044 
L 176.661227 253.412356 
L 176.661227 242.252874 
L 168.507179 238.169312 
L 160.353132 244.10476 
L 152.199085 243.158454 
L 144.045038 243.957858 
L 135.890991 245.581698 
L 127.736944 242.960661 
L 119.582897 241.72757 
L 111.42885 238.674368 
L 103.274803 239.637373 
L 95.120756 233.836507 
L 86.966709 227.467658 
L 78.649581 223.534241 
L 70.495534 229.831458 
L 62.341486 243.701971 
L 54.187439 259.804002 
z
" clip-path="url(#p58a02fc72b)" style="fill: #0000ff; opacity: 0.8; stroke: #0000ff; stroke-linejoin: miter"/>
   </g>
   <g id="patch_34">
    <path d="M 48.06375 268.4025 
L 48.06375 219.598353 
" style="fill: none; stroke: #262626; stroke-width: 1.25; stroke-linejoin: miter; stroke-linecap: square"/>
   </g>
   <g id="patch_35">
    <path d="M 182.784916 268.4025 
L 182.784916 219.598353 
" style="fill: none; stroke: #262626; stroke-width: 1.25; stroke-linejoin: miter; stroke-linecap: square"/>
   </g>
   <g id="patch_36">
    <path d="M 48.06375 268.4025 
L 182.784916 268.4025 
" style="fill: none; stroke: #262626; stroke-width: 1.25; stroke-linejoin: miter; stroke-linecap: square"/>
   </g>
   <g id="patch_37">
    <path d="M 48.06375 219.598353 
L 182.784916 219.598353 
" style="fill: none; stroke: #262626; stroke-width: 1.25; stroke-linejoin: miter; stroke-linecap: square"/>
   </g>
   <g id="text_49">
    <!-- (E) unique occups -->
    <g style="fill: #262626" transform="translate(76.738583 203.257953) scale(0.096 -0.096)">
     <defs>
      <path id="LiberationSans-45" d="M 525 0 
L 525 4403 
L 3866 4403 
L 3866 3916 
L 1122 3916 
L 1122 2503 
L 3678 2503 
L 3678 2022 
L 1122 2022 
L 1122 488 
L 3994 488 
L 3994 0 
L 525 0 
z
" transform="scale(0.015625)"/>
     </defs>
     <use xlink:href="#LiberationSans-28"/>
     <use xlink:href="#LiberationSans-45" x="33.300781"/>
     <use xlink:href="#LiberationSans-29" x="100"/>
     <use xlink:href="#LiberationSans-20" x="133.300781"/>
     <use xlink:href="#LiberationSans-75" x="161.083984"/>
     <use xlink:href="#LiberationSans-6e" x="216.699219"/>
     <use xlink:href="#LiberationSans-69" x="272.314453"/>
     <use xlink:href="#LiberationSans-71" x="294.53125"/>
     <use xlink:href="#LiberationSans-75" x="350.146484"/>
     <use xlink:href="#LiberationSans-65" x="405.761719"/>
     <use xlink:href="#LiberationSans-20" x="461.376953"/>
     <use xlink:href="#LiberationSans-6f" x="489.160156"/>
     <use xlink:href="#LiberationSans-63" x="544.775391"/>
     <use xlink:href="#LiberationSans-63" x="594.775391"/>
     <use xlink:href="#LiberationSans-75" x="644.775391"/>
     <use xlink:href="#LiberationSans-70" x="700.390625"/>
     <use xlink:href="#LiberationSans-73" x="756.005859"/>
    </g>
    <!-- per 1000 unique words -->
    <g style="fill: #262626" transform="translate(66.594083 213.598353) scale(0.096 -0.096)">
     <use xlink:href="#LiberationSans-70"/>
     <use xlink:href="#LiberationSans-65" x="55.615234"/>
     <use xlink:href="#LiberationSans-72" x="111.230469"/>
     <use xlink:href="#LiberationSans-20" x="144.53125"/>
     <use xlink:href="#LiberationSans-31" x="172.314453"/>
     <use xlink:href="#LiberationSans-30" x="227.929688"/>
     <use xlink:href="#LiberationSans-30" x="283.544922"/>
     <use xlink:href="#LiberationSans-30" x="339.160156"/>
     <use xlink:href="#LiberationSans-20" x="394.775391"/>
     <use xlink:href="#LiberationSans-75" x="422.558594"/>
     <use xlink:href="#LiberationSans-6e" x="478.173828"/>
     <use xlink:href="#LiberationSans-69" x="533.789062"/>
     <use xlink:href="#LiberationSans-71" x="556.005859"/>
     <use xlink:href="#LiberationSans-75" x="611.621094"/>
     <use xlink:href="#LiberationSans-65" x="667.236328"/>
     <use xlink:href="#LiberationSans-20" x="722.851562"/>
     <use xlink:href="#LiberationSans-77" x="750.634766"/>
     <use xlink:href="#LiberationSans-6f" x="822.851562"/>
     <use xlink:href="#LiberationSans-72" x="878.466797"/>
     <use xlink:href="#LiberationSans-64" x="911.767578"/>
     <use xlink:href="#LiberationSans-73" x="967.382812"/>
    </g>
   </g>
  </g>
  <g id="axes_6">
   <g id="patch_38">
    <path d="M 226.495 268.4025 
L 361.216166 268.4025 
L 361.216166 219.598353 
L 226.495 219.598353 
z
" style="fill: #ffffff"/>
   </g>
   <g id="matplotlib.axis_11">
    <g id="xtick_26">
     <g id="line2d_39"/>
     <g id="text_50">
      <!-- −200 -->
      <g style="fill: #262626" transform="translate(219.613831 277.7) scale(0.08 -0.08)">
       <use xlink:href="#LiberationSans-2212"/>
       <use xlink:href="#LiberationSans-32" x="58.398438"/>
       <use xlink:href="#LiberationSans-30" x="114.013672"/>
       <use xlink:href="#LiberationSans-30" x="169.628906"/>
      </g>
     </g>
    </g>
    <g id="xtick_27">
     <g id="line2d_40"/>
     <g id="text_51">
      <!-- 0 -->
      <g style="fill: #262626" transform="translate(259.01502 277.7) scale(0.08 -0.08)">
       <use xlink:href="#LiberationSans-30"/>
      </g>
     </g>
    </g>
    <g id="xtick_28">
     <g id="line2d_41"/>
     <g id="text_52">
      <!-- 200 -->
      <g style="fill: #262626" transform="translate(287.182458 277.7) scale(0.08 -0.08)">
       <use xlink:href="#LiberationSans-32"/>
       <use xlink:href="#LiberationSans-30" x="55.615234"/>
       <use xlink:href="#LiberationSans-30" x="111.230469"/>
      </g>
     </g>
    </g>
    <g id="xtick_29">
     <g id="line2d_42"/>
     <g id="text_53">
      <!-- 400 -->
      <g style="fill: #262626" transform="translate(319.798646 277.7) scale(0.08 -0.08)">
       <use xlink:href="#LiberationSans-34"/>
       <use xlink:href="#LiberationSans-30" x="55.615234"/>
       <use xlink:href="#LiberationSans-30" x="111.230469"/>
      </g>
     </g>
    </g>
    <g id="xtick_30">
     <g id="line2d_43"/>
     <g id="text_54">
      <!-- 600 -->
      <g style="fill: #262626" transform="translate(352.414835 277.7) scale(0.08 -0.08)">
       <use xlink:href="#LiberationSans-36"/>
       <use xlink:href="#LiberationSans-30" x="55.615234"/>
       <use xlink:href="#LiberationSans-30" x="111.230469"/>
      </g>
     </g>
    </g>
   </g>
   <g id="matplotlib.axis_12">
    <g id="ytick_14">
     <g id="line2d_44"/>
     <g id="text_55">
      <!-- 0.01 -->
      <g style="fill: #262626" transform="translate(207.42625 254.672579) scale(0.08 -0.08)">
       <use xlink:href="#LiberationSans-30"/>
       <use xlink:href="#LiberationSans-2e" x="55.615234"/>
       <use xlink:href="#LiberationSans-30" x="83.398438"/>
       <use xlink:href="#LiberationSans-31" x="139.013672"/>
      </g>
     </g>
    </g>
    <g id="ytick_15">
     <g id="line2d_45"/>
     <g id="text_56">
      <!-- 0.02 -->
      <g style="fill: #262626" transform="translate(207.42625 236.78153) scale(0.08 -0.08)">
       <use xlink:href="#LiberationSans-30"/>
       <use xlink:href="#LiberationSans-2e" x="55.615234"/>
       <use xlink:href="#LiberationSans-30" x="83.398438"/>
       <use xlink:href="#LiberationSans-32" x="139.013672"/>
      </g>
     </g>
    </g>
    <g id="text_57">
     <!-- unique occups -->
     <g style="fill: #262626" transform="translate(201.76625 269.795427) rotate(-90) scale(0.08 -0.08)">
      <use xlink:href="#LiberationSans-75"/>
      <use xlink:href="#LiberationSans-6e" x="55.615234"/>
      <use xlink:href="#LiberationSans-69" x="111.230469"/>
      <use xlink:href="#LiberationSans-71" x="133.447266"/>
      <use xlink:href="#LiberationSans-75" x="189.0625"/>
      <use xlink:href="#LiberationSans-65" x="244.677734"/>
      <use xlink:href="#LiberationSans-20" x="300.292969"/>
      <use xlink:href="#LiberationSans-6f" x="328.076172"/>
      <use xlink:href="#LiberationSans-63" x="383.691406"/>
      <use xlink:href="#LiberationSans-63" x="433.691406"/>
      <use xlink:href="#LiberationSans-75" x="483.691406"/>
      <use xlink:href="#LiberationSans-70" x="539.306641"/>
      <use xlink:href="#LiberationSans-73" x="594.921875"/>
     </g>
    </g>
   </g>
   <g id="patch_39">
    <path d="M 232.618689 266.18413 
L 240.772736 236.874869 
L 248.926784 242.037147 
L 257.080831 244.692065 
L 265.397959 255.684738 
L 273.552006 257.766661 
L 281.706053 258.759027 
L 289.8601 258.403793 
L 298.014147 259.115345 
L 306.168194 259.141526 
L 314.322241 263.101133 
L 322.476288 262.590851 
L 330.630335 261.876094 
L 338.784382 263.214748 
L 346.938429 245.283825 
L 355.092477 255.280115 
L 355.092477 236.464993 
L 346.938429 233.690919 
L 338.784382 259.092895 
L 330.630335 258.306818 
L 322.476288 259.98608 
L 314.322241 260.417747 
L 306.168194 256.454188 
L 298.014147 257.384173 
L 289.8601 256.672056 
L 281.706053 257.315115 
L 273.552006 255.966743 
L 265.397959 253.914342 
L 257.080831 240.105983 
L 248.926784 230.642201 
L 240.772736 221.816724 
L 232.618689 255.05994 
z
" clip-path="url(#p64cb18b688)" style="fill: #808080; opacity: 0.5; stroke: #808080; stroke-linejoin: miter"/>
   </g>
   <g id="patch_40">
    <path d="M 232.618689 266.093811 
L 240.772736 233.027918 
L 248.926784 240.594 
L 257.080831 244.173813 
L 265.397959 255.357705 
L 273.552006 257.351404 
L 281.706053 258.509172 
L 289.8601 258.086007 
L 298.014147 258.842039 
L 306.168194 258.530762 
L 314.322241 262.500209 
L 322.476288 262.121659 
L 330.630335 261.388691 
L 338.784382 262.880771 
L 346.938429 243.529216 
L 355.092477 251.556529 
L 355.092477 238.406108 
L 346.938429 235.325053 
L 338.784382 259.650222 
L 330.630335 258.928986 
L 322.476288 260.403085 
L 314.322241 260.955371 
L 306.168194 256.66831 
L 298.014147 257.678519 
L 289.8601 256.831807 
L 281.706053 257.380686 
L 273.552006 256.14157 
L 265.397959 254.382454 
L 257.080831 240.88925 
L 248.926784 233.048262 
L 240.772736 223.325449 
L 232.618689 258.24506 
z
" clip-path="url(#p64cb18b688)" style="fill: #0000ff; opacity: 0.8; stroke: #0000ff; stroke-linejoin: miter"/>
   </g>
   <g id="patch_41">
    <path d="M 226.495 268.4025 
L 226.495 219.598353 
" style="fill: none; stroke: #262626; stroke-width: 1.25; stroke-linejoin: miter; stroke-linecap: square"/>
   </g>
   <g id="patch_42">
    <path d="M 361.216166 268.4025 
L 361.216166 219.598353 
" style="fill: none; stroke: #262626; stroke-width: 1.25; stroke-linejoin: miter; stroke-linecap: square"/>
   </g>
   <g id="patch_43">
    <path d="M 226.495 268.4025 
L 361.216166 268.4025 
" style="fill: none; stroke: #262626; stroke-width: 1.25; stroke-linejoin: miter; stroke-linecap: square"/>
   </g>
   <g id="patch_44">
    <path d="M 226.495 219.598353 
L 361.216166 219.598353 
" style="fill: none; stroke: #262626; stroke-width: 1.25; stroke-linejoin: miter; stroke-linecap: square"/>
   </g>
   <g id="text_58">
    <!-- (F) unique occups -->
    <g style="fill: #262626" transform="translate(255.439833 203.257953) scale(0.096 -0.096)">
     <defs>
      <path id="LiberationSans-46" d="M 1122 3916 
L 1122 2278 
L 3578 2278 
L 3578 1784 
L 1122 1784 
L 1122 0 
L 525 0 
L 525 4403 
L 3653 4403 
L 3653 3916 
L 1122 3916 
z
" transform="scale(0.015625)"/>
     </defs>
     <use xlink:href="#LiberationSans-28"/>
     <use xlink:href="#LiberationSans-46" x="33.300781"/>
     <use xlink:href="#LiberationSans-29" x="94.384766"/>
     <use xlink:href="#LiberationSans-20" x="127.685547"/>
     <use xlink:href="#LiberationSans-75" x="155.46875"/>
     <use xlink:href="#LiberationSans-6e" x="211.083984"/>
     <use xlink:href="#LiberationSans-69" x="266.699219"/>
     <use xlink:href="#LiberationSans-71" x="288.916016"/>
     <use xlink:href="#LiberationSans-75" x="344.53125"/>
     <use xlink:href="#LiberationSans-65" x="400.146484"/>
     <use xlink:href="#LiberationSans-20" x="455.761719"/>
     <use xlink:href="#LiberationSans-6f" x="483.544922"/>
     <use xlink:href="#LiberationSans-63" x="539.160156"/>
     <use xlink:href="#LiberationSans-63" x="589.160156"/>
     <use xlink:href="#LiberationSans-75" x="639.160156"/>
     <use xlink:href="#LiberationSans-70" x="694.775391"/>
     <use xlink:href="#LiberationSans-73" x="750.390625"/>
    </g>
    <!-- per 100 inscrs -->
    <g style="fill: #262626" transform="translate(263.710083 213.598353) scale(0.096 -0.096)">
     <use xlink:href="#LiberationSans-70"/>
     <use xlink:href="#LiberationSans-65" x="55.615234"/>
     <use xlink:href="#LiberationSans-72" x="111.230469"/>
     <use xlink:href="#LiberationSans-20" x="144.53125"/>
     <use xlink:href="#LiberationSans-31" x="172.314453"/>
     <use xlink:href="#LiberationSans-30" x="227.929688"/>
     <use xlink:href="#LiberationSans-30" x="283.544922"/>
     <use xlink:href="#LiberationSans-20" x="339.160156"/>
     <use xlink:href="#LiberationSans-69" x="366.943359"/>
     <use xlink:href="#LiberationSans-6e" x="389.160156"/>
     <use xlink:href="#LiberationSans-73" x="444.775391"/>
     <use xlink:href="#LiberationSans-63" x="494.775391"/>
     <use xlink:href="#LiberationSans-72" x="544.775391"/>
     <use xlink:href="#LiberationSans-73" x="578.076172"/>
    </g>
   </g>
  </g>
 </g>
 <defs>
  <clipPath id="p2c8b5ba4b0">
   <rect x="48.06375" y="36.20026" width="134.721166" height="48.804147"/>
  </clipPath>
  <clipPath id="pbede15123d">
   <rect x="226.495" y="36.20026" width="134.721166" height="48.804147"/>
  </clipPath>
  <clipPath id="pe8c6c7d5ab">
   <rect x="48.06375" y="127.899307" width="134.721166" height="48.804147"/>
  </clipPath>
  <clipPath id="p151365ffe5">
   <rect x="226.495" y="127.899307" width="134.721166" height="48.804147"/>
  </clipPath>
  <clipPath id="p58a02fc72b">
   <rect x="48.06375" y="219.598353" width="134.721166" height="48.804147"/>
  </clipPath>
  <clipPath id="p64cb18b688">
   <rect x="226.495" y="219.598353" width="134.721166" height="48.804147"/>
  </clipPath>
 </defs>
</svg>
