<?xml version="1.0" encoding="utf-8" standalone="no"?>
<!DOCTYPE svg PUBLIC "-//W3C//DTD SVG 1.1//EN"
  "http://www.w3.org/Graphics/SVG/1.1/DTD/svg11.dtd">
<svg xmlns:xlink="http://www.w3.org/1999/xlink" width="374.4pt" height="259.2pt" viewBox="0 0 374.4 259.2" xmlns="http://www.w3.org/2000/svg" version="1.1">
 <metadata>
  <rdf:RDF xmlns:dc="http://purl.org/dc/elements/1.1/" xmlns:cc="http://creativecommons.org/ns#" xmlns:rdf="http://www.w3.org/1999/02/22-rdf-syntax-ns#">
   <cc:Work>
    <dc:type rdf:resource="http://purl.org/dc/dcmitype/StillImage"/>
    <dc:date>2023-11-20T16:00:52.253890</dc:date>
    <dc:format>image/svg+xml</dc:format>
    <dc:creator>
     <cc:Agent>
      <dc:title>Matplotlib v3.8.2, https://matplotlib.org/</dc:title>
     </cc:Agent>
    </dc:creator>
   </cc:Work>
  </rdf:RDF>
 </metadata>
 <defs>
  <style type="text/css">*{stroke-linejoin: round; stroke-linecap: butt}</style>
 </defs>
 <g id="figure_1">
  <g id="patch_1">
   <path d="M 0 259.2 
L 374.4 259.2 
L 374.4 0 
L 0 0 
z
" style="fill: #ffffff"/>
  </g>
  <g id="axes_1">
   <g id="patch_2">
    <path d="M 45.84125 79.952042 
L 284.06 79.952042 
L 284.06 10.275779 
L 45.84125 10.275779 
z
" style="fill: #ffffff"/>
   </g>
   <g id="matplotlib.axis_1">
    <g id="xtick_1">
     <g id="line2d_1">
      <path d="M 45.84125 79.952042 
L 45.84125 10.275779 
" clip-path="url(#pf470a28f4b)" style="fill: none; stroke: #cccccc; stroke-width: 0.8; stroke-linecap: round"/>
     </g>
     <g id="line2d_2"/>
    </g>
    <g id="xtick_2">
     <g id="line2d_3">
      <path d="M 75.618594 79.952042 
L 75.618594 10.275779 
" clip-path="url(#pf470a28f4b)" style="fill: none; stroke: #cccccc; stroke-width: 0.8; stroke-linecap: round"/>
     </g>
     <g id="line2d_4"/>
    </g>
    <g id="xtick_3">
     <g id="line2d_5">
      <path d="M 105.395938 79.952042 
L 105.395938 10.275779 
" clip-path="url(#pf470a28f4b)" style="fill: none; stroke: #cccccc; stroke-width: 0.8; stroke-linecap: round"/>
     </g>
     <g id="line2d_6"/>
    </g>
    <g id="xtick_4">
     <g id="line2d_7">
      <path d="M 135.173281 79.952042 
L 135.173281 10.275779 
" clip-path="url(#pf470a28f4b)" style="fill: none; stroke: #cccccc; stroke-width: 0.8; stroke-linecap: round"/>
     </g>
     <g id="line2d_8"/>
    </g>
    <g id="xtick_5">
     <g id="line2d_9">
      <path d="M 164.950625 79.952042 
L 164.950625 10.275779 
" clip-path="url(#pf470a28f4b)" style="fill: none; stroke: #cccccc; stroke-width: 0.8; stroke-linecap: round"/>
     </g>
     <g id="line2d_10"/>
    </g>
    <g id="xtick_6">
     <g id="line2d_11">
      <path d="M 194.727969 79.952042 
L 194.727969 10.275779 
" clip-path="url(#pf470a28f4b)" style="fill: none; stroke: #cccccc; stroke-width: 0.8; stroke-linecap: round"/>
     </g>
     <g id="line2d_12"/>
    </g>
    <g id="xtick_7">
     <g id="line2d_13">
      <path d="M 224.505313 79.952042 
L 224.505313 10.275779 
" clip-path="url(#pf470a28f4b)" style="fill: none; stroke: #cccccc; stroke-width: 0.8; stroke-linecap: round"/>
     </g>
     <g id="line2d_14"/>
    </g>
    <g id="xtick_8">
     <g id="line2d_15">
      <path d="M 254.282656 79.952042 
L 254.282656 10.275779 
" clip-path="url(#pf470a28f4b)" style="fill: none; stroke: #cccccc; stroke-width: 0.8; stroke-linecap: round"/>
     </g>
     <g id="line2d_16"/>
    </g>
    <g id="xtick_9">
     <g id="line2d_17">
      <path d="M 284.06 79.952042 
L 284.06 10.275779 
" clip-path="url(#pf470a28f4b)" style="fill: none; stroke: #cccccc; stroke-width: 0.8; stroke-linecap: round"/>
     </g>
     <g id="line2d_18"/>
    </g>
   </g>
   <g id="matplotlib.axis_2">
    <g id="ytick_1">
     <g id="line2d_19"/>
     <g id="text_1">
      <!-- 0 -->
      <g style="fill: #262626" transform="translate(37.8925 79.801344) scale(0.08 -0.08)">
       <defs>
        <path id="LiberationSans-30" d="M 3309 2203 
Q 3309 1569 3189 1136 
Q 3069 703 2861 436 
Q 2653 169 2372 53 
Q 2091 -63 1772 -63 
Q 1450 -63 1172 53 
Q 894 169 689 434 
Q 484 700 367 1133 
Q 250 1566 250 2203 
Q 250 2869 367 3305 
Q 484 3741 690 4000 
Q 897 4259 1178 4364 
Q 1459 4469 1791 4469 
Q 2106 4469 2382 4364 
Q 2659 4259 2865 4000 
Q 3072 3741 3190 3305 
Q 3309 2869 3309 2203 
z
M 2738 2203 
Q 2738 2728 2675 3076 
Q 2613 3425 2491 3633 
Q 2369 3841 2192 3927 
Q 2016 4013 1791 4013 
Q 1553 4013 1372 3925 
Q 1191 3838 1067 3630 
Q 944 3422 881 3073 
Q 819 2725 819 2203 
Q 819 1697 883 1350 
Q 947 1003 1070 792 
Q 1194 581 1372 489 
Q 1550 397 1778 397 
Q 2000 397 2178 489 
Q 2356 581 2479 792 
Q 2603 1003 2670 1350 
Q 2738 1697 2738 2203 
z
" transform="scale(0.015625)"/>
       </defs>
       <use xlink:href="#LiberationSans-30"/>
      </g>
     </g>
    </g>
    <g id="ytick_2">
     <g id="line2d_20"/>
     <g id="text_2">
      <!-- 5000 -->
      <g style="fill: #262626" transform="translate(24.54625 58.01335) scale(0.08 -0.08)">
       <defs>
        <path id="LiberationSans-35" d="M 3291 1434 
Q 3291 1103 3191 828 
Q 3091 553 2894 354 
Q 2697 156 2405 46 
Q 2113 -63 1728 -63 
Q 1381 -63 1123 18 
Q 866 100 687 242 
Q 509 384 404 575 
Q 300 766 256 984 
L 825 1050 
Q 859 925 921 808 
Q 984 691 1092 598 
Q 1200 506 1358 451 
Q 1516 397 1741 397 
Q 1959 397 2137 464 
Q 2316 531 2442 662 
Q 2569 794 2637 984 
Q 2706 1175 2706 1422 
Q 2706 1625 2640 1795 
Q 2575 1966 2453 2089 
Q 2331 2213 2154 2281 
Q 1978 2350 1753 2350 
Q 1613 2350 1494 2325 
Q 1375 2300 1273 2256 
Q 1172 2213 1089 2155 
Q 1006 2097 934 2034 
L 384 2034 
L 531 4403 
L 3034 4403 
L 3034 3925 
L 1044 3925 
L 959 2528 
Q 1109 2644 1334 2726 
Q 1559 2809 1869 2809 
Q 2197 2809 2459 2709 
Q 2722 2609 2906 2426 
Q 3091 2244 3191 1991 
Q 3291 1738 3291 1434 
z
" transform="scale(0.015625)"/>
       </defs>
       <use xlink:href="#LiberationSans-35"/>
       <use xlink:href="#LiberationSans-30" x="55.615234"/>
       <use xlink:href="#LiberationSans-30" x="111.230469"/>
       <use xlink:href="#LiberationSans-30" x="166.845703"/>
      </g>
     </g>
    </g>
    <g id="ytick_3">
     <g id="line2d_21"/>
     <g id="text_3">
      <!-- 10000 -->
      <g style="fill: #262626" transform="translate(20.0975 36.225355) scale(0.08 -0.08)">
       <defs>
        <path id="LiberationSans-31" d="M 488 0 
L 488 478 
L 1609 478 
L 1609 3866 
L 616 3156 
L 616 3688 
L 1656 4403 
L 2175 4403 
L 2175 478 
L 3247 478 
L 3247 0 
L 488 0 
z
" transform="scale(0.015625)"/>
       </defs>
       <use xlink:href="#LiberationSans-31"/>
       <use xlink:href="#LiberationSans-30" x="55.615234"/>
       <use xlink:href="#LiberationSans-30" x="111.230469"/>
       <use xlink:href="#LiberationSans-30" x="166.845703"/>
       <use xlink:href="#LiberationSans-30" x="222.460938"/>
      </g>
     </g>
    </g>
    <g id="ytick_4">
     <g id="line2d_22"/>
     <g id="text_4">
      <!-- 15000 -->
      <g style="fill: #262626" transform="translate(20.0975 14.437361) scale(0.08 -0.08)">
       <use xlink:href="#LiberationSans-31"/>
       <use xlink:href="#LiberationSans-35" x="55.615234"/>
       <use xlink:href="#LiberationSans-30" x="111.230469"/>
       <use xlink:href="#LiberationSans-30" x="166.845703"/>
       <use xlink:href="#LiberationSans-30" x="222.460938"/>
      </g>
     </g>
    </g>
    <g id="text_5">
     <!-- N of inscriptions -->
     <g style="fill: #262626" transform="translate(14.4375 73.56766) rotate(-90) scale(0.08 -0.08)">
      <defs>
       <path id="LiberationSans-4e" d="M 3381 0 
L 1025 3750 
Q 1031 3597 1041 3447 
Q 1047 3319 1051 3176 
Q 1056 3034 1056 2925 
L 1056 0 
L 525 0 
L 525 4403 
L 1219 4403 
L 3600 628 
Q 3591 781 3581 934 
Q 3575 1066 3569 1220 
Q 3563 1375 3563 1516 
L 3563 4403 
L 4100 4403 
L 4100 0 
L 3381 0 
z
" transform="scale(0.015625)"/>
       <path id="LiberationSans-20" transform="scale(0.015625)"/>
       <path id="LiberationSans-6f" d="M 3291 1694 
Q 3291 806 2900 371 
Q 2509 -63 1766 -63 
Q 1413 -63 1134 43 
Q 856 150 664 369 
Q 472 588 370 917 
Q 269 1247 269 1694 
Q 269 3444 1784 3444 
Q 2178 3444 2464 3334 
Q 2750 3225 2933 3006 
Q 3116 2788 3203 2459 
Q 3291 2131 3291 1694 
z
M 2700 1694 
Q 2700 2088 2639 2344 
Q 2578 2600 2461 2753 
Q 2344 2906 2175 2967 
Q 2006 3028 1794 3028 
Q 1578 3028 1404 2964 
Q 1231 2900 1109 2745 
Q 988 2591 923 2334 
Q 859 2078 859 1694 
Q 859 1300 928 1042 
Q 997 784 1117 631 
Q 1238 478 1402 415 
Q 1566 353 1759 353 
Q 1975 353 2150 414 
Q 2325 475 2447 628 
Q 2569 781 2634 1040 
Q 2700 1300 2700 1694 
z
" transform="scale(0.015625)"/>
       <path id="LiberationSans-66" d="M 1128 2972 
L 1128 0 
L 566 0 
L 566 2972 
L 91 2972 
L 91 3381 
L 566 3381 
L 566 3763 
Q 566 3947 600 4105 
Q 634 4263 726 4380 
Q 819 4497 978 4564 
Q 1138 4631 1391 4631 
Q 1491 4631 1598 4622 
Q 1706 4613 1788 4594 
L 1788 4166 
Q 1734 4175 1664 4183 
Q 1594 4191 1538 4191 
Q 1413 4191 1333 4156 
Q 1253 4122 1208 4058 
Q 1163 3994 1145 3900 
Q 1128 3806 1128 3684 
L 1128 3381 
L 1788 3381 
L 1788 2972 
L 1128 2972 
z
" transform="scale(0.015625)"/>
       <path id="LiberationSans-69" d="M 428 4100 
L 428 4638 
L 991 4638 
L 991 4100 
L 428 4100 
z
M 428 0 
L 428 3381 
L 991 3381 
L 991 0 
L 428 0 
z
" transform="scale(0.015625)"/>
       <path id="LiberationSans-6e" d="M 2578 0 
L 2578 2144 
Q 2578 2391 2542 2556 
Q 2506 2722 2425 2823 
Q 2344 2925 2211 2967 
Q 2078 3009 1881 3009 
Q 1681 3009 1520 2939 
Q 1359 2869 1245 2736 
Q 1131 2603 1068 2408 
Q 1006 2213 1006 1959 
L 1006 0 
L 444 0 
L 444 2659 
Q 444 2766 442 2883 
Q 441 3000 437 3104 
Q 434 3209 431 3284 
Q 428 3359 425 3381 
L 956 3381 
Q 959 3366 962 3297 
Q 966 3228 970 3139 
Q 975 3050 978 2958 
Q 981 2866 981 2803 
L 991 2803 
Q 1072 2950 1169 3069 
Q 1266 3188 1394 3270 
Q 1522 3353 1687 3398 
Q 1853 3444 2072 3444 
Q 2353 3444 2556 3375 
Q 2759 3306 2890 3162 
Q 3022 3019 3083 2792 
Q 3144 2566 3144 2253 
L 3144 0 
L 2578 0 
z
" transform="scale(0.015625)"/>
       <path id="LiberationSans-73" d="M 2969 934 
Q 2969 697 2876 511 
Q 2784 325 2609 198 
Q 2434 72 2179 4 
Q 1925 -63 1597 -63 
Q 1303 -63 1067 -17 
Q 831 28 653 128 
Q 475 228 354 392 
Q 234 556 178 794 
L 675 891 
Q 747 619 972 492 
Q 1197 366 1597 366 
Q 1778 366 1929 391 
Q 2081 416 2190 477 
Q 2300 538 2361 639 
Q 2422 741 2422 891 
Q 2422 1044 2350 1142 
Q 2278 1241 2150 1306 
Q 2022 1372 1839 1420 
Q 1656 1469 1438 1528 
Q 1234 1581 1034 1647 
Q 834 1713 673 1820 
Q 513 1928 413 2087 
Q 313 2247 313 2488 
Q 313 2950 642 3192 
Q 972 3434 1603 3434 
Q 2163 3434 2492 3237 
Q 2822 3041 2909 2606 
L 2403 2544 
Q 2375 2675 2300 2764 
Q 2225 2853 2119 2908 
Q 2013 2963 1880 2986 
Q 1747 3009 1603 3009 
Q 1222 3009 1040 2893 
Q 859 2778 859 2544 
Q 859 2406 926 2317 
Q 994 2228 1114 2167 
Q 1234 2106 1403 2061 
Q 1572 2016 1775 1966 
Q 1909 1931 2050 1892 
Q 2191 1853 2323 1798 
Q 2456 1744 2573 1670 
Q 2691 1597 2778 1494 
Q 2866 1391 2917 1253 
Q 2969 1116 2969 934 
z
" transform="scale(0.015625)"/>
       <path id="LiberationSans-63" d="M 859 1706 
Q 859 1416 901 1172 
Q 944 928 1044 751 
Q 1144 575 1308 478 
Q 1472 381 1713 381 
Q 2013 381 2214 543 
Q 2416 706 2463 1044 
L 3031 1006 
Q 3003 797 2909 603 
Q 2816 409 2655 262 
Q 2494 116 2262 26 
Q 2031 -63 1728 -63 
Q 1331 -63 1053 71 
Q 775 206 601 442 
Q 428 678 350 998 
Q 272 1319 272 1694 
Q 272 2034 328 2295 
Q 384 2556 486 2751 
Q 588 2947 725 3080 
Q 863 3213 1023 3292 
Q 1184 3372 1362 3408 
Q 1541 3444 1722 3444 
Q 2006 3444 2228 3366 
Q 2450 3288 2611 3152 
Q 2772 3016 2872 2831 
Q 2972 2647 3013 2434 
L 2434 2391 
Q 2391 2672 2212 2837 
Q 2034 3003 1706 3003 
Q 1466 3003 1305 2923 
Q 1144 2844 1044 2683 
Q 944 2522 901 2278 
Q 859 2034 859 1706 
z
" transform="scale(0.015625)"/>
       <path id="LiberationSans-72" d="M 444 0 
L 444 2594 
Q 444 2700 442 2811 
Q 441 2922 437 3025 
Q 434 3128 431 3218 
Q 428 3309 425 3381 
L 956 3381 
Q 959 3309 964 3217 
Q 969 3125 973 3028 
Q 978 2931 979 2842 
Q 981 2753 981 2691 
L 994 2691 
Q 1053 2884 1120 3026 
Q 1188 3169 1278 3261 
Q 1369 3353 1494 3398 
Q 1619 3444 1797 3444 
Q 1866 3444 1928 3433 
Q 1991 3422 2025 3413 
L 2025 2897 
Q 1969 2913 1894 2920 
Q 1819 2928 1725 2928 
Q 1531 2928 1395 2840 
Q 1259 2753 1173 2598 
Q 1088 2444 1047 2230 
Q 1006 2016 1006 1763 
L 1006 0 
L 444 0 
z
" transform="scale(0.015625)"/>
       <path id="LiberationSans-70" d="M 3291 1706 
Q 3291 1322 3228 997 
Q 3166 672 3020 437 
Q 2875 203 2636 70 
Q 2397 -63 2047 -63 
Q 1684 -63 1412 75 
Q 1141 213 997 525 
L 981 525 
Q 984 519 986 469 
Q 988 419 989 344 
Q 991 269 992 176 
Q 994 84 994 -6 
L 994 -1328 
L 431 -1328 
L 431 2691 
Q 431 2813 429 2925 
Q 428 3038 425 3130 
Q 422 3222 419 3287 
Q 416 3353 413 3381 
L 956 3381 
Q 959 3372 964 3315 
Q 969 3259 973 3179 
Q 978 3100 983 3009 
Q 988 2919 988 2838 
L 1000 2838 
Q 1078 3000 1178 3114 
Q 1278 3228 1406 3301 
Q 1534 3375 1692 3408 
Q 1850 3441 2047 3441 
Q 2397 3441 2636 3316 
Q 2875 3191 3020 2964 
Q 3166 2738 3228 2417 
Q 3291 2097 3291 1706 
z
M 2700 1694 
Q 2700 2006 2662 2250 
Q 2625 2494 2533 2662 
Q 2441 2831 2287 2918 
Q 2134 3006 1903 3006 
Q 1716 3006 1550 2953 
Q 1384 2900 1261 2750 
Q 1138 2600 1066 2336 
Q 994 2072 994 1650 
Q 994 1291 1053 1042 
Q 1113 794 1227 641 
Q 1341 488 1509 420 
Q 1678 353 1897 353 
Q 2131 353 2286 443 
Q 2441 534 2533 706 
Q 2625 878 2662 1126 
Q 2700 1375 2700 1694 
z
" transform="scale(0.015625)"/>
       <path id="LiberationSans-74" d="M 1731 25 
Q 1603 -9 1470 -29 
Q 1338 -50 1163 -50 
Q 488 -50 488 716 
L 488 2972 
L 97 2972 
L 97 3381 
L 509 3381 
L 675 4138 
L 1050 4138 
L 1050 3381 
L 1675 3381 
L 1675 2972 
L 1050 2972 
L 1050 838 
Q 1050 594 1129 495 
Q 1209 397 1406 397 
Q 1488 397 1564 409 
Q 1641 422 1731 441 
L 1731 25 
z
" transform="scale(0.015625)"/>
      </defs>
      <use xlink:href="#LiberationSans-4e"/>
      <use xlink:href="#LiberationSans-20" x="72.216797"/>
      <use xlink:href="#LiberationSans-6f" x="100"/>
      <use xlink:href="#LiberationSans-66" x="155.615234"/>
      <use xlink:href="#LiberationSans-20" x="183.398438"/>
      <use xlink:href="#LiberationSans-69" x="211.181641"/>
      <use xlink:href="#LiberationSans-6e" x="233.398438"/>
      <use xlink:href="#LiberationSans-73" x="289.013672"/>
      <use xlink:href="#LiberationSans-63" x="339.013672"/>
      <use xlink:href="#LiberationSans-72" x="389.013672"/>
      <use xlink:href="#LiberationSans-69" x="422.314453"/>
      <use xlink:href="#LiberationSans-70" x="444.53125"/>
      <use xlink:href="#LiberationSans-74" x="500.146484"/>
      <use xlink:href="#LiberationSans-69" x="527.929688"/>
      <use xlink:href="#LiberationSans-6f" x="550.146484"/>
      <use xlink:href="#LiberationSans-6e" x="605.761719"/>
      <use xlink:href="#LiberationSans-73" x="661.376953"/>
     </g>
    </g>
   </g>
   <g id="patch_3">
    <path d="M 53.136699 76.784939 
L 68.025371 76.501695 
L 82.914043 75.27721 
L 97.802715 67.886722 
L 112.98916 39.383668 
L 127.877832 49.929057 
L 142.766504 43.061481 
L 157.655176 50.770073 
L 172.543848 56.54825 
L 187.43252 56.047126 
L 202.321191 19.011893 
L 217.209863 15.621681 
L 232.098535 48.54334 
L 246.987207 55.136388 
L 261.875879 75.373077 
L 276.764551 76.331749 
L 276.764551 76.161802 
L 261.875879 75.190058 
L 246.987207 53.833466 
L 232.098535 47.266564 
L 217.209863 13.442881 
L 202.321191 17.338575 
L 187.43252 55.101527 
L 172.543848 55.56779 
L 157.655176 49.85062 
L 142.766504 41.937221 
L 127.877832 48.769936 
L 112.98916 38.486002 
L 97.802715 67.376883 
L 82.914043 75.063687 
L 68.025371 76.392755 
L 53.136699 76.71086 
z
" clip-path="url(#pf470a28f4b)" style="fill: #808080; opacity: 0.5; stroke: #808080; stroke-linejoin: miter"/>
   </g>
   <g id="patch_4">
    <path d="M 53.136699 76.780581 
L 68.025371 76.488622 
L 82.914043 75.233634 
L 97.802715 67.834431 
L 112.98916 39.257297 
L 127.877832 49.759111 
L 142.766504 42.80874 
L 157.655176 50.63063 
L 172.543848 56.260648 
L 187.43252 55.933828 
L 202.321191 18.658927 
L 217.209863 15.220782 
L 232.098535 48.299315 
L 246.987207 55.014375 
L 261.875879 75.351289 
L 276.764551 76.309961 
L 276.764551 76.214093 
L 261.875879 75.211846 
L 246.987207 53.981624 
L 232.098535 47.54545 
L 217.209863 13.91786 
L 202.321191 17.560812 
L 187.43252 55.236612 
L 172.543848 55.624439 
L 157.655176 49.955203 
L 142.766504 42.067949 
L 127.877832 49.140332 
L 112.98916 38.5993 
L 97.802715 67.450962 
L 82.914043 75.09419 
L 68.025371 76.423258 
L 53.136699 76.719575 
z
" clip-path="url(#pf470a28f4b)" style="fill: #8b0000; stroke: #8b0000; stroke-linejoin: miter"/>
   </g>
   <g id="patch_5">
    <path d="M 53.136699 76.309961 
L 68.025371 75.704254 
L 82.914043 73.778196 
L 97.802715 69.538252 
L 112.98916 47.29271 
L 127.877832 40.133175 
L 142.766504 55.637511 
L 157.655176 50.621915 
L 172.543848 56.574395 
L 187.43252 66.082676 
L 202.321191 72.266109 
L 217.209863 71.961077 
L 232.098535 72.675723 
L 246.987207 73.621322 
L 261.875879 74.566921 
L 276.764551 75.155197 
L 276.764551 74.789159 
L 261.875879 74.139876 
L 246.987207 73.163774 
L 232.098535 72.19203 
L 217.209863 71.403304 
L 202.321191 71.764985 
L 187.43252 65.219871 
L 172.543848 55.506783 
L 157.655176 49.419218 
L 142.766504 54.704985 
L 127.877832 38.791034 
L 112.98916 45.959284 
L 97.802715 69.024055 
L 82.914043 73.5516 
L 68.025371 75.534308 
L 53.136699 76.174875 
z
" clip-path="url(#pf470a28f4b)" style="fill: #808080; opacity: 0.5; stroke: #808080; stroke-linejoin: miter"/>
   </g>
   <g id="patch_6">
    <path d="M 53.136699 76.296888 
L 68.025371 75.665036 
L 82.914043 73.75205 
L 97.802715 69.485961 
L 112.98916 47.005108 
L 127.877832 39.915295 
L 142.766504 55.511141 
L 157.655176 50.334314 
L 172.543848 56.400091 
L 187.43252 65.877869 
L 202.321191 72.205102 
L 217.209863 71.778058 
L 232.098535 72.653935 
L 246.987207 73.573388 
L 261.875879 74.401332 
L 276.764551 75.063687 
L 276.764551 74.84145 
L 261.875879 74.166022 
L 246.987207 73.224781 
L 232.098535 72.322758 
L 217.209863 71.459953 
L 202.321191 71.904428 
L 187.43252 65.280878 
L 172.543848 55.759524 
L 157.655176 49.641455 
L 142.766504 54.853144 
L 127.877832 39.03506 
L 112.98916 46.103085 
L 97.802715 69.14171 
L 82.914043 73.569031 
L 68.025371 75.560454 
L 53.136699 76.196663 
z
" clip-path="url(#pf470a28f4b)" style="fill: #006400; stroke: #006400; stroke-linejoin: miter"/>
   </g>
   <g id="patch_7">
    <path d="M 53.136699 76.466834 
L 68.025371 76.022359 
L 82.914043 73.799984 
L 97.802715 68.858466 
L 112.98916 54.447887 
L 127.877832 55.872822 
L 142.766504 53.637374 
L 157.655176 53.332342 
L 172.543848 56.90993 
L 187.43252 68.448852 
L 202.321191 73.887136 
L 217.209863 74.327253 
L 232.098535 75.364362 
L 246.987207 75.586599 
L 261.875879 75.673751 
L 276.764551 76.161802 
L 276.764551 75.952637 
L 261.875879 75.49509 
L 246.987207 75.272852 
L 232.098535 75.111621 
L 217.209863 74.06144 
L 202.321191 73.582104 
L 187.43252 67.734206 
L 172.543848 56.182211 
L 157.655176 52.351882 
L 142.766504 52.60898 
L 127.877832 54.818283 
L 112.98916 53.58944 
L 97.802715 68.34427 
L 82.914043 73.51674 
L 68.025371 75.878558 
L 53.136699 76.327391 
z
" clip-path="url(#pf470a28f4b)" style="fill: #808080; opacity: 0.5; stroke: #808080; stroke-linejoin: miter"/>
   </g>
   <g id="patch_8">
    <path d="M 53.136699 76.445046 
L 68.025371 76.004929 
L 82.914043 73.756408 
L 97.802715 68.823606 
L 112.98916 54.343305 
L 127.877832 55.659299 
L 142.766504 53.489215 
L 157.655176 53.232117 
L 172.543848 56.774845 
L 187.43252 68.287621 
L 202.321191 73.84356 
L 217.209863 74.301107 
L 232.098535 75.320786 
L 246.987207 75.534308 
L 261.875879 75.647606 
L 276.764551 76.135657 
L 276.764551 75.991856 
L 261.875879 75.516878 
L 246.987207 75.360004 
L 232.098535 75.142124 
L 217.209863 74.118088 
L 202.321191 73.603892 
L 187.43252 67.821358 
L 172.543848 56.247575 
L 157.655176 52.526186 
L 142.766504 52.796357 
L 127.877832 54.979514 
L 112.98916 53.685307 
L 97.802715 68.45321 
L 82.914043 73.542885 
L 68.025371 75.895989 
L 53.136699 76.340464 
z
" clip-path="url(#pf470a28f4b)" style="fill: #00008b; stroke: #00008b; stroke-linejoin: miter"/>
   </g>
   <g id="patch_9">
    <path d="M 53.136699 76.157445 
L 68.025371 75.917777 
L 82.914043 75.974425 
L 97.802715 72.501419 
L 112.98916 58.212852 
L 127.877832 55.053593 
L 142.766504 41.771632 
L 157.655176 39.544899 
L 172.543848 42.869747 
L 187.43252 60.892776 
L 202.321191 71.507887 
L 217.209863 72.932821 
L 232.098535 75.020111 
L 246.987207 75.52995 
L 261.875879 75.813194 
L 276.764551 76.083365 
L 276.764551 75.861128 
L 261.875879 75.62146 
L 246.987207 75.264137 
L 232.098535 74.780443 
L 217.209863 72.53628 
L 202.321191 71.085199 
L 187.43252 59.807734 
L 172.543848 41.48403 
L 157.655176 38.0546 
L 142.766504 40.403346 
L 127.877832 54.164643 
L 112.98916 57.419769 
L 97.802715 72.131023 
L 82.914043 75.800121 
L 68.025371 75.673751 
L 53.136699 75.943922 
z
" clip-path="url(#pf470a28f4b)" style="fill: #808080; opacity: 0.5; stroke: #808080; stroke-linejoin: miter"/>
   </g>
   <g id="patch_10">
    <path d="M 53.136699 76.131299 
L 68.025371 75.852413 
L 82.914043 75.943922 
L 97.802715 72.42734 
L 112.98916 58.038548 
L 127.877832 54.922865 
L 142.766504 41.584255 
L 157.655176 39.261655 
L 172.543848 42.782595 
L 187.43252 60.661823 
L 202.321191 71.433807 
L 217.209863 72.876173 
L 232.098535 74.989608 
L 246.987207 75.499447 
L 261.875879 75.800121 
L 276.764551 76.044147 
L 276.764551 75.917777 
L 261.875879 75.643248 
L 246.987207 75.307713 
L 232.098535 74.806589 
L 217.209863 72.623432 
L 202.321191 71.141848 
L 187.43252 59.907958 
L 172.543848 41.880572 
L 157.655176 38.16354 
L 142.766504 40.660444 
L 127.877832 54.256153 
L 112.98916 57.476418 
L 97.802715 72.174599 
L 82.914043 75.821909 
L 68.025371 75.695539 
L 53.136699 75.974425 
z
" clip-path="url(#pf470a28f4b)" style="fill: #800080; stroke: #800080; stroke-linejoin: miter"/>
   </g>
   <g id="patch_11">
    <path d="M 45.84125 79.952042 
L 45.84125 10.275779 
" style="fill: none; stroke: #262626; stroke-width: 1.25; stroke-linejoin: miter; stroke-linecap: square"/>
   </g>
   <g id="patch_12">
    <path d="M 284.06 79.952042 
L 284.06 10.275779 
" style="fill: none; stroke: #262626; stroke-width: 1.25; stroke-linejoin: miter; stroke-linecap: square"/>
   </g>
   <g id="patch_13">
    <path d="M 45.84125 79.952042 
L 284.06 79.952042 
" style="fill: none; stroke: #262626; stroke-width: 1.25; stroke-linejoin: miter; stroke-linecap: square"/>
   </g>
   <g id="patch_14">
    <path d="M 45.84125 10.275779 
L 284.06 10.275779 
" style="fill: none; stroke: #262626; stroke-width: 1.25; stroke-linejoin: miter; stroke-linecap: square"/>
   </g>
   <g id="text_6">
    <!-- A -->
    <g style="fill: #262626" transform="translate(47.403875 21.694844) scale(0.096 -0.096)">
     <defs>
      <path id="LiberationSans-41" d="M 3647 0 
L 3144 1288 
L 1138 1288 
L 631 0 
L 13 0 
L 1809 4403 
L 2488 4403 
L 4256 0 
L 3647 0 
z
M 2400 3206 
Q 2350 3331 2304 3459 
Q 2259 3588 2225 3692 
Q 2191 3797 2167 3867 
Q 2144 3938 2141 3953 
Q 2134 3938 2112 3866 
Q 2091 3794 2055 3687 
Q 2019 3581 1973 3453 
Q 1928 3325 1881 3200 
L 1319 1753 
L 2966 1753 
L 2400 3206 
z
" transform="scale(0.015625)"/>
     </defs>
     <use xlink:href="#LiberationSans-41"/>
    </g>
   </g>
  </g>
  <g id="axes_2">
   <g id="patch_15">
    <path d="M 45.84125 159.777271 
L 284.06 159.777271 
L 284.06 90.101008 
L 45.84125 90.101008 
z
" style="fill: #ffffff"/>
   </g>
   <g id="matplotlib.axis_3">
    <g id="xtick_10">
     <g id="line2d_23">
      <path d="M 45.84125 159.777271 
L 45.84125 90.101008 
" clip-path="url(#pcfd9e5416b)" style="fill: none; stroke: #cccccc; stroke-width: 0.8; stroke-linecap: round"/>
     </g>
     <g id="line2d_24"/>
    </g>
    <g id="xtick_11">
     <g id="line2d_25">
      <path d="M 75.618594 159.777271 
L 75.618594 90.101008 
" clip-path="url(#pcfd9e5416b)" style="fill: none; stroke: #cccccc; stroke-width: 0.8; stroke-linecap: round"/>
     </g>
     <g id="line2d_26"/>
    </g>
    <g id="xtick_12">
     <g id="line2d_27">
      <path d="M 105.395938 159.777271 
L 105.395938 90.101008 
" clip-path="url(#pcfd9e5416b)" style="fill: none; stroke: #cccccc; stroke-width: 0.8; stroke-linecap: round"/>
     </g>
     <g id="line2d_28"/>
    </g>
    <g id="xtick_13">
     <g id="line2d_29">
      <path d="M 135.173281 159.777271 
L 135.173281 90.101008 
" clip-path="url(#pcfd9e5416b)" style="fill: none; stroke: #cccccc; stroke-width: 0.8; stroke-linecap: round"/>
     </g>
     <g id="line2d_30"/>
    </g>
    <g id="xtick_14">
     <g id="line2d_31">
      <path d="M 164.950625 159.777271 
L 164.950625 90.101008 
" clip-path="url(#pcfd9e5416b)" style="fill: none; stroke: #cccccc; stroke-width: 0.8; stroke-linecap: round"/>
     </g>
     <g id="line2d_32"/>
    </g>
    <g id="xtick_15">
     <g id="line2d_33">
      <path d="M 194.727969 159.777271 
L 194.727969 90.101008 
" clip-path="url(#pcfd9e5416b)" style="fill: none; stroke: #cccccc; stroke-width: 0.8; stroke-linecap: round"/>
     </g>
     <g id="line2d_34"/>
    </g>
    <g id="xtick_16">
     <g id="line2d_35">
      <path d="M 224.505313 159.777271 
L 224.505313 90.101008 
" clip-path="url(#pcfd9e5416b)" style="fill: none; stroke: #cccccc; stroke-width: 0.8; stroke-linecap: round"/>
     </g>
     <g id="line2d_36"/>
    </g>
    <g id="xtick_17">
     <g id="line2d_37">
      <path d="M 254.282656 159.777271 
L 254.282656 90.101008 
" clip-path="url(#pcfd9e5416b)" style="fill: none; stroke: #cccccc; stroke-width: 0.8; stroke-linecap: round"/>
     </g>
     <g id="line2d_38"/>
    </g>
    <g id="xtick_18">
     <g id="line2d_39">
      <path d="M 284.06 159.777271 
L 284.06 90.101008 
" clip-path="url(#pcfd9e5416b)" style="fill: none; stroke: #cccccc; stroke-width: 0.8; stroke-linecap: round"/>
     </g>
     <g id="line2d_40"/>
    </g>
   </g>
   <g id="matplotlib.axis_4">
    <g id="ytick_5">
     <g id="line2d_41"/>
     <g id="text_7">
      <!-- 0 -->
      <g style="fill: #262626" transform="translate(37.8925 159.508918) scale(0.08 -0.08)">
       <use xlink:href="#LiberationSans-30"/>
      </g>
     </g>
    </g>
    <g id="ytick_6">
     <g id="line2d_42"/>
     <g id="text_8">
      <!-- 200 -->
      <g style="fill: #262626" transform="translate(28.995 139.837472) scale(0.08 -0.08)">
       <defs>
        <path id="LiberationSans-32" d="M 322 0 
L 322 397 
Q 481 763 711 1042 
Q 941 1322 1194 1548 
Q 1447 1775 1695 1969 
Q 1944 2163 2144 2356 
Q 2344 2550 2467 2762 
Q 2591 2975 2591 3244 
Q 2591 3431 2534 3573 
Q 2478 3716 2372 3812 
Q 2266 3909 2117 3957 
Q 1969 4006 1788 4006 
Q 1619 4006 1470 3959 
Q 1322 3913 1206 3819 
Q 1091 3725 1017 3586 
Q 944 3447 922 3263 
L 347 3316 
Q 375 3553 478 3762 
Q 581 3972 762 4130 
Q 944 4288 1198 4378 
Q 1453 4469 1788 4469 
Q 2116 4469 2372 4391 
Q 2628 4313 2804 4159 
Q 2981 4006 3075 3781 
Q 3169 3556 3169 3263 
Q 3169 3041 3089 2841 
Q 3009 2641 2876 2459 
Q 2744 2278 2569 2109 
Q 2394 1941 2203 1780 
Q 2013 1619 1819 1461 
Q 1625 1303 1454 1143 
Q 1284 984 1150 820 
Q 1016 656 941 478 
L 3238 478 
L 3238 0 
L 322 0 
z
" transform="scale(0.015625)"/>
       </defs>
       <use xlink:href="#LiberationSans-32"/>
       <use xlink:href="#LiberationSans-30" x="55.615234"/>
       <use xlink:href="#LiberationSans-30" x="111.230469"/>
      </g>
     </g>
    </g>
    <g id="ytick_7">
     <g id="line2d_43"/>
     <g id="text_9">
      <!-- 400 -->
      <g style="fill: #262626" transform="translate(28.995 120.166025) scale(0.08 -0.08)">
       <defs>
        <path id="LiberationSans-34" d="M 2753 997 
L 2753 0 
L 2222 0 
L 2222 997 
L 147 997 
L 147 1434 
L 2163 4403 
L 2753 4403 
L 2753 1441 
L 3372 1441 
L 3372 997 
L 2753 997 
z
M 2222 3769 
Q 2216 3753 2191 3708 
Q 2166 3663 2134 3606 
Q 2103 3550 2070 3492 
Q 2038 3434 2013 3397 
L 884 1734 
Q 869 1709 839 1668 
Q 809 1628 778 1586 
Q 747 1544 715 1503 
Q 684 1463 666 1441 
L 2222 1441 
L 2222 3769 
z
" transform="scale(0.015625)"/>
       </defs>
       <use xlink:href="#LiberationSans-34"/>
       <use xlink:href="#LiberationSans-30" x="55.615234"/>
       <use xlink:href="#LiberationSans-30" x="111.230469"/>
      </g>
     </g>
    </g>
    <g id="ytick_8">
     <g id="line2d_44"/>
     <g id="text_10">
      <!-- 600 -->
      <g style="fill: #262626" transform="translate(28.995 100.494579) scale(0.08 -0.08)">
       <defs>
        <path id="LiberationSans-36" d="M 3278 1441 
Q 3278 1109 3186 832 
Q 3094 556 2914 357 
Q 2734 159 2468 48 
Q 2203 -63 1856 -63 
Q 1472 -63 1184 84 
Q 897 231 706 507 
Q 516 784 420 1186 
Q 325 1588 325 2100 
Q 325 2688 433 3131 
Q 541 3575 744 3872 
Q 947 4169 1239 4319 
Q 1531 4469 1900 4469 
Q 2125 4469 2322 4422 
Q 2519 4375 2680 4270 
Q 2841 4166 2962 3994 
Q 3084 3822 3156 3572 
L 2619 3475 
Q 2531 3759 2339 3886 
Q 2147 4013 1894 4013 
Q 1663 4013 1475 3903 
Q 1288 3794 1156 3576 
Q 1025 3359 954 3031 
Q 884 2703 884 2266 
Q 1038 2550 1316 2698 
Q 1594 2847 1953 2847 
Q 2253 2847 2497 2750 
Q 2741 2653 2914 2470 
Q 3088 2288 3183 2027 
Q 3278 1766 3278 1441 
z
M 2706 1416 
Q 2706 1644 2650 1828 
Q 2594 2013 2481 2142 
Q 2369 2272 2203 2342 
Q 2038 2413 1819 2413 
Q 1666 2413 1509 2367 
Q 1353 2322 1226 2220 
Q 1100 2119 1020 1953 
Q 941 1788 941 1550 
Q 941 1306 1003 1095 
Q 1066 884 1183 728 
Q 1300 572 1465 481 
Q 1631 391 1838 391 
Q 2041 391 2202 461 
Q 2363 531 2475 664 
Q 2588 797 2647 987 
Q 2706 1178 2706 1416 
z
" transform="scale(0.015625)"/>
       </defs>
       <use xlink:href="#LiberationSans-36"/>
       <use xlink:href="#LiberationSans-30" x="55.615234"/>
       <use xlink:href="#LiberationSans-30" x="111.230469"/>
      </g>
     </g>
    </g>
    <g id="text_11">
     <!-- N of occupations -->
     <g style="fill: #262626" transform="translate(23.335 154.732264) rotate(-90) scale(0.08 -0.08)">
      <defs>
       <path id="LiberationSans-75" d="M 981 3381 
L 981 1238 
Q 981 991 1017 825 
Q 1053 659 1134 557 
Q 1216 456 1348 414 
Q 1481 372 1678 372 
Q 1878 372 2039 442 
Q 2200 513 2314 645 
Q 2428 778 2490 973 
Q 2553 1169 2553 1422 
L 2553 3381 
L 3116 3381 
L 3116 722 
Q 3116 616 3117 498 
Q 3119 381 3122 276 
Q 3125 172 3128 97 
Q 3131 22 3134 0 
L 2603 0 
Q 2600 16 2597 84 
Q 2594 153 2589 242 
Q 2584 331 2581 423 
Q 2578 516 2578 578 
L 2569 578 
Q 2488 431 2391 312 
Q 2294 194 2166 111 
Q 2038 28 1872 -17 
Q 1706 -63 1488 -63 
Q 1206 -63 1003 6 
Q 800 75 669 219 
Q 538 363 477 588 
Q 416 813 416 1128 
L 416 3381 
L 981 3381 
z
" transform="scale(0.015625)"/>
       <path id="LiberationSans-61" d="M 1294 -63 
Q 784 -63 528 206 
Q 272 475 272 944 
Q 272 1278 398 1492 
Q 525 1706 729 1828 
Q 934 1950 1196 1997 
Q 1459 2044 1731 2050 
L 2491 2063 
L 2491 2247 
Q 2491 2456 2447 2603 
Q 2403 2750 2312 2840 
Q 2222 2931 2086 2973 
Q 1950 3016 1766 3016 
Q 1603 3016 1472 2992 
Q 1341 2969 1244 2908 
Q 1147 2847 1087 2742 
Q 1028 2638 1009 2478 
L 422 2531 
Q 453 2731 540 2898 
Q 628 3066 789 3187 
Q 950 3309 1192 3376 
Q 1434 3444 1778 3444 
Q 2416 3444 2737 3151 
Q 3059 2859 3059 2306 
L 3059 850 
Q 3059 600 3125 473 
Q 3191 347 3375 347 
Q 3422 347 3469 353 
Q 3516 359 3559 369 
L 3559 19 
Q 3453 -6 3348 -18 
Q 3244 -31 3125 -31 
Q 2966 -31 2852 11 
Q 2738 53 2666 139 
Q 2594 225 2556 351 
Q 2519 478 2509 647 
L 2491 647 
Q 2400 484 2292 353 
Q 2184 222 2040 130 
Q 1897 38 1714 -12 
Q 1531 -63 1294 -63 
z
M 1422 359 
Q 1691 359 1892 457 
Q 2094 556 2226 709 
Q 2359 863 2425 1044 
Q 2491 1225 2491 1391 
L 2491 1669 
L 1875 1656 
Q 1669 1653 1483 1626 
Q 1297 1600 1156 1522 
Q 1016 1444 933 1303 
Q 850 1163 850 934 
Q 850 659 998 509 
Q 1147 359 1422 359 
z
" transform="scale(0.015625)"/>
      </defs>
      <use xlink:href="#LiberationSans-4e"/>
      <use xlink:href="#LiberationSans-20" x="72.216797"/>
      <use xlink:href="#LiberationSans-6f" x="100"/>
      <use xlink:href="#LiberationSans-66" x="155.615234"/>
      <use xlink:href="#LiberationSans-20" x="183.398438"/>
      <use xlink:href="#LiberationSans-6f" x="211.181641"/>
      <use xlink:href="#LiberationSans-63" x="266.796875"/>
      <use xlink:href="#LiberationSans-63" x="316.796875"/>
      <use xlink:href="#LiberationSans-75" x="366.796875"/>
      <use xlink:href="#LiberationSans-70" x="422.412109"/>
      <use xlink:href="#LiberationSans-61" x="478.027344"/>
      <use xlink:href="#LiberationSans-74" x="533.642578"/>
      <use xlink:href="#LiberationSans-69" x="561.425781"/>
      <use xlink:href="#LiberationSans-6f" x="583.642578"/>
      <use xlink:href="#LiberationSans-6e" x="639.257812"/>
      <use xlink:href="#LiberationSans-73" x="694.873047"/>
     </g>
    </g>
   </g>
   <g id="patch_16">
    <path d="M 53.136699 156.610168 
L 68.025371 155.82331 
L 82.914043 154.741381 
L 97.802715 142.741798 
L 112.98916 97.2024 
L 127.877832 132.119217 
L 142.766504 127.004641 
L 157.655176 127.201356 
L 172.543848 139.299295 
L 187.43252 148.151446 
L 202.321191 149.626805 
L 217.209863 143.528656 
L 232.098535 151.397235 
L 246.987207 154.249594 
L 261.875879 155.429881 
L 276.764551 156.216739 
L 276.764551 155.82331 
L 261.875879 154.741381 
L 246.987207 152.28245 
L 232.098535 149.233376 
L 217.209863 141.069725 
L 202.321191 146.57773 
L 187.43252 145.397444 
L 172.543848 135.856792 
L 157.655176 122.971995 
L 142.766504 122.971995 
L 127.877832 128.086571 
L 112.98916 93.268111 
L 97.802715 139.889439 
L 82.914043 153.462737 
L 68.025371 155.528238 
L 53.136699 156.511811 
z
" clip-path="url(#pcfd9e5416b)" style="fill: #808080; opacity: 0.5; stroke: #808080; stroke-linejoin: miter"/>
   </g>
   <g id="patch_17">
    <path d="M 53.136699 156.610168 
L 68.025371 155.82331 
L 82.914043 154.347952 
L 97.802715 141.856583 
L 112.98916 96.710614 
L 127.877832 131.529074 
L 142.766504 126.414498 
L 157.655176 126.316141 
L 172.543848 139.102581 
L 187.43252 148.053089 
L 202.321191 149.135018 
L 217.209863 143.331942 
L 232.098535 151.20052 
L 246.987207 154.151237 
L 261.875879 155.331524 
L 276.764551 156.216739 
L 276.764551 155.82331 
L 261.875879 154.839738 
L 246.987207 152.675879 
L 232.098535 149.626805 
L 217.209863 141.463154 
L 202.321191 147.364588 
L 187.43252 146.085944 
L 172.543848 136.742007 
L 157.655176 123.463781 
L 142.766504 123.463781 
L 127.877832 128.775071 
L 112.98916 93.956611 
L 97.802715 139.889439 
L 82.914043 153.561094 
L 68.025371 155.626596 
L 53.136699 156.511811 
z
" clip-path="url(#pcfd9e5416b)" style="fill: #8b0000; stroke: #8b0000; stroke-linejoin: miter"/>
   </g>
   <g id="patch_18">
    <path d="M 53.136699 156.610168 
L 68.025371 156.118382 
L 82.914043 155.626596 
L 97.802715 152.577521 
L 112.98916 138.512437 
L 127.877832 138.41408 
L 142.766504 141.069725 
L 157.655176 134.381434 
L 172.543848 139.987796 
L 187.43252 150.807091 
L 202.321191 154.151237 
L 217.209863 154.544666 
L 232.098535 156.020025 
L 246.987207 156.216739 
L 261.875879 155.82331 
L 276.764551 156.216739 
L 276.764551 155.626596 
L 261.875879 155.134809 
L 246.987207 155.331524 
L 232.098535 155.134809 
L 217.209863 153.364379 
L 202.321191 152.675879 
L 187.43252 147.954732 
L 172.543848 137.233793 
L 157.655176 130.643859 
L 142.766504 136.840364 
L 127.877832 133.692933 
L 112.98916 134.971577 
L 97.802715 150.610377 
L 82.914043 154.643023 
L 68.025371 155.429881 
L 53.136699 156.511811 
z
" clip-path="url(#pcfd9e5416b)" style="fill: #808080; opacity: 0.5; stroke: #808080; stroke-linejoin: miter"/>
   </g>
   <g id="patch_19">
    <path d="M 53.136699 156.610168 
L 68.025371 156.020025 
L 82.914043 155.429881 
L 97.802715 151.987378 
L 112.98916 137.627222 
L 127.877832 137.823937 
L 142.766504 140.086153 
L 157.655176 134.086362 
L 172.543848 139.791081 
L 187.43252 150.216948 
L 202.321191 153.856165 
L 217.209863 154.446309 
L 232.098535 155.82331 
L 246.987207 156.118382 
L 261.875879 155.724953 
L 276.764551 156.118382 
L 276.764551 155.724953 
L 261.875879 155.233167 
L 246.987207 155.528238 
L 232.098535 155.233167 
L 217.209863 153.462737 
L 202.321191 152.872593 
L 187.43252 148.446518 
L 172.543848 137.528865 
L 157.655176 131.135645 
L 142.766504 137.233793 
L 127.877832 135.463363 
L 112.98916 135.168291 
L 97.802715 150.807091 
L 82.914043 154.839738 
L 68.025371 155.626596 
L 53.136699 156.511811 
z
" clip-path="url(#pcfd9e5416b)" style="fill: #006400; stroke: #006400; stroke-linejoin: miter"/>
   </g>
   <g id="patch_20">
    <path d="M 53.136699 156.511811 
L 68.025371 156.610168 
L 82.914043 154.938095 
L 97.802715 152.577521 
L 112.98916 140.479582 
L 127.877832 142.545084 
L 142.766504 133.692933 
L 157.655176 129.857001 
L 172.543848 142.840156 
L 187.43252 151.790664 
L 202.321191 154.839738 
L 217.209863 153.856165 
L 232.098535 156.413454 
L 246.987207 156.511811 
L 261.875879 156.413454 
L 276.764551 156.610168 
L 276.764551 156.315096 
L 261.875879 156.118382 
L 246.987207 156.413454 
L 232.098535 156.118382 
L 217.209863 152.774236 
L 202.321191 153.659451 
L 187.43252 150.118591 
L 172.543848 139.692724 
L 157.655176 125.037497 
L 142.766504 129.070143 
L 127.877832 139.299295 
L 112.98916 137.627222 
L 97.802715 150.610377 
L 82.914043 154.05288 
L 68.025371 156.216739 
L 53.136699 156.413454 
z
" clip-path="url(#pcfd9e5416b)" style="fill: #808080; opacity: 0.5; stroke: #808080; stroke-linejoin: miter"/>
   </g>
   <g id="patch_21">
    <path d="M 53.136699 156.511811 
L 68.025371 156.610168 
L 82.914043 154.839738 
L 97.802715 151.987378 
L 112.98916 139.987796 
L 127.877832 142.053298 
L 142.766504 133.201147 
L 157.655176 128.48 
L 172.543848 142.446727 
L 187.43252 151.593949 
L 202.321191 154.643023 
L 217.209863 153.659451 
L 232.098535 156.413454 
L 246.987207 156.511811 
L 261.875879 156.413454 
L 276.764551 156.610168 
L 276.764551 156.413454 
L 261.875879 156.216739 
L 246.987207 156.413454 
L 232.098535 156.216739 
L 217.209863 153.069308 
L 202.321191 153.856165 
L 187.43252 150.216948 
L 172.543848 140.086153 
L 157.655176 125.725997 
L 142.766504 130.053715 
L 127.877832 139.692724 
L 112.98916 137.922294 
L 97.802715 150.708734 
L 82.914043 154.151237 
L 68.025371 156.315096 
L 53.136699 156.413454 
z
" clip-path="url(#pcfd9e5416b)" style="fill: #00008b; stroke: #00008b; stroke-linejoin: miter"/>
   </g>
   <g id="patch_22">
    <path d="M 53.136699 156.610168 
L 68.025371 156.216739 
L 82.914043 156.413454 
L 97.802715 155.429881 
L 112.98916 149.528447 
L 127.877832 148.249803 
L 142.766504 143.03687 
L 157.655176 141.561511 
L 172.543848 138.512437 
L 187.43252 151.397235 
L 202.321191 156.020025 
L 217.209863 155.626596 
L 232.098535 156.315096 
L 246.987207 156.610168 
L 261.875879 156.511811 
L 276.764551 156.610168 
L 276.764551 156.511811 
L 261.875879 156.315096 
L 246.987207 156.118382 
L 232.098535 155.724953 
L 217.209863 154.643023 
L 202.321191 154.938095 
L 187.43252 148.741589 
L 172.543848 135.758435 
L 157.655176 136.938722 
L 142.766504 140.282867 
L 127.877832 145.692515 
L 112.98916 147.167874 
L 97.802715 154.249594 
L 82.914043 155.724953 
L 68.025371 155.724953 
L 53.136699 156.511811 
z
" clip-path="url(#pcfd9e5416b)" style="fill: #808080; opacity: 0.5; stroke: #808080; stroke-linejoin: miter"/>
   </g>
   <g id="patch_23">
    <path d="M 53.136699 156.610168 
L 68.025371 156.118382 
L 82.914043 156.315096 
L 97.802715 155.233167 
L 112.98916 148.938304 
L 127.877832 147.856374 
L 142.766504 142.545084 
L 157.655176 140.479582 
L 172.543848 138.119008 
L 187.43252 151.003806 
L 202.321191 155.724953 
L 217.209863 155.429881 
L 232.098535 156.315096 
L 246.987207 156.610168 
L 261.875879 156.511811 
L 276.764551 156.610168 
L 276.764551 156.511811 
L 261.875879 156.315096 
L 246.987207 156.216739 
L 232.098535 155.82331 
L 217.209863 154.839738 
L 202.321191 155.036452 
L 187.43252 149.331733 
L 172.543848 136.053507 
L 157.655176 137.823937 
L 142.766504 140.577939 
L 127.877832 146.184301 
L 112.98916 147.266231 
L 97.802715 154.347952 
L 82.914043 155.82331 
L 68.025371 155.82331 
L 53.136699 156.511811 
z
" clip-path="url(#pcfd9e5416b)" style="fill: #800080; stroke: #800080; stroke-linejoin: miter"/>
   </g>
   <g id="patch_24">
    <path d="M 45.84125 159.777271 
L 45.84125 90.101008 
" style="fill: none; stroke: #262626; stroke-width: 1.25; stroke-linejoin: miter; stroke-linecap: square"/>
   </g>
   <g id="patch_25">
    <path d="M 284.06 159.777271 
L 284.06 90.101008 
" style="fill: none; stroke: #262626; stroke-width: 1.25; stroke-linejoin: miter; stroke-linecap: square"/>
   </g>
   <g id="patch_26">
    <path d="M 45.84125 159.777271 
L 284.06 159.777271 
" style="fill: none; stroke: #262626; stroke-width: 1.25; stroke-linejoin: miter; stroke-linecap: square"/>
   </g>
   <g id="patch_27">
    <path d="M 45.84125 90.101008 
L 284.06 90.101008 
" style="fill: none; stroke: #262626; stroke-width: 1.25; stroke-linejoin: miter; stroke-linecap: square"/>
   </g>
   <g id="text_12">
    <!-- B -->
    <g style="fill: #262626" transform="translate(47.403875 101.520074) scale(0.096 -0.096)">
     <defs>
      <path id="LiberationSans-42" d="M 3931 1241 
Q 3931 906 3800 670 
Q 3669 434 3447 286 
Q 3225 138 2931 69 
Q 2638 0 2313 0 
L 525 0 
L 525 4403 
L 2125 4403 
Q 2491 4403 2778 4342 
Q 3066 4281 3266 4150 
Q 3466 4019 3570 3817 
Q 3675 3616 3675 3334 
Q 3675 3150 3623 2987 
Q 3572 2825 3467 2692 
Q 3363 2559 3205 2464 
Q 3047 2369 2838 2322 
Q 3103 2291 3308 2200 
Q 3513 2109 3650 1968 
Q 3788 1828 3859 1642 
Q 3931 1456 3931 1241 
z
M 3075 3263 
Q 3075 3619 2831 3772 
Q 2588 3925 2125 3925 
L 1122 3925 
L 1122 2531 
L 2125 2531 
Q 2388 2531 2569 2582 
Q 2750 2634 2862 2729 
Q 2975 2825 3025 2959 
Q 3075 3094 3075 3263 
z
M 3328 1288 
Q 3328 1497 3251 1644 
Q 3175 1791 3031 1884 
Q 2888 1978 2686 2022 
Q 2484 2066 2234 2066 
L 1122 2066 
L 1122 478 
L 2281 478 
Q 2509 478 2701 515 
Q 2894 553 3033 647 
Q 3172 741 3250 897 
Q 3328 1053 3328 1288 
z
" transform="scale(0.015625)"/>
     </defs>
     <use xlink:href="#LiberationSans-42"/>
    </g>
   </g>
  </g>
  <g id="axes_3">
   <g id="patch_28">
    <path d="M 45.84125 239.6025 
L 284.06 239.6025 
L 284.06 169.926237 
L 45.84125 169.926237 
z
" style="fill: #ffffff"/>
   </g>
   <g id="matplotlib.axis_5">
    <g id="xtick_19">
     <g id="line2d_45">
      <path d="M 45.84125 239.6025 
L 45.84125 169.926237 
" clip-path="url(#p3a19ad5310)" style="fill: none; stroke: #cccccc; stroke-width: 0.8; stroke-linecap: round"/>
     </g>
     <g id="line2d_46"/>
     <g id="text_13">
      <!-- −200 -->
      <g style="fill: #262626" transform="translate(36.831875 248.9) scale(0.08 -0.08)">
       <defs>
        <path id="LiberationSans-2212" d="M 316 1900 
L 316 2356 
L 3425 2356 
L 3425 1900 
L 316 1900 
z
" transform="scale(0.015625)"/>
       </defs>
       <use xlink:href="#LiberationSans-2212"/>
       <use xlink:href="#LiberationSans-32" x="58.398438"/>
       <use xlink:href="#LiberationSans-30" x="114.013672"/>
       <use xlink:href="#LiberationSans-30" x="169.628906"/>
      </g>
     </g>
    </g>
    <g id="xtick_20">
     <g id="line2d_47">
      <path d="M 75.618594 239.6025 
L 75.618594 169.926237 
" clip-path="url(#p3a19ad5310)" style="fill: none; stroke: #cccccc; stroke-width: 0.8; stroke-linecap: round"/>
     </g>
     <g id="line2d_48"/>
     <g id="text_14">
      <!-- −100 -->
      <g style="fill: #262626" transform="translate(66.609219 248.9) scale(0.08 -0.08)">
       <use xlink:href="#LiberationSans-2212"/>
       <use xlink:href="#LiberationSans-31" x="58.398438"/>
       <use xlink:href="#LiberationSans-30" x="114.013672"/>
       <use xlink:href="#LiberationSans-30" x="169.628906"/>
      </g>
     </g>
    </g>
    <g id="xtick_21">
     <g id="line2d_49">
      <path d="M 105.395938 239.6025 
L 105.395938 169.926237 
" clip-path="url(#p3a19ad5310)" style="fill: none; stroke: #cccccc; stroke-width: 0.8; stroke-linecap: round"/>
     </g>
     <g id="line2d_50"/>
     <g id="text_15">
      <!-- 0 -->
      <g style="fill: #262626" transform="translate(103.171563 248.9) scale(0.08 -0.08)">
       <use xlink:href="#LiberationSans-30"/>
      </g>
     </g>
    </g>
    <g id="xtick_22">
     <g id="line2d_51">
      <path d="M 135.173281 239.6025 
L 135.173281 169.926237 
" clip-path="url(#p3a19ad5310)" style="fill: none; stroke: #cccccc; stroke-width: 0.8; stroke-linecap: round"/>
     </g>
     <g id="line2d_52"/>
     <g id="text_16">
      <!-- 100 -->
      <g style="fill: #262626" transform="translate(128.500156 248.9) scale(0.08 -0.08)">
       <use xlink:href="#LiberationSans-31"/>
       <use xlink:href="#LiberationSans-30" x="55.615234"/>
       <use xlink:href="#LiberationSans-30" x="111.230469"/>
      </g>
     </g>
    </g>
    <g id="xtick_23">
     <g id="line2d_53">
      <path d="M 164.950625 239.6025 
L 164.950625 169.926237 
" clip-path="url(#p3a19ad5310)" style="fill: none; stroke: #cccccc; stroke-width: 0.8; stroke-linecap: round"/>
     </g>
     <g id="line2d_54"/>
     <g id="text_17">
      <!-- 200 -->
      <g style="fill: #262626" transform="translate(158.2775 248.9) scale(0.08 -0.08)">
       <use xlink:href="#LiberationSans-32"/>
       <use xlink:href="#LiberationSans-30" x="55.615234"/>
       <use xlink:href="#LiberationSans-30" x="111.230469"/>
      </g>
     </g>
    </g>
    <g id="xtick_24">
     <g id="line2d_55">
      <path d="M 194.727969 239.6025 
L 194.727969 169.926237 
" clip-path="url(#p3a19ad5310)" style="fill: none; stroke: #cccccc; stroke-width: 0.8; stroke-linecap: round"/>
     </g>
     <g id="line2d_56"/>
     <g id="text_18">
      <!-- 300 -->
      <g style="fill: #262626" transform="translate(188.054844 248.9) scale(0.08 -0.08)">
       <defs>
        <path id="LiberationSans-33" d="M 3278 1216 
Q 3278 913 3179 675 
Q 3081 438 2892 273 
Q 2703 109 2423 23 
Q 2144 -63 1784 -63 
Q 1375 -63 1095 39 
Q 816 141 634 308 
Q 453 475 362 689 
Q 272 903 244 1131 
L 825 1184 
Q 850 1009 917 865 
Q 984 722 1100 619 
Q 1216 516 1384 459 
Q 1553 403 1784 403 
Q 2209 403 2451 612 
Q 2694 822 2694 1234 
Q 2694 1478 2586 1626 
Q 2478 1775 2317 1858 
Q 2156 1941 1967 1969 
Q 1778 1997 1619 1997 
L 1300 1997 
L 1300 2484 
L 1606 2484 
Q 1766 2484 1937 2517 
Q 2109 2550 2251 2636 
Q 2394 2722 2486 2869 
Q 2578 3016 2578 3244 
Q 2578 3597 2370 3801 
Q 2163 4006 1753 4006 
Q 1381 4006 1151 3815 
Q 922 3625 884 3278 
L 319 3322 
Q 353 3613 478 3828 
Q 603 4044 795 4186 
Q 988 4328 1234 4398 
Q 1481 4469 1759 4469 
Q 2128 4469 2393 4376 
Q 2659 4284 2828 4126 
Q 2997 3969 3076 3756 
Q 3156 3544 3156 3303 
Q 3156 3109 3103 2940 
Q 3050 2772 2937 2637 
Q 2825 2503 2651 2406 
Q 2478 2309 2234 2259 
L 2234 2247 
Q 2500 2219 2697 2126 
Q 2894 2034 3022 1896 
Q 3150 1759 3214 1584 
Q 3278 1409 3278 1216 
z
" transform="scale(0.015625)"/>
       </defs>
       <use xlink:href="#LiberationSans-33"/>
       <use xlink:href="#LiberationSans-30" x="55.615234"/>
       <use xlink:href="#LiberationSans-30" x="111.230469"/>
      </g>
     </g>
    </g>
    <g id="xtick_25">
     <g id="line2d_57">
      <path d="M 224.505313 239.6025 
L 224.505313 169.926237 
" clip-path="url(#p3a19ad5310)" style="fill: none; stroke: #cccccc; stroke-width: 0.8; stroke-linecap: round"/>
     </g>
     <g id="line2d_58"/>
     <g id="text_19">
      <!-- 400 -->
      <g style="fill: #262626" transform="translate(217.832188 248.9) scale(0.08 -0.08)">
       <use xlink:href="#LiberationSans-34"/>
       <use xlink:href="#LiberationSans-30" x="55.615234"/>
       <use xlink:href="#LiberationSans-30" x="111.230469"/>
      </g>
     </g>
    </g>
    <g id="xtick_26">
     <g id="line2d_59">
      <path d="M 254.282656 239.6025 
L 254.282656 169.926237 
" clip-path="url(#p3a19ad5310)" style="fill: none; stroke: #cccccc; stroke-width: 0.8; stroke-linecap: round"/>
     </g>
     <g id="line2d_60"/>
     <g id="text_20">
      <!-- 500 -->
      <g style="fill: #262626" transform="translate(247.609531 248.9) scale(0.08 -0.08)">
       <use xlink:href="#LiberationSans-35"/>
       <use xlink:href="#LiberationSans-30" x="55.615234"/>
       <use xlink:href="#LiberationSans-30" x="111.230469"/>
      </g>
     </g>
    </g>
    <g id="xtick_27">
     <g id="line2d_61">
      <path d="M 284.06 239.6025 
L 284.06 169.926237 
" clip-path="url(#p3a19ad5310)" style="fill: none; stroke: #cccccc; stroke-width: 0.8; stroke-linecap: round"/>
     </g>
     <g id="line2d_62"/>
     <g id="text_21">
      <!-- 600 -->
      <g style="fill: #262626" transform="translate(277.386875 248.9) scale(0.08 -0.08)">
       <use xlink:href="#LiberationSans-36"/>
       <use xlink:href="#LiberationSans-30" x="55.615234"/>
       <use xlink:href="#LiberationSans-30" x="111.230469"/>
      </g>
     </g>
    </g>
   </g>
   <g id="matplotlib.axis_6">
    <g id="ytick_9">
     <g id="line2d_63"/>
     <g id="text_22">
      <!-- 0 -->
      <g style="fill: #262626" transform="translate(37.8925 239.334147) scale(0.08 -0.08)">
       <use xlink:href="#LiberationSans-30"/>
      </g>
     </g>
    </g>
    <g id="ytick_10">
     <g id="line2d_64"/>
     <g id="text_23">
      <!-- 100 -->
      <g style="fill: #262626" transform="translate(28.995 218.288238) scale(0.08 -0.08)">
       <use xlink:href="#LiberationSans-31"/>
       <use xlink:href="#LiberationSans-30" x="55.615234"/>
       <use xlink:href="#LiberationSans-30" x="111.230469"/>
      </g>
     </g>
    </g>
    <g id="ytick_11">
     <g id="line2d_65"/>
     <g id="text_24">
      <!-- 200 -->
      <g style="fill: #262626" transform="translate(28.995 197.242328) scale(0.08 -0.08)">
       <use xlink:href="#LiberationSans-32"/>
       <use xlink:href="#LiberationSans-30" x="55.615234"/>
       <use xlink:href="#LiberationSans-30" x="111.230469"/>
      </g>
     </g>
    </g>
    <g id="ytick_12">
     <g id="line2d_66"/>
     <g id="text_25">
      <!-- 300 -->
      <g style="fill: #262626" transform="translate(28.995 176.196419) scale(0.08 -0.08)">
       <use xlink:href="#LiberationSans-33"/>
       <use xlink:href="#LiberationSans-30" x="55.615234"/>
       <use xlink:href="#LiberationSans-30" x="111.230469"/>
      </g>
     </g>
    </g>
    <g id="text_26">
     <!-- N of occupations -->
     <g style="fill: #262626" transform="translate(14.718 234.557493) rotate(-90) scale(0.08 -0.08)">
      <use xlink:href="#LiberationSans-4e"/>
      <use xlink:href="#LiberationSans-20" x="72.216797"/>
      <use xlink:href="#LiberationSans-6f" x="100"/>
      <use xlink:href="#LiberationSans-66" x="155.615234"/>
      <use xlink:href="#LiberationSans-20" x="183.398438"/>
      <use xlink:href="#LiberationSans-6f" x="211.181641"/>
      <use xlink:href="#LiberationSans-63" x="266.796875"/>
      <use xlink:href="#LiberationSans-63" x="316.796875"/>
      <use xlink:href="#LiberationSans-75" x="366.796875"/>
      <use xlink:href="#LiberationSans-70" x="422.412109"/>
      <use xlink:href="#LiberationSans-61" x="478.027344"/>
      <use xlink:href="#LiberationSans-74" x="533.642578"/>
      <use xlink:href="#LiberationSans-69" x="561.425781"/>
      <use xlink:href="#LiberationSans-6f" x="583.642578"/>
      <use xlink:href="#LiberationSans-6e" x="639.257812"/>
      <use xlink:href="#LiberationSans-73" x="694.873047"/>
     </g>
     <!-- per 1,000 inscriptions -->
     <g style="fill: #262626" transform="translate(23.335 242.783118) rotate(-90) scale(0.08 -0.08)">
      <defs>
       <path id="LiberationSans-65" d="M 863 1572 
Q 863 1306 917 1082 
Q 972 859 1086 698 
Q 1200 538 1378 448 
Q 1556 359 1806 359 
Q 2172 359 2392 506 
Q 2613 653 2691 878 
L 3184 738 
Q 3131 597 3036 455 
Q 2941 313 2781 198 
Q 2622 84 2383 10 
Q 2144 -63 1806 -63 
Q 1056 -63 664 384 
Q 272 831 272 1713 
Q 272 2188 390 2517 
Q 509 2847 715 3053 
Q 922 3259 1197 3351 
Q 1472 3444 1784 3444 
Q 2209 3444 2495 3306 
Q 2781 3169 2954 2926 
Q 3128 2684 3201 2356 
Q 3275 2028 3275 1647 
L 3275 1572 
L 863 1572 
z
M 2694 2003 
Q 2647 2538 2422 2783 
Q 2197 3028 1775 3028 
Q 1634 3028 1479 2983 
Q 1325 2938 1194 2822 
Q 1063 2706 972 2507 
Q 881 2309 869 2003 
L 2694 2003 
z
" transform="scale(0.015625)"/>
       <path id="LiberationSans-2c" d="M 1203 684 
L 1203 159 
Q 1203 -6 1189 -142 
Q 1175 -278 1144 -395 
Q 1113 -513 1067 -616 
Q 1022 -719 959 -819 
L 575 -819 
Q 716 -616 792 -409 
Q 869 -203 869 0 
L 594 0 
L 594 684 
L 1203 684 
z
" transform="scale(0.015625)"/>
      </defs>
      <use xlink:href="#LiberationSans-70"/>
      <use xlink:href="#LiberationSans-65" x="55.615234"/>
      <use xlink:href="#LiberationSans-72" x="111.230469"/>
      <use xlink:href="#LiberationSans-20" x="144.53125"/>
      <use xlink:href="#LiberationSans-31" x="172.314453"/>
      <use xlink:href="#LiberationSans-2c" x="227.929688"/>
      <use xlink:href="#LiberationSans-30" x="255.712891"/>
      <use xlink:href="#LiberationSans-30" x="311.328125"/>
      <use xlink:href="#LiberationSans-30" x="366.943359"/>
      <use xlink:href="#LiberationSans-20" x="422.558594"/>
      <use xlink:href="#LiberationSans-69" x="450.341797"/>
      <use xlink:href="#LiberationSans-6e" x="472.558594"/>
      <use xlink:href="#LiberationSans-73" x="528.173828"/>
      <use xlink:href="#LiberationSans-63" x="578.173828"/>
      <use xlink:href="#LiberationSans-72" x="628.173828"/>
      <use xlink:href="#LiberationSans-69" x="661.474609"/>
      <use xlink:href="#LiberationSans-70" x="683.691406"/>
      <use xlink:href="#LiberationSans-74" x="739.306641"/>
      <use xlink:href="#LiberationSans-69" x="767.089844"/>
      <use xlink:href="#LiberationSans-6f" x="789.306641"/>
      <use xlink:href="#LiberationSans-6e" x="844.921875"/>
      <use xlink:href="#LiberationSans-73" x="900.537109"/>
     </g>
    </g>
   </g>
   <g id="patch_29">
    <path d="M 53.136699 236.435397 
L 68.025371 181.051425 
L 82.914043 217.881069 
L 97.802715 219.006281 
L 112.98916 219.878385 
L 127.877832 226.913117 
L 142.766504 225.029631 
L 157.655176 222.514245 
L 172.543848 225.046257 
L 187.43252 232.059858 
L 202.321191 235.12208 
L 217.209863 234.149869 
L 232.098535 234.558253 
L 246.987207 235.37965 
L 261.875879 229.535099 
L 276.764551 231.03901 
" clip-path="url(#p3a19ad5310)" style="fill: #808080; opacity: 0.5; stroke: #808080; stroke-linejoin: miter"/>
   </g>
   <g id="patch_30">
    <path d="M 53.136699 236.435397 
L 68.025371 173.09334 
L 82.914043 212.699409 
L 97.802715 216.301043 
L 112.98916 218.895109 
L 127.877832 225.766033 
L 142.766504 224.336707 
L 157.655176 221.288074 
L 172.543848 224.021907 
L 187.43252 231.290451 
L 202.321191 234.87018 
L 217.209863 233.934806 
L 232.098535 234.186023 
L 246.987207 234.973876 
L 261.875879 227.810024 
L 276.764551 227.84523 
" clip-path="url(#p3a19ad5310)" style="fill: #8b0000; stroke: #8b0000; stroke-linejoin: miter"/>
   </g>
   <g id="patch_31">
    <path d="M 53.136699 236.435397 
L 68.025371 232.806792 
L 82.914043 233.348664 
L 97.802715 230.900099 
L 112.98916 229.844247 
L 127.877832 230.27502 
L 142.766504 227.914266 
L 157.655176 226.540271 
L 172.543848 226.951665 
L 187.43252 230.544479 
L 202.321191 228.355615 
L 217.209863 232.544557 
L 232.098535 234.760101 
L 246.987207 235.442666 
L 261.875879 233.643237 
L 276.764551 234.522133 
" clip-path="url(#p3a19ad5310)" style="fill: #808080; opacity: 0.5; stroke: #808080; stroke-linejoin: miter"/>
   </g>
   <g id="patch_32">
    <path d="M 53.136699 236.435397 
L 68.025371 230.163437 
L 82.914043 231.841474 
L 97.802715 228.849081 
L 112.98916 228.674699 
L 127.877832 229.680714 
L 142.766504 226.827482 
L 157.655176 225.374924 
L 172.543848 226.177581 
L 187.43252 229.036445 
L 202.321191 226.968379 
L 217.209863 231.475082 
L 232.098535 233.922453 
L 246.987207 234.379631 
L 261.875879 232.247156 
L 276.764551 232.868294 
" clip-path="url(#p3a19ad5310)" style="fill: #006400; stroke: #006400; stroke-linejoin: miter"/>
   </g>
   <g id="patch_33">
    <path d="M 53.136699 234.84101 
L 68.025371 236.435397 
L 82.914043 231.075179 
L 97.802715 231.21365 
L 112.98916 228.799875 
L 127.877832 229.57726 
L 142.766504 224.253366 
L 157.655176 223.098849 
L 172.543848 228.251865 
L 187.43252 230.946061 
L 202.321191 230.294681 
L 217.209863 225.466845 
L 232.098535 235.396093 
L 246.987207 235.872672 
L 261.875879 235.128198 
L 276.764551 236.435397 
" clip-path="url(#p3a19ad5310)" style="fill: #808080; opacity: 0.5; stroke: #808080; stroke-linejoin: miter"/>
   </g>
   <g id="patch_34">
    <path d="M 53.136699 234.589265 
L 68.025371 234.56465 
L 82.914043 229.682699 
L 97.802715 229.540481 
L 112.98916 227.987932 
L 127.877832 228.406868 
L 142.766504 223.183273 
L 157.655176 222.00846 
L 172.543848 227.340089 
L 187.43252 229.649762 
L 202.321191 228.296095 
L 217.209863 223.260034 
L 232.098535 234.782577 
L 246.987207 235.803388 
L 261.875879 234.330806 
L 276.764551 235.35612 
" clip-path="url(#p3a19ad5310)" style="fill: #00008b; stroke: #00008b; stroke-linejoin: miter"/>
   </g>
   <g id="patch_35">
    <path d="M 53.136699 236.435397 
L 68.025371 232.677199 
L 82.914043 234.751724 
L 97.802715 232.81373 
L 112.98916 232.364809 
L 127.877832 232.269508 
L 142.766504 231.805966 
L 157.655176 231.805152 
L 172.543848 230.644153 
L 187.43252 233.0043 
L 202.321191 235.452709 
L 217.209863 234.184498 
L 232.098535 235.122762 
L 246.987207 236.435397 
L 261.875879 235.707165 
L 276.764551 236.435397 
" clip-path="url(#p3a19ad5310)" style="fill: #808080; opacity: 0.5; stroke: #808080; stroke-linejoin: miter"/>
   </g>
   <g id="patch_36">
    <path d="M 53.136699 236.435397 
L 68.025371 230.703048 
L 82.914043 230.968927 
L 97.802715 231.332121 
L 112.98916 231.613172 
L 127.877832 231.733086 
L 142.766504 231.2155 
L 157.655176 231.17814 
L 172.543848 230.18598 
L 187.43252 232.022906 
L 202.321191 233.96522 
L 217.209863 232.712395 
L 232.098535 233.76007 
L 246.987207 235.20823 
L 261.875879 234.893572 
L 276.764551 235.504162 
" clip-path="url(#p3a19ad5310)" style="fill: #800080; stroke: #800080; stroke-linejoin: miter"/>
   </g>
   <g id="patch_37">
    <path d="M 45.84125 239.6025 
L 45.84125 169.926237 
" style="fill: none; stroke: #262626; stroke-width: 1.25; stroke-linejoin: miter; stroke-linecap: square"/>
   </g>
   <g id="patch_38">
    <path d="M 284.06 239.6025 
L 284.06 169.926237 
" style="fill: none; stroke: #262626; stroke-width: 1.25; stroke-linejoin: miter; stroke-linecap: square"/>
   </g>
   <g id="patch_39">
    <path d="M 45.84125 239.6025 
L 284.06 239.6025 
" style="fill: none; stroke: #262626; stroke-width: 1.25; stroke-linejoin: miter; stroke-linecap: square"/>
   </g>
   <g id="patch_40">
    <path d="M 45.84125 169.926237 
L 284.06 169.926237 
" style="fill: none; stroke: #262626; stroke-width: 1.25; stroke-linejoin: miter; stroke-linecap: square"/>
   </g>
   <g id="text_27">
    <!-- C -->
    <g style="fill: #262626" transform="translate(47.139125 181.345303) scale(0.096 -0.096)">
     <defs>
      <path id="LiberationSans-43" d="M 2475 3981 
Q 2100 3981 1811 3856 
Q 1522 3731 1326 3500 
Q 1131 3269 1031 2944 
Q 931 2619 931 2222 
Q 931 1825 1039 1495 
Q 1147 1166 1348 928 
Q 1550 691 1842 559 
Q 2134 428 2500 428 
Q 2756 428 2967 495 
Q 3178 563 3348 684 
Q 3519 806 3653 973 
Q 3788 1141 3891 1344 
L 4378 1100 
Q 4259 853 4084 640 
Q 3909 428 3673 272 
Q 3438 116 3139 26 
Q 2841 -63 2472 -63 
Q 1938 -63 1536 107 
Q 1134 278 864 583 
Q 594 888 459 1306 
Q 325 1725 325 2222 
Q 325 2738 467 3153 
Q 609 3569 882 3861 
Q 1156 4153 1556 4311 
Q 1956 4469 2469 4469 
Q 3172 4469 3644 4194 
Q 4116 3919 4338 3378 
L 3772 3191 
Q 3709 3347 3603 3489 
Q 3497 3631 3337 3740 
Q 3178 3850 2964 3915 
Q 2750 3981 2475 3981 
z
" transform="scale(0.015625)"/>
     </defs>
     <use xlink:href="#LiberationSans-43"/>
    </g>
   </g>
   <g id="legend_1">
    <g id="text_28">
     <!-- Legend -->
     <g style="fill: #262626" transform="translate(313.56375 184.9125) scale(0.08 -0.08)">
      <defs>
       <path id="LiberationSans-4c" d="M 525 0 
L 525 4403 
L 1122 4403 
L 1122 488 
L 3347 488 
L 3347 0 
L 525 0 
z
" transform="scale(0.015625)"/>
       <path id="LiberationSans-67" d="M 1713 -1328 
Q 1422 -1328 1197 -1268 
Q 972 -1209 812 -1098 
Q 653 -988 553 -834 
Q 453 -681 409 -494 
L 975 -413 
Q 1031 -647 1223 -773 
Q 1416 -900 1728 -900 
Q 1919 -900 2075 -847 
Q 2231 -794 2340 -676 
Q 2450 -559 2509 -371 
Q 2569 -184 2569 84 
L 2569 628 
L 2563 628 
Q 2500 500 2408 383 
Q 2316 266 2183 175 
Q 2050 84 1875 29 
Q 1700 -25 1475 -25 
Q 1153 -25 923 83 
Q 694 191 548 406 
Q 403 622 336 942 
Q 269 1263 269 1684 
Q 269 2091 336 2416 
Q 403 2741 554 2967 
Q 706 3194 948 3314 
Q 1191 3434 1538 3434 
Q 1897 3434 2161 3270 
Q 2425 3106 2569 2803 
L 2575 2803 
Q 2575 2881 2579 2978 
Q 2584 3075 2589 3161 
Q 2594 3247 2600 3309 
Q 2606 3372 2613 3381 
L 3147 3381 
Q 3144 3353 3141 3286 
Q 3138 3219 3134 3125 
Q 3131 3031 3129 2917 
Q 3128 2803 3128 2681 
L 3128 97 
Q 3128 -613 2779 -970 
Q 2431 -1328 1713 -1328 
z
M 2569 1691 
Q 2569 2044 2492 2295 
Q 2416 2547 2291 2706 
Q 2166 2866 2005 2941 
Q 1844 3016 1675 3016 
Q 1459 3016 1304 2941 
Q 1150 2866 1048 2705 
Q 947 2544 898 2292 
Q 850 2041 850 1691 
Q 850 1325 898 1076 
Q 947 828 1047 675 
Q 1147 522 1300 456 
Q 1453 391 1666 391 
Q 1834 391 1995 462 
Q 2156 534 2284 690 
Q 2413 847 2491 1094 
Q 2569 1341 2569 1691 
z
" transform="scale(0.015625)"/>
       <path id="LiberationSans-64" d="M 2566 544 
Q 2409 219 2151 78 
Q 1894 -63 1513 -63 
Q 872 -63 570 368 
Q 269 800 269 1675 
Q 269 3444 1513 3444 
Q 1897 3444 2153 3303 
Q 2409 3163 2566 2856 
L 2572 2856 
Q 2572 2888 2570 2955 
Q 2569 3022 2567 3095 
Q 2566 3169 2566 3234 
Q 2566 3300 2566 3328 
L 2566 4638 
L 3128 4638 
L 3128 697 
Q 3128 575 3129 462 
Q 3131 350 3134 256 
Q 3138 163 3141 95 
Q 3144 28 3147 0 
L 2609 0 
Q 2603 31 2598 89 
Q 2594 147 2589 222 
Q 2584 297 2581 380 
Q 2578 463 2578 544 
L 2566 544 
z
M 859 1694 
Q 859 1344 903 1094 
Q 947 844 1044 683 
Q 1141 522 1291 447 
Q 1441 372 1656 372 
Q 1878 372 2048 444 
Q 2219 516 2333 677 
Q 2447 838 2506 1097 
Q 2566 1356 2566 1731 
Q 2566 2091 2506 2339 
Q 2447 2588 2331 2741 
Q 2216 2894 2048 2961 
Q 1881 3028 1663 3028 
Q 1456 3028 1306 2956 
Q 1156 2884 1056 2725 
Q 956 2566 907 2311 
Q 859 2056 859 1694 
z
" transform="scale(0.015625)"/>
      </defs>
      <use xlink:href="#LiberationSans-4c"/>
      <use xlink:href="#LiberationSans-65" x="55.615234"/>
      <use xlink:href="#LiberationSans-67" x="111.230469"/>
      <use xlink:href="#LiberationSans-65" x="166.845703"/>
      <use xlink:href="#LiberationSans-6e" x="222.460938"/>
      <use xlink:href="#LiberationSans-64" x="278.076172"/>
     </g>
    </g>
    <g id="line2d_67">
     <path d="M 291.26 193.57 
L 299.26 193.57 
L 307.26 193.57 
" style="fill: none; stroke: #8b0000; stroke-width: 2; stroke-linecap: round"/>
    </g>
    <g id="text_29">
     <!-- large cities -->
     <g style="fill: #262626" transform="translate(313.66 196.37) scale(0.08 -0.08)">
      <defs>
       <path id="LiberationSans-6c" d="M 431 0 
L 431 4638 
L 994 4638 
L 994 0 
L 431 0 
z
" transform="scale(0.015625)"/>
      </defs>
      <use xlink:href="#LiberationSans-6c"/>
      <use xlink:href="#LiberationSans-61" x="22.216797"/>
      <use xlink:href="#LiberationSans-72" x="77.832031"/>
      <use xlink:href="#LiberationSans-67" x="111.132812"/>
      <use xlink:href="#LiberationSans-65" x="166.748047"/>
      <use xlink:href="#LiberationSans-20" x="222.363281"/>
      <use xlink:href="#LiberationSans-63" x="250.146484"/>
      <use xlink:href="#LiberationSans-69" x="300.146484"/>
      <use xlink:href="#LiberationSans-74" x="322.363281"/>
      <use xlink:href="#LiberationSans-69" x="350.146484"/>
      <use xlink:href="#LiberationSans-65" x="372.363281"/>
      <use xlink:href="#LiberationSans-73" x="427.978516"/>
     </g>
    </g>
    <g id="line2d_68">
     <path d="M 291.26 205.0275 
L 299.26 205.0275 
L 307.26 205.0275 
" style="fill: none; stroke: #006400; stroke-width: 2; stroke-linecap: round"/>
    </g>
    <g id="text_30">
     <!-- medium cities -->
     <g style="fill: #262626" transform="translate(313.66 207.8275) scale(0.08 -0.08)">
      <defs>
       <path id="LiberationSans-6d" d="M 2400 0 
L 2400 2144 
Q 2400 2391 2369 2556 
Q 2338 2722 2264 2823 
Q 2191 2925 2072 2967 
Q 1953 3009 1781 3009 
Q 1603 3009 1459 2939 
Q 1316 2869 1214 2736 
Q 1113 2603 1058 2408 
Q 1003 2213 1003 1959 
L 1003 0 
L 444 0 
L 444 2659 
Q 444 2766 442 2883 
Q 441 3000 437 3104 
Q 434 3209 431 3284 
Q 428 3359 425 3381 
L 956 3381 
Q 959 3366 962 3297 
Q 966 3228 970 3139 
Q 975 3050 978 2958 
Q 981 2866 981 2803 
L 991 2803 
Q 1066 2950 1153 3069 
Q 1241 3188 1358 3270 
Q 1475 3353 1626 3398 
Q 1778 3444 1978 3444 
Q 2363 3444 2586 3291 
Q 2809 3138 2897 2803 
L 2906 2803 
Q 2981 2950 3075 3069 
Q 3169 3188 3294 3270 
Q 3419 3353 3575 3398 
Q 3731 3444 3931 3444 
Q 4188 3444 4373 3375 
Q 4559 3306 4678 3162 
Q 4797 3019 4853 2792 
Q 4909 2566 4909 2253 
L 4909 0 
L 4353 0 
L 4353 2144 
Q 4353 2391 4322 2556 
Q 4291 2722 4217 2823 
Q 4144 2925 4025 2967 
Q 3906 3009 3734 3009 
Q 3556 3009 3412 2942 
Q 3269 2875 3167 2744 
Q 3066 2613 3011 2416 
Q 2956 2219 2956 1959 
L 2956 0 
L 2400 0 
z
" transform="scale(0.015625)"/>
      </defs>
      <use xlink:href="#LiberationSans-6d"/>
      <use xlink:href="#LiberationSans-65" x="83.300781"/>
      <use xlink:href="#LiberationSans-64" x="138.916016"/>
      <use xlink:href="#LiberationSans-69" x="194.53125"/>
      <use xlink:href="#LiberationSans-75" x="216.748047"/>
      <use xlink:href="#LiberationSans-6d" x="272.363281"/>
      <use xlink:href="#LiberationSans-20" x="355.664062"/>
      <use xlink:href="#LiberationSans-63" x="383.447266"/>
      <use xlink:href="#LiberationSans-69" x="433.447266"/>
      <use xlink:href="#LiberationSans-74" x="455.664062"/>
      <use xlink:href="#LiberationSans-69" x="483.447266"/>
      <use xlink:href="#LiberationSans-65" x="505.664062"/>
      <use xlink:href="#LiberationSans-73" x="561.279297"/>
     </g>
    </g>
    <g id="line2d_69">
     <path d="M 291.26 216.485 
L 299.26 216.485 
L 307.26 216.485 
" style="fill: none; stroke: #00008b; stroke-width: 2; stroke-linecap: round"/>
    </g>
    <g id="text_31">
     <!-- small cities -->
     <g style="fill: #262626" transform="translate(313.66 219.285) scale(0.08 -0.08)">
      <use xlink:href="#LiberationSans-73"/>
      <use xlink:href="#LiberationSans-6d" x="50"/>
      <use xlink:href="#LiberationSans-61" x="133.300781"/>
      <use xlink:href="#LiberationSans-6c" x="188.916016"/>
      <use xlink:href="#LiberationSans-6c" x="211.132812"/>
      <use xlink:href="#LiberationSans-20" x="233.349609"/>
      <use xlink:href="#LiberationSans-63" x="261.132812"/>
      <use xlink:href="#LiberationSans-69" x="311.132812"/>
      <use xlink:href="#LiberationSans-74" x="333.349609"/>
      <use xlink:href="#LiberationSans-69" x="361.132812"/>
      <use xlink:href="#LiberationSans-65" x="383.349609"/>
      <use xlink:href="#LiberationSans-73" x="438.964844"/>
     </g>
    </g>
    <g id="line2d_70">
     <path d="M 291.26 227.9425 
L 299.26 227.9425 
L 307.26 227.9425 
" style="fill: none; stroke: #800080; stroke-width: 2; stroke-linecap: round"/>
    </g>
    <g id="text_32">
     <!-- rural areas -->
     <g style="fill: #262626" transform="translate(313.66 230.7425) scale(0.08 -0.08)">
      <use xlink:href="#LiberationSans-72"/>
      <use xlink:href="#LiberationSans-75" x="33.300781"/>
      <use xlink:href="#LiberationSans-72" x="88.916016"/>
      <use xlink:href="#LiberationSans-61" x="122.216797"/>
      <use xlink:href="#LiberationSans-6c" x="177.832031"/>
      <use xlink:href="#LiberationSans-20" x="200.048828"/>
      <use xlink:href="#LiberationSans-61" x="227.832031"/>
      <use xlink:href="#LiberationSans-72" x="283.447266"/>
      <use xlink:href="#LiberationSans-65" x="316.748047"/>
      <use xlink:href="#LiberationSans-61" x="372.363281"/>
      <use xlink:href="#LiberationSans-73" x="427.978516"/>
     </g>
    </g>
   </g>
  </g>
 </g>
 <defs>
  <clipPath id="pf470a28f4b">
   <rect x="45.84125" y="10.275779" width="238.21875" height="69.676263"/>
  </clipPath>
  <clipPath id="pcfd9e5416b">
   <rect x="45.84125" y="90.101008" width="238.21875" height="69.676263"/>
  </clipPath>
  <clipPath id="p3a19ad5310">
   <rect x="45.84125" y="169.926237" width="238.21875" height="69.676263"/>
  </clipPath>
 </defs>
</svg>
