<?xml version="1.0" encoding="utf-8" standalone="no"?>
<!DOCTYPE svg PUBLIC "-//W3C//DTD SVG 1.1//EN"
  "http://www.w3.org/Graphics/SVG/1.1/DTD/svg11.dtd">
<svg xmlns:xlink="http://www.w3.org/1999/xlink" width="720pt" height="360pt" viewBox="0 0 720 360" xmlns="http://www.w3.org/2000/svg" version="1.1">
 <metadata>
  <rdf:RDF xmlns:dc="http://purl.org/dc/elements/1.1/" xmlns:cc="http://creativecommons.org/ns#" xmlns:rdf="http://www.w3.org/1999/02/22-rdf-syntax-ns#">
   <cc:Work>
    <dc:type rdf:resource="http://purl.org/dc/dcmitype/StillImage"/>
    <dc:date>2023-11-21T09:20:37.490760</dc:date>
    <dc:format>image/svg+xml</dc:format>
    <dc:creator>
     <cc:Agent>
      <dc:title>Matplotlib v3.8.0, https://matplotlib.org/</dc:title>
     </cc:Agent>
    </dc:creator>
   </cc:Work>
  </rdf:RDF>
 </metadata>
 <defs>
  <style type="text/css">*{stroke-linejoin: round; stroke-linecap: butt}</style>
 </defs>
 <g id="figure_1">
  <g id="patch_1">
   <path d="M 0 360 
L 720 360 
L 720 0 
L 0 0 
z
" style="fill: #ffffff"/>
  </g>
  <g id="axes_1">
   <g id="LineCollection_1">
    <path d="M 211.262374 254.593488 
L 242.462466 219.87122 
" clip-path="url(#pe26fca1abe)" style="fill: none; stroke: #808080; stroke-opacity: 0.5; stroke-width: 2.321928"/>
    <path d="M 211.262374 254.593488 
L 271.854577 181.026917 
" clip-path="url(#pe26fca1abe)" style="fill: none; stroke: #808080; stroke-opacity: 0.5; stroke-width: 3.321928"/>
    <path d="M 211.262374 254.593488 
L 494.916242 67.254545 
" clip-path="url(#pe26fca1abe)" style="fill: none; stroke: #808080; stroke-opacity: 0.5; stroke-width: 4.643856"/>
    <path d="M 211.262374 254.593488 
L 141.428137 265.43636 
" clip-path="url(#pe26fca1abe)" style="fill: none; stroke: #808080; stroke-opacity: 0.5; stroke-width: 2.321928"/>
    <path d="M 211.262374 254.593488 
L 360.770683 253.096934 
" clip-path="url(#pe26fca1abe)" style="fill: none; stroke: #808080; stroke-opacity: 0.5; stroke-width: 3.906891"/>
    <path d="M 211.262374 254.593488 
L 284.308783 245.649993 
" clip-path="url(#pe26fca1abe)" style="fill: none; stroke: #808080; stroke-opacity: 0.5; stroke-width: 2.321928"/>
    <path d="M 211.262374 254.593488 
L 370.594568 136.174008 
" clip-path="url(#pe26fca1abe)" style="fill: none; stroke: #808080; stroke-opacity: 0.5; stroke-width: 3.906891"/>
    <path d="M 211.262374 254.593488 
L 300.988859 131.960674 
" clip-path="url(#pe26fca1abe)" style="fill: none; stroke: #808080; stroke-opacity: 0.5; stroke-width: 5.643856"/>
    <path d="M 333.013889 216.726961 
L 242.462466 219.87122 
" clip-path="url(#pe26fca1abe)" style="fill: none; stroke: #808080; stroke-opacity: 0.5; stroke-width: 2.321928"/>
    <path d="M 333.013889 216.726961 
L 271.854577 181.026917 
" clip-path="url(#pe26fca1abe)" style="fill: none; stroke: #808080; stroke-opacity: 0.5; stroke-width: 3.321928"/>
    <path d="M 333.013889 216.726961 
L 494.916242 67.254545 
" clip-path="url(#pe26fca1abe)" style="fill: none; stroke: #808080; stroke-opacity: 0.5; stroke-width: 4.906891"/>
    <path d="M 333.013889 216.726961 
L 409.252357 214.450279 
" clip-path="url(#pe26fca1abe)" style="fill: none; stroke: #808080; stroke-opacity: 0.5; stroke-width: 2.321928"/>
    <path d="M 333.013889 216.726961 
L 360.770683 253.096934 
" clip-path="url(#pe26fca1abe)" style="fill: none; stroke: #808080; stroke-opacity: 0.5; stroke-width: 2.321928"/>
    <path d="M 437.488445 245.09254 
L 242.462466 219.87122 
" clip-path="url(#pe26fca1abe)" style="fill: none; stroke: #808080; stroke-opacity: 0.5; stroke-width: 4.643856"/>
    <path d="M 437.488445 245.09254 
L 494.916242 67.254545 
" clip-path="url(#pe26fca1abe)" style="fill: none; stroke: #808080; stroke-opacity: 0.5; stroke-width: 3.906891"/>
    <path d="M 437.488445 245.09254 
L 409.252357 214.450279 
" clip-path="url(#pe26fca1abe)" style="fill: none; stroke: #808080; stroke-opacity: 0.5; stroke-width: 2.321928"/>
    <path d="M 437.488445 245.09254 
L 360.770683 253.096934 
" clip-path="url(#pe26fca1abe)" style="fill: none; stroke: #808080; stroke-opacity: 0.5; stroke-width: 2.321928"/>
    <path d="M 437.488445 245.09254 
L 284.308783 245.649993 
" clip-path="url(#pe26fca1abe)" style="fill: none; stroke: #808080; stroke-opacity: 0.5; stroke-width: 3.321928"/>
    <path d="M 437.488445 245.09254 
L 370.594568 136.174008 
" clip-path="url(#pe26fca1abe)" style="fill: none; stroke: #808080; stroke-opacity: 0.5; stroke-width: 3.321928"/>
    <path d="M 494.916242 67.254545 
L 242.462466 219.87122 
" clip-path="url(#pe26fca1abe)" style="fill: none; stroke: #808080; stroke-opacity: 0.5; stroke-width: 8.84549"/>
    <path d="M 494.916242 67.254545 
L 271.854577 181.026917 
" clip-path="url(#pe26fca1abe)" style="fill: none; stroke: #808080; stroke-opacity: 0.5; stroke-width: 6.491853"/>
    <path d="M 494.916242 67.254545 
L 141.428137 265.43636 
" clip-path="url(#pe26fca1abe)" style="fill: none; stroke: #808080; stroke-opacity: 0.5; stroke-width: 8.588715"/>
    <path d="M 494.916242 67.254545 
L 409.252357 214.450279 
" clip-path="url(#pe26fca1abe)" style="fill: none; stroke: #808080; stroke-opacity: 0.5; stroke-width: 5.491853"/>
    <path d="M 494.916242 67.254545 
L 360.770683 253.096934 
" clip-path="url(#pe26fca1abe)" style="fill: none; stroke: #808080; stroke-opacity: 0.5; stroke-width: 6.491853"/>
    <path d="M 494.916242 67.254545 
L 284.308783 245.649993 
" clip-path="url(#pe26fca1abe)" style="fill: none; stroke: #808080; stroke-opacity: 0.5; stroke-width: 4.321928"/>
    <path d="M 494.916242 67.254545 
L 596.571863 88.290316 
" clip-path="url(#pe26fca1abe)" style="fill: none; stroke: #808080; stroke-opacity: 0.5; stroke-width: 3.321928"/>
    <path d="M 494.916242 67.254545 
L 297.123247 296.345455 
" clip-path="url(#pe26fca1abe)" style="fill: none; stroke: #808080; stroke-opacity: 0.5; stroke-width: 6.129283"/>
    <path d="M 494.916242 67.254545 
L 370.594568 136.174008 
" clip-path="url(#pe26fca1abe)" style="fill: none; stroke: #808080; stroke-opacity: 0.5; stroke-width: 7.643856"/>
    <path d="M 494.916242 67.254545 
L 300.988859 131.960674 
" clip-path="url(#pe26fca1abe)" style="fill: none; stroke: #808080; stroke-opacity: 0.5; stroke-width: 4.643856"/>
    <path d="M 242.462466 219.87122 
L 271.854577 181.026917 
" clip-path="url(#pe26fca1abe)" style="fill: none; stroke: #808080; stroke-opacity: 0.5; stroke-width: 4.321928"/>
    <path d="M 242.462466 219.87122 
L 141.428137 265.43636 
" clip-path="url(#pe26fca1abe)" style="fill: none; stroke: #808080; stroke-opacity: 0.5; stroke-width: 6.643856"/>
    <path d="M 242.462466 219.87122 
L 409.252357 214.450279 
" clip-path="url(#pe26fca1abe)" style="fill: none; stroke: #808080; stroke-opacity: 0.5; stroke-width: 4.906891"/>
    <path d="M 242.462466 219.87122 
L 360.770683 253.096934 
" clip-path="url(#pe26fca1abe)" style="fill: none; stroke: #808080; stroke-opacity: 0.5; stroke-width: 3.321928"/>
    <path d="M 242.462466 219.87122 
L 284.308783 245.649993 
" clip-path="url(#pe26fca1abe)" style="fill: none; stroke: #808080; stroke-opacity: 0.5; stroke-width: 3.321928"/>
    <path d="M 242.462466 219.87122 
L 297.123247 296.345455 
" clip-path="url(#pe26fca1abe)" style="fill: none; stroke: #808080; stroke-opacity: 0.5; stroke-width: 3.321928"/>
    <path d="M 242.462466 219.87122 
L 370.594568 136.174008 
" clip-path="url(#pe26fca1abe)" style="fill: none; stroke: #808080; stroke-opacity: 0.5; stroke-width: 7.714246"/>
    <path d="M 300.988859 131.960674 
L 271.854577 181.026917 
" clip-path="url(#pe26fca1abe)" style="fill: none; stroke: #808080; stroke-opacity: 0.5; stroke-width: 2.321928"/>
    <path d="M 300.988859 131.960674 
L 141.428137 265.43636 
" clip-path="url(#pe26fca1abe)" style="fill: none; stroke: #808080; stroke-opacity: 0.5; stroke-width: 5.129283"/>
    <path d="M 300.988859 131.960674 
L 596.571863 88.290316 
" clip-path="url(#pe26fca1abe)" style="fill: none; stroke: #808080; stroke-opacity: 0.5; stroke-width: 3.906891"/>
    <path d="M 300.988859 131.960674 
L 370.594568 136.174008 
" clip-path="url(#pe26fca1abe)" style="fill: none; stroke: #808080; stroke-opacity: 0.5; stroke-width: 2.321928"/>
    <path d="M 271.854577 181.026917 
L 141.428137 265.43636 
" clip-path="url(#pe26fca1abe)" style="fill: none; stroke: #808080; stroke-opacity: 0.5; stroke-width: 8.491853"/>
    <path d="M 271.854577 181.026917 
L 284.308783 245.649993 
" clip-path="url(#pe26fca1abe)" style="fill: none; stroke: #808080; stroke-opacity: 0.5; stroke-width: 2.321928"/>
    <path d="M 297.123247 296.345455 
L 141.428137 265.43636 
" clip-path="url(#pe26fca1abe)" style="fill: none; stroke: #808080; stroke-opacity: 0.5; stroke-width: 4.643856"/>
    <path d="M 297.123247 296.345455 
L 409.252357 214.450279 
" clip-path="url(#pe26fca1abe)" style="fill: none; stroke: #808080; stroke-opacity: 0.5; stroke-width: 3.321928"/>
    <path d="M 297.123247 296.345455 
L 284.308783 245.649993 
" clip-path="url(#pe26fca1abe)" style="fill: none; stroke: #808080; stroke-opacity: 0.5; stroke-width: 2.321928"/>
    <path d="M 297.123247 296.345455 
L 370.594568 136.174008 
" clip-path="url(#pe26fca1abe)" style="fill: none; stroke: #808080; stroke-opacity: 0.5; stroke-width: 7.67948"/>
    <path d="M 141.428137 265.43636 
L 596.571863 88.290316 
" clip-path="url(#pe26fca1abe)" style="fill: none; stroke: #808080; stroke-opacity: 0.5; stroke-width: 5.321928"/>
    <path d="M 141.428137 265.43636 
L 370.594568 136.174008 
" clip-path="url(#pe26fca1abe)" style="fill: none; stroke: #808080; stroke-opacity: 0.5; stroke-width: 7.276124"/>
    <path d="M 370.594568 136.174008 
L 409.252357 214.450279 
" clip-path="url(#pe26fca1abe)" style="fill: none; stroke: #808080; stroke-opacity: 0.5; stroke-width: 3.906891"/>
    <path d="M 370.594568 136.174008 
L 360.770683 253.096934 
" clip-path="url(#pe26fca1abe)" style="fill: none; stroke: #808080; stroke-opacity: 0.5; stroke-width: 3.321928"/>
    <path d="M 284.308783 245.649993 
L 360.770683 253.096934 
" clip-path="url(#pe26fca1abe)" style="fill: none; stroke: #808080; stroke-opacity: 0.5; stroke-width: 2.321928"/>
    <path d="M 360.770683 253.096934 
L 409.252357 214.450279 
" clip-path="url(#pe26fca1abe)" style="fill: none; stroke: #808080; stroke-opacity: 0.5; stroke-width: 6.228819"/>
   </g>
   <g id="PathCollection_1">
    <path d="M 211.262374 265.129142 
C 214.056462 265.129142 216.736487 264.019039 218.712206 262.043321 
C 220.687925 260.067602 221.798028 257.387576 221.798028 254.593488 
C 221.798028 251.7994 220.687925 249.119375 218.712206 247.143656 
C 216.736487 245.167938 214.056462 244.057835 211.262374 244.057835 
C 208.468286 244.057835 205.78826 245.167938 203.812542 247.143656 
C 201.836823 249.119375 200.72672 251.7994 200.72672 254.593488 
C 200.72672 257.387576 201.836823 260.067602 203.812542 262.043321 
C 205.78826 264.019039 208.468286 265.129142 211.262374 265.129142 
z
" clip-path="url(#pe26fca1abe)" style="fill: #ff0000; fill-opacity: 0.8; stroke: #ff0000; stroke-opacity: 0.8"/>
    <path d="M 333.013889 222.493243 
C 334.543125 222.493243 336.009933 221.885671 337.091265 220.804338 
C 338.172598 219.723005 338.78017 218.256197 338.78017 216.726961 
C 338.78017 215.197726 338.172598 213.730918 337.091265 212.649585 
C 336.009933 211.568252 334.543125 210.96068 333.013889 210.96068 
C 331.484653 210.96068 330.017845 211.568252 328.936512 212.649585 
C 327.855179 213.730918 327.247608 215.197726 327.247608 216.726961 
C 327.247608 218.256197 327.855179 219.723005 328.936512 220.804338 
C 330.017845 221.885671 331.484653 222.493243 333.013889 222.493243 
z
" clip-path="url(#pe26fca1abe)" style="fill: #0000ff; fill-opacity: 0.8; stroke: #0000ff; stroke-opacity: 0.8"/>
    <path d="M 437.488445 251.706918 
C 439.242599 251.706918 440.925143 251.009985 442.165517 249.769612 
C 443.405891 248.529238 444.102824 246.846693 444.102824 245.09254 
C 444.102824 243.338386 443.405891 241.655842 442.165517 240.415468 
C 440.925143 239.175094 439.242599 238.478162 437.488445 238.478162 
C 435.734292 238.478162 434.051748 239.175094 432.811374 240.415468 
C 431.571 241.655842 430.874067 243.338386 430.874067 245.09254 
C 430.874067 246.846693 431.571 248.529238 432.811374 249.769612 
C 434.051748 251.009985 435.734292 251.706918 437.488445 251.706918 
z
" clip-path="url(#pe26fca1abe)" style="fill: #00ced1; fill-opacity: 0.8; stroke: #00ced1; stroke-opacity: 0.8"/>
    <path d="M 494.916242 89.106319 
C 500.7114 89.106319 506.269984 86.803878 510.367779 82.706083 
C 514.465575 78.608287 516.768015 73.049703 516.768015 67.254545 
C 516.768015 61.459387 514.465575 55.900804 510.367779 51.803008 
C 506.269984 47.705213 500.7114 45.402772 494.916242 45.402772 
C 489.121084 45.402772 483.5625 47.705213 479.464705 51.803008 
C 475.366909 55.900804 473.064469 61.459387 473.064469 67.254545 
C 473.064469 73.049703 475.366909 78.608287 479.464705 82.706083 
C 483.5625 86.803878 489.121084 89.106319 494.916242 89.106319 
z
" clip-path="url(#pe26fca1abe)" style="fill: #008000; fill-opacity: 0.8; stroke: #008000; stroke-opacity: 0.8"/>
    <path d="M 242.462466 230.501366 
C 245.281614 230.501366 247.985676 229.381307 249.979114 227.387868 
C 251.972553 225.39443 253.092612 222.690368 253.092612 219.87122 
C 253.092612 217.052072 251.972553 214.34801 249.979114 212.354572 
C 247.985676 210.361134 245.281614 209.241074 242.462466 209.241074 
C 239.643318 209.241074 236.939256 210.361134 234.945818 212.354572 
C 232.95238 214.34801 231.83232 217.052072 231.83232 219.87122 
C 231.83232 222.690368 232.95238 225.39443 234.945818 227.387868 
C 236.939256 229.381307 239.643318 230.501366 242.462466 230.501366 
z
" clip-path="url(#pe26fca1abe)" style="fill: #00ced1; fill-opacity: 0.8; stroke: #00ced1; stroke-opacity: 0.8"/>
    <path d="M 300.988859 137.528439 
C 302.465447 137.528439 303.881757 136.941784 304.925863 135.897678 
C 305.969968 134.853573 306.556623 133.437263 306.556623 131.960674 
C 306.556623 130.484086 305.969968 129.067776 304.925863 128.02367 
C 303.881757 126.979565 302.465447 126.39291 300.988859 126.39291 
C 299.512271 126.39291 298.095961 126.979565 297.051855 128.02367 
C 296.007749 129.067776 295.421095 130.484086 295.421095 131.960674 
C 295.421095 133.437263 296.007749 134.853573 297.051855 135.897678 
C 298.095961 136.941784 299.512271 137.528439 300.988859 137.528439 
z
" clip-path="url(#pe26fca1abe)" style="fill: #00ced1; fill-opacity: 0.8; stroke: #00ced1; stroke-opacity: 0.8"/>
    <path d="M 271.854577 188.133252 
C 273.739199 188.133252 275.546886 187.384484 276.879515 186.051855 
C 278.212144 184.719226 278.960912 182.911539 278.960912 181.026917 
C 278.960912 179.142295 278.212144 177.334608 276.879515 176.001979 
C 275.546886 174.66935 273.739199 173.920582 271.854577 173.920582 
C 269.969955 173.920582 268.162268 174.66935 266.829639 176.001979 
C 265.49701 177.334608 264.748242 179.142295 264.748242 181.026917 
C 264.748242 182.911539 265.49701 184.719226 266.829639 186.051855 
C 268.162268 187.384484 269.969955 188.133252 271.854577 188.133252 
z
" clip-path="url(#pe26fca1abe)" style="fill: #00ced1; fill-opacity: 0.8; stroke: #00ced1; stroke-opacity: 0.8"/>
    <path d="M 297.123247 301.957941 
C 298.611696 301.957941 300.039382 301.366574 301.091874 300.314082 
C 302.144366 299.261589 302.735733 297.833903 302.735733 296.345455 
C 302.735733 294.857006 302.144366 293.42932 301.091874 292.376828 
C 300.039382 291.324335 298.611696 290.732968 297.123247 290.732968 
C 295.634798 290.732968 294.207112 291.324335 293.15462 292.376828 
C 292.102128 293.42932 291.510761 294.857006 291.510761 296.345455 
C 291.510761 297.833903 292.102128 299.261589 293.15462 300.314082 
C 294.207112 301.366574 295.634798 301.957941 297.123247 301.957941 
z
" clip-path="url(#pe26fca1abe)" style="fill: #ff0000; fill-opacity: 0.8; stroke: #ff0000; stroke-opacity: 0.8"/>
    <path d="M 141.428137 280.871709 
C 145.521639 280.871709 149.448034 279.245343 152.342577 276.3508 
C 155.23712 273.456256 156.863486 269.529862 156.863486 265.43636 
C 156.863486 261.342857 155.23712 257.416463 152.342577 254.52192 
C 149.448034 251.627376 145.521639 250.001011 141.428137 250.001011 
C 137.334635 250.001011 133.40824 251.627376 130.513697 254.52192 
C 127.619154 257.416463 125.992788 261.342857 125.992788 265.43636 
C 125.992788 269.529862 127.619154 273.456256 130.513697 276.3508 
C 133.40824 279.245343 137.334635 280.871709 141.428137 280.871709 
z
" clip-path="url(#pe26fca1abe)" style="fill: #00ced1; fill-opacity: 0.8; stroke: #00ced1; stroke-opacity: 0.8"/>
    <path d="M 370.594568 146.420959 
C 373.312091 146.420959 375.918677 145.341275 377.840256 143.419696 
C 379.761835 141.498117 380.841518 138.891531 380.841518 136.174008 
C 380.841518 133.456485 379.761835 130.849899 377.840256 128.92832 
C 375.918677 127.006741 373.312091 125.927057 370.594568 125.927057 
C 367.877044 125.927057 365.270458 127.006741 363.348879 128.92832 
C 361.4273 130.849899 360.347617 133.456485 360.347617 136.174008 
C 360.347617 138.891531 361.4273 141.498117 363.348879 143.419696 
C 365.270458 145.341275 367.877044 146.420959 370.594568 146.420959 
z
" clip-path="url(#pe26fca1abe)" style="fill: #0000ff; fill-opacity: 0.8; stroke: #0000ff; stroke-opacity: 0.8"/>
    <path d="M 284.308783 252.30206 
C 286.072932 252.30206 287.765064 251.601156 289.012505 250.353714 
C 290.259947 249.106273 290.960851 247.414141 290.960851 245.649993 
C 290.960851 243.885844 290.259947 242.193712 289.012505 240.946271 
C 287.765064 239.698829 286.072932 238.997925 284.308783 238.997925 
C 282.544635 238.997925 280.852503 239.698829 279.605062 240.946271 
C 278.35762 242.193712 277.656716 243.885844 277.656716 245.649993 
C 277.656716 247.414141 278.35762 249.106273 279.605062 250.353714 
C 280.852503 251.601156 282.544635 252.30206 284.308783 252.30206 
z
" clip-path="url(#pe26fca1abe)" style="fill: #ffa500; fill-opacity: 0.8; stroke: #ffa500; stroke-opacity: 0.8"/>
    <path d="M 360.770683 259.341932 
C 362.426876 259.341932 364.015459 258.68392 365.186564 257.512814 
C 366.357669 256.341709 367.015681 254.753127 367.015681 253.096934 
C 367.015681 251.440741 366.357669 249.852159 365.186564 248.681054 
C 364.015459 247.509948 362.426876 246.851936 360.770683 246.851936 
C 359.11449 246.851936 357.525908 247.509948 356.354803 248.681054 
C 355.183698 249.852159 354.525685 251.440741 354.525685 253.096934 
C 354.525685 254.753127 355.183698 256.341709 356.354803 257.512814 
C 357.525908 258.68392 359.11449 259.341932 360.770683 259.341932 
z
" clip-path="url(#pe26fca1abe)" style="fill: #ff0000; fill-opacity: 0.8; stroke: #ff0000; stroke-opacity: 0.8"/>
    <path d="M 596.571863 95.655776 
C 598.525206 95.655776 600.398808 94.879705 601.78003 93.498483 
C 603.161252 92.117261 603.937323 90.243659 603.937323 88.290316 
C 603.937323 86.336974 603.161252 84.463372 601.78003 83.08215 
C 600.398808 81.700928 598.525206 80.924857 596.571863 80.924857 
C 594.61852 80.924857 592.744918 81.700928 591.363696 83.08215 
C 589.982474 84.463372 589.206403 86.336974 589.206403 88.290316 
C 589.206403 90.243659 589.982474 92.117261 591.363696 93.498483 
C 592.744918 94.879705 594.61852 95.655776 596.571863 95.655776 
z
" clip-path="url(#pe26fca1abe)" style="fill: #00ced1; fill-opacity: 0.8; stroke: #00ced1; stroke-opacity: 0.8"/>
    <path d="M 409.252357 221.747539 
C 411.187613 221.747539 413.043867 220.978654 414.412299 219.610221 
C 415.780732 218.241789 416.549617 216.385535 416.549617 214.450279 
C 416.549617 212.515023 415.780732 210.65877 414.412299 209.290337 
C 413.043867 207.921905 411.187613 207.15302 409.252357 207.15302 
C 407.317101 207.15302 405.460848 207.921905 404.092415 209.290337 
C 402.723983 210.65877 401.955098 212.515023 401.955098 214.450279 
C 401.955098 216.385535 402.723983 218.241789 404.092415 219.610221 
C 405.460848 220.978654 407.317101 221.747539 409.252357 221.747539 
z
" clip-path="url(#pe26fca1abe)" style="fill: #ffa500; fill-opacity: 0.8; stroke: #ffa500; stroke-opacity: 0.8"/>
   </g>
   <g id="text_1">
    <g clip-path="url(#pe26fca1abe)">
     <!-- medicus -->
     <g transform="translate(196.368624 256.662238) scale(0.08 -0.08)">
      <defs>
       <path id="LiberationSans-6d" d="M 2400 0 
L 2400 2144 
Q 2400 2391 2369 2556 
Q 2338 2722 2264 2823 
Q 2191 2925 2072 2967 
Q 1953 3009 1781 3009 
Q 1603 3009 1459 2939 
Q 1316 2869 1214 2736 
Q 1113 2603 1058 2408 
Q 1003 2213 1003 1959 
L 1003 0 
L 444 0 
L 444 2659 
Q 444 2766 442 2883 
Q 441 3000 437 3104 
Q 434 3209 431 3284 
Q 428 3359 425 3381 
L 956 3381 
Q 959 3366 962 3297 
Q 966 3228 970 3139 
Q 975 3050 978 2958 
Q 981 2866 981 2803 
L 991 2803 
Q 1066 2950 1153 3069 
Q 1241 3188 1358 3270 
Q 1475 3353 1626 3398 
Q 1778 3444 1978 3444 
Q 2363 3444 2586 3291 
Q 2809 3138 2897 2803 
L 2906 2803 
Q 2981 2950 3075 3069 
Q 3169 3188 3294 3270 
Q 3419 3353 3575 3398 
Q 3731 3444 3931 3444 
Q 4188 3444 4373 3375 
Q 4559 3306 4678 3162 
Q 4797 3019 4853 2792 
Q 4909 2566 4909 2253 
L 4909 0 
L 4353 0 
L 4353 2144 
Q 4353 2391 4322 2556 
Q 4291 2722 4217 2823 
Q 4144 2925 4025 2967 
Q 3906 3009 3734 3009 
Q 3556 3009 3412 2942 
Q 3269 2875 3167 2744 
Q 3066 2613 3011 2416 
Q 2956 2219 2956 1959 
L 2956 0 
L 2400 0 
z
" transform="scale(0.015625)"/>
       <path id="LiberationSans-65" d="M 863 1572 
Q 863 1306 917 1082 
Q 972 859 1086 698 
Q 1200 538 1378 448 
Q 1556 359 1806 359 
Q 2172 359 2392 506 
Q 2613 653 2691 878 
L 3184 738 
Q 3131 597 3036 455 
Q 2941 313 2781 198 
Q 2622 84 2383 10 
Q 2144 -63 1806 -63 
Q 1056 -63 664 384 
Q 272 831 272 1713 
Q 272 2188 390 2517 
Q 509 2847 715 3053 
Q 922 3259 1197 3351 
Q 1472 3444 1784 3444 
Q 2209 3444 2495 3306 
Q 2781 3169 2954 2926 
Q 3128 2684 3201 2356 
Q 3275 2028 3275 1647 
L 3275 1572 
L 863 1572 
z
M 2694 2003 
Q 2647 2538 2422 2783 
Q 2197 3028 1775 3028 
Q 1634 3028 1479 2983 
Q 1325 2938 1194 2822 
Q 1063 2706 972 2507 
Q 881 2309 869 2003 
L 2694 2003 
z
" transform="scale(0.015625)"/>
       <path id="LiberationSans-64" d="M 2566 544 
Q 2409 219 2151 78 
Q 1894 -63 1513 -63 
Q 872 -63 570 368 
Q 269 800 269 1675 
Q 269 3444 1513 3444 
Q 1897 3444 2153 3303 
Q 2409 3163 2566 2856 
L 2572 2856 
Q 2572 2888 2570 2955 
Q 2569 3022 2567 3095 
Q 2566 3169 2566 3234 
Q 2566 3300 2566 3328 
L 2566 4638 
L 3128 4638 
L 3128 697 
Q 3128 575 3129 462 
Q 3131 350 3134 256 
Q 3138 163 3141 95 
Q 3144 28 3147 0 
L 2609 0 
Q 2603 31 2598 89 
Q 2594 147 2589 222 
Q 2584 297 2581 380 
Q 2578 463 2578 544 
L 2566 544 
z
M 859 1694 
Q 859 1344 903 1094 
Q 947 844 1044 683 
Q 1141 522 1291 447 
Q 1441 372 1656 372 
Q 1878 372 2048 444 
Q 2219 516 2333 677 
Q 2447 838 2506 1097 
Q 2566 1356 2566 1731 
Q 2566 2091 2506 2339 
Q 2447 2588 2331 2741 
Q 2216 2894 2048 2961 
Q 1881 3028 1663 3028 
Q 1456 3028 1306 2956 
Q 1156 2884 1056 2725 
Q 956 2566 907 2311 
Q 859 2056 859 1694 
z
" transform="scale(0.015625)"/>
       <path id="LiberationSans-69" d="M 428 4100 
L 428 4638 
L 991 4638 
L 991 4100 
L 428 4100 
z
M 428 0 
L 428 3381 
L 991 3381 
L 991 0 
L 428 0 
z
" transform="scale(0.015625)"/>
       <path id="LiberationSans-63" d="M 859 1706 
Q 859 1416 901 1172 
Q 944 928 1044 751 
Q 1144 575 1308 478 
Q 1472 381 1713 381 
Q 2013 381 2214 543 
Q 2416 706 2463 1044 
L 3031 1006 
Q 3003 797 2909 603 
Q 2816 409 2655 262 
Q 2494 116 2262 26 
Q 2031 -63 1728 -63 
Q 1331 -63 1053 71 
Q 775 206 601 442 
Q 428 678 350 998 
Q 272 1319 272 1694 
Q 272 2034 328 2295 
Q 384 2556 486 2751 
Q 588 2947 725 3080 
Q 863 3213 1023 3292 
Q 1184 3372 1362 3408 
Q 1541 3444 1722 3444 
Q 2006 3444 2228 3366 
Q 2450 3288 2611 3152 
Q 2772 3016 2872 2831 
Q 2972 2647 3013 2434 
L 2434 2391 
Q 2391 2672 2212 2837 
Q 2034 3003 1706 3003 
Q 1466 3003 1305 2923 
Q 1144 2844 1044 2683 
Q 944 2522 901 2278 
Q 859 2034 859 1706 
z
" transform="scale(0.015625)"/>
       <path id="LiberationSans-75" d="M 981 3381 
L 981 1238 
Q 981 991 1017 825 
Q 1053 659 1134 557 
Q 1216 456 1348 414 
Q 1481 372 1678 372 
Q 1878 372 2039 442 
Q 2200 513 2314 645 
Q 2428 778 2490 973 
Q 2553 1169 2553 1422 
L 2553 3381 
L 3116 3381 
L 3116 722 
Q 3116 616 3117 498 
Q 3119 381 3122 276 
Q 3125 172 3128 97 
Q 3131 22 3134 0 
L 2603 0 
Q 2600 16 2597 84 
Q 2594 153 2589 242 
Q 2584 331 2581 423 
Q 2578 516 2578 578 
L 2569 578 
Q 2488 431 2391 312 
Q 2294 194 2166 111 
Q 2038 28 1872 -17 
Q 1706 -63 1488 -63 
Q 1206 -63 1003 6 
Q 800 75 669 219 
Q 538 363 477 588 
Q 416 813 416 1128 
L 416 3381 
L 981 3381 
z
" transform="scale(0.015625)"/>
       <path id="LiberationSans-73" d="M 2969 934 
Q 2969 697 2876 511 
Q 2784 325 2609 198 
Q 2434 72 2179 4 
Q 1925 -63 1597 -63 
Q 1303 -63 1067 -17 
Q 831 28 653 128 
Q 475 228 354 392 
Q 234 556 178 794 
L 675 891 
Q 747 619 972 492 
Q 1197 366 1597 366 
Q 1778 366 1929 391 
Q 2081 416 2190 477 
Q 2300 538 2361 639 
Q 2422 741 2422 891 
Q 2422 1044 2350 1142 
Q 2278 1241 2150 1306 
Q 2022 1372 1839 1420 
Q 1656 1469 1438 1528 
Q 1234 1581 1034 1647 
Q 834 1713 673 1820 
Q 513 1928 413 2087 
Q 313 2247 313 2488 
Q 313 2950 642 3192 
Q 972 3434 1603 3434 
Q 2163 3434 2492 3237 
Q 2822 3041 2909 2606 
L 2403 2544 
Q 2375 2675 2300 2764 
Q 2225 2853 2119 2908 
Q 2013 2963 1880 2986 
Q 1747 3009 1603 3009 
Q 1222 3009 1040 2893 
Q 859 2778 859 2544 
Q 859 2406 926 2317 
Q 994 2228 1114 2167 
Q 1234 2106 1403 2061 
Q 1572 2016 1775 1966 
Q 1909 1931 2050 1892 
Q 2191 1853 2323 1798 
Q 2456 1744 2573 1670 
Q 2691 1597 2778 1494 
Q 2866 1391 2917 1253 
Q 2969 1116 2969 934 
z
" transform="scale(0.015625)"/>
      </defs>
      <use xlink:href="#LiberationSans-6d"/>
      <use xlink:href="#LiberationSans-65" x="83.300781"/>
      <use xlink:href="#LiberationSans-64" x="138.916016"/>
      <use xlink:href="#LiberationSans-69" x="194.53125"/>
      <use xlink:href="#LiberationSans-63" x="216.748047"/>
      <use xlink:href="#LiberationSans-75" x="266.748047"/>
      <use xlink:href="#LiberationSans-73" x="322.363281"/>
     </g>
    </g>
   </g>
   <g id="text_2">
    <g clip-path="url(#pe26fca1abe)">
     <!-- arcarius -->
     <g transform="translate(318.788264 218.795711) scale(0.08 -0.08)">
      <defs>
       <path id="LiberationSans-61" d="M 1294 -63 
Q 784 -63 528 206 
Q 272 475 272 944 
Q 272 1278 398 1492 
Q 525 1706 729 1828 
Q 934 1950 1196 1997 
Q 1459 2044 1731 2050 
L 2491 2063 
L 2491 2247 
Q 2491 2456 2447 2603 
Q 2403 2750 2312 2840 
Q 2222 2931 2086 2973 
Q 1950 3016 1766 3016 
Q 1603 3016 1472 2992 
Q 1341 2969 1244 2908 
Q 1147 2847 1087 2742 
Q 1028 2638 1009 2478 
L 422 2531 
Q 453 2731 540 2898 
Q 628 3066 789 3187 
Q 950 3309 1192 3376 
Q 1434 3444 1778 3444 
Q 2416 3444 2737 3151 
Q 3059 2859 3059 2306 
L 3059 850 
Q 3059 600 3125 473 
Q 3191 347 3375 347 
Q 3422 347 3469 353 
Q 3516 359 3559 369 
L 3559 19 
Q 3453 -6 3348 -18 
Q 3244 -31 3125 -31 
Q 2966 -31 2852 11 
Q 2738 53 2666 139 
Q 2594 225 2556 351 
Q 2519 478 2509 647 
L 2491 647 
Q 2400 484 2292 353 
Q 2184 222 2040 130 
Q 1897 38 1714 -12 
Q 1531 -63 1294 -63 
z
M 1422 359 
Q 1691 359 1892 457 
Q 2094 556 2226 709 
Q 2359 863 2425 1044 
Q 2491 1225 2491 1391 
L 2491 1669 
L 1875 1656 
Q 1669 1653 1483 1626 
Q 1297 1600 1156 1522 
Q 1016 1444 933 1303 
Q 850 1163 850 934 
Q 850 659 998 509 
Q 1147 359 1422 359 
z
" transform="scale(0.015625)"/>
       <path id="LiberationSans-72" d="M 444 0 
L 444 2594 
Q 444 2700 442 2811 
Q 441 2922 437 3025 
Q 434 3128 431 3218 
Q 428 3309 425 3381 
L 956 3381 
Q 959 3309 964 3217 
Q 969 3125 973 3028 
Q 978 2931 979 2842 
Q 981 2753 981 2691 
L 994 2691 
Q 1053 2884 1120 3026 
Q 1188 3169 1278 3261 
Q 1369 3353 1494 3398 
Q 1619 3444 1797 3444 
Q 1866 3444 1928 3433 
Q 1991 3422 2025 3413 
L 2025 2897 
Q 1969 2913 1894 2920 
Q 1819 2928 1725 2928 
Q 1531 2928 1395 2840 
Q 1259 2753 1173 2598 
Q 1088 2444 1047 2230 
Q 1006 2016 1006 1763 
L 1006 0 
L 444 0 
z
" transform="scale(0.015625)"/>
      </defs>
      <use xlink:href="#LiberationSans-61"/>
      <use xlink:href="#LiberationSans-72" x="55.615234"/>
      <use xlink:href="#LiberationSans-63" x="88.916016"/>
      <use xlink:href="#LiberationSans-61" x="138.916016"/>
      <use xlink:href="#LiberationSans-72" x="194.53125"/>
      <use xlink:href="#LiberationSans-69" x="227.832031"/>
      <use xlink:href="#LiberationSans-75" x="250.048828"/>
      <use xlink:href="#LiberationSans-73" x="305.664062"/>
     </g>
    </g>
   </g>
   <g id="text_3">
    <g clip-path="url(#pe26fca1abe)">
     <!-- argentarius -->
     <g transform="translate(417.478445 247.16129) scale(0.08 -0.08)">
      <defs>
       <path id="LiberationSans-67" d="M 1713 -1328 
Q 1422 -1328 1197 -1268 
Q 972 -1209 812 -1098 
Q 653 -988 553 -834 
Q 453 -681 409 -494 
L 975 -413 
Q 1031 -647 1223 -773 
Q 1416 -900 1728 -900 
Q 1919 -900 2075 -847 
Q 2231 -794 2340 -676 
Q 2450 -559 2509 -371 
Q 2569 -184 2569 84 
L 2569 628 
L 2563 628 
Q 2500 500 2408 383 
Q 2316 266 2183 175 
Q 2050 84 1875 29 
Q 1700 -25 1475 -25 
Q 1153 -25 923 83 
Q 694 191 548 406 
Q 403 622 336 942 
Q 269 1263 269 1684 
Q 269 2091 336 2416 
Q 403 2741 554 2967 
Q 706 3194 948 3314 
Q 1191 3434 1538 3434 
Q 1897 3434 2161 3270 
Q 2425 3106 2569 2803 
L 2575 2803 
Q 2575 2881 2579 2978 
Q 2584 3075 2589 3161 
Q 2594 3247 2600 3309 
Q 2606 3372 2613 3381 
L 3147 3381 
Q 3144 3353 3141 3286 
Q 3138 3219 3134 3125 
Q 3131 3031 3129 2917 
Q 3128 2803 3128 2681 
L 3128 97 
Q 3128 -613 2779 -970 
Q 2431 -1328 1713 -1328 
z
M 2569 1691 
Q 2569 2044 2492 2295 
Q 2416 2547 2291 2706 
Q 2166 2866 2005 2941 
Q 1844 3016 1675 3016 
Q 1459 3016 1304 2941 
Q 1150 2866 1048 2705 
Q 947 2544 898 2292 
Q 850 2041 850 1691 
Q 850 1325 898 1076 
Q 947 828 1047 675 
Q 1147 522 1300 456 
Q 1453 391 1666 391 
Q 1834 391 1995 462 
Q 2156 534 2284 690 
Q 2413 847 2491 1094 
Q 2569 1341 2569 1691 
z
" transform="scale(0.015625)"/>
       <path id="LiberationSans-6e" d="M 2578 0 
L 2578 2144 
Q 2578 2391 2542 2556 
Q 2506 2722 2425 2823 
Q 2344 2925 2211 2967 
Q 2078 3009 1881 3009 
Q 1681 3009 1520 2939 
Q 1359 2869 1245 2736 
Q 1131 2603 1068 2408 
Q 1006 2213 1006 1959 
L 1006 0 
L 444 0 
L 444 2659 
Q 444 2766 442 2883 
Q 441 3000 437 3104 
Q 434 3209 431 3284 
Q 428 3359 425 3381 
L 956 3381 
Q 959 3366 962 3297 
Q 966 3228 970 3139 
Q 975 3050 978 2958 
Q 981 2866 981 2803 
L 991 2803 
Q 1072 2950 1169 3069 
Q 1266 3188 1394 3270 
Q 1522 3353 1687 3398 
Q 1853 3444 2072 3444 
Q 2353 3444 2556 3375 
Q 2759 3306 2890 3162 
Q 3022 3019 3083 2792 
Q 3144 2566 3144 2253 
L 3144 0 
L 2578 0 
z
" transform="scale(0.015625)"/>
       <path id="LiberationSans-74" d="M 1731 25 
Q 1603 -9 1470 -29 
Q 1338 -50 1163 -50 
Q 488 -50 488 716 
L 488 2972 
L 97 2972 
L 97 3381 
L 509 3381 
L 675 4138 
L 1050 4138 
L 1050 3381 
L 1675 3381 
L 1675 2972 
L 1050 2972 
L 1050 838 
Q 1050 594 1129 495 
Q 1209 397 1406 397 
Q 1488 397 1564 409 
Q 1641 422 1731 441 
L 1731 25 
z
" transform="scale(0.015625)"/>
      </defs>
      <use xlink:href="#LiberationSans-61"/>
      <use xlink:href="#LiberationSans-72" x="55.615234"/>
      <use xlink:href="#LiberationSans-67" x="88.916016"/>
      <use xlink:href="#LiberationSans-65" x="144.53125"/>
      <use xlink:href="#LiberationSans-6e" x="200.146484"/>
      <use xlink:href="#LiberationSans-74" x="255.761719"/>
      <use xlink:href="#LiberationSans-61" x="283.544922"/>
      <use xlink:href="#LiberationSans-72" x="339.160156"/>
      <use xlink:href="#LiberationSans-69" x="372.460938"/>
      <use xlink:href="#LiberationSans-75" x="394.677734"/>
      <use xlink:href="#LiberationSans-73" x="450.292969"/>
     </g>
    </g>
   </g>
   <g id="text_4">
    <g clip-path="url(#pe26fca1abe)">
     <!-- curator -->
     <g transform="translate(482.468117 69.323295) scale(0.08 -0.08)">
      <defs>
       <path id="LiberationSans-6f" d="M 3291 1694 
Q 3291 806 2900 371 
Q 2509 -63 1766 -63 
Q 1413 -63 1134 43 
Q 856 150 664 369 
Q 472 588 370 917 
Q 269 1247 269 1694 
Q 269 3444 1784 3444 
Q 2178 3444 2464 3334 
Q 2750 3225 2933 3006 
Q 3116 2788 3203 2459 
Q 3291 2131 3291 1694 
z
M 2700 1694 
Q 2700 2088 2639 2344 
Q 2578 2600 2461 2753 
Q 2344 2906 2175 2967 
Q 2006 3028 1794 3028 
Q 1578 3028 1404 2964 
Q 1231 2900 1109 2745 
Q 988 2591 923 2334 
Q 859 2078 859 1694 
Q 859 1300 928 1042 
Q 997 784 1117 631 
Q 1238 478 1402 415 
Q 1566 353 1759 353 
Q 1975 353 2150 414 
Q 2325 475 2447 628 
Q 2569 781 2634 1040 
Q 2700 1300 2700 1694 
z
" transform="scale(0.015625)"/>
      </defs>
      <use xlink:href="#LiberationSans-63"/>
      <use xlink:href="#LiberationSans-75" x="50"/>
      <use xlink:href="#LiberationSans-72" x="105.615234"/>
      <use xlink:href="#LiberationSans-61" x="138.916016"/>
      <use xlink:href="#LiberationSans-74" x="194.53125"/>
      <use xlink:href="#LiberationSans-6f" x="222.314453"/>
      <use xlink:href="#LiberationSans-72" x="277.929688"/>
     </g>
    </g>
   </g>
   <g id="text_5">
    <g clip-path="url(#pe26fca1abe)">
     <!-- aerarius -->
     <g transform="translate(228.012466 221.93997) scale(0.08 -0.08)">
      <use xlink:href="#LiberationSans-61"/>
      <use xlink:href="#LiberationSans-65" x="55.615234"/>
      <use xlink:href="#LiberationSans-72" x="111.230469"/>
      <use xlink:href="#LiberationSans-61" x="144.53125"/>
      <use xlink:href="#LiberationSans-72" x="200.146484"/>
      <use xlink:href="#LiberationSans-69" x="233.447266"/>
      <use xlink:href="#LiberationSans-75" x="255.664062"/>
      <use xlink:href="#LiberationSans-73" x="311.279297"/>
     </g>
    </g>
   </g>
   <g id="text_6">
    <g clip-path="url(#pe26fca1abe)">
     <!-- vexillarius -->
     <g transform="translate(283.428859 134.029424) scale(0.08 -0.08)">
      <defs>
       <path id="LiberationSans-76" d="M 1916 0 
L 1250 0 
L 22 3381 
L 622 3381 
L 1366 1181 
Q 1388 1113 1417 1014 
Q 1447 916 1478 809 
Q 1509 703 1536 604 
Q 1563 506 1581 441 
Q 1600 506 1629 604 
Q 1659 703 1690 806 
Q 1722 909 1755 1007 
Q 1788 1106 1813 1175 
L 2581 3381 
L 3178 3381 
L 1916 0 
z
" transform="scale(0.015625)"/>
       <path id="LiberationSans-78" d="M 2503 0 
L 1594 1388 
L 678 0 
L 72 0 
L 1275 1738 
L 128 3381 
L 750 3381 
L 1594 2066 
L 2431 3381 
L 3059 3381 
L 1913 1744 
L 3131 0 
L 2503 0 
z
" transform="scale(0.015625)"/>
       <path id="LiberationSans-6c" d="M 431 0 
L 431 4638 
L 994 4638 
L 994 0 
L 431 0 
z
" transform="scale(0.015625)"/>
      </defs>
      <use xlink:href="#LiberationSans-76"/>
      <use xlink:href="#LiberationSans-65" x="50"/>
      <use xlink:href="#LiberationSans-78" x="105.615234"/>
      <use xlink:href="#LiberationSans-69" x="155.615234"/>
      <use xlink:href="#LiberationSans-6c" x="177.832031"/>
      <use xlink:href="#LiberationSans-6c" x="200.048828"/>
      <use xlink:href="#LiberationSans-61" x="222.265625"/>
      <use xlink:href="#LiberationSans-72" x="277.880859"/>
      <use xlink:href="#LiberationSans-69" x="311.181641"/>
      <use xlink:href="#LiberationSans-75" x="333.398438"/>
      <use xlink:href="#LiberationSans-73" x="389.013672"/>
     </g>
    </g>
   </g>
   <g id="text_7">
    <g clip-path="url(#pe26fca1abe)">
     <!-- centonarius -->
     <g transform="translate(251.176452 183.095667) scale(0.08 -0.08)">
      <use xlink:href="#LiberationSans-63"/>
      <use xlink:href="#LiberationSans-65" x="50"/>
      <use xlink:href="#LiberationSans-6e" x="105.615234"/>
      <use xlink:href="#LiberationSans-74" x="161.230469"/>
      <use xlink:href="#LiberationSans-6f" x="189.013672"/>
      <use xlink:href="#LiberationSans-6e" x="244.628906"/>
      <use xlink:href="#LiberationSans-61" x="300.244141"/>
      <use xlink:href="#LiberationSans-72" x="355.859375"/>
      <use xlink:href="#LiberationSans-69" x="389.160156"/>
      <use xlink:href="#LiberationSans-75" x="411.376953"/>
      <use xlink:href="#LiberationSans-73" x="466.992188"/>
     </g>
    </g>
   </g>
   <g id="text_8">
    <g clip-path="url(#pe26fca1abe)">
     <!-- scaenicus -->
     <g transform="translate(279.336997 298.414205) scale(0.08 -0.08)">
      <use xlink:href="#LiberationSans-73"/>
      <use xlink:href="#LiberationSans-63" x="50"/>
      <use xlink:href="#LiberationSans-61" x="100"/>
      <use xlink:href="#LiberationSans-65" x="155.615234"/>
      <use xlink:href="#LiberationSans-6e" x="211.230469"/>
      <use xlink:href="#LiberationSans-69" x="266.845703"/>
      <use xlink:href="#LiberationSans-63" x="289.0625"/>
      <use xlink:href="#LiberationSans-75" x="339.0625"/>
      <use xlink:href="#LiberationSans-73" x="394.677734"/>
     </g>
    </g>
   </g>
   <g id="text_9">
    <g clip-path="url(#pe26fca1abe)">
     <!-- faber -->
     <g transform="translate(132.311887 267.50511) scale(0.08 -0.08)">
      <defs>
       <path id="LiberationSans-66" d="M 1128 2972 
L 1128 0 
L 566 0 
L 566 2972 
L 91 2972 
L 91 3381 
L 566 3381 
L 566 3763 
Q 566 3947 600 4105 
Q 634 4263 726 4380 
Q 819 4497 978 4564 
Q 1138 4631 1391 4631 
Q 1491 4631 1598 4622 
Q 1706 4613 1788 4594 
L 1788 4166 
Q 1734 4175 1664 4183 
Q 1594 4191 1538 4191 
Q 1413 4191 1333 4156 
Q 1253 4122 1208 4058 
Q 1163 3994 1145 3900 
Q 1128 3806 1128 3684 
L 1128 3381 
L 1788 3381 
L 1788 2972 
L 1128 2972 
z
" transform="scale(0.015625)"/>
       <path id="LiberationSans-62" d="M 3291 1706 
Q 3291 -63 2047 -63 
Q 1663 -63 1408 76 
Q 1153 216 994 525 
L 988 525 
Q 988 444 983 356 
Q 978 269 973 194 
Q 969 119 964 66 
Q 959 13 956 0 
L 413 0 
Q 416 28 419 95 
Q 422 163 425 256 
Q 428 350 429 462 
Q 431 575 431 697 
L 431 4638 
L 994 4638 
L 994 3316 
Q 994 3222 992 3136 
Q 991 3050 988 2984 
Q 984 2906 981 2838 
L 994 2838 
Q 1150 3163 1408 3303 
Q 1666 3444 2047 3444 
Q 2688 3444 2989 3012 
Q 3291 2581 3291 1706 
z
M 2700 1688 
Q 2700 2038 2656 2288 
Q 2613 2538 2516 2698 
Q 2419 2859 2269 2934 
Q 2119 3009 1903 3009 
Q 1681 3009 1511 2937 
Q 1341 2866 1227 2706 
Q 1113 2547 1053 2287 
Q 994 2028 994 1653 
Q 994 1291 1053 1044 
Q 1113 797 1227 642 
Q 1341 488 1509 420 
Q 1678 353 1897 353 
Q 2103 353 2253 425 
Q 2403 497 2503 656 
Q 2603 816 2651 1070 
Q 2700 1325 2700 1688 
z
" transform="scale(0.015625)"/>
      </defs>
      <use xlink:href="#LiberationSans-66"/>
      <use xlink:href="#LiberationSans-61" x="27.783203"/>
      <use xlink:href="#LiberationSans-62" x="83.398438"/>
      <use xlink:href="#LiberationSans-65" x="139.013672"/>
      <use xlink:href="#LiberationSans-72" x="194.628906"/>
     </g>
    </g>
   </g>
   <g id="text_10">
    <g clip-path="url(#pe26fca1abe)">
     <!-- scriba -->
     <g transform="translate(359.925193 138.242758) scale(0.08 -0.08)">
      <use xlink:href="#LiberationSans-73"/>
      <use xlink:href="#LiberationSans-63" x="50"/>
      <use xlink:href="#LiberationSans-72" x="100"/>
      <use xlink:href="#LiberationSans-69" x="133.300781"/>
      <use xlink:href="#LiberationSans-62" x="155.517578"/>
      <use xlink:href="#LiberationSans-61" x="211.132812"/>
     </g>
    </g>
   </g>
   <g id="text_11">
    <g clip-path="url(#pe26fca1abe)">
     <!-- negotiator -->
     <g transform="translate(266.519408 247.718743) scale(0.08 -0.08)">
      <use xlink:href="#LiberationSans-6e"/>
      <use xlink:href="#LiberationSans-65" x="55.615234"/>
      <use xlink:href="#LiberationSans-67" x="111.230469"/>
      <use xlink:href="#LiberationSans-6f" x="166.845703"/>
      <use xlink:href="#LiberationSans-74" x="222.460938"/>
      <use xlink:href="#LiberationSans-69" x="250.244141"/>
      <use xlink:href="#LiberationSans-61" x="272.460938"/>
      <use xlink:href="#LiberationSans-74" x="328.076172"/>
      <use xlink:href="#LiberationSans-6f" x="355.859375"/>
      <use xlink:href="#LiberationSans-72" x="411.474609"/>
     </g>
    </g>
   </g>
   <g id="text_12">
    <g clip-path="url(#pe26fca1abe)">
     <!-- mensor -->
     <g transform="translate(347.433808 255.165684) scale(0.08 -0.08)">
      <use xlink:href="#LiberationSans-6d"/>
      <use xlink:href="#LiberationSans-65" x="83.300781"/>
      <use xlink:href="#LiberationSans-6e" x="138.916016"/>
      <use xlink:href="#LiberationSans-73" x="194.53125"/>
      <use xlink:href="#LiberationSans-6f" x="244.53125"/>
      <use xlink:href="#LiberationSans-72" x="300.146484"/>
     </g>
    </g>
   </g>
   <g id="text_13">
    <g clip-path="url(#pe26fca1abe)">
     <!-- sagittarius -->
     <g transform="translate(578.342488 90.359066) scale(0.08 -0.08)">
      <use xlink:href="#LiberationSans-73"/>
      <use xlink:href="#LiberationSans-61" x="50"/>
      <use xlink:href="#LiberationSans-67" x="105.615234"/>
      <use xlink:href="#LiberationSans-69" x="161.230469"/>
      <use xlink:href="#LiberationSans-74" x="183.447266"/>
      <use xlink:href="#LiberationSans-74" x="211.230469"/>
      <use xlink:href="#LiberationSans-61" x="239.013672"/>
      <use xlink:href="#LiberationSans-72" x="294.628906"/>
      <use xlink:href="#LiberationSans-69" x="327.929688"/>
      <use xlink:href="#LiberationSans-75" x="350.146484"/>
      <use xlink:href="#LiberationSans-73" x="405.761719"/>
     </g>
    </g>
   </g>
   <g id="text_14">
    <g clip-path="url(#pe26fca1abe)">
     <!-- frumentarius -->
     <g transform="translate(387.023607 216.519029) scale(0.08 -0.08)">
      <use xlink:href="#LiberationSans-66"/>
      <use xlink:href="#LiberationSans-72" x="27.783203"/>
      <use xlink:href="#LiberationSans-75" x="61.083984"/>
      <use xlink:href="#LiberationSans-6d" x="116.699219"/>
      <use xlink:href="#LiberationSans-65" x="200"/>
      <use xlink:href="#LiberationSans-6e" x="255.615234"/>
      <use xlink:href="#LiberationSans-74" x="311.230469"/>
      <use xlink:href="#LiberationSans-61" x="339.013672"/>
      <use xlink:href="#LiberationSans-72" x="394.628906"/>
      <use xlink:href="#LiberationSans-69" x="427.929688"/>
      <use xlink:href="#LiberationSans-75" x="450.146484"/>
      <use xlink:href="#LiberationSans-73" x="505.761719"/>
     </g>
    </g>
   </g>
   <g id="legend_1">
    <g id="text_15">
     <!-- HISCO major category -->
     <g style="fill: #262626" transform="translate(556.717344 165.2775) scale(0.08 -0.08)">
      <defs>
       <path id="LiberationSans-48" d="M 3503 0 
L 3503 2041 
L 1122 2041 
L 1122 0 
L 525 0 
L 525 4403 
L 1122 4403 
L 1122 2541 
L 3503 2541 
L 3503 4403 
L 4100 4403 
L 4100 0 
L 3503 0 
z
" transform="scale(0.015625)"/>
       <path id="LiberationSans-49" d="M 591 0 
L 591 4403 
L 1188 4403 
L 1188 0 
L 591 0 
z
" transform="scale(0.015625)"/>
       <path id="LiberationSans-53" d="M 3975 1216 
Q 3975 938 3867 703 
Q 3759 469 3534 298 
Q 3309 128 2967 32 
Q 2625 -63 2156 -63 
Q 1334 -63 875 225 
Q 416 513 291 1056 
L 869 1172 
Q 913 1000 1003 859 
Q 1094 719 1248 617 
Q 1403 516 1631 459 
Q 1859 403 2178 403 
Q 2444 403 2666 448 
Q 2888 494 3047 587 
Q 3206 681 3295 829 
Q 3384 978 3384 1184 
Q 3384 1400 3286 1534 
Q 3188 1669 3009 1756 
Q 2831 1844 2584 1903 
Q 2338 1963 2038 2031 
Q 1853 2072 1667 2120 
Q 1481 2169 1311 2236 
Q 1141 2303 991 2393 
Q 841 2484 731 2611 
Q 622 2738 559 2905 
Q 497 3072 497 3291 
Q 497 3603 623 3826 
Q 750 4050 975 4194 
Q 1200 4338 1506 4403 
Q 1813 4469 2169 4469 
Q 2578 4469 2868 4405 
Q 3159 4341 3359 4212 
Q 3559 4084 3679 3895 
Q 3800 3706 3872 3456 
L 3284 3353 
Q 3241 3513 3158 3638 
Q 3075 3763 2940 3847 
Q 2806 3931 2614 3975 
Q 2422 4019 2163 4019 
Q 1856 4019 1648 3964 
Q 1441 3909 1314 3815 
Q 1188 3722 1133 3595 
Q 1078 3469 1078 3322 
Q 1078 3125 1176 2998 
Q 1275 2872 1444 2787 
Q 1613 2703 1834 2647 
Q 2056 2591 2306 2534 
Q 2509 2488 2711 2439 
Q 2913 2391 3097 2323 
Q 3281 2256 3442 2165 
Q 3603 2075 3722 1944 
Q 3841 1813 3908 1634 
Q 3975 1456 3975 1216 
z
" transform="scale(0.015625)"/>
       <path id="LiberationSans-43" d="M 2475 3981 
Q 2100 3981 1811 3856 
Q 1522 3731 1326 3500 
Q 1131 3269 1031 2944 
Q 931 2619 931 2222 
Q 931 1825 1039 1495 
Q 1147 1166 1348 928 
Q 1550 691 1842 559 
Q 2134 428 2500 428 
Q 2756 428 2967 495 
Q 3178 563 3348 684 
Q 3519 806 3653 973 
Q 3788 1141 3891 1344 
L 4378 1100 
Q 4259 853 4084 640 
Q 3909 428 3673 272 
Q 3438 116 3139 26 
Q 2841 -63 2472 -63 
Q 1938 -63 1536 107 
Q 1134 278 864 583 
Q 594 888 459 1306 
Q 325 1725 325 2222 
Q 325 2738 467 3153 
Q 609 3569 882 3861 
Q 1156 4153 1556 4311 
Q 1956 4469 2469 4469 
Q 3172 4469 3644 4194 
Q 4116 3919 4338 3378 
L 3772 3191 
Q 3709 3347 3603 3489 
Q 3497 3631 3337 3740 
Q 3178 3850 2964 3915 
Q 2750 3981 2475 3981 
z
" transform="scale(0.015625)"/>
       <path id="LiberationSans-4f" d="M 4672 2222 
Q 4672 1706 4523 1284 
Q 4375 863 4094 563 
Q 3813 263 3406 100 
Q 3000 -63 2484 -63 
Q 1941 -63 1531 107 
Q 1122 278 850 583 
Q 578 888 440 1306 
Q 303 1725 303 2222 
Q 303 2738 447 3153 
Q 591 3569 869 3861 
Q 1147 4153 1555 4311 
Q 1963 4469 2491 4469 
Q 3016 4469 3423 4309 
Q 3831 4150 4107 3856 
Q 4384 3563 4528 3147 
Q 4672 2731 4672 2222 
z
M 4063 2222 
Q 4063 2619 3961 2944 
Q 3859 3269 3661 3500 
Q 3463 3731 3169 3856 
Q 2875 3981 2491 3981 
Q 2097 3981 1800 3856 
Q 1503 3731 1304 3500 
Q 1106 3269 1007 2944 
Q 909 2619 909 2222 
Q 909 1825 1011 1495 
Q 1113 1166 1311 927 
Q 1509 688 1804 555 
Q 2100 422 2484 422 
Q 2897 422 3195 556 
Q 3494 691 3686 930 
Q 3878 1169 3970 1500 
Q 4063 1831 4063 2222 
z
" transform="scale(0.015625)"/>
       <path id="LiberationSans-20" transform="scale(0.015625)"/>
       <path id="LiberationSans-6a" d="M 428 4100 
L 428 4638 
L 991 4638 
L 991 4100 
L 428 4100 
z
M 991 -419 
Q 991 -613 958 -778 
Q 925 -944 840 -1066 
Q 756 -1188 611 -1258 
Q 466 -1328 241 -1328 
Q 134 -1328 32 -1322 
Q -69 -1316 -156 -1300 
L -156 -866 
Q -116 -872 -59 -878 
Q -3 -884 38 -884 
Q 156 -884 232 -853 
Q 309 -822 353 -755 
Q 397 -688 412 -583 
Q 428 -478 428 -334 
L 428 3381 
L 991 3381 
L 991 -419 
z
" transform="scale(0.015625)"/>
       <path id="LiberationSans-79" d="M 1888 0 
Q 1769 -306 1645 -551 
Q 1522 -797 1369 -970 
Q 1216 -1144 1028 -1236 
Q 841 -1328 597 -1328 
Q 491 -1328 400 -1322 
Q 309 -1316 209 -1294 
L 209 -872 
Q 269 -881 344 -886 
Q 419 -891 472 -891 
Q 719 -891 931 -706 
Q 1144 -522 1303 -119 
L 1356 16 
L 16 3381 
L 616 3381 
L 1328 1513 
Q 1359 1428 1407 1287 
Q 1456 1147 1504 1006 
Q 1553 866 1590 753 
Q 1628 641 1634 613 
Q 1644 647 1680 748 
Q 1716 850 1761 975 
Q 1806 1100 1853 1228 
Q 1900 1356 1931 1450 
L 2594 3381 
L 3188 3381 
L 1888 0 
z
" transform="scale(0.015625)"/>
      </defs>
      <use xlink:href="#LiberationSans-48"/>
      <use xlink:href="#LiberationSans-49" x="72.216797"/>
      <use xlink:href="#LiberationSans-53" x="100"/>
      <use xlink:href="#LiberationSans-43" x="166.699219"/>
      <use xlink:href="#LiberationSans-4f" x="238.916016"/>
      <use xlink:href="#LiberationSans-20" x="316.699219"/>
      <use xlink:href="#LiberationSans-6d" x="344.482422"/>
      <use xlink:href="#LiberationSans-61" x="427.783203"/>
      <use xlink:href="#LiberationSans-6a" x="483.398438"/>
      <use xlink:href="#LiberationSans-6f" x="505.615234"/>
      <use xlink:href="#LiberationSans-72" x="561.230469"/>
      <use xlink:href="#LiberationSans-20" x="594.53125"/>
      <use xlink:href="#LiberationSans-63" x="622.314453"/>
      <use xlink:href="#LiberationSans-61" x="672.314453"/>
      <use xlink:href="#LiberationSans-74" x="727.929688"/>
      <use xlink:href="#LiberationSans-65" x="755.712891"/>
      <use xlink:href="#LiberationSans-67" x="811.328125"/>
      <use xlink:href="#LiberationSans-6f" x="866.943359"/>
      <use xlink:href="#LiberationSans-72" x="922.558594"/>
      <use xlink:href="#LiberationSans-79" x="955.859375"/>
     </g>
    </g>
    <g id="line2d_1">
     <path d="M 486 172.185625 
L 492 172.185625 
L 498 172.185625 
" style="fill: none"/>
     <defs>
      <path id="m5f72f4dc04" d="M 0 3 
C 0.795609 3 1.55874 2.683901 2.12132 2.12132 
C 2.683901 1.55874 3 0.795609 3 0 
C 3 -0.795609 2.683901 -1.55874 2.12132 -2.12132 
C 1.55874 -2.683901 0.795609 -3 0 -3 
C -0.795609 -3 -1.55874 -2.683901 -2.12132 -2.12132 
C -2.683901 -1.55874 -3 -0.795609 -3 0 
C -3 0.795609 -2.683901 1.55874 -2.12132 2.12132 
C -1.55874 2.683901 -0.795609 3 0 3 
z
" style="stroke: #ff0000"/>
     </defs>
     <g>
      <use xlink:href="#m5f72f4dc04" x="492" y="172.185625" style="fill: #ff0000; stroke: #ff0000"/>
     </g>
    </g>
    <g id="text_16">
     <!-- Professional, technical and related workers -->
     <g style="fill: #262626" transform="translate(502.8 174.285625) scale(0.06 -0.06)">
      <defs>
       <path id="LiberationSans-50" d="M 3931 3078 
Q 3931 2791 3836 2542 
Q 3741 2294 3552 2111 
Q 3363 1928 3078 1822 
Q 2794 1716 2416 1716 
L 1122 1716 
L 1122 0 
L 525 0 
L 525 4403 
L 2378 4403 
Q 2769 4403 3059 4308 
Q 3350 4213 3544 4039 
Q 3738 3866 3834 3620 
Q 3931 3375 3931 3078 
z
M 3331 3072 
Q 3331 3491 3075 3708 
Q 2819 3925 2306 3925 
L 1122 3925 
L 1122 2188 
L 2331 2188 
Q 2847 2188 3089 2416 
Q 3331 2644 3331 3072 
z
" transform="scale(0.015625)"/>
       <path id="LiberationSans-2c" d="M 1203 684 
L 1203 159 
Q 1203 -6 1189 -142 
Q 1175 -278 1144 -395 
Q 1113 -513 1067 -616 
Q 1022 -719 959 -819 
L 575 -819 
Q 716 -616 792 -409 
Q 869 -203 869 0 
L 594 0 
L 594 684 
L 1203 684 
z
" transform="scale(0.015625)"/>
       <path id="LiberationSans-68" d="M 991 2803 
Q 1084 2975 1193 3095 
Q 1303 3216 1434 3294 
Q 1566 3372 1722 3408 
Q 1878 3444 2072 3444 
Q 2397 3444 2605 3356 
Q 2813 3269 2933 3111 
Q 3053 2953 3098 2734 
Q 3144 2516 3144 2253 
L 3144 0 
L 2578 0 
L 2578 2144 
Q 2578 2359 2551 2521 
Q 2525 2684 2450 2792 
Q 2375 2900 2237 2954 
Q 2100 3009 1881 3009 
Q 1681 3009 1520 2937 
Q 1359 2866 1245 2734 
Q 1131 2603 1068 2415 
Q 1006 2228 1006 1994 
L 1006 0 
L 444 0 
L 444 4638 
L 1006 4638 
L 1006 3431 
Q 1006 3328 1003 3225 
Q 1000 3122 995 3034 
Q 991 2947 987 2886 
Q 984 2825 981 2803 
L 991 2803 
z
" transform="scale(0.015625)"/>
       <path id="LiberationSans-77" d="M 3669 0 
L 3016 0 
L 2475 2181 
Q 2450 2266 2423 2391 
Q 2397 2516 2372 2634 
Q 2341 2772 2313 2919 
Q 2284 2778 2253 2641 
Q 2228 2522 2198 2394 
Q 2169 2266 2144 2169 
L 1588 0 
L 938 0 
L -9 3381 
L 547 3381 
L 1119 1084 
Q 1141 1013 1162 908 
Q 1184 803 1206 703 
Q 1228 588 1253 466 
Q 1278 584 1306 697 
Q 1331 794 1356 894 
Q 1381 994 1400 1059 
L 2013 3381 
L 2616 3381 
L 3206 1059 
Q 3228 978 3253 875 
Q 3278 772 3300 681 
Q 3325 575 3350 466 
Q 3375 584 3400 697 
Q 3422 794 3445 898 
Q 3469 1003 3491 1084 
L 4088 3381 
L 4638 3381 
L 3669 0 
z
" transform="scale(0.015625)"/>
       <path id="LiberationSans-6b" d="M 2550 0 
L 1406 1544 
L 994 1203 
L 994 0 
L 431 0 
L 431 4638 
L 994 4638 
L 994 1741 
L 2478 3381 
L 3138 3381 
L 1766 1928 
L 3209 0 
L 2550 0 
z
" transform="scale(0.015625)"/>
      </defs>
      <use xlink:href="#LiberationSans-50"/>
      <use xlink:href="#LiberationSans-72" x="66.699219"/>
      <use xlink:href="#LiberationSans-6f" x="100"/>
      <use xlink:href="#LiberationSans-66" x="155.615234"/>
      <use xlink:href="#LiberationSans-65" x="183.398438"/>
      <use xlink:href="#LiberationSans-73" x="239.013672"/>
      <use xlink:href="#LiberationSans-73" x="289.013672"/>
      <use xlink:href="#LiberationSans-69" x="339.013672"/>
      <use xlink:href="#LiberationSans-6f" x="361.230469"/>
      <use xlink:href="#LiberationSans-6e" x="416.845703"/>
      <use xlink:href="#LiberationSans-61" x="472.460938"/>
      <use xlink:href="#LiberationSans-6c" x="528.076172"/>
      <use xlink:href="#LiberationSans-2c" x="550.292969"/>
      <use xlink:href="#LiberationSans-20" x="578.076172"/>
      <use xlink:href="#LiberationSans-74" x="605.859375"/>
      <use xlink:href="#LiberationSans-65" x="633.642578"/>
      <use xlink:href="#LiberationSans-63" x="689.257812"/>
      <use xlink:href="#LiberationSans-68" x="739.257812"/>
      <use xlink:href="#LiberationSans-6e" x="794.873047"/>
      <use xlink:href="#LiberationSans-69" x="850.488281"/>
      <use xlink:href="#LiberationSans-63" x="872.705078"/>
      <use xlink:href="#LiberationSans-61" x="922.705078"/>
      <use xlink:href="#LiberationSans-6c" x="978.320312"/>
      <use xlink:href="#LiberationSans-20" x="1000.537109"/>
      <use xlink:href="#LiberationSans-61" x="1028.320312"/>
      <use xlink:href="#LiberationSans-6e" x="1083.935547"/>
      <use xlink:href="#LiberationSans-64" x="1139.550781"/>
      <use xlink:href="#LiberationSans-20" x="1195.166016"/>
      <use xlink:href="#LiberationSans-72" x="1222.949219"/>
      <use xlink:href="#LiberationSans-65" x="1256.25"/>
      <use xlink:href="#LiberationSans-6c" x="1311.865234"/>
      <use xlink:href="#LiberationSans-61" x="1334.082031"/>
      <use xlink:href="#LiberationSans-74" x="1389.697266"/>
      <use xlink:href="#LiberationSans-65" x="1417.480469"/>
      <use xlink:href="#LiberationSans-64" x="1473.095703"/>
      <use xlink:href="#LiberationSans-20" x="1528.710938"/>
      <use xlink:href="#LiberationSans-77" x="1556.494141"/>
      <use xlink:href="#LiberationSans-6f" x="1628.710938"/>
      <use xlink:href="#LiberationSans-72" x="1684.326172"/>
      <use xlink:href="#LiberationSans-6b" x="1717.626953"/>
      <use xlink:href="#LiberationSans-65" x="1767.626953"/>
      <use xlink:href="#LiberationSans-72" x="1823.242188"/>
      <use xlink:href="#LiberationSans-73" x="1856.542969"/>
     </g>
    </g>
    <g id="line2d_2">
     <path d="M 486 180.77875 
L 492 180.77875 
L 498 180.77875 
" style="fill: none"/>
     <defs>
      <path id="mf99697bc95" d="M 0 3 
C 0.795609 3 1.55874 2.683901 2.12132 2.12132 
C 2.683901 1.55874 3 0.795609 3 0 
C 3 -0.795609 2.683901 -1.55874 2.12132 -2.12132 
C 1.55874 -2.683901 0.795609 -3 0 -3 
C -0.795609 -3 -1.55874 -2.683901 -2.12132 -2.12132 
C -2.683901 -1.55874 -3 -0.795609 -3 0 
C -3 0.795609 -2.683901 1.55874 -2.12132 2.12132 
C -1.55874 2.683901 -0.795609 3 0 3 
z
" style="stroke: #008000"/>
     </defs>
     <g>
      <use xlink:href="#mf99697bc95" x="492" y="180.77875" style="fill: #008000; stroke: #008000"/>
     </g>
    </g>
    <g id="text_17">
     <!-- Administrative and managerial workers -->
     <g style="fill: #262626" transform="translate(502.8 182.87875) scale(0.06 -0.06)">
      <defs>
       <path id="LiberationSans-41" d="M 3647 0 
L 3144 1288 
L 1138 1288 
L 631 0 
L 13 0 
L 1809 4403 
L 2488 4403 
L 4256 0 
L 3647 0 
z
M 2400 3206 
Q 2350 3331 2304 3459 
Q 2259 3588 2225 3692 
Q 2191 3797 2167 3867 
Q 2144 3938 2141 3953 
Q 2134 3938 2112 3866 
Q 2091 3794 2055 3687 
Q 2019 3581 1973 3453 
Q 1928 3325 1881 3200 
L 1319 1753 
L 2966 1753 
L 2400 3206 
z
" transform="scale(0.015625)"/>
      </defs>
      <use xlink:href="#LiberationSans-41"/>
      <use xlink:href="#LiberationSans-64" x="66.699219"/>
      <use xlink:href="#LiberationSans-6d" x="122.314453"/>
      <use xlink:href="#LiberationSans-69" x="205.615234"/>
      <use xlink:href="#LiberationSans-6e" x="227.832031"/>
      <use xlink:href="#LiberationSans-69" x="283.447266"/>
      <use xlink:href="#LiberationSans-73" x="305.664062"/>
      <use xlink:href="#LiberationSans-74" x="355.664062"/>
      <use xlink:href="#LiberationSans-72" x="383.447266"/>
      <use xlink:href="#LiberationSans-61" x="416.748047"/>
      <use xlink:href="#LiberationSans-74" x="472.363281"/>
      <use xlink:href="#LiberationSans-69" x="500.146484"/>
      <use xlink:href="#LiberationSans-76" x="522.363281"/>
      <use xlink:href="#LiberationSans-65" x="572.363281"/>
      <use xlink:href="#LiberationSans-20" x="627.978516"/>
      <use xlink:href="#LiberationSans-61" x="655.761719"/>
      <use xlink:href="#LiberationSans-6e" x="711.376953"/>
      <use xlink:href="#LiberationSans-64" x="766.992188"/>
      <use xlink:href="#LiberationSans-20" x="822.607422"/>
      <use xlink:href="#LiberationSans-6d" x="850.390625"/>
      <use xlink:href="#LiberationSans-61" x="933.691406"/>
      <use xlink:href="#LiberationSans-6e" x="989.306641"/>
      <use xlink:href="#LiberationSans-61" x="1044.921875"/>
      <use xlink:href="#LiberationSans-67" x="1100.537109"/>
      <use xlink:href="#LiberationSans-65" x="1156.152344"/>
      <use xlink:href="#LiberationSans-72" x="1211.767578"/>
      <use xlink:href="#LiberationSans-69" x="1245.068359"/>
      <use xlink:href="#LiberationSans-61" x="1267.285156"/>
      <use xlink:href="#LiberationSans-6c" x="1322.900391"/>
      <use xlink:href="#LiberationSans-20" x="1345.117188"/>
      <use xlink:href="#LiberationSans-77" x="1372.900391"/>
      <use xlink:href="#LiberationSans-6f" x="1445.117188"/>
      <use xlink:href="#LiberationSans-72" x="1500.732422"/>
      <use xlink:href="#LiberationSans-6b" x="1534.033203"/>
      <use xlink:href="#LiberationSans-65" x="1584.033203"/>
      <use xlink:href="#LiberationSans-72" x="1639.648438"/>
      <use xlink:href="#LiberationSans-73" x="1672.949219"/>
     </g>
    </g>
    <g id="line2d_3">
     <path d="M 486 189.371875 
L 492 189.371875 
L 498 189.371875 
" style="fill: none"/>
     <defs>
      <path id="mc66b498359" d="M 0 3 
C 0.795609 3 1.55874 2.683901 2.12132 2.12132 
C 2.683901 1.55874 3 0.795609 3 0 
C 3 -0.795609 2.683901 -1.55874 2.12132 -2.12132 
C 1.55874 -2.683901 0.795609 -3 0 -3 
C -0.795609 -3 -1.55874 -2.683901 -2.12132 -2.12132 
C -2.683901 -1.55874 -3 -0.795609 -3 0 
C -3 0.795609 -2.683901 1.55874 -2.12132 2.12132 
C -1.55874 2.683901 -0.795609 3 0 3 
z
" style="stroke: #0000ff"/>
     </defs>
     <g>
      <use xlink:href="#mc66b498359" x="492" y="189.371875" style="fill: #0000ff; stroke: #0000ff"/>
     </g>
    </g>
    <g id="text_18">
     <!-- Clerical and related workers -->
     <g style="fill: #262626" transform="translate(502.8 191.471875) scale(0.06 -0.06)">
      <use xlink:href="#LiberationSans-43"/>
      <use xlink:href="#LiberationSans-6c" x="72.216797"/>
      <use xlink:href="#LiberationSans-65" x="94.433594"/>
      <use xlink:href="#LiberationSans-72" x="150.048828"/>
      <use xlink:href="#LiberationSans-69" x="183.349609"/>
      <use xlink:href="#LiberationSans-63" x="205.566406"/>
      <use xlink:href="#LiberationSans-61" x="255.566406"/>
      <use xlink:href="#LiberationSans-6c" x="311.181641"/>
      <use xlink:href="#LiberationSans-20" x="333.398438"/>
      <use xlink:href="#LiberationSans-61" x="361.181641"/>
      <use xlink:href="#LiberationSans-6e" x="416.796875"/>
      <use xlink:href="#LiberationSans-64" x="472.412109"/>
      <use xlink:href="#LiberationSans-20" x="528.027344"/>
      <use xlink:href="#LiberationSans-72" x="555.810547"/>
      <use xlink:href="#LiberationSans-65" x="589.111328"/>
      <use xlink:href="#LiberationSans-6c" x="644.726562"/>
      <use xlink:href="#LiberationSans-61" x="666.943359"/>
      <use xlink:href="#LiberationSans-74" x="722.558594"/>
      <use xlink:href="#LiberationSans-65" x="750.341797"/>
      <use xlink:href="#LiberationSans-64" x="805.957031"/>
      <use xlink:href="#LiberationSans-20" x="861.572266"/>
      <use xlink:href="#LiberationSans-77" x="889.355469"/>
      <use xlink:href="#LiberationSans-6f" x="961.572266"/>
      <use xlink:href="#LiberationSans-72" x="1017.1875"/>
      <use xlink:href="#LiberationSans-6b" x="1050.488281"/>
      <use xlink:href="#LiberationSans-65" x="1100.488281"/>
      <use xlink:href="#LiberationSans-72" x="1156.103516"/>
      <use xlink:href="#LiberationSans-73" x="1189.404297"/>
     </g>
    </g>
    <g id="line2d_4">
     <path d="M 486 197.965 
L 492 197.965 
L 498 197.965 
" style="fill: none"/>
     <defs>
      <path id="m98db7d8010" d="M 0 3 
C 0.795609 3 1.55874 2.683901 2.12132 2.12132 
C 2.683901 1.55874 3 0.795609 3 0 
C 3 -0.795609 2.683901 -1.55874 2.12132 -2.12132 
C 1.55874 -2.683901 0.795609 -3 0 -3 
C -0.795609 -3 -1.55874 -2.683901 -2.12132 -2.12132 
C -2.683901 -1.55874 -3 -0.795609 -3 0 
C -3 0.795609 -2.683901 1.55874 -2.12132 2.12132 
C -1.55874 2.683901 -0.795609 3 0 3 
z
" style="stroke: #ffa500"/>
     </defs>
     <g>
      <use xlink:href="#m98db7d8010" x="492" y="197.965" style="fill: #ffa500; stroke: #ffa500"/>
     </g>
    </g>
    <g id="text_19">
     <!-- Sales workers -->
     <g style="fill: #262626" transform="translate(502.8 200.065) scale(0.06 -0.06)">
      <use xlink:href="#LiberationSans-53"/>
      <use xlink:href="#LiberationSans-61" x="66.699219"/>
      <use xlink:href="#LiberationSans-6c" x="122.314453"/>
      <use xlink:href="#LiberationSans-65" x="144.53125"/>
      <use xlink:href="#LiberationSans-73" x="200.146484"/>
      <use xlink:href="#LiberationSans-20" x="250.146484"/>
      <use xlink:href="#LiberationSans-77" x="277.929688"/>
      <use xlink:href="#LiberationSans-6f" x="350.146484"/>
      <use xlink:href="#LiberationSans-72" x="405.761719"/>
      <use xlink:href="#LiberationSans-6b" x="439.0625"/>
      <use xlink:href="#LiberationSans-65" x="489.0625"/>
      <use xlink:href="#LiberationSans-72" x="544.677734"/>
      <use xlink:href="#LiberationSans-73" x="577.978516"/>
     </g>
    </g>
    <g id="line2d_5">
     <path d="M 486 206.558125 
L 492 206.558125 
L 498 206.558125 
" style="fill: none"/>
     <defs>
      <path id="m95377a5195" d="M 0 3 
C 0.795609 3 1.55874 2.683901 2.12132 2.12132 
C 2.683901 1.55874 3 0.795609 3 0 
C 3 -0.795609 2.683901 -1.55874 2.12132 -2.12132 
C 1.55874 -2.683901 0.795609 -3 0 -3 
C -0.795609 -3 -1.55874 -2.683901 -2.12132 -2.12132 
C -2.683901 -1.55874 -3 -0.795609 -3 0 
C -3 0.795609 -2.683901 1.55874 -2.12132 2.12132 
C -1.55874 2.683901 -0.795609 3 0 3 
z
" style="stroke: #800080"/>
     </defs>
     <g>
      <use xlink:href="#m95377a5195" x="492" y="206.558125" style="fill: #800080; stroke: #800080"/>
     </g>
    </g>
    <g id="text_20">
     <!-- Service workers -->
     <g style="fill: #262626" transform="translate(502.8 208.658125) scale(0.06 -0.06)">
      <use xlink:href="#LiberationSans-53"/>
      <use xlink:href="#LiberationSans-65" x="66.699219"/>
      <use xlink:href="#LiberationSans-72" x="122.314453"/>
      <use xlink:href="#LiberationSans-76" x="155.615234"/>
      <use xlink:href="#LiberationSans-69" x="205.615234"/>
      <use xlink:href="#LiberationSans-63" x="227.832031"/>
      <use xlink:href="#LiberationSans-65" x="277.832031"/>
      <use xlink:href="#LiberationSans-20" x="333.447266"/>
      <use xlink:href="#LiberationSans-77" x="361.230469"/>
      <use xlink:href="#LiberationSans-6f" x="433.447266"/>
      <use xlink:href="#LiberationSans-72" x="489.0625"/>
      <use xlink:href="#LiberationSans-6b" x="522.363281"/>
      <use xlink:href="#LiberationSans-65" x="572.363281"/>
      <use xlink:href="#LiberationSans-72" x="627.978516"/>
      <use xlink:href="#LiberationSans-73" x="661.279297"/>
     </g>
    </g>
    <g id="line2d_6">
     <path d="M 486 215.15125 
L 492 215.15125 
L 498 215.15125 
" style="fill: none"/>
     <defs>
      <path id="m15471f3402" d="M 0 3 
C 0.795609 3 1.55874 2.683901 2.12132 2.12132 
C 2.683901 1.55874 3 0.795609 3 0 
C 3 -0.795609 2.683901 -1.55874 2.12132 -2.12132 
C 1.55874 -2.683901 0.795609 -3 0 -3 
C -0.795609 -3 -1.55874 -2.683901 -2.12132 -2.12132 
C -2.683901 -1.55874 -3 -0.795609 -3 0 
C -3 0.795609 -2.683901 1.55874 -2.12132 2.12132 
C -1.55874 2.683901 -0.795609 3 0 3 
z
" style="stroke: #ffc0cb"/>
     </defs>
     <g>
      <use xlink:href="#m15471f3402" x="492" y="215.15125" style="fill: #ffc0cb; stroke: #ffc0cb"/>
     </g>
    </g>
    <g id="text_21">
     <!-- Agricultural, animal husbandry and forestry workers, fishermen and hunters -->
     <g style="fill: #262626" transform="translate(502.8 217.25125) scale(0.06 -0.06)">
      <use xlink:href="#LiberationSans-41"/>
      <use xlink:href="#LiberationSans-67" x="66.699219"/>
      <use xlink:href="#LiberationSans-72" x="122.314453"/>
      <use xlink:href="#LiberationSans-69" x="155.615234"/>
      <use xlink:href="#LiberationSans-63" x="177.832031"/>
      <use xlink:href="#LiberationSans-75" x="227.832031"/>
      <use xlink:href="#LiberationSans-6c" x="283.447266"/>
      <use xlink:href="#LiberationSans-74" x="305.664062"/>
      <use xlink:href="#LiberationSans-75" x="333.447266"/>
      <use xlink:href="#LiberationSans-72" x="389.0625"/>
      <use xlink:href="#LiberationSans-61" x="422.363281"/>
      <use xlink:href="#LiberationSans-6c" x="477.978516"/>
      <use xlink:href="#LiberationSans-2c" x="500.195312"/>
      <use xlink:href="#LiberationSans-20" x="527.978516"/>
      <use xlink:href="#LiberationSans-61" x="555.761719"/>
      <use xlink:href="#LiberationSans-6e" x="611.376953"/>
      <use xlink:href="#LiberationSans-69" x="666.992188"/>
      <use xlink:href="#LiberationSans-6d" x="689.208984"/>
      <use xlink:href="#LiberationSans-61" x="772.509766"/>
      <use xlink:href="#LiberationSans-6c" x="828.125"/>
      <use xlink:href="#LiberationSans-20" x="850.341797"/>
      <use xlink:href="#LiberationSans-68" x="878.125"/>
      <use xlink:href="#LiberationSans-75" x="933.740234"/>
      <use xlink:href="#LiberationSans-73" x="989.355469"/>
      <use xlink:href="#LiberationSans-62" x="1039.355469"/>
      <use xlink:href="#LiberationSans-61" x="1094.970703"/>
      <use xlink:href="#LiberationSans-6e" x="1150.585938"/>
      <use xlink:href="#LiberationSans-64" x="1206.201172"/>
      <use xlink:href="#LiberationSans-72" x="1261.816406"/>
      <use xlink:href="#LiberationSans-79" x="1295.117188"/>
      <use xlink:href="#LiberationSans-20" x="1345.117188"/>
      <use xlink:href="#LiberationSans-61" x="1372.900391"/>
      <use xlink:href="#LiberationSans-6e" x="1428.515625"/>
      <use xlink:href="#LiberationSans-64" x="1484.130859"/>
      <use xlink:href="#LiberationSans-20" x="1539.746094"/>
      <use xlink:href="#LiberationSans-66" x="1567.529297"/>
      <use xlink:href="#LiberationSans-6f" x="1595.3125"/>
      <use xlink:href="#LiberationSans-72" x="1650.927734"/>
      <use xlink:href="#LiberationSans-65" x="1684.228516"/>
      <use xlink:href="#LiberationSans-73" x="1739.84375"/>
      <use xlink:href="#LiberationSans-74" x="1789.84375"/>
      <use xlink:href="#LiberationSans-72" x="1817.626953"/>
      <use xlink:href="#LiberationSans-79" x="1850.927734"/>
      <use xlink:href="#LiberationSans-20" x="1900.927734"/>
      <use xlink:href="#LiberationSans-77" x="1928.710938"/>
      <use xlink:href="#LiberationSans-6f" x="2000.927734"/>
      <use xlink:href="#LiberationSans-72" x="2056.542969"/>
      <use xlink:href="#LiberationSans-6b" x="2089.84375"/>
      <use xlink:href="#LiberationSans-65" x="2139.84375"/>
      <use xlink:href="#LiberationSans-72" x="2195.458984"/>
      <use xlink:href="#LiberationSans-73" x="2228.759766"/>
      <use xlink:href="#LiberationSans-2c" x="2278.759766"/>
      <use xlink:href="#LiberationSans-20" x="2306.542969"/>
      <use xlink:href="#LiberationSans-66" x="2334.326172"/>
      <use xlink:href="#LiberationSans-69" x="2362.109375"/>
      <use xlink:href="#LiberationSans-73" x="2384.326172"/>
      <use xlink:href="#LiberationSans-68" x="2434.326172"/>
      <use xlink:href="#LiberationSans-65" x="2489.941406"/>
      <use xlink:href="#LiberationSans-72" x="2545.556641"/>
      <use xlink:href="#LiberationSans-6d" x="2578.857422"/>
      <use xlink:href="#LiberationSans-65" x="2662.158203"/>
      <use xlink:href="#LiberationSans-6e" x="2717.773438"/>
      <use xlink:href="#LiberationSans-20" x="2773.388672"/>
      <use xlink:href="#LiberationSans-61" x="2801.171875"/>
      <use xlink:href="#LiberationSans-6e" x="2856.787109"/>
      <use xlink:href="#LiberationSans-64" x="2912.402344"/>
      <use xlink:href="#LiberationSans-20" x="2968.017578"/>
      <use xlink:href="#LiberationSans-68" x="2995.800781"/>
      <use xlink:href="#LiberationSans-75" x="3051.416016"/>
      <use xlink:href="#LiberationSans-6e" x="3107.03125"/>
      <use xlink:href="#LiberationSans-74" x="3162.646484"/>
      <use xlink:href="#LiberationSans-65" x="3190.429688"/>
      <use xlink:href="#LiberationSans-72" x="3246.044922"/>
      <use xlink:href="#LiberationSans-73" x="3279.345703"/>
     </g>
    </g>
    <g id="line2d_7">
     <path d="M 486 223.744375 
L 492 223.744375 
L 498 223.744375 
" style="fill: none"/>
     <defs>
      <path id="mfcd0598bdd" d="M 0 3 
C 0.795609 3 1.55874 2.683901 2.12132 2.12132 
C 2.683901 1.55874 3 0.795609 3 0 
C 3 -0.795609 2.683901 -1.55874 2.12132 -2.12132 
C 1.55874 -2.683901 0.795609 -3 0 -3 
C -0.795609 -3 -1.55874 -2.683901 -2.12132 -2.12132 
C -2.683901 -1.55874 -3 -0.795609 -3 0 
C -3 0.795609 -2.683901 1.55874 -2.12132 2.12132 
C -1.55874 2.683901 -0.795609 3 0 3 
z
" style="stroke: #00ced1"/>
     </defs>
     <g>
      <use xlink:href="#mfcd0598bdd" x="492" y="223.744375" style="fill: #00ced1; stroke: #00ced1"/>
     </g>
    </g>
    <g id="text_22">
     <!-- Production and related workers, transport equipment operators and labourers -->
     <g style="fill: #262626" transform="translate(502.8 225.844375) scale(0.06 -0.06)">
      <defs>
       <path id="LiberationSans-70" d="M 3291 1706 
Q 3291 1322 3228 997 
Q 3166 672 3020 437 
Q 2875 203 2636 70 
Q 2397 -63 2047 -63 
Q 1684 -63 1412 75 
Q 1141 213 997 525 
L 981 525 
Q 984 519 986 469 
Q 988 419 989 344 
Q 991 269 992 176 
Q 994 84 994 -6 
L 994 -1328 
L 431 -1328 
L 431 2691 
Q 431 2813 429 2925 
Q 428 3038 425 3130 
Q 422 3222 419 3287 
Q 416 3353 413 3381 
L 956 3381 
Q 959 3372 964 3315 
Q 969 3259 973 3179 
Q 978 3100 983 3009 
Q 988 2919 988 2838 
L 1000 2838 
Q 1078 3000 1178 3114 
Q 1278 3228 1406 3301 
Q 1534 3375 1692 3408 
Q 1850 3441 2047 3441 
Q 2397 3441 2636 3316 
Q 2875 3191 3020 2964 
Q 3166 2738 3228 2417 
Q 3291 2097 3291 1706 
z
M 2700 1694 
Q 2700 2006 2662 2250 
Q 2625 2494 2533 2662 
Q 2441 2831 2287 2918 
Q 2134 3006 1903 3006 
Q 1716 3006 1550 2953 
Q 1384 2900 1261 2750 
Q 1138 2600 1066 2336 
Q 994 2072 994 1650 
Q 994 1291 1053 1042 
Q 1113 794 1227 641 
Q 1341 488 1509 420 
Q 1678 353 1897 353 
Q 2131 353 2286 443 
Q 2441 534 2533 706 
Q 2625 878 2662 1126 
Q 2700 1375 2700 1694 
z
" transform="scale(0.015625)"/>
       <path id="LiberationSans-71" d="M 1513 -63 
Q 869 -63 569 371 
Q 269 806 269 1675 
Q 269 2556 576 3000 
Q 884 3444 1513 3444 
Q 1722 3444 1883 3406 
Q 2044 3369 2170 3295 
Q 2297 3222 2392 3112 
Q 2488 3003 2566 2856 
L 2572 2856 
Q 2572 2934 2576 3029 
Q 2581 3125 2586 3209 
Q 2591 3294 2597 3355 
Q 2603 3416 2609 3425 
L 3150 3425 
Q 3144 3372 3136 3147 
Q 3128 2922 3128 2503 
L 3128 -1328 
L 2566 -1328 
L 2566 44 
Q 2566 125 2567 212 
Q 2569 300 2572 378 
Q 2575 466 2578 556 
L 2572 556 
Q 2491 397 2392 280 
Q 2294 163 2166 86 
Q 2038 9 1877 -27 
Q 1716 -63 1513 -63 
z
M 2566 1731 
Q 2566 2100 2502 2350 
Q 2438 2600 2320 2750 
Q 2203 2900 2036 2964 
Q 1869 3028 1663 3028 
Q 1447 3028 1294 2948 
Q 1141 2869 1045 2705 
Q 950 2541 904 2289 
Q 859 2038 859 1694 
Q 859 1356 901 1106 
Q 944 856 1039 693 
Q 1134 531 1286 451 
Q 1438 372 1656 372 
Q 1844 372 2009 430 
Q 2175 488 2298 639 
Q 2422 791 2494 1055 
Q 2566 1319 2566 1731 
z
" transform="scale(0.015625)"/>
      </defs>
      <use xlink:href="#LiberationSans-50"/>
      <use xlink:href="#LiberationSans-72" x="66.699219"/>
      <use xlink:href="#LiberationSans-6f" x="100"/>
      <use xlink:href="#LiberationSans-64" x="155.615234"/>
      <use xlink:href="#LiberationSans-75" x="211.230469"/>
      <use xlink:href="#LiberationSans-63" x="266.845703"/>
      <use xlink:href="#LiberationSans-74" x="316.845703"/>
      <use xlink:href="#LiberationSans-69" x="344.628906"/>
      <use xlink:href="#LiberationSans-6f" x="366.845703"/>
      <use xlink:href="#LiberationSans-6e" x="422.460938"/>
      <use xlink:href="#LiberationSans-20" x="478.076172"/>
      <use xlink:href="#LiberationSans-61" x="505.859375"/>
      <use xlink:href="#LiberationSans-6e" x="561.474609"/>
      <use xlink:href="#LiberationSans-64" x="617.089844"/>
      <use xlink:href="#LiberationSans-20" x="672.705078"/>
      <use xlink:href="#LiberationSans-72" x="700.488281"/>
      <use xlink:href="#LiberationSans-65" x="733.789062"/>
      <use xlink:href="#LiberationSans-6c" x="789.404297"/>
      <use xlink:href="#LiberationSans-61" x="811.621094"/>
      <use xlink:href="#LiberationSans-74" x="867.236328"/>
      <use xlink:href="#LiberationSans-65" x="895.019531"/>
      <use xlink:href="#LiberationSans-64" x="950.634766"/>
      <use xlink:href="#LiberationSans-20" x="1006.25"/>
      <use xlink:href="#LiberationSans-77" x="1034.033203"/>
      <use xlink:href="#LiberationSans-6f" x="1106.25"/>
      <use xlink:href="#LiberationSans-72" x="1161.865234"/>
      <use xlink:href="#LiberationSans-6b" x="1195.166016"/>
      <use xlink:href="#LiberationSans-65" x="1245.166016"/>
      <use xlink:href="#LiberationSans-72" x="1300.78125"/>
      <use xlink:href="#LiberationSans-73" x="1334.082031"/>
      <use xlink:href="#LiberationSans-2c" x="1384.082031"/>
      <use xlink:href="#LiberationSans-20" x="1411.865234"/>
      <use xlink:href="#LiberationSans-74" x="1439.648438"/>
      <use xlink:href="#LiberationSans-72" x="1467.431641"/>
      <use xlink:href="#LiberationSans-61" x="1500.732422"/>
      <use xlink:href="#LiberationSans-6e" x="1556.347656"/>
      <use xlink:href="#LiberationSans-73" x="1611.962891"/>
      <use xlink:href="#LiberationSans-70" x="1661.962891"/>
      <use xlink:href="#LiberationSans-6f" x="1717.578125"/>
      <use xlink:href="#LiberationSans-72" x="1773.193359"/>
      <use xlink:href="#LiberationSans-74" x="1806.494141"/>
      <use xlink:href="#LiberationSans-20" x="1834.277344"/>
      <use xlink:href="#LiberationSans-65" x="1862.060547"/>
      <use xlink:href="#LiberationSans-71" x="1917.675781"/>
      <use xlink:href="#LiberationSans-75" x="1973.291016"/>
      <use xlink:href="#LiberationSans-69" x="2028.90625"/>
      <use xlink:href="#LiberationSans-70" x="2051.123047"/>
      <use xlink:href="#LiberationSans-6d" x="2106.738281"/>
      <use xlink:href="#LiberationSans-65" x="2190.039062"/>
      <use xlink:href="#LiberationSans-6e" x="2245.654297"/>
      <use xlink:href="#LiberationSans-74" x="2301.269531"/>
      <use xlink:href="#LiberationSans-20" x="2329.052734"/>
      <use xlink:href="#LiberationSans-6f" x="2356.835938"/>
      <use xlink:href="#LiberationSans-70" x="2412.451172"/>
      <use xlink:href="#LiberationSans-65" x="2468.066406"/>
      <use xlink:href="#LiberationSans-72" x="2523.681641"/>
      <use xlink:href="#LiberationSans-61" x="2556.982422"/>
      <use xlink:href="#LiberationSans-74" x="2612.597656"/>
      <use xlink:href="#LiberationSans-6f" x="2640.380859"/>
      <use xlink:href="#LiberationSans-72" x="2695.996094"/>
      <use xlink:href="#LiberationSans-73" x="2729.296875"/>
      <use xlink:href="#LiberationSans-20" x="2779.296875"/>
      <use xlink:href="#LiberationSans-61" x="2807.080078"/>
      <use xlink:href="#LiberationSans-6e" x="2862.695312"/>
      <use xlink:href="#LiberationSans-64" x="2918.310547"/>
      <use xlink:href="#LiberationSans-20" x="2973.925781"/>
      <use xlink:href="#LiberationSans-6c" x="3001.708984"/>
      <use xlink:href="#LiberationSans-61" x="3023.925781"/>
      <use xlink:href="#LiberationSans-62" x="3079.541016"/>
      <use xlink:href="#LiberationSans-6f" x="3135.15625"/>
      <use xlink:href="#LiberationSans-75" x="3190.771484"/>
      <use xlink:href="#LiberationSans-72" x="3246.386719"/>
      <use xlink:href="#LiberationSans-65" x="3279.6875"/>
      <use xlink:href="#LiberationSans-72" x="3335.302734"/>
      <use xlink:href="#LiberationSans-73" x="3368.603516"/>
     </g>
    </g>
    <g id="line2d_8">
     <path d="M 486 232.3375 
L 492 232.3375 
L 498 232.3375 
" style="fill: none"/>
     <defs>
      <path id="m17eb685604" d="M 0 3 
C 0.795609 3 1.55874 2.683901 2.12132 2.12132 
C 2.683901 1.55874 3 0.795609 3 0 
C 3 -0.795609 2.683901 -1.55874 2.12132 -2.12132 
C 1.55874 -2.683901 0.795609 -3 0 -3 
C -0.795609 -3 -1.55874 -2.683901 -2.12132 -2.12132 
C -2.683901 -1.55874 -3 -0.795609 -3 0 
C -3 0.795609 -2.683901 1.55874 -2.12132 2.12132 
C -1.55874 2.683901 -0.795609 3 0 3 
z
" style="stroke: #808080"/>
     </defs>
     <g>
      <use xlink:href="#m17eb685604" x="492" y="232.3375" style="fill: #808080; stroke: #808080"/>
     </g>
    </g>
    <g id="text_23">
     <!-- unclassified -->
     <g style="fill: #262626" transform="translate(502.8 234.4375) scale(0.06 -0.06)">
      <use xlink:href="#LiberationSans-75"/>
      <use xlink:href="#LiberationSans-6e" x="55.615234"/>
      <use xlink:href="#LiberationSans-63" x="111.230469"/>
      <use xlink:href="#LiberationSans-6c" x="161.230469"/>
      <use xlink:href="#LiberationSans-61" x="183.447266"/>
      <use xlink:href="#LiberationSans-73" x="239.0625"/>
      <use xlink:href="#LiberationSans-73" x="289.0625"/>
      <use xlink:href="#LiberationSans-69" x="339.0625"/>
      <use xlink:href="#LiberationSans-66" x="361.279297"/>
      <use xlink:href="#LiberationSans-69" x="389.0625"/>
      <use xlink:href="#LiberationSans-65" x="411.279297"/>
      <use xlink:href="#LiberationSans-64" x="466.894531"/>
     </g>
    </g>
   </g>
  </g>
 </g>
 <defs>
  <clipPath id="pe26fca1abe">
   <rect x="90" y="43.2" width="558" height="277.2"/>
  </clipPath>
 </defs>
</svg>
