<?xml version="1.0" encoding="utf-8" standalone="no"?>
<!DOCTYPE svg PUBLIC "-//W3C//DTD SVG 1.1//EN"
  "http://www.w3.org/Graphics/SVG/1.1/DTD/svg11.dtd">
<svg xmlns:xlink="http://www.w3.org/1999/xlink" width="288pt" height="288pt" viewBox="0 0 288 288" xmlns="http://www.w3.org/2000/svg" version="1.1">
 <metadata>
  <rdf:RDF xmlns:dc="http://purl.org/dc/elements/1.1/" xmlns:cc="http://creativecommons.org/ns#" xmlns:rdf="http://www.w3.org/1999/02/22-rdf-syntax-ns#">
   <cc:Work>
    <dc:type rdf:resource="http://purl.org/dc/dcmitype/StillImage"/>
    <dc:date>2023-11-20T18:40:40.123513</dc:date>
    <dc:format>image/svg+xml</dc:format>
    <dc:creator>
     <cc:Agent>
      <dc:title>Matplotlib v3.8.0, https://matplotlib.org/</dc:title>
     </cc:Agent>
    </dc:creator>
   </cc:Work>
  </rdf:RDF>
 </metadata>
 <defs>
  <style type="text/css">*{stroke-linejoin: round; stroke-linecap: butt}</style>
 </defs>
 <g id="figure_1">
  <g id="patch_1">
   <path d="M 0 288 
L 288 288 
L 288 0 
L 0 0 
z
" style="fill: #ffffff"/>
  </g>
  <g id="axes_1">
   <g id="LineCollection_1">
    <path d="M 116.580064 185.428718 
L 128.986535 194.624472 
" clip-path="url(#pd609136974)" style="fill: none; stroke: #808080; stroke-opacity: 0.5; stroke-width: 2.321928"/>
    <path d="M 116.580064 185.428718 
L 104.768805 176.343493 
" clip-path="url(#pd609136974)" style="fill: none; stroke: #808080; stroke-opacity: 0.5; stroke-width: 2.321928"/>
    <path d="M 116.580064 185.428718 
L 139.121121 135.894626 
" clip-path="url(#pd609136974)" style="fill: none; stroke: #808080; stroke-opacity: 0.5; stroke-width: 4.321928"/>
    <path d="M 139.121121 135.894626 
L 93.785704 146.934017 
" clip-path="url(#pd609136974)" style="fill: none; stroke: #808080; stroke-opacity: 0.5; stroke-width: 3.906891"/>
    <path d="M 139.121121 135.894626 
L 150.567316 169.421342 
" clip-path="url(#pd609136974)" style="fill: none; stroke: #808080; stroke-opacity: 0.5; stroke-width: 3.321928"/>
    <path d="M 236.338363 53.803636 
L 126.087209 224.314582 
" clip-path="url(#pd609136974)" style="fill: none; stroke: #808080; stroke-opacity: 0.5; stroke-width: 5.78136"/>
    <path d="M 236.338363 53.803636 
L 93.785704 146.934017 
" clip-path="url(#pd609136974)" style="fill: none; stroke: #808080; stroke-opacity: 0.5; stroke-width: 5.643856"/>
    <path d="M 236.338363 53.803636 
L 128.986535 194.624472 
" clip-path="url(#pd609136974)" style="fill: none; stroke: #808080; stroke-opacity: 0.5; stroke-width: 5.906891"/>
    <path d="M 63.740264 157.716182 
L 78.556545 237.076364 
" clip-path="url(#pd609136974)" style="fill: none; stroke: #808080; stroke-opacity: 0.5; stroke-width: 4.321928"/>
    <path d="M 63.740264 157.716182 
L 93.785704 146.934017 
" clip-path="url(#pd609136974)" style="fill: none; stroke: #808080; stroke-opacity: 0.5; stroke-width: 3.321928"/>
    <path d="M 104.768805 176.343493 
L 93.785704 146.934017 
" clip-path="url(#pd609136974)" style="fill: none; stroke: #808080; stroke-opacity: 0.5; stroke-width: 3.321928"/>
    <path d="M 104.768805 176.343493 
L 128.986535 194.624472 
" clip-path="url(#pd609136974)" style="fill: none; stroke: #808080; stroke-opacity: 0.5; stroke-width: 3.906891"/>
    <path d="M 150.567316 169.421342 
L 78.556545 237.076364 
" clip-path="url(#pd609136974)" style="fill: none; stroke: #808080; stroke-opacity: 0.5; stroke-width: 6.022368"/>
    <path d="M 150.567316 169.421342 
L 93.785704 146.934017 
" clip-path="url(#pd609136974)" style="fill: none; stroke: #808080; stroke-opacity: 0.5; stroke-width: 4.321928"/>
    <path d="M 150.567316 169.421342 
L 128.986535 194.624472 
" clip-path="url(#pd609136974)" style="fill: none; stroke: #808080; stroke-opacity: 0.5; stroke-width: 4.906891"/>
    <path d="M 150.567316 169.421342 
L 132.083224 209.487782 
" clip-path="url(#pd609136974)" style="fill: none; stroke: #808080; stroke-opacity: 0.5; stroke-width: 3.321928"/>
    <path d="M 78.556545 237.076364 
L 126.087209 224.314582 
" clip-path="url(#pd609136974)" style="fill: none; stroke: #808080; stroke-opacity: 0.5; stroke-width: 3.906891"/>
    <path d="M 78.556545 237.076364 
L 93.785704 146.934017 
" clip-path="url(#pd609136974)" style="fill: none; stroke: #808080; stroke-opacity: 0.5; stroke-width: 7.022368"/>
    <path d="M 78.556545 237.076364 
L 128.986535 194.624472 
" clip-path="url(#pd609136974)" style="fill: none; stroke: #808080; stroke-opacity: 0.5; stroke-width: 5.129283"/>
    <path d="M 126.087209 224.314582 
L 93.785704 146.934017 
" clip-path="url(#pd609136974)" style="fill: none; stroke: #808080; stroke-opacity: 0.5; stroke-width: 4.643856"/>
    <path d="M 126.087209 224.314582 
L 128.986535 194.624472 
" clip-path="url(#pd609136974)" style="fill: none; stroke: #808080; stroke-opacity: 0.5; stroke-width: 7.179909"/>
    <path d="M 126.087209 224.314582 
L 132.083224 209.487782 
" clip-path="url(#pd609136974)" style="fill: none; stroke: #808080; stroke-opacity: 0.5; stroke-width: 2.321928"/>
    <path d="M 58.861637 71.766391 
L 93.785704 146.934017 
" clip-path="url(#pd609136974)" style="fill: none; stroke: #808080; stroke-opacity: 0.5; stroke-width: 4.643856"/>
    <path d="M 93.785704 146.934017 
L 128.986535 194.624472 
" clip-path="url(#pd609136974)" style="fill: none; stroke: #808080; stroke-opacity: 0.5; stroke-width: 6.643856"/>
    <path d="M 132.083224 209.487782 
L 128.986535 194.624472 
" clip-path="url(#pd609136974)" style="fill: none; stroke: #808080; stroke-opacity: 0.5; stroke-width: 2.321928"/>
    <path d="M 128.986535 194.624472 
L 144.480522 195.243703 
" clip-path="url(#pd609136974)" style="fill: none; stroke: #808080; stroke-opacity: 0.5; stroke-width: 2.321928"/>
   </g>
   <g id="PathCollection_1">
    <path d="M 116.580064 187.978228 
C 117.256202 187.978228 117.904738 187.709596 118.38284 187.231494 
C 118.860942 186.753392 119.129574 186.104856 119.129574 185.428718 
C 119.129574 184.752581 118.860942 184.104045 118.38284 183.625943 
C 117.904738 183.147841 117.256202 182.879209 116.580064 182.879209 
C 115.903926 182.879209 115.25539 183.147841 114.777289 183.625943 
C 114.299187 184.104045 114.030555 184.752581 114.030555 185.428718 
C 114.030555 186.104856 114.299187 186.753392 114.777289 187.231494 
C 115.25539 187.709596 115.903926 187.978228 116.580064 187.978228 
z
" clip-path="url(#pd609136974)" style="fill: #ff0000; stroke: #ff0000"/>
    <path d="M 139.121121 138.976833 
C 139.938532 138.976833 140.722574 138.652072 141.300571 138.074075 
C 141.878568 137.496079 142.203328 136.712037 142.203328 135.894626 
C 142.203328 135.077215 141.878568 134.293173 141.300571 133.715176 
C 140.722574 133.13718 139.938532 132.812419 139.121121 132.812419 
C 138.303711 132.812419 137.519669 133.13718 136.941672 133.715176 
C 136.363675 134.293173 136.038914 135.077215 136.038914 135.894626 
C 136.038914 136.712037 136.363675 137.496079 136.941672 138.074075 
C 137.519669 138.652072 138.303711 138.976833 139.121121 138.976833 
z
" clip-path="url(#pd609136974)" style="fill: #ff0000; stroke: #ff0000"/>
    <path d="M 236.338363 57.33917 
C 237.275997 57.33917 238.175355 56.966644 238.838363 56.303636 
C 239.501371 55.640629 239.873897 54.741271 239.873897 53.803636 
C 239.873897 52.866002 239.501371 51.966644 238.838363 51.303636 
C 238.175355 50.640629 237.275997 50.268102 236.338363 50.268102 
C 235.400728 50.268102 234.501371 50.640629 233.838363 51.303636 
C 233.175355 51.966644 232.802829 52.866002 232.802829 53.803636 
C 232.802829 54.741271 233.175355 55.640629 233.838363 56.303636 
C 234.501371 56.966644 235.400728 57.33917 236.338363 57.33917 
z
" clip-path="url(#pd609136974)" style="fill: #00ced1; stroke: #00ced1"/>
    <path d="M 63.740264 160.165672 
C 64.389876 160.165672 65.012969 159.907578 65.472315 159.448233 
C 65.93166 158.988888 66.189753 158.365794 66.189753 157.716182 
C 66.189753 157.06657 65.93166 156.443477 65.472315 155.984131 
C 65.012969 155.524786 64.389876 155.266692 63.740264 155.266692 
C 63.090651 155.266692 62.467558 155.524786 62.008213 155.984131 
C 61.548868 156.443477 61.290774 157.06657 61.290774 157.716182 
C 61.290774 158.365794 61.548868 158.988888 62.008213 159.448233 
C 62.467558 159.907578 63.090651 160.165672 63.740264 160.165672 
z
" clip-path="url(#pd609136974)" style="fill: #008000; stroke: #008000"/>
    <path d="M 104.768805 179.914207 
C 105.71577 179.914207 106.624076 179.537974 107.293681 178.868369 
C 107.963286 178.198764 108.339519 177.290457 108.339519 176.343493 
C 108.339519 175.396528 107.963286 174.488221 107.293681 173.818616 
C 106.624076 173.149011 105.71577 172.772778 104.768805 172.772778 
C 103.821841 172.772778 102.913534 173.149011 102.243929 173.818616 
C 101.574324 174.488221 101.198091 175.396528 101.198091 176.343493 
C 101.198091 177.290457 101.574324 178.198764 102.243929 178.868369 
C 102.913534 179.537974 103.821841 179.914207 104.768805 179.914207 
z
" clip-path="url(#pd609136974)" style="fill: #00ced1; stroke: #00ced1"/>
    <path d="M 150.567316 174.294739 
C 151.859756 174.294739 153.099435 173.781247 154.013328 172.867354 
C 154.927221 171.953461 155.440713 170.713782 155.440713 169.421342 
C 155.440713 168.128902 154.927221 166.889223 154.013328 165.97533 
C 153.099435 165.061437 151.859756 164.547945 150.567316 164.547945 
C 149.274876 164.547945 148.035197 165.061437 147.121304 165.97533 
C 146.207411 166.889223 145.693919 168.128902 145.693919 169.421342 
C 145.693919 170.713782 146.207411 171.953461 147.121304 172.867354 
C 148.035197 173.781247 149.274876 174.294739 150.567316 174.294739 
z
" clip-path="url(#pd609136974)" style="fill: #0000ff; stroke: #0000ff"/>
    <path d="M 78.556545 241.872195 
C 79.828414 241.872195 81.048362 241.366876 81.94771 240.467529 
C 82.847057 239.568181 83.352376 238.348233 83.352376 237.076364 
C 83.352376 235.804494 82.847057 234.584546 81.94771 233.685199 
C 81.048362 232.785851 79.828414 232.280532 78.556545 232.280532 
C 77.284675 232.280532 76.064727 232.785851 75.16538 233.685199 
C 74.266032 234.584546 73.760713 235.804494 73.760713 237.076364 
C 73.760713 238.348233 74.266032 239.568181 75.16538 240.467529 
C 76.064727 241.366876 77.284675 241.872195 78.556545 241.872195 
z
" clip-path="url(#pd609136974)" style="fill: #00ced1; stroke: #00ced1"/>
    <path d="M 126.087209 229.031573 
C 127.338169 229.031573 128.538062 228.534561 129.422625 227.649998 
C 130.307187 226.765435 130.804199 225.565542 130.804199 224.314582 
C 130.804199 223.063621 130.307187 221.863729 129.422625 220.979166 
C 128.538062 220.094603 127.338169 219.597591 126.087209 219.597591 
C 124.836248 219.597591 123.636355 220.094603 122.751793 220.979166 
C 121.86723 221.863729 121.370218 223.063621 121.370218 224.314582 
C 121.370218 225.565542 121.86723 226.765435 122.751793 227.649998 
C 123.636355 228.534561 124.836248 229.031573 126.087209 229.031573 
z
" clip-path="url(#pd609136974)" style="fill: #00ced1; stroke: #00ced1"/>
    <path d="M 58.861637 74.550273 
C 59.599931 74.550273 60.308086 74.256946 60.830139 73.734893 
C 61.352192 73.21284 61.645519 72.504685 61.645519 71.766391 
C 61.645519 71.028097 61.352192 70.319942 60.830139 69.797889 
C 60.308086 69.275836 59.599931 68.982509 58.861637 68.982509 
C 58.123343 68.982509 57.415188 69.275836 56.893135 69.797889 
C 56.371082 70.319942 56.077755 71.028097 56.077755 71.766391 
C 56.077755 72.504685 56.371082 73.21284 56.893135 73.734893 
C 57.415188 74.256946 58.123343 74.550273 58.861637 74.550273 
z
" clip-path="url(#pd609136974)" style="fill: #0000ff; stroke: #0000ff"/>
    <path d="M 93.785704 158.670711 
C 96.898312 158.670711 99.883855 157.434059 102.084801 155.233113 
C 104.285747 153.032167 105.522399 150.046625 105.522399 146.934017 
C 105.522399 143.821409 104.285747 140.835867 102.084801 138.634921 
C 99.883855 136.433974 96.898312 135.197322 93.785704 135.197322 
C 90.673097 135.197322 87.687554 136.433974 85.486608 138.634921 
C 83.285662 140.835867 82.04901 143.821409 82.04901 146.934017 
C 82.04901 150.046625 83.285662 153.032167 85.486608 155.233113 
C 87.687554 157.434059 90.673097 158.670711 93.785704 158.670711 
z
" clip-path="url(#pd609136974)" style="fill: #008000; stroke: #008000"/>
    <path d="M 132.083224 213.846681 
C 133.239218 213.846681 134.34802 213.3874 135.165431 212.569989 
C 135.982842 211.752578 136.442123 210.643775 136.442123 209.487782 
C 136.442123 208.331788 135.982842 207.222986 135.165431 206.405575 
C 134.34802 205.588164 133.239218 205.128883 132.083224 205.128883 
C 130.927231 205.128883 129.818428 205.588164 129.001017 206.405575 
C 128.183606 207.222986 127.724325 208.331788 127.724325 209.487782 
C 127.724325 210.643775 128.183606 211.752578 129.001017 212.569989 
C 129.818428 213.3874 130.927231 213.846681 132.083224 213.846681 
z
" clip-path="url(#pd609136974)" style="fill: #ff0000; stroke: #ff0000"/>
    <path d="M 128.986535 203.871093 
C 131.438768 203.871093 133.790894 202.89681 135.524884 201.16282 
C 137.258874 199.42883 138.233156 197.076704 138.233156 194.624472 
C 138.233156 192.172239 137.258874 189.820114 135.524884 188.086123 
C 133.790894 186.352133 131.438768 185.377851 128.986535 185.377851 
C 126.534303 185.377851 124.182177 186.352133 122.448187 188.086123 
C 120.714197 189.820114 119.739914 192.172239 119.739914 194.624472 
C 119.739914 197.076704 120.714197 199.42883 122.448187 201.16282 
C 124.182177 202.89681 126.534303 203.871093 128.986535 203.871093 
z
" clip-path="url(#pd609136974)" style="fill: #00ced1; stroke: #00ced1"/>
    <path d="M 144.480522 197.479771 
C 145.073534 197.479771 145.642338 197.244165 146.061661 196.824842 
C 146.480984 196.405519 146.71659 195.836716 146.71659 195.243703 
C 146.71659 194.650691 146.480984 194.081887 146.061661 193.662565 
C 145.642338 193.243242 145.073534 193.007635 144.480522 193.007635 
C 143.88751 193.007635 143.318706 193.243242 142.899383 193.662565 
C 142.480061 194.081887 142.244454 194.650691 142.244454 195.243703 
C 142.244454 195.836716 142.480061 196.405519 142.899383 196.824842 
C 143.318706 197.244165 143.88751 197.479771 144.480522 197.479771 
z
" clip-path="url(#pd609136974)" style="fill: #ff0000; stroke: #ff0000"/>
    <path d="M 134.465176 175.622822 
C 135.072832 175.622822 135.655683 175.381398 136.085361 174.951719 
C 136.515039 174.522041 136.756464 173.939191 136.756464 173.331534 
C 136.756464 172.723878 136.515039 172.141027 136.085361 171.711349 
C 135.655683 171.281671 135.072832 171.040246 134.465176 171.040246 
C 133.857519 171.040246 133.274669 171.281671 132.844991 171.711349 
C 132.415312 172.141027 132.173888 172.723878 132.173888 173.331534 
C 132.173888 173.939191 132.415312 174.522041 132.844991 174.951719 
C 133.274669 175.381398 133.857519 175.622822 134.465176 175.622822 
z
" clip-path="url(#pd609136974)" style="fill: #00ced1; stroke: #00ced1"/>
   </g>
   <g id="text_1">
    <g clip-path="url(#pd609136974)">
     <!-- gladiator -->
     <g transform="translate(101.237564 187.497468) scale(0.08 -0.08)">
      <defs>
       <path id="LiberationSans-67" d="M 1713 -1328 
Q 1422 -1328 1197 -1268 
Q 972 -1209 812 -1098 
Q 653 -988 553 -834 
Q 453 -681 409 -494 
L 975 -413 
Q 1031 -647 1223 -773 
Q 1416 -900 1728 -900 
Q 1919 -900 2075 -847 
Q 2231 -794 2340 -676 
Q 2450 -559 2509 -371 
Q 2569 -184 2569 84 
L 2569 628 
L 2563 628 
Q 2500 500 2408 383 
Q 2316 266 2183 175 
Q 2050 84 1875 29 
Q 1700 -25 1475 -25 
Q 1153 -25 923 83 
Q 694 191 548 406 
Q 403 622 336 942 
Q 269 1263 269 1684 
Q 269 2091 336 2416 
Q 403 2741 554 2967 
Q 706 3194 948 3314 
Q 1191 3434 1538 3434 
Q 1897 3434 2161 3270 
Q 2425 3106 2569 2803 
L 2575 2803 
Q 2575 2881 2579 2978 
Q 2584 3075 2589 3161 
Q 2594 3247 2600 3309 
Q 2606 3372 2613 3381 
L 3147 3381 
Q 3144 3353 3141 3286 
Q 3138 3219 3134 3125 
Q 3131 3031 3129 2917 
Q 3128 2803 3128 2681 
L 3128 97 
Q 3128 -613 2779 -970 
Q 2431 -1328 1713 -1328 
z
M 2569 1691 
Q 2569 2044 2492 2295 
Q 2416 2547 2291 2706 
Q 2166 2866 2005 2941 
Q 1844 3016 1675 3016 
Q 1459 3016 1304 2941 
Q 1150 2866 1048 2705 
Q 947 2544 898 2292 
Q 850 2041 850 1691 
Q 850 1325 898 1076 
Q 947 828 1047 675 
Q 1147 522 1300 456 
Q 1453 391 1666 391 
Q 1834 391 1995 462 
Q 2156 534 2284 690 
Q 2413 847 2491 1094 
Q 2569 1341 2569 1691 
z
" transform="scale(0.015625)"/>
       <path id="LiberationSans-6c" d="M 431 0 
L 431 4638 
L 994 4638 
L 994 0 
L 431 0 
z
" transform="scale(0.015625)"/>
       <path id="LiberationSans-61" d="M 1294 -63 
Q 784 -63 528 206 
Q 272 475 272 944 
Q 272 1278 398 1492 
Q 525 1706 729 1828 
Q 934 1950 1196 1997 
Q 1459 2044 1731 2050 
L 2491 2063 
L 2491 2247 
Q 2491 2456 2447 2603 
Q 2403 2750 2312 2840 
Q 2222 2931 2086 2973 
Q 1950 3016 1766 3016 
Q 1603 3016 1472 2992 
Q 1341 2969 1244 2908 
Q 1147 2847 1087 2742 
Q 1028 2638 1009 2478 
L 422 2531 
Q 453 2731 540 2898 
Q 628 3066 789 3187 
Q 950 3309 1192 3376 
Q 1434 3444 1778 3444 
Q 2416 3444 2737 3151 
Q 3059 2859 3059 2306 
L 3059 850 
Q 3059 600 3125 473 
Q 3191 347 3375 347 
Q 3422 347 3469 353 
Q 3516 359 3559 369 
L 3559 19 
Q 3453 -6 3348 -18 
Q 3244 -31 3125 -31 
Q 2966 -31 2852 11 
Q 2738 53 2666 139 
Q 2594 225 2556 351 
Q 2519 478 2509 647 
L 2491 647 
Q 2400 484 2292 353 
Q 2184 222 2040 130 
Q 1897 38 1714 -12 
Q 1531 -63 1294 -63 
z
M 1422 359 
Q 1691 359 1892 457 
Q 2094 556 2226 709 
Q 2359 863 2425 1044 
Q 2491 1225 2491 1391 
L 2491 1669 
L 1875 1656 
Q 1669 1653 1483 1626 
Q 1297 1600 1156 1522 
Q 1016 1444 933 1303 
Q 850 1163 850 934 
Q 850 659 998 509 
Q 1147 359 1422 359 
z
" transform="scale(0.015625)"/>
       <path id="LiberationSans-64" d="M 2566 544 
Q 2409 219 2151 78 
Q 1894 -63 1513 -63 
Q 872 -63 570 368 
Q 269 800 269 1675 
Q 269 3444 1513 3444 
Q 1897 3444 2153 3303 
Q 2409 3163 2566 2856 
L 2572 2856 
Q 2572 2888 2570 2955 
Q 2569 3022 2567 3095 
Q 2566 3169 2566 3234 
Q 2566 3300 2566 3328 
L 2566 4638 
L 3128 4638 
L 3128 697 
Q 3128 575 3129 462 
Q 3131 350 3134 256 
Q 3138 163 3141 95 
Q 3144 28 3147 0 
L 2609 0 
Q 2603 31 2598 89 
Q 2594 147 2589 222 
Q 2584 297 2581 380 
Q 2578 463 2578 544 
L 2566 544 
z
M 859 1694 
Q 859 1344 903 1094 
Q 947 844 1044 683 
Q 1141 522 1291 447 
Q 1441 372 1656 372 
Q 1878 372 2048 444 
Q 2219 516 2333 677 
Q 2447 838 2506 1097 
Q 2566 1356 2566 1731 
Q 2566 2091 2506 2339 
Q 2447 2588 2331 2741 
Q 2216 2894 2048 2961 
Q 1881 3028 1663 3028 
Q 1456 3028 1306 2956 
Q 1156 2884 1056 2725 
Q 956 2566 907 2311 
Q 859 2056 859 1694 
z
" transform="scale(0.015625)"/>
       <path id="LiberationSans-69" d="M 428 4100 
L 428 4638 
L 991 4638 
L 991 4100 
L 428 4100 
z
M 428 0 
L 428 3381 
L 991 3381 
L 991 0 
L 428 0 
z
" transform="scale(0.015625)"/>
       <path id="LiberationSans-74" d="M 1731 25 
Q 1603 -9 1470 -29 
Q 1338 -50 1163 -50 
Q 488 -50 488 716 
L 488 2972 
L 97 2972 
L 97 3381 
L 509 3381 
L 675 4138 
L 1050 4138 
L 1050 3381 
L 1675 3381 
L 1675 2972 
L 1050 2972 
L 1050 838 
Q 1050 594 1129 495 
Q 1209 397 1406 397 
Q 1488 397 1564 409 
Q 1641 422 1731 441 
L 1731 25 
z
" transform="scale(0.015625)"/>
       <path id="LiberationSans-6f" d="M 3291 1694 
Q 3291 806 2900 371 
Q 2509 -63 1766 -63 
Q 1413 -63 1134 43 
Q 856 150 664 369 
Q 472 588 370 917 
Q 269 1247 269 1694 
Q 269 3444 1784 3444 
Q 2178 3444 2464 3334 
Q 2750 3225 2933 3006 
Q 3116 2788 3203 2459 
Q 3291 2131 3291 1694 
z
M 2700 1694 
Q 2700 2088 2639 2344 
Q 2578 2600 2461 2753 
Q 2344 2906 2175 2967 
Q 2006 3028 1794 3028 
Q 1578 3028 1404 2964 
Q 1231 2900 1109 2745 
Q 988 2591 923 2334 
Q 859 2078 859 1694 
Q 859 1300 928 1042 
Q 997 784 1117 631 
Q 1238 478 1402 415 
Q 1566 353 1759 353 
Q 1975 353 2150 414 
Q 2325 475 2447 628 
Q 2569 781 2634 1040 
Q 2700 1300 2700 1694 
z
" transform="scale(0.015625)"/>
       <path id="LiberationSans-72" d="M 444 0 
L 444 2594 
Q 444 2700 442 2811 
Q 441 2922 437 3025 
Q 434 3128 431 3218 
Q 428 3309 425 3381 
L 956 3381 
Q 959 3309 964 3217 
Q 969 3125 973 3028 
Q 978 2931 979 2842 
Q 981 2753 981 2691 
L 994 2691 
Q 1053 2884 1120 3026 
Q 1188 3169 1278 3261 
Q 1369 3353 1494 3398 
Q 1619 3444 1797 3444 
Q 1866 3444 1928 3433 
Q 1991 3422 2025 3413 
L 2025 2897 
Q 1969 2913 1894 2920 
Q 1819 2928 1725 2928 
Q 1531 2928 1395 2840 
Q 1259 2753 1173 2598 
Q 1088 2444 1047 2230 
Q 1006 2016 1006 1763 
L 1006 0 
L 444 0 
z
" transform="scale(0.015625)"/>
      </defs>
      <use xlink:href="#LiberationSans-67"/>
      <use xlink:href="#LiberationSans-6c" x="55.615234"/>
      <use xlink:href="#LiberationSans-61" x="77.832031"/>
      <use xlink:href="#LiberationSans-64" x="133.447266"/>
      <use xlink:href="#LiberationSans-69" x="189.0625"/>
      <use xlink:href="#LiberationSans-61" x="211.279297"/>
      <use xlink:href="#LiberationSans-74" x="266.894531"/>
      <use xlink:href="#LiberationSans-6f" x="294.677734"/>
      <use xlink:href="#LiberationSans-72" x="350.292969"/>
     </g>
    </g>
   </g>
   <g id="text_2">
    <g clip-path="url(#pd609136974)">
     <!-- scaenicus -->
     <g transform="translate(121.334871 137.963376) scale(0.08 -0.08)">
      <defs>
       <path id="LiberationSans-73" d="M 2969 934 
Q 2969 697 2876 511 
Q 2784 325 2609 198 
Q 2434 72 2179 4 
Q 1925 -63 1597 -63 
Q 1303 -63 1067 -17 
Q 831 28 653 128 
Q 475 228 354 392 
Q 234 556 178 794 
L 675 891 
Q 747 619 972 492 
Q 1197 366 1597 366 
Q 1778 366 1929 391 
Q 2081 416 2190 477 
Q 2300 538 2361 639 
Q 2422 741 2422 891 
Q 2422 1044 2350 1142 
Q 2278 1241 2150 1306 
Q 2022 1372 1839 1420 
Q 1656 1469 1438 1528 
Q 1234 1581 1034 1647 
Q 834 1713 673 1820 
Q 513 1928 413 2087 
Q 313 2247 313 2488 
Q 313 2950 642 3192 
Q 972 3434 1603 3434 
Q 2163 3434 2492 3237 
Q 2822 3041 2909 2606 
L 2403 2544 
Q 2375 2675 2300 2764 
Q 2225 2853 2119 2908 
Q 2013 2963 1880 2986 
Q 1747 3009 1603 3009 
Q 1222 3009 1040 2893 
Q 859 2778 859 2544 
Q 859 2406 926 2317 
Q 994 2228 1114 2167 
Q 1234 2106 1403 2061 
Q 1572 2016 1775 1966 
Q 1909 1931 2050 1892 
Q 2191 1853 2323 1798 
Q 2456 1744 2573 1670 
Q 2691 1597 2778 1494 
Q 2866 1391 2917 1253 
Q 2969 1116 2969 934 
z
" transform="scale(0.015625)"/>
       <path id="LiberationSans-63" d="M 859 1706 
Q 859 1416 901 1172 
Q 944 928 1044 751 
Q 1144 575 1308 478 
Q 1472 381 1713 381 
Q 2013 381 2214 543 
Q 2416 706 2463 1044 
L 3031 1006 
Q 3003 797 2909 603 
Q 2816 409 2655 262 
Q 2494 116 2262 26 
Q 2031 -63 1728 -63 
Q 1331 -63 1053 71 
Q 775 206 601 442 
Q 428 678 350 998 
Q 272 1319 272 1694 
Q 272 2034 328 2295 
Q 384 2556 486 2751 
Q 588 2947 725 3080 
Q 863 3213 1023 3292 
Q 1184 3372 1362 3408 
Q 1541 3444 1722 3444 
Q 2006 3444 2228 3366 
Q 2450 3288 2611 3152 
Q 2772 3016 2872 2831 
Q 2972 2647 3013 2434 
L 2434 2391 
Q 2391 2672 2212 2837 
Q 2034 3003 1706 3003 
Q 1466 3003 1305 2923 
Q 1144 2844 1044 2683 
Q 944 2522 901 2278 
Q 859 2034 859 1706 
z
" transform="scale(0.015625)"/>
       <path id="LiberationSans-65" d="M 863 1572 
Q 863 1306 917 1082 
Q 972 859 1086 698 
Q 1200 538 1378 448 
Q 1556 359 1806 359 
Q 2172 359 2392 506 
Q 2613 653 2691 878 
L 3184 738 
Q 3131 597 3036 455 
Q 2941 313 2781 198 
Q 2622 84 2383 10 
Q 2144 -63 1806 -63 
Q 1056 -63 664 384 
Q 272 831 272 1713 
Q 272 2188 390 2517 
Q 509 2847 715 3053 
Q 922 3259 1197 3351 
Q 1472 3444 1784 3444 
Q 2209 3444 2495 3306 
Q 2781 3169 2954 2926 
Q 3128 2684 3201 2356 
Q 3275 2028 3275 1647 
L 3275 1572 
L 863 1572 
z
M 2694 2003 
Q 2647 2538 2422 2783 
Q 2197 3028 1775 3028 
Q 1634 3028 1479 2983 
Q 1325 2938 1194 2822 
Q 1063 2706 972 2507 
Q 881 2309 869 2003 
L 2694 2003 
z
" transform="scale(0.015625)"/>
       <path id="LiberationSans-6e" d="M 2578 0 
L 2578 2144 
Q 2578 2391 2542 2556 
Q 2506 2722 2425 2823 
Q 2344 2925 2211 2967 
Q 2078 3009 1881 3009 
Q 1681 3009 1520 2939 
Q 1359 2869 1245 2736 
Q 1131 2603 1068 2408 
Q 1006 2213 1006 1959 
L 1006 0 
L 444 0 
L 444 2659 
Q 444 2766 442 2883 
Q 441 3000 437 3104 
Q 434 3209 431 3284 
Q 428 3359 425 3381 
L 956 3381 
Q 959 3366 962 3297 
Q 966 3228 970 3139 
Q 975 3050 978 2958 
Q 981 2866 981 2803 
L 991 2803 
Q 1072 2950 1169 3069 
Q 1266 3188 1394 3270 
Q 1522 3353 1687 3398 
Q 1853 3444 2072 3444 
Q 2353 3444 2556 3375 
Q 2759 3306 2890 3162 
Q 3022 3019 3083 2792 
Q 3144 2566 3144 2253 
L 3144 0 
L 2578 0 
z
" transform="scale(0.015625)"/>
       <path id="LiberationSans-75" d="M 981 3381 
L 981 1238 
Q 981 991 1017 825 
Q 1053 659 1134 557 
Q 1216 456 1348 414 
Q 1481 372 1678 372 
Q 1878 372 2039 442 
Q 2200 513 2314 645 
Q 2428 778 2490 973 
Q 2553 1169 2553 1422 
L 2553 3381 
L 3116 3381 
L 3116 722 
Q 3116 616 3117 498 
Q 3119 381 3122 276 
Q 3125 172 3128 97 
Q 3131 22 3134 0 
L 2603 0 
Q 2600 16 2597 84 
Q 2594 153 2589 242 
Q 2584 331 2581 423 
Q 2578 516 2578 578 
L 2569 578 
Q 2488 431 2391 312 
Q 2294 194 2166 111 
Q 2038 28 1872 -17 
Q 1706 -63 1488 -63 
Q 1206 -63 1003 6 
Q 800 75 669 219 
Q 538 363 477 588 
Q 416 813 416 1128 
L 416 3381 
L 981 3381 
z
" transform="scale(0.015625)"/>
      </defs>
      <use xlink:href="#LiberationSans-73"/>
      <use xlink:href="#LiberationSans-63" x="50"/>
      <use xlink:href="#LiberationSans-61" x="100"/>
      <use xlink:href="#LiberationSans-65" x="155.615234"/>
      <use xlink:href="#LiberationSans-6e" x="211.230469"/>
      <use xlink:href="#LiberationSans-69" x="266.845703"/>
      <use xlink:href="#LiberationSans-63" x="289.0625"/>
      <use xlink:href="#LiberationSans-75" x="339.0625"/>
      <use xlink:href="#LiberationSans-73" x="394.677734"/>
     </g>
    </g>
   </g>
   <g id="text_3">
    <g clip-path="url(#pd609136974)">
     <!-- dendrophorus -->
     <g transform="translate(211.655238 55.872386) scale(0.08 -0.08)">
      <defs>
       <path id="LiberationSans-70" d="M 3291 1706 
Q 3291 1322 3228 997 
Q 3166 672 3020 437 
Q 2875 203 2636 70 
Q 2397 -63 2047 -63 
Q 1684 -63 1412 75 
Q 1141 213 997 525 
L 981 525 
Q 984 519 986 469 
Q 988 419 989 344 
Q 991 269 992 176 
Q 994 84 994 -6 
L 994 -1328 
L 431 -1328 
L 431 2691 
Q 431 2813 429 2925 
Q 428 3038 425 3130 
Q 422 3222 419 3287 
Q 416 3353 413 3381 
L 956 3381 
Q 959 3372 964 3315 
Q 969 3259 973 3179 
Q 978 3100 983 3009 
Q 988 2919 988 2838 
L 1000 2838 
Q 1078 3000 1178 3114 
Q 1278 3228 1406 3301 
Q 1534 3375 1692 3408 
Q 1850 3441 2047 3441 
Q 2397 3441 2636 3316 
Q 2875 3191 3020 2964 
Q 3166 2738 3228 2417 
Q 3291 2097 3291 1706 
z
M 2700 1694 
Q 2700 2006 2662 2250 
Q 2625 2494 2533 2662 
Q 2441 2831 2287 2918 
Q 2134 3006 1903 3006 
Q 1716 3006 1550 2953 
Q 1384 2900 1261 2750 
Q 1138 2600 1066 2336 
Q 994 2072 994 1650 
Q 994 1291 1053 1042 
Q 1113 794 1227 641 
Q 1341 488 1509 420 
Q 1678 353 1897 353 
Q 2131 353 2286 443 
Q 2441 534 2533 706 
Q 2625 878 2662 1126 
Q 2700 1375 2700 1694 
z
" transform="scale(0.015625)"/>
       <path id="LiberationSans-68" d="M 991 2803 
Q 1084 2975 1193 3095 
Q 1303 3216 1434 3294 
Q 1566 3372 1722 3408 
Q 1878 3444 2072 3444 
Q 2397 3444 2605 3356 
Q 2813 3269 2933 3111 
Q 3053 2953 3098 2734 
Q 3144 2516 3144 2253 
L 3144 0 
L 2578 0 
L 2578 2144 
Q 2578 2359 2551 2521 
Q 2525 2684 2450 2792 
Q 2375 2900 2237 2954 
Q 2100 3009 1881 3009 
Q 1681 3009 1520 2937 
Q 1359 2866 1245 2734 
Q 1131 2603 1068 2415 
Q 1006 2228 1006 1994 
L 1006 0 
L 444 0 
L 444 4638 
L 1006 4638 
L 1006 3431 
Q 1006 3328 1003 3225 
Q 1000 3122 995 3034 
Q 991 2947 987 2886 
Q 984 2825 981 2803 
L 991 2803 
z
" transform="scale(0.015625)"/>
      </defs>
      <use xlink:href="#LiberationSans-64"/>
      <use xlink:href="#LiberationSans-65" x="55.615234"/>
      <use xlink:href="#LiberationSans-6e" x="111.230469"/>
      <use xlink:href="#LiberationSans-64" x="166.845703"/>
      <use xlink:href="#LiberationSans-72" x="222.460938"/>
      <use xlink:href="#LiberationSans-6f" x="255.761719"/>
      <use xlink:href="#LiberationSans-70" x="311.376953"/>
      <use xlink:href="#LiberationSans-68" x="366.992188"/>
      <use xlink:href="#LiberationSans-6f" x="422.607422"/>
      <use xlink:href="#LiberationSans-72" x="478.222656"/>
      <use xlink:href="#LiberationSans-75" x="511.523438"/>
      <use xlink:href="#LiberationSans-73" x="567.138672"/>
     </g>
    </g>
   </g>
   <g id="text_4">
    <g clip-path="url(#pd609136974)">
     <!-- possessor -->
     <g transform="translate(45.510889 159.784932) scale(0.08 -0.08)">
      <use xlink:href="#LiberationSans-70"/>
      <use xlink:href="#LiberationSans-6f" x="55.615234"/>
      <use xlink:href="#LiberationSans-73" x="111.230469"/>
      <use xlink:href="#LiberationSans-73" x="161.230469"/>
      <use xlink:href="#LiberationSans-65" x="211.230469"/>
      <use xlink:href="#LiberationSans-73" x="266.845703"/>
      <use xlink:href="#LiberationSans-73" x="316.845703"/>
      <use xlink:href="#LiberationSans-6f" x="366.845703"/>
      <use xlink:href="#LiberationSans-72" x="422.460938"/>
     </g>
    </g>
   </g>
   <g id="text_5">
    <g clip-path="url(#pd609136974)">
     <!-- sagittarius -->
     <g transform="translate(86.53943 178.412243) scale(0.08 -0.08)">
      <use xlink:href="#LiberationSans-73"/>
      <use xlink:href="#LiberationSans-61" x="50"/>
      <use xlink:href="#LiberationSans-67" x="105.615234"/>
      <use xlink:href="#LiberationSans-69" x="161.230469"/>
      <use xlink:href="#LiberationSans-74" x="183.447266"/>
      <use xlink:href="#LiberationSans-74" x="211.230469"/>
      <use xlink:href="#LiberationSans-61" x="239.013672"/>
      <use xlink:href="#LiberationSans-72" x="294.628906"/>
      <use xlink:href="#LiberationSans-69" x="327.929688"/>
      <use xlink:href="#LiberationSans-75" x="350.146484"/>
      <use xlink:href="#LiberationSans-73" x="405.761719"/>
     </g>
    </g>
   </g>
   <g id="text_6">
    <g clip-path="url(#pd609136974)">
     <!-- scriba -->
     <g transform="translate(139.897941 171.490092) scale(0.08 -0.08)">
      <defs>
       <path id="LiberationSans-62" d="M 3291 1706 
Q 3291 -63 2047 -63 
Q 1663 -63 1408 76 
Q 1153 216 994 525 
L 988 525 
Q 988 444 983 356 
Q 978 269 973 194 
Q 969 119 964 66 
Q 959 13 956 0 
L 413 0 
Q 416 28 419 95 
Q 422 163 425 256 
Q 428 350 429 462 
Q 431 575 431 697 
L 431 4638 
L 994 4638 
L 994 3316 
Q 994 3222 992 3136 
Q 991 3050 988 2984 
Q 984 2906 981 2838 
L 994 2838 
Q 1150 3163 1408 3303 
Q 1666 3444 2047 3444 
Q 2688 3444 2989 3012 
Q 3291 2581 3291 1706 
z
M 2700 1688 
Q 2700 2038 2656 2288 
Q 2613 2538 2516 2698 
Q 2419 2859 2269 2934 
Q 2119 3009 1903 3009 
Q 1681 3009 1511 2937 
Q 1341 2866 1227 2706 
Q 1113 2547 1053 2287 
Q 994 2028 994 1653 
Q 994 1291 1053 1044 
Q 1113 797 1227 642 
Q 1341 488 1509 420 
Q 1678 353 1897 353 
Q 2103 353 2253 425 
Q 2403 497 2503 656 
Q 2603 816 2651 1070 
Q 2700 1325 2700 1688 
z
" transform="scale(0.015625)"/>
      </defs>
      <use xlink:href="#LiberationSans-73"/>
      <use xlink:href="#LiberationSans-63" x="50"/>
      <use xlink:href="#LiberationSans-72" x="100"/>
      <use xlink:href="#LiberationSans-69" x="133.300781"/>
      <use xlink:href="#LiberationSans-62" x="155.517578"/>
      <use xlink:href="#LiberationSans-61" x="211.132812"/>
     </g>
    </g>
   </g>
   <g id="text_7">
    <g clip-path="url(#pd609136974)">
     <!-- aerarius -->
     <g transform="translate(64.106545 239.145114) scale(0.08 -0.08)">
      <use xlink:href="#LiberationSans-61"/>
      <use xlink:href="#LiberationSans-65" x="55.615234"/>
      <use xlink:href="#LiberationSans-72" x="111.230469"/>
      <use xlink:href="#LiberationSans-61" x="144.53125"/>
      <use xlink:href="#LiberationSans-72" x="200.146484"/>
      <use xlink:href="#LiberationSans-69" x="233.447266"/>
      <use xlink:href="#LiberationSans-75" x="255.664062"/>
      <use xlink:href="#LiberationSans-73" x="311.279297"/>
     </g>
    </g>
   </g>
   <g id="text_8">
    <g clip-path="url(#pd609136974)">
     <!-- centonarius -->
     <g transform="translate(105.409084 226.383332) scale(0.08 -0.08)">
      <use xlink:href="#LiberationSans-63"/>
      <use xlink:href="#LiberationSans-65" x="50"/>
      <use xlink:href="#LiberationSans-6e" x="105.615234"/>
      <use xlink:href="#LiberationSans-74" x="161.230469"/>
      <use xlink:href="#LiberationSans-6f" x="189.013672"/>
      <use xlink:href="#LiberationSans-6e" x="244.628906"/>
      <use xlink:href="#LiberationSans-61" x="300.244141"/>
      <use xlink:href="#LiberationSans-72" x="355.859375"/>
      <use xlink:href="#LiberationSans-69" x="389.160156"/>
      <use xlink:href="#LiberationSans-75" x="411.376953"/>
      <use xlink:href="#LiberationSans-73" x="466.992188"/>
     </g>
    </g>
   </g>
   <g id="text_9">
    <g clip-path="url(#pd609136974)">
     <!-- arcarius -->
     <g transform="translate(44.636012 73.835141) scale(0.08 -0.08)">
      <use xlink:href="#LiberationSans-61"/>
      <use xlink:href="#LiberationSans-72" x="55.615234"/>
      <use xlink:href="#LiberationSans-63" x="88.916016"/>
      <use xlink:href="#LiberationSans-61" x="138.916016"/>
      <use xlink:href="#LiberationSans-72" x="194.53125"/>
      <use xlink:href="#LiberationSans-69" x="227.832031"/>
      <use xlink:href="#LiberationSans-75" x="250.048828"/>
      <use xlink:href="#LiberationSans-73" x="305.664062"/>
     </g>
    </g>
   </g>
   <g id="text_10">
    <g clip-path="url(#pd609136974)">
     <!-- curator -->
     <g transform="translate(81.337579 149.002767) scale(0.08 -0.08)">
      <use xlink:href="#LiberationSans-63"/>
      <use xlink:href="#LiberationSans-75" x="50"/>
      <use xlink:href="#LiberationSans-72" x="105.615234"/>
      <use xlink:href="#LiberationSans-61" x="138.916016"/>
      <use xlink:href="#LiberationSans-74" x="194.53125"/>
      <use xlink:href="#LiberationSans-6f" x="222.314453"/>
      <use xlink:href="#LiberationSans-72" x="277.929688"/>
     </g>
    </g>
   </g>
   <g id="text_11">
    <g clip-path="url(#pd609136974)">
     <!-- medicus -->
     <g transform="translate(117.189474 211.556532) scale(0.08 -0.08)">
      <defs>
       <path id="LiberationSans-6d" d="M 2400 0 
L 2400 2144 
Q 2400 2391 2369 2556 
Q 2338 2722 2264 2823 
Q 2191 2925 2072 2967 
Q 1953 3009 1781 3009 
Q 1603 3009 1459 2939 
Q 1316 2869 1214 2736 
Q 1113 2603 1058 2408 
Q 1003 2213 1003 1959 
L 1003 0 
L 444 0 
L 444 2659 
Q 444 2766 442 2883 
Q 441 3000 437 3104 
Q 434 3209 431 3284 
Q 428 3359 425 3381 
L 956 3381 
Q 959 3366 962 3297 
Q 966 3228 970 3139 
Q 975 3050 978 2958 
Q 981 2866 981 2803 
L 991 2803 
Q 1066 2950 1153 3069 
Q 1241 3188 1358 3270 
Q 1475 3353 1626 3398 
Q 1778 3444 1978 3444 
Q 2363 3444 2586 3291 
Q 2809 3138 2897 2803 
L 2906 2803 
Q 2981 2950 3075 3069 
Q 3169 3188 3294 3270 
Q 3419 3353 3575 3398 
Q 3731 3444 3931 3444 
Q 4188 3444 4373 3375 
Q 4559 3306 4678 3162 
Q 4797 3019 4853 2792 
Q 4909 2566 4909 2253 
L 4909 0 
L 4353 0 
L 4353 2144 
Q 4353 2391 4322 2556 
Q 4291 2722 4217 2823 
Q 4144 2925 4025 2967 
Q 3906 3009 3734 3009 
Q 3556 3009 3412 2942 
Q 3269 2875 3167 2744 
Q 3066 2613 3011 2416 
Q 2956 2219 2956 1959 
L 2956 0 
L 2400 0 
z
" transform="scale(0.015625)"/>
      </defs>
      <use xlink:href="#LiberationSans-6d"/>
      <use xlink:href="#LiberationSans-65" x="83.300781"/>
      <use xlink:href="#LiberationSans-64" x="138.916016"/>
      <use xlink:href="#LiberationSans-69" x="194.53125"/>
      <use xlink:href="#LiberationSans-63" x="216.748047"/>
      <use xlink:href="#LiberationSans-75" x="266.748047"/>
      <use xlink:href="#LiberationSans-73" x="322.363281"/>
     </g>
    </g>
   </g>
   <g id="text_12">
    <g clip-path="url(#pd609136974)">
     <!-- faber -->
     <g transform="translate(119.870285 196.693222) scale(0.08 -0.08)">
      <defs>
       <path id="LiberationSans-66" d="M 1128 2972 
L 1128 0 
L 566 0 
L 566 2972 
L 91 2972 
L 91 3381 
L 566 3381 
L 566 3763 
Q 566 3947 600 4105 
Q 634 4263 726 4380 
Q 819 4497 978 4564 
Q 1138 4631 1391 4631 
Q 1491 4631 1598 4622 
Q 1706 4613 1788 4594 
L 1788 4166 
Q 1734 4175 1664 4183 
Q 1594 4191 1538 4191 
Q 1413 4191 1333 4156 
Q 1253 4122 1208 4058 
Q 1163 3994 1145 3900 
Q 1128 3806 1128 3684 
L 1128 3381 
L 1788 3381 
L 1788 2972 
L 1128 2972 
z
" transform="scale(0.015625)"/>
      </defs>
      <use xlink:href="#LiberationSans-66"/>
      <use xlink:href="#LiberationSans-61" x="27.783203"/>
      <use xlink:href="#LiberationSans-62" x="83.398438"/>
      <use xlink:href="#LiberationSans-65" x="139.013672"/>
      <use xlink:href="#LiberationSans-72" x="194.628906"/>
     </g>
    </g>
   </g>
   <g id="text_13">
    <g clip-path="url(#pd609136974)">
     <!-- architectus -->
     <g transform="translate(125.139897 197.312453) scale(0.08 -0.08)">
      <use xlink:href="#LiberationSans-61"/>
      <use xlink:href="#LiberationSans-72" x="55.615234"/>
      <use xlink:href="#LiberationSans-63" x="88.916016"/>
      <use xlink:href="#LiberationSans-68" x="138.916016"/>
      <use xlink:href="#LiberationSans-69" x="194.53125"/>
      <use xlink:href="#LiberationSans-74" x="216.748047"/>
      <use xlink:href="#LiberationSans-65" x="244.53125"/>
      <use xlink:href="#LiberationSans-63" x="300.146484"/>
      <use xlink:href="#LiberationSans-74" x="350.146484"/>
      <use xlink:href="#LiberationSans-75" x="377.929688"/>
      <use xlink:href="#LiberationSans-73" x="433.544922"/>
     </g>
    </g>
   </g>
   <g id="text_14">
    <g clip-path="url(#pd609136974)">
     <!-- argentarius -->
     <g transform="translate(114.455176 175.400284) scale(0.08 -0.08)">
      <use xlink:href="#LiberationSans-61"/>
      <use xlink:href="#LiberationSans-72" x="55.615234"/>
      <use xlink:href="#LiberationSans-67" x="88.916016"/>
      <use xlink:href="#LiberationSans-65" x="144.53125"/>
      <use xlink:href="#LiberationSans-6e" x="200.146484"/>
      <use xlink:href="#LiberationSans-74" x="255.761719"/>
      <use xlink:href="#LiberationSans-61" x="283.544922"/>
      <use xlink:href="#LiberationSans-72" x="339.160156"/>
      <use xlink:href="#LiberationSans-69" x="372.460938"/>
      <use xlink:href="#LiberationSans-75" x="394.677734"/>
      <use xlink:href="#LiberationSans-73" x="450.292969"/>
     </g>
    </g>
   </g>
   <g id="legend_1">
    <g id="line2d_1">
     <path d="M 43.2 266.5175 
L 51.2 266.5175 
L 59.2 266.5175 
" style="fill: none"/>
     <defs>
      <path id="m2fb1a240a2" d="M 0 3 
C 0.795609 3 1.55874 2.683901 2.12132 2.12132 
C 2.683901 1.55874 3 0.795609 3 0 
C 3 -0.795609 2.683901 -1.55874 2.12132 -2.12132 
C 1.55874 -2.683901 0.795609 -3 0 -3 
C -0.795609 -3 -1.55874 -2.683901 -2.12132 -2.12132 
C -2.683901 -1.55874 -3 -0.795609 -3 0 
C -3 0.795609 -2.683901 1.55874 -2.12132 2.12132 
C -1.55874 2.683901 -0.795609 3 0 3 
z
" style="stroke: #ff0000"/>
     </defs>
     <g>
      <use xlink:href="#m2fb1a240a2" x="51.2" y="266.5175" style="fill: #ff0000; stroke: #ff0000"/>
     </g>
    </g>
    <g id="text_15">
     <!-- Professional, technical and related workers -->
     <g style="fill: #262626" transform="translate(65.6 269.3175) scale(0.08 -0.08)">
      <defs>
       <path id="LiberationSans-50" d="M 3931 3078 
Q 3931 2791 3836 2542 
Q 3741 2294 3552 2111 
Q 3363 1928 3078 1822 
Q 2794 1716 2416 1716 
L 1122 1716 
L 1122 0 
L 525 0 
L 525 4403 
L 2378 4403 
Q 2769 4403 3059 4308 
Q 3350 4213 3544 4039 
Q 3738 3866 3834 3620 
Q 3931 3375 3931 3078 
z
M 3331 3072 
Q 3331 3491 3075 3708 
Q 2819 3925 2306 3925 
L 1122 3925 
L 1122 2188 
L 2331 2188 
Q 2847 2188 3089 2416 
Q 3331 2644 3331 3072 
z
" transform="scale(0.015625)"/>
       <path id="LiberationSans-2c" d="M 1203 684 
L 1203 159 
Q 1203 -6 1189 -142 
Q 1175 -278 1144 -395 
Q 1113 -513 1067 -616 
Q 1022 -719 959 -819 
L 575 -819 
Q 716 -616 792 -409 
Q 869 -203 869 0 
L 594 0 
L 594 684 
L 1203 684 
z
" transform="scale(0.015625)"/>
       <path id="LiberationSans-20" transform="scale(0.015625)"/>
       <path id="LiberationSans-77" d="M 3669 0 
L 3016 0 
L 2475 2181 
Q 2450 2266 2423 2391 
Q 2397 2516 2372 2634 
Q 2341 2772 2313 2919 
Q 2284 2778 2253 2641 
Q 2228 2522 2198 2394 
Q 2169 2266 2144 2169 
L 1588 0 
L 938 0 
L -9 3381 
L 547 3381 
L 1119 1084 
Q 1141 1013 1162 908 
Q 1184 803 1206 703 
Q 1228 588 1253 466 
Q 1278 584 1306 697 
Q 1331 794 1356 894 
Q 1381 994 1400 1059 
L 2013 3381 
L 2616 3381 
L 3206 1059 
Q 3228 978 3253 875 
Q 3278 772 3300 681 
Q 3325 575 3350 466 
Q 3375 584 3400 697 
Q 3422 794 3445 898 
Q 3469 1003 3491 1084 
L 4088 3381 
L 4638 3381 
L 3669 0 
z
" transform="scale(0.015625)"/>
       <path id="LiberationSans-6b" d="M 2550 0 
L 1406 1544 
L 994 1203 
L 994 0 
L 431 0 
L 431 4638 
L 994 4638 
L 994 1741 
L 2478 3381 
L 3138 3381 
L 1766 1928 
L 3209 0 
L 2550 0 
z
" transform="scale(0.015625)"/>
      </defs>
      <use xlink:href="#LiberationSans-50"/>
      <use xlink:href="#LiberationSans-72" x="66.699219"/>
      <use xlink:href="#LiberationSans-6f" x="100"/>
      <use xlink:href="#LiberationSans-66" x="155.615234"/>
      <use xlink:href="#LiberationSans-65" x="183.398438"/>
      <use xlink:href="#LiberationSans-73" x="239.013672"/>
      <use xlink:href="#LiberationSans-73" x="289.013672"/>
      <use xlink:href="#LiberationSans-69" x="339.013672"/>
      <use xlink:href="#LiberationSans-6f" x="361.230469"/>
      <use xlink:href="#LiberationSans-6e" x="416.845703"/>
      <use xlink:href="#LiberationSans-61" x="472.460938"/>
      <use xlink:href="#LiberationSans-6c" x="528.076172"/>
      <use xlink:href="#LiberationSans-2c" x="550.292969"/>
      <use xlink:href="#LiberationSans-20" x="578.076172"/>
      <use xlink:href="#LiberationSans-74" x="605.859375"/>
      <use xlink:href="#LiberationSans-65" x="633.642578"/>
      <use xlink:href="#LiberationSans-63" x="689.257812"/>
      <use xlink:href="#LiberationSans-68" x="739.257812"/>
      <use xlink:href="#LiberationSans-6e" x="794.873047"/>
      <use xlink:href="#LiberationSans-69" x="850.488281"/>
      <use xlink:href="#LiberationSans-63" x="872.705078"/>
      <use xlink:href="#LiberationSans-61" x="922.705078"/>
      <use xlink:href="#LiberationSans-6c" x="978.320312"/>
      <use xlink:href="#LiberationSans-20" x="1000.537109"/>
      <use xlink:href="#LiberationSans-61" x="1028.320312"/>
      <use xlink:href="#LiberationSans-6e" x="1083.935547"/>
      <use xlink:href="#LiberationSans-64" x="1139.550781"/>
      <use xlink:href="#LiberationSans-20" x="1195.166016"/>
      <use xlink:href="#LiberationSans-72" x="1222.949219"/>
      <use xlink:href="#LiberationSans-65" x="1256.25"/>
      <use xlink:href="#LiberationSans-6c" x="1311.865234"/>
      <use xlink:href="#LiberationSans-61" x="1334.082031"/>
      <use xlink:href="#LiberationSans-74" x="1389.697266"/>
      <use xlink:href="#LiberationSans-65" x="1417.480469"/>
      <use xlink:href="#LiberationSans-64" x="1473.095703"/>
      <use xlink:href="#LiberationSans-20" x="1528.710938"/>
      <use xlink:href="#LiberationSans-77" x="1556.494141"/>
      <use xlink:href="#LiberationSans-6f" x="1628.710938"/>
      <use xlink:href="#LiberationSans-72" x="1684.326172"/>
      <use xlink:href="#LiberationSans-6b" x="1717.626953"/>
      <use xlink:href="#LiberationSans-65" x="1767.626953"/>
      <use xlink:href="#LiberationSans-72" x="1823.242188"/>
      <use xlink:href="#LiberationSans-73" x="1856.542969"/>
     </g>
    </g>
    <g id="line2d_2">
     <path d="M 43.2 277.975 
L 51.2 277.975 
L 59.2 277.975 
" style="fill: none"/>
     <defs>
      <path id="m5fbd4709a2" d="M 0 3 
C 0.795609 3 1.55874 2.683901 2.12132 2.12132 
C 2.683901 1.55874 3 0.795609 3 0 
C 3 -0.795609 2.683901 -1.55874 2.12132 -2.12132 
C 1.55874 -2.683901 0.795609 -3 0 -3 
C -0.795609 -3 -1.55874 -2.683901 -2.12132 -2.12132 
C -2.683901 -1.55874 -3 -0.795609 -3 0 
C -3 0.795609 -2.683901 1.55874 -2.12132 2.12132 
C -1.55874 2.683901 -0.795609 3 0 3 
z
" style="stroke: #008000"/>
     </defs>
     <g>
      <use xlink:href="#m5fbd4709a2" x="51.2" y="277.975" style="fill: #008000; stroke: #008000"/>
     </g>
    </g>
    <g id="text_16">
     <!-- Administrative and managerial workers -->
     <g style="fill: #262626" transform="translate(65.6 280.775) scale(0.08 -0.08)">
      <defs>
       <path id="LiberationSans-41" d="M 3647 0 
L 3144 1288 
L 1138 1288 
L 631 0 
L 13 0 
L 1809 4403 
L 2488 4403 
L 4256 0 
L 3647 0 
z
M 2400 3206 
Q 2350 3331 2304 3459 
Q 2259 3588 2225 3692 
Q 2191 3797 2167 3867 
Q 2144 3938 2141 3953 
Q 2134 3938 2112 3866 
Q 2091 3794 2055 3687 
Q 2019 3581 1973 3453 
Q 1928 3325 1881 3200 
L 1319 1753 
L 2966 1753 
L 2400 3206 
z
" transform="scale(0.015625)"/>
       <path id="LiberationSans-76" d="M 1916 0 
L 1250 0 
L 22 3381 
L 622 3381 
L 1366 1181 
Q 1388 1113 1417 1014 
Q 1447 916 1478 809 
Q 1509 703 1536 604 
Q 1563 506 1581 441 
Q 1600 506 1629 604 
Q 1659 703 1690 806 
Q 1722 909 1755 1007 
Q 1788 1106 1813 1175 
L 2581 3381 
L 3178 3381 
L 1916 0 
z
" transform="scale(0.015625)"/>
      </defs>
      <use xlink:href="#LiberationSans-41"/>
      <use xlink:href="#LiberationSans-64" x="66.699219"/>
      <use xlink:href="#LiberationSans-6d" x="122.314453"/>
      <use xlink:href="#LiberationSans-69" x="205.615234"/>
      <use xlink:href="#LiberationSans-6e" x="227.832031"/>
      <use xlink:href="#LiberationSans-69" x="283.447266"/>
      <use xlink:href="#LiberationSans-73" x="305.664062"/>
      <use xlink:href="#LiberationSans-74" x="355.664062"/>
      <use xlink:href="#LiberationSans-72" x="383.447266"/>
      <use xlink:href="#LiberationSans-61" x="416.748047"/>
      <use xlink:href="#LiberationSans-74" x="472.363281"/>
      <use xlink:href="#LiberationSans-69" x="500.146484"/>
      <use xlink:href="#LiberationSans-76" x="522.363281"/>
      <use xlink:href="#LiberationSans-65" x="572.363281"/>
      <use xlink:href="#LiberationSans-20" x="627.978516"/>
      <use xlink:href="#LiberationSans-61" x="655.761719"/>
      <use xlink:href="#LiberationSans-6e" x="711.376953"/>
      <use xlink:href="#LiberationSans-64" x="766.992188"/>
      <use xlink:href="#LiberationSans-20" x="822.607422"/>
      <use xlink:href="#LiberationSans-6d" x="850.390625"/>
      <use xlink:href="#LiberationSans-61" x="933.691406"/>
      <use xlink:href="#LiberationSans-6e" x="989.306641"/>
      <use xlink:href="#LiberationSans-61" x="1044.921875"/>
      <use xlink:href="#LiberationSans-67" x="1100.537109"/>
      <use xlink:href="#LiberationSans-65" x="1156.152344"/>
      <use xlink:href="#LiberationSans-72" x="1211.767578"/>
      <use xlink:href="#LiberationSans-69" x="1245.068359"/>
      <use xlink:href="#LiberationSans-61" x="1267.285156"/>
      <use xlink:href="#LiberationSans-6c" x="1322.900391"/>
      <use xlink:href="#LiberationSans-20" x="1345.117188"/>
      <use xlink:href="#LiberationSans-77" x="1372.900391"/>
      <use xlink:href="#LiberationSans-6f" x="1445.117188"/>
      <use xlink:href="#LiberationSans-72" x="1500.732422"/>
      <use xlink:href="#LiberationSans-6b" x="1534.033203"/>
      <use xlink:href="#LiberationSans-65" x="1584.033203"/>
      <use xlink:href="#LiberationSans-72" x="1639.648438"/>
      <use xlink:href="#LiberationSans-73" x="1672.949219"/>
     </g>
    </g>
    <g id="line2d_3">
     <path style="fill: none"/>
     <defs>
      <path id="md2f41fc41f" d="M 0 3 
C 0.795609 3 1.55874 2.683901 2.12132 2.12132 
C 2.683901 1.55874 3 0.795609 3 0 
C 3 -0.795609 2.683901 -1.55874 2.12132 -2.12132 
C 1.55874 -2.683901 0.795609 -3 0 -3 
C -0.795609 -3 -1.55874 -2.683901 -2.12132 -2.12132 
C -2.683901 -1.55874 -3 -0.795609 -3 0 
C -3 0.795609 -2.683901 1.55874 -2.12132 2.12132 
C -1.55874 2.683901 -0.795609 3 0 3 
z
" style="stroke: #0000ff"/>
     </defs>
     <g>
      <use xlink:href="#md2f41fc41f" x="51.2" y="289.4325" style="fill: #0000ff; stroke: #0000ff"/>
     </g>
    </g>
    <g id="text_17">
     <!-- Clerical and related workers -->
     <g style="fill: #262626" transform="translate(65.6 292.2325) scale(0.08 -0.08)">
      <defs>
       <path id="LiberationSans-43" d="M 2475 3981 
Q 2100 3981 1811 3856 
Q 1522 3731 1326 3500 
Q 1131 3269 1031 2944 
Q 931 2619 931 2222 
Q 931 1825 1039 1495 
Q 1147 1166 1348 928 
Q 1550 691 1842 559 
Q 2134 428 2500 428 
Q 2756 428 2967 495 
Q 3178 563 3348 684 
Q 3519 806 3653 973 
Q 3788 1141 3891 1344 
L 4378 1100 
Q 4259 853 4084 640 
Q 3909 428 3673 272 
Q 3438 116 3139 26 
Q 2841 -63 2472 -63 
Q 1938 -63 1536 107 
Q 1134 278 864 583 
Q 594 888 459 1306 
Q 325 1725 325 2222 
Q 325 2738 467 3153 
Q 609 3569 882 3861 
Q 1156 4153 1556 4311 
Q 1956 4469 2469 4469 
Q 3172 4469 3644 4194 
Q 4116 3919 4338 3378 
L 3772 3191 
Q 3709 3347 3603 3489 
Q 3497 3631 3337 3740 
Q 3178 3850 2964 3915 
Q 2750 3981 2475 3981 
z
" transform="scale(0.015625)"/>
      </defs>
      <use xlink:href="#LiberationSans-43"/>
      <use xlink:href="#LiberationSans-6c" x="72.216797"/>
      <use xlink:href="#LiberationSans-65" x="94.433594"/>
      <use xlink:href="#LiberationSans-72" x="150.048828"/>
      <use xlink:href="#LiberationSans-69" x="183.349609"/>
      <use xlink:href="#LiberationSans-63" x="205.566406"/>
      <use xlink:href="#LiberationSans-61" x="255.566406"/>
      <use xlink:href="#LiberationSans-6c" x="311.181641"/>
      <use xlink:href="#LiberationSans-20" x="333.398438"/>
      <use xlink:href="#LiberationSans-61" x="361.181641"/>
      <use xlink:href="#LiberationSans-6e" x="416.796875"/>
      <use xlink:href="#LiberationSans-64" x="472.412109"/>
      <use xlink:href="#LiberationSans-20" x="528.027344"/>
      <use xlink:href="#LiberationSans-72" x="555.810547"/>
      <use xlink:href="#LiberationSans-65" x="589.111328"/>
      <use xlink:href="#LiberationSans-6c" x="644.726562"/>
      <use xlink:href="#LiberationSans-61" x="666.943359"/>
      <use xlink:href="#LiberationSans-74" x="722.558594"/>
      <use xlink:href="#LiberationSans-65" x="750.341797"/>
      <use xlink:href="#LiberationSans-64" x="805.957031"/>
      <use xlink:href="#LiberationSans-20" x="861.572266"/>
      <use xlink:href="#LiberationSans-77" x="889.355469"/>
      <use xlink:href="#LiberationSans-6f" x="961.572266"/>
      <use xlink:href="#LiberationSans-72" x="1017.1875"/>
      <use xlink:href="#LiberationSans-6b" x="1050.488281"/>
      <use xlink:href="#LiberationSans-65" x="1100.488281"/>
      <use xlink:href="#LiberationSans-72" x="1156.103516"/>
      <use xlink:href="#LiberationSans-73" x="1189.404297"/>
     </g>
    </g>
    <g id="line2d_4">
     <path style="fill: none"/>
     <defs>
      <path id="mcc5469e5cc" d="M 0 3 
C 0.795609 3 1.55874 2.683901 2.12132 2.12132 
C 2.683901 1.55874 3 0.795609 3 0 
C 3 -0.795609 2.683901 -1.55874 2.12132 -2.12132 
C 1.55874 -2.683901 0.795609 -3 0 -3 
C -0.795609 -3 -1.55874 -2.683901 -2.12132 -2.12132 
C -2.683901 -1.55874 -3 -0.795609 -3 0 
C -3 0.795609 -2.683901 1.55874 -2.12132 2.12132 
C -1.55874 2.683901 -0.795609 3 0 3 
z
" style="stroke: #ffa500"/>
     </defs>
     <g>
      <use xlink:href="#mcc5469e5cc" x="51.2" y="300.89" style="fill: #ffa500; stroke: #ffa500"/>
     </g>
    </g>
    <g id="text_18">
     <!-- Sales workers -->
     <g style="fill: #262626" transform="translate(65.6 303.69) scale(0.08 -0.08)">
      <defs>
       <path id="LiberationSans-53" d="M 3975 1216 
Q 3975 938 3867 703 
Q 3759 469 3534 298 
Q 3309 128 2967 32 
Q 2625 -63 2156 -63 
Q 1334 -63 875 225 
Q 416 513 291 1056 
L 869 1172 
Q 913 1000 1003 859 
Q 1094 719 1248 617 
Q 1403 516 1631 459 
Q 1859 403 2178 403 
Q 2444 403 2666 448 
Q 2888 494 3047 587 
Q 3206 681 3295 829 
Q 3384 978 3384 1184 
Q 3384 1400 3286 1534 
Q 3188 1669 3009 1756 
Q 2831 1844 2584 1903 
Q 2338 1963 2038 2031 
Q 1853 2072 1667 2120 
Q 1481 2169 1311 2236 
Q 1141 2303 991 2393 
Q 841 2484 731 2611 
Q 622 2738 559 2905 
Q 497 3072 497 3291 
Q 497 3603 623 3826 
Q 750 4050 975 4194 
Q 1200 4338 1506 4403 
Q 1813 4469 2169 4469 
Q 2578 4469 2868 4405 
Q 3159 4341 3359 4212 
Q 3559 4084 3679 3895 
Q 3800 3706 3872 3456 
L 3284 3353 
Q 3241 3513 3158 3638 
Q 3075 3763 2940 3847 
Q 2806 3931 2614 3975 
Q 2422 4019 2163 4019 
Q 1856 4019 1648 3964 
Q 1441 3909 1314 3815 
Q 1188 3722 1133 3595 
Q 1078 3469 1078 3322 
Q 1078 3125 1176 2998 
Q 1275 2872 1444 2787 
Q 1613 2703 1834 2647 
Q 2056 2591 2306 2534 
Q 2509 2488 2711 2439 
Q 2913 2391 3097 2323 
Q 3281 2256 3442 2165 
Q 3603 2075 3722 1944 
Q 3841 1813 3908 1634 
Q 3975 1456 3975 1216 
z
" transform="scale(0.015625)"/>
      </defs>
      <use xlink:href="#LiberationSans-53"/>
      <use xlink:href="#LiberationSans-61" x="66.699219"/>
      <use xlink:href="#LiberationSans-6c" x="122.314453"/>
      <use xlink:href="#LiberationSans-65" x="144.53125"/>
      <use xlink:href="#LiberationSans-73" x="200.146484"/>
      <use xlink:href="#LiberationSans-20" x="250.146484"/>
      <use xlink:href="#LiberationSans-77" x="277.929688"/>
      <use xlink:href="#LiberationSans-6f" x="350.146484"/>
      <use xlink:href="#LiberationSans-72" x="405.761719"/>
      <use xlink:href="#LiberationSans-6b" x="439.0625"/>
      <use xlink:href="#LiberationSans-65" x="489.0625"/>
      <use xlink:href="#LiberationSans-72" x="544.677734"/>
      <use xlink:href="#LiberationSans-73" x="577.978516"/>
     </g>
    </g>
    <g id="line2d_5">
     <path style="fill: none"/>
     <defs>
      <path id="m628f0d730a" d="M 0 3 
C 0.795609 3 1.55874 2.683901 2.12132 2.12132 
C 2.683901 1.55874 3 0.795609 3 0 
C 3 -0.795609 2.683901 -1.55874 2.12132 -2.12132 
C 1.55874 -2.683901 0.795609 -3 0 -3 
C -0.795609 -3 -1.55874 -2.683901 -2.12132 -2.12132 
C -2.683901 -1.55874 -3 -0.795609 -3 0 
C -3 0.795609 -2.683901 1.55874 -2.12132 2.12132 
C -1.55874 2.683901 -0.795609 3 0 3 
z
" style="stroke: #800080"/>
     </defs>
     <g>
      <use xlink:href="#m628f0d730a" x="51.2" y="312.3475" style="fill: #800080; stroke: #800080"/>
     </g>
    </g>
    <g id="text_19">
     <!-- Service workers -->
     <g style="fill: #262626" transform="translate(65.6 315.1475) scale(0.08 -0.08)">
      <use xlink:href="#LiberationSans-53"/>
      <use xlink:href="#LiberationSans-65" x="66.699219"/>
      <use xlink:href="#LiberationSans-72" x="122.314453"/>
      <use xlink:href="#LiberationSans-76" x="155.615234"/>
      <use xlink:href="#LiberationSans-69" x="205.615234"/>
      <use xlink:href="#LiberationSans-63" x="227.832031"/>
      <use xlink:href="#LiberationSans-65" x="277.832031"/>
      <use xlink:href="#LiberationSans-20" x="333.447266"/>
      <use xlink:href="#LiberationSans-77" x="361.230469"/>
      <use xlink:href="#LiberationSans-6f" x="433.447266"/>
      <use xlink:href="#LiberationSans-72" x="489.0625"/>
      <use xlink:href="#LiberationSans-6b" x="522.363281"/>
      <use xlink:href="#LiberationSans-65" x="572.363281"/>
      <use xlink:href="#LiberationSans-72" x="627.978516"/>
      <use xlink:href="#LiberationSans-73" x="661.279297"/>
     </g>
    </g>
    <g id="line2d_6">
     <path style="fill: none"/>
     <defs>
      <path id="m0deb3c908f" d="M 0 3 
C 0.795609 3 1.55874 2.683901 2.12132 2.12132 
C 2.683901 1.55874 3 0.795609 3 0 
C 3 -0.795609 2.683901 -1.55874 2.12132 -2.12132 
C 1.55874 -2.683901 0.795609 -3 0 -3 
C -0.795609 -3 -1.55874 -2.683901 -2.12132 -2.12132 
C -2.683901 -1.55874 -3 -0.795609 -3 0 
C -3 0.795609 -2.683901 1.55874 -2.12132 2.12132 
C -1.55874 2.683901 -0.795609 3 0 3 
z
" style="stroke: #ffc0cb"/>
     </defs>
     <g>
      <use xlink:href="#m0deb3c908f" x="51.2" y="323.805" style="fill: #ffc0cb; stroke: #ffc0cb"/>
     </g>
    </g>
    <g id="text_20">
     <!-- Agricultural, animal husbandry and forestry workers, fishermen and hunters -->
     <g style="fill: #262626" transform="translate(65.6 326.605) scale(0.08 -0.08)">
      <defs>
       <path id="LiberationSans-79" d="M 1888 0 
Q 1769 -306 1645 -551 
Q 1522 -797 1369 -970 
Q 1216 -1144 1028 -1236 
Q 841 -1328 597 -1328 
Q 491 -1328 400 -1322 
Q 309 -1316 209 -1294 
L 209 -872 
Q 269 -881 344 -886 
Q 419 -891 472 -891 
Q 719 -891 931 -706 
Q 1144 -522 1303 -119 
L 1356 16 
L 16 3381 
L 616 3381 
L 1328 1513 
Q 1359 1428 1407 1287 
Q 1456 1147 1504 1006 
Q 1553 866 1590 753 
Q 1628 641 1634 613 
Q 1644 647 1680 748 
Q 1716 850 1761 975 
Q 1806 1100 1853 1228 
Q 1900 1356 1931 1450 
L 2594 3381 
L 3188 3381 
L 1888 0 
z
" transform="scale(0.015625)"/>
      </defs>
      <use xlink:href="#LiberationSans-41"/>
      <use xlink:href="#LiberationSans-67" x="66.699219"/>
      <use xlink:href="#LiberationSans-72" x="122.314453"/>
      <use xlink:href="#LiberationSans-69" x="155.615234"/>
      <use xlink:href="#LiberationSans-63" x="177.832031"/>
      <use xlink:href="#LiberationSans-75" x="227.832031"/>
      <use xlink:href="#LiberationSans-6c" x="283.447266"/>
      <use xlink:href="#LiberationSans-74" x="305.664062"/>
      <use xlink:href="#LiberationSans-75" x="333.447266"/>
      <use xlink:href="#LiberationSans-72" x="389.0625"/>
      <use xlink:href="#LiberationSans-61" x="422.363281"/>
      <use xlink:href="#LiberationSans-6c" x="477.978516"/>
      <use xlink:href="#LiberationSans-2c" x="500.195312"/>
      <use xlink:href="#LiberationSans-20" x="527.978516"/>
      <use xlink:href="#LiberationSans-61" x="555.761719"/>
      <use xlink:href="#LiberationSans-6e" x="611.376953"/>
      <use xlink:href="#LiberationSans-69" x="666.992188"/>
      <use xlink:href="#LiberationSans-6d" x="689.208984"/>
      <use xlink:href="#LiberationSans-61" x="772.509766"/>
      <use xlink:href="#LiberationSans-6c" x="828.125"/>
      <use xlink:href="#LiberationSans-20" x="850.341797"/>
      <use xlink:href="#LiberationSans-68" x="878.125"/>
      <use xlink:href="#LiberationSans-75" x="933.740234"/>
      <use xlink:href="#LiberationSans-73" x="989.355469"/>
      <use xlink:href="#LiberationSans-62" x="1039.355469"/>
      <use xlink:href="#LiberationSans-61" x="1094.970703"/>
      <use xlink:href="#LiberationSans-6e" x="1150.585938"/>
      <use xlink:href="#LiberationSans-64" x="1206.201172"/>
      <use xlink:href="#LiberationSans-72" x="1261.816406"/>
      <use xlink:href="#LiberationSans-79" x="1295.117188"/>
      <use xlink:href="#LiberationSans-20" x="1345.117188"/>
      <use xlink:href="#LiberationSans-61" x="1372.900391"/>
      <use xlink:href="#LiberationSans-6e" x="1428.515625"/>
      <use xlink:href="#LiberationSans-64" x="1484.130859"/>
      <use xlink:href="#LiberationSans-20" x="1539.746094"/>
      <use xlink:href="#LiberationSans-66" x="1567.529297"/>
      <use xlink:href="#LiberationSans-6f" x="1595.3125"/>
      <use xlink:href="#LiberationSans-72" x="1650.927734"/>
      <use xlink:href="#LiberationSans-65" x="1684.228516"/>
      <use xlink:href="#LiberationSans-73" x="1739.84375"/>
      <use xlink:href="#LiberationSans-74" x="1789.84375"/>
      <use xlink:href="#LiberationSans-72" x="1817.626953"/>
      <use xlink:href="#LiberationSans-79" x="1850.927734"/>
      <use xlink:href="#LiberationSans-20" x="1900.927734"/>
      <use xlink:href="#LiberationSans-77" x="1928.710938"/>
      <use xlink:href="#LiberationSans-6f" x="2000.927734"/>
      <use xlink:href="#LiberationSans-72" x="2056.542969"/>
      <use xlink:href="#LiberationSans-6b" x="2089.84375"/>
      <use xlink:href="#LiberationSans-65" x="2139.84375"/>
      <use xlink:href="#LiberationSans-72" x="2195.458984"/>
      <use xlink:href="#LiberationSans-73" x="2228.759766"/>
      <use xlink:href="#LiberationSans-2c" x="2278.759766"/>
      <use xlink:href="#LiberationSans-20" x="2306.542969"/>
      <use xlink:href="#LiberationSans-66" x="2334.326172"/>
      <use xlink:href="#LiberationSans-69" x="2362.109375"/>
      <use xlink:href="#LiberationSans-73" x="2384.326172"/>
      <use xlink:href="#LiberationSans-68" x="2434.326172"/>
      <use xlink:href="#LiberationSans-65" x="2489.941406"/>
      <use xlink:href="#LiberationSans-72" x="2545.556641"/>
      <use xlink:href="#LiberationSans-6d" x="2578.857422"/>
      <use xlink:href="#LiberationSans-65" x="2662.158203"/>
      <use xlink:href="#LiberationSans-6e" x="2717.773438"/>
      <use xlink:href="#LiberationSans-20" x="2773.388672"/>
      <use xlink:href="#LiberationSans-61" x="2801.171875"/>
      <use xlink:href="#LiberationSans-6e" x="2856.787109"/>
      <use xlink:href="#LiberationSans-64" x="2912.402344"/>
      <use xlink:href="#LiberationSans-20" x="2968.017578"/>
      <use xlink:href="#LiberationSans-68" x="2995.800781"/>
      <use xlink:href="#LiberationSans-75" x="3051.416016"/>
      <use xlink:href="#LiberationSans-6e" x="3107.03125"/>
      <use xlink:href="#LiberationSans-74" x="3162.646484"/>
      <use xlink:href="#LiberationSans-65" x="3190.429688"/>
      <use xlink:href="#LiberationSans-72" x="3246.044922"/>
      <use xlink:href="#LiberationSans-73" x="3279.345703"/>
     </g>
    </g>
    <g id="line2d_7">
     <path style="fill: none"/>
     <defs>
      <path id="mbdfa506880" d="M 0 3 
C 0.795609 3 1.55874 2.683901 2.12132 2.12132 
C 2.683901 1.55874 3 0.795609 3 0 
C 3 -0.795609 2.683901 -1.55874 2.12132 -2.12132 
C 1.55874 -2.683901 0.795609 -3 0 -3 
C -0.795609 -3 -1.55874 -2.683901 -2.12132 -2.12132 
C -2.683901 -1.55874 -3 -0.795609 -3 0 
C -3 0.795609 -2.683901 1.55874 -2.12132 2.12132 
C -1.55874 2.683901 -0.795609 3 0 3 
z
" style="stroke: #00ced1"/>
     </defs>
     <g>
      <use xlink:href="#mbdfa506880" x="51.2" y="335.2625" style="fill: #00ced1; stroke: #00ced1"/>
     </g>
    </g>
    <g id="text_21">
     <!-- Production and related workers, transport equipment operators and labourers -->
     <g style="fill: #262626" transform="translate(65.6 338.0625) scale(0.08 -0.08)">
      <defs>
       <path id="LiberationSans-71" d="M 1513 -63 
Q 869 -63 569 371 
Q 269 806 269 1675 
Q 269 2556 576 3000 
Q 884 3444 1513 3444 
Q 1722 3444 1883 3406 
Q 2044 3369 2170 3295 
Q 2297 3222 2392 3112 
Q 2488 3003 2566 2856 
L 2572 2856 
Q 2572 2934 2576 3029 
Q 2581 3125 2586 3209 
Q 2591 3294 2597 3355 
Q 2603 3416 2609 3425 
L 3150 3425 
Q 3144 3372 3136 3147 
Q 3128 2922 3128 2503 
L 3128 -1328 
L 2566 -1328 
L 2566 44 
Q 2566 125 2567 212 
Q 2569 300 2572 378 
Q 2575 466 2578 556 
L 2572 556 
Q 2491 397 2392 280 
Q 2294 163 2166 86 
Q 2038 9 1877 -27 
Q 1716 -63 1513 -63 
z
M 2566 1731 
Q 2566 2100 2502 2350 
Q 2438 2600 2320 2750 
Q 2203 2900 2036 2964 
Q 1869 3028 1663 3028 
Q 1447 3028 1294 2948 
Q 1141 2869 1045 2705 
Q 950 2541 904 2289 
Q 859 2038 859 1694 
Q 859 1356 901 1106 
Q 944 856 1039 693 
Q 1134 531 1286 451 
Q 1438 372 1656 372 
Q 1844 372 2009 430 
Q 2175 488 2298 639 
Q 2422 791 2494 1055 
Q 2566 1319 2566 1731 
z
" transform="scale(0.015625)"/>
      </defs>
      <use xlink:href="#LiberationSans-50"/>
      <use xlink:href="#LiberationSans-72" x="66.699219"/>
      <use xlink:href="#LiberationSans-6f" x="100"/>
      <use xlink:href="#LiberationSans-64" x="155.615234"/>
      <use xlink:href="#LiberationSans-75" x="211.230469"/>
      <use xlink:href="#LiberationSans-63" x="266.845703"/>
      <use xlink:href="#LiberationSans-74" x="316.845703"/>
      <use xlink:href="#LiberationSans-69" x="344.628906"/>
      <use xlink:href="#LiberationSans-6f" x="366.845703"/>
      <use xlink:href="#LiberationSans-6e" x="422.460938"/>
      <use xlink:href="#LiberationSans-20" x="478.076172"/>
      <use xlink:href="#LiberationSans-61" x="505.859375"/>
      <use xlink:href="#LiberationSans-6e" x="561.474609"/>
      <use xlink:href="#LiberationSans-64" x="617.089844"/>
      <use xlink:href="#LiberationSans-20" x="672.705078"/>
      <use xlink:href="#LiberationSans-72" x="700.488281"/>
      <use xlink:href="#LiberationSans-65" x="733.789062"/>
      <use xlink:href="#LiberationSans-6c" x="789.404297"/>
      <use xlink:href="#LiberationSans-61" x="811.621094"/>
      <use xlink:href="#LiberationSans-74" x="867.236328"/>
      <use xlink:href="#LiberationSans-65" x="895.019531"/>
      <use xlink:href="#LiberationSans-64" x="950.634766"/>
      <use xlink:href="#LiberationSans-20" x="1006.25"/>
      <use xlink:href="#LiberationSans-77" x="1034.033203"/>
      <use xlink:href="#LiberationSans-6f" x="1106.25"/>
      <use xlink:href="#LiberationSans-72" x="1161.865234"/>
      <use xlink:href="#LiberationSans-6b" x="1195.166016"/>
      <use xlink:href="#LiberationSans-65" x="1245.166016"/>
      <use xlink:href="#LiberationSans-72" x="1300.78125"/>
      <use xlink:href="#LiberationSans-73" x="1334.082031"/>
      <use xlink:href="#LiberationSans-2c" x="1384.082031"/>
      <use xlink:href="#LiberationSans-20" x="1411.865234"/>
      <use xlink:href="#LiberationSans-74" x="1439.648438"/>
      <use xlink:href="#LiberationSans-72" x="1467.431641"/>
      <use xlink:href="#LiberationSans-61" x="1500.732422"/>
      <use xlink:href="#LiberationSans-6e" x="1556.347656"/>
      <use xlink:href="#LiberationSans-73" x="1611.962891"/>
      <use xlink:href="#LiberationSans-70" x="1661.962891"/>
      <use xlink:href="#LiberationSans-6f" x="1717.578125"/>
      <use xlink:href="#LiberationSans-72" x="1773.193359"/>
      <use xlink:href="#LiberationSans-74" x="1806.494141"/>
      <use xlink:href="#LiberationSans-20" x="1834.277344"/>
      <use xlink:href="#LiberationSans-65" x="1862.060547"/>
      <use xlink:href="#LiberationSans-71" x="1917.675781"/>
      <use xlink:href="#LiberationSans-75" x="1973.291016"/>
      <use xlink:href="#LiberationSans-69" x="2028.90625"/>
      <use xlink:href="#LiberationSans-70" x="2051.123047"/>
      <use xlink:href="#LiberationSans-6d" x="2106.738281"/>
      <use xlink:href="#LiberationSans-65" x="2190.039062"/>
      <use xlink:href="#LiberationSans-6e" x="2245.654297"/>
      <use xlink:href="#LiberationSans-74" x="2301.269531"/>
      <use xlink:href="#LiberationSans-20" x="2329.052734"/>
      <use xlink:href="#LiberationSans-6f" x="2356.835938"/>
      <use xlink:href="#LiberationSans-70" x="2412.451172"/>
      <use xlink:href="#LiberationSans-65" x="2468.066406"/>
      <use xlink:href="#LiberationSans-72" x="2523.681641"/>
      <use xlink:href="#LiberationSans-61" x="2556.982422"/>
      <use xlink:href="#LiberationSans-74" x="2612.597656"/>
      <use xlink:href="#LiberationSans-6f" x="2640.380859"/>
      <use xlink:href="#LiberationSans-72" x="2695.996094"/>
      <use xlink:href="#LiberationSans-73" x="2729.296875"/>
      <use xlink:href="#LiberationSans-20" x="2779.296875"/>
      <use xlink:href="#LiberationSans-61" x="2807.080078"/>
      <use xlink:href="#LiberationSans-6e" x="2862.695312"/>
      <use xlink:href="#LiberationSans-64" x="2918.310547"/>
      <use xlink:href="#LiberationSans-20" x="2973.925781"/>
      <use xlink:href="#LiberationSans-6c" x="3001.708984"/>
      <use xlink:href="#LiberationSans-61" x="3023.925781"/>
      <use xlink:href="#LiberationSans-62" x="3079.541016"/>
      <use xlink:href="#LiberationSans-6f" x="3135.15625"/>
      <use xlink:href="#LiberationSans-75" x="3190.771484"/>
      <use xlink:href="#LiberationSans-72" x="3246.386719"/>
      <use xlink:href="#LiberationSans-65" x="3279.6875"/>
      <use xlink:href="#LiberationSans-72" x="3335.302734"/>
      <use xlink:href="#LiberationSans-73" x="3368.603516"/>
     </g>
    </g>
    <g id="line2d_8">
     <path style="fill: none"/>
     <defs>
      <path id="m7f45fed7fd" d="M 0 3 
C 0.795609 3 1.55874 2.683901 2.12132 2.12132 
C 2.683901 1.55874 3 0.795609 3 0 
C 3 -0.795609 2.683901 -1.55874 2.12132 -2.12132 
C 1.55874 -2.683901 0.795609 -3 0 -3 
C -0.795609 -3 -1.55874 -2.683901 -2.12132 -2.12132 
C -2.683901 -1.55874 -3 -0.795609 -3 0 
C -3 0.795609 -2.683901 1.55874 -2.12132 2.12132 
C -1.55874 2.683901 -0.795609 3 0 3 
z
" style="stroke: #808080"/>
     </defs>
     <g>
      <use xlink:href="#m7f45fed7fd" x="51.2" y="346.72" style="fill: #808080; stroke: #808080"/>
     </g>
    </g>
    <g id="text_22">
     <!-- unclassified -->
     <g style="fill: #262626" transform="translate(65.6 349.52) scale(0.08 -0.08)">
      <use xlink:href="#LiberationSans-75"/>
      <use xlink:href="#LiberationSans-6e" x="55.615234"/>
      <use xlink:href="#LiberationSans-63" x="111.230469"/>
      <use xlink:href="#LiberationSans-6c" x="161.230469"/>
      <use xlink:href="#LiberationSans-61" x="183.447266"/>
      <use xlink:href="#LiberationSans-73" x="239.0625"/>
      <use xlink:href="#LiberationSans-73" x="289.0625"/>
      <use xlink:href="#LiberationSans-69" x="339.0625"/>
      <use xlink:href="#LiberationSans-66" x="361.279297"/>
      <use xlink:href="#LiberationSans-69" x="389.0625"/>
      <use xlink:href="#LiberationSans-65" x="411.279297"/>
      <use xlink:href="#LiberationSans-64" x="466.894531"/>
     </g>
    </g>
   </g>
  </g>
 </g>
 <defs>
  <clipPath id="pd609136974">
   <rect x="36" y="34.56" width="223.2" height="221.76"/>
  </clipPath>
 </defs>
</svg>
