<?xml version="1.0" encoding="utf-8" standalone="no"?>
<!DOCTYPE svg PUBLIC "-//W3C//DTD SVG 1.1//EN"
  "http://www.w3.org/Graphics/SVG/1.1/DTD/svg11.dtd">
<svg xmlns:xlink="http://www.w3.org/1999/xlink" width="360pt" height="360pt" viewBox="0 0 360 360" xmlns="http://www.w3.org/2000/svg" version="1.1">
 <metadata>
  <rdf:RDF xmlns:dc="http://purl.org/dc/elements/1.1/" xmlns:cc="http://creativecommons.org/ns#" xmlns:rdf="http://www.w3.org/1999/02/22-rdf-syntax-ns#">
   <cc:Work>
    <dc:type rdf:resource="http://purl.org/dc/dcmitype/StillImage"/>
    <dc:date>2023-11-21T09:24:20.288824</dc:date>
    <dc:format>image/svg+xml</dc:format>
    <dc:creator>
     <cc:Agent>
      <dc:title>Matplotlib v3.8.0, https://matplotlib.org/</dc:title>
     </cc:Agent>
    </dc:creator>
   </cc:Work>
  </rdf:RDF>
 </metadata>
 <defs>
  <style type="text/css">*{stroke-linejoin: round; stroke-linecap: butt}</style>
 </defs>
 <g id="figure_1">
  <g id="patch_1">
   <path d="M 0 360 
L 360 360 
L 360 0 
L 0 0 
z
" style="fill: #ffffff"/>
  </g>
  <g id="axes_1">
   <g id="LineCollection_1">
    <path d="M 111.376528 134.784422 
L 90.451241 133.180852 
" clip-path="url(#paa0dc03450)" style="fill: none; stroke: #808080; stroke-opacity: 0.8; stroke-width: 2.321928"/>
    <path d="M 111.376528 134.784422 
L 128.978287 146.733116 
" clip-path="url(#paa0dc03450)" style="fill: none; stroke: #808080; stroke-opacity: 0.8; stroke-width: 2.321928"/>
    <path d="M 111.376528 134.784422 
L 114.933667 95.840167 
" clip-path="url(#paa0dc03450)" style="fill: none; stroke: #808080; stroke-opacity: 0.8; stroke-width: 3.321928"/>
    <path d="M 299.789256 88.226852 
L 190.935248 103.75309 
" clip-path="url(#paa0dc03450)" style="fill: none; stroke: #808080; stroke-opacity: 0.8; stroke-width: 4.643856"/>
    <path d="M 190.935248 103.75309 
L 69.210744 75.948717 
" clip-path="url(#paa0dc03450)" style="fill: none; stroke: #808080; stroke-opacity: 0.8; stroke-width: 7.022368"/>
    <path d="M 190.935248 103.75309 
L 90.451241 133.180852 
" clip-path="url(#paa0dc03450)" style="fill: none; stroke: #808080; stroke-opacity: 0.8; stroke-width: 4.643856"/>
    <path d="M 190.935248 103.75309 
L 261.382602 296.345455 
" clip-path="url(#paa0dc03450)" style="fill: none; stroke: #808080; stroke-opacity: 0.8; stroke-width: 5.643856"/>
    <path d="M 190.935248 103.75309 
L 128.978287 146.733116 
" clip-path="url(#paa0dc03450)" style="fill: none; stroke: #808080; stroke-opacity: 0.8; stroke-width: 6.643856"/>
    <path d="M 190.935248 103.75309 
L 194.258788 67.254545 
" clip-path="url(#paa0dc03450)" style="fill: none; stroke: #808080; stroke-opacity: 0.8; stroke-width: 3.321928"/>
    <path d="M 190.935248 103.75309 
L 171.308408 138.118374 
" clip-path="url(#paa0dc03450)" style="fill: none; stroke: #808080; stroke-opacity: 0.8; stroke-width: 3.321928"/>
    <path d="M 190.935248 103.75309 
L 140.154067 67.803862 
" clip-path="url(#paa0dc03450)" style="fill: none; stroke: #808080; stroke-opacity: 0.8; stroke-width: 3.906891"/>
    <path d="M 190.935248 103.75309 
L 114.933667 95.840167 
" clip-path="url(#paa0dc03450)" style="fill: none; stroke: #808080; stroke-opacity: 0.8; stroke-width: 4.321928"/>
    <path d="M 69.210744 75.948717 
L 90.451241 133.180852 
" clip-path="url(#paa0dc03450)" style="fill: none; stroke: #808080; stroke-opacity: 0.8; stroke-width: 3.906891"/>
    <path d="M 69.210744 75.948717 
L 128.978287 146.733116 
" clip-path="url(#paa0dc03450)" style="fill: none; stroke: #808080; stroke-opacity: 0.8; stroke-width: 5.129283"/>
    <path d="M 69.210744 75.948717 
L 194.258788 67.254545 
" clip-path="url(#paa0dc03450)" style="fill: none; stroke: #808080; stroke-opacity: 0.8; stroke-width: 4.321928"/>
    <path d="M 69.210744 75.948717 
L 114.933667 95.840167 
" clip-path="url(#paa0dc03450)" style="fill: none; stroke: #808080; stroke-opacity: 0.8; stroke-width: 6.022368"/>
    <path d="M 150.578037 142.323019 
L 128.978287 146.733116 
" clip-path="url(#paa0dc03450)" style="fill: none; stroke: #808080; stroke-opacity: 0.8; stroke-width: 2.321928"/>
    <path d="M 150.578037 142.323019 
L 171.308408 138.118374 
" clip-path="url(#paa0dc03450)" style="fill: none; stroke: #808080; stroke-opacity: 0.8; stroke-width: 2.321928"/>
    <path d="M 150.578037 142.323019 
L 140.154067 67.803862 
" clip-path="url(#paa0dc03450)" style="fill: none; stroke: #808080; stroke-opacity: 0.8; stroke-width: 4.321928"/>
    <path d="M 90.451241 133.180852 
L 261.382602 296.345455 
" clip-path="url(#paa0dc03450)" style="fill: none; stroke: #808080; stroke-opacity: 0.8; stroke-width: 5.78136"/>
    <path d="M 90.451241 133.180852 
L 128.978287 146.733116 
" clip-path="url(#paa0dc03450)" style="fill: none; stroke: #808080; stroke-opacity: 0.8; stroke-width: 7.179909"/>
    <path d="M 140.154067 67.803862 
L 114.933667 95.840167 
" clip-path="url(#paa0dc03450)" style="fill: none; stroke: #808080; stroke-opacity: 0.8; stroke-width: 3.321928"/>
    <path d="M 124.8501 165.433466 
L 128.978287 146.733116 
" clip-path="url(#paa0dc03450)" style="fill: none; stroke: #808080; stroke-opacity: 0.8; stroke-width: 2.321928"/>
    <path d="M 128.978287 146.733116 
L 261.382602 296.345455 
" clip-path="url(#paa0dc03450)" style="fill: none; stroke: #808080; stroke-opacity: 0.8; stroke-width: 5.906891"/>
    <path d="M 128.978287 146.733116 
L 171.308408 138.118374 
" clip-path="url(#paa0dc03450)" style="fill: none; stroke: #808080; stroke-opacity: 0.8; stroke-width: 3.906891"/>
    <path d="M 128.978287 146.733116 
L 114.933667 95.840167 
" clip-path="url(#paa0dc03450)" style="fill: none; stroke: #808080; stroke-opacity: 0.8; stroke-width: 4.906891"/>
   </g>
   <g id="PathCollection_1">
    <path d="M 111.376528 139.143321 
C 112.532522 139.143321 113.641325 138.684039 114.458735 137.866629 
C 115.276146 137.049218 115.735427 135.940415 115.735427 134.784422 
C 115.735427 133.628428 115.276146 132.519625 114.458735 131.702215 
C 113.641325 130.884804 112.532522 130.425523 111.376528 130.425523 
C 110.220535 130.425523 109.111732 130.884804 108.294321 131.702215 
C 107.476911 132.519625 107.017629 133.628428 107.017629 134.784422 
C 107.017629 135.940415 107.476911 137.049218 108.294321 137.866629 
C 109.111732 138.684039 110.220535 139.143321 111.376528 139.143321 
z
" clip-path="url(#paa0dc03450)" style="fill: #ff0000; fill-opacity: 0.8; stroke: #ff0000; stroke-opacity: 0.8"/>
    <path d="M 299.789256 91.010734 
C 300.52755 91.010734 301.235705 90.717407 301.757758 90.195354 
C 302.279811 89.673301 302.573138 88.965146 302.573138 88.226852 
C 302.573138 87.488558 302.279811 86.780403 301.757758 86.25835 
C 301.235705 85.736297 300.52755 85.44297 299.789256 85.44297 
C 299.050962 85.44297 298.342807 85.736297 297.820754 86.25835 
C 297.298701 86.780403 297.005374 87.488558 297.005374 88.226852 
C 297.005374 88.965146 297.298701 89.673301 297.820754 90.195354 
C 298.342807 90.717407 299.050962 91.010734 299.789256 91.010734 
z
" clip-path="url(#paa0dc03450)" style="fill: #0000ff; fill-opacity: 0.8; stroke: #0000ff; stroke-opacity: 0.8"/>
    <path d="M 171.072116 115.136753 
C 171.679773 115.136753 172.262623 114.895328 172.692301 114.46565 
C 173.121979 114.035972 173.363404 113.453122 173.363404 112.845465 
C 173.363404 112.237808 173.121979 111.654958 172.692301 111.22528 
C 172.262623 110.795602 171.679773 110.554177 171.072116 110.554177 
C 170.464459 110.554177 169.881609 110.795602 169.451931 111.22528 
C 169.022253 111.654958 168.780828 112.237808 168.780828 112.845465 
C 168.780828 113.453122 169.022253 114.035972 169.451931 114.46565 
C 169.881609 114.895328 170.464459 115.136753 171.072116 115.136753 
z
" clip-path="url(#paa0dc03450)" style="fill: #00ced1; fill-opacity: 0.8; stroke: #00ced1; stroke-opacity: 0.8"/>
    <path d="M 190.935248 115.489785 
C 194.047856 115.489785 197.033399 114.253132 199.234345 112.052186 
C 201.435291 109.85124 202.671943 106.865698 202.671943 103.75309 
C 202.671943 100.640482 201.435291 97.65494 199.234345 95.453994 
C 197.033399 93.253048 194.047856 92.016395 190.935248 92.016395 
C 187.822641 92.016395 184.837098 93.253048 182.636152 95.453994 
C 180.435206 97.65494 179.198554 100.640482 179.198554 103.75309 
C 179.198554 106.865698 180.435206 109.85124 182.636152 112.052186 
C 184.837098 114.253132 187.822641 115.489785 190.935248 115.489785 
z
" clip-path="url(#paa0dc03450)" style="fill: #008000; fill-opacity: 0.8; stroke: #008000; stroke-opacity: 0.8"/>
    <path d="M 69.210744 80.744548 
C 70.482613 80.744548 71.702561 80.239229 72.601909 79.339882 
C 73.501256 78.440534 74.006575 77.220586 74.006575 75.948717 
C 74.006575 74.676847 73.501256 73.456899 72.601909 72.557552 
C 71.702561 71.658204 70.482613 71.152885 69.210744 71.152885 
C 67.938874 71.152885 66.718926 71.658204 65.819579 72.557552 
C 64.920231 73.456899 64.414912 74.676847 64.414912 75.948717 
C 64.414912 77.220586 64.920231 78.440534 65.819579 79.339882 
C 66.718926 80.239229 67.938874 80.744548 69.210744 80.744548 
z
" clip-path="url(#paa0dc03450)" style="fill: #00ced1; fill-opacity: 0.8; stroke: #00ced1; stroke-opacity: 0.8"/>
    <path d="M 150.578037 144.872529 
C 151.254174 144.872529 151.90271 144.603896 152.380812 144.125795 
C 152.858914 143.647693 153.127546 142.999157 153.127546 142.323019 
C 153.127546 141.646881 152.858914 140.998345 152.380812 140.520243 
C 151.90271 140.042142 151.254174 139.773509 150.578037 139.773509 
C 149.901899 139.773509 149.253363 140.042142 148.775261 140.520243 
C 148.297159 140.998345 148.028527 141.646881 148.028527 142.323019 
C 148.028527 142.999157 148.297159 143.647693 148.775261 144.125795 
C 149.253363 144.603896 149.901899 144.872529 150.578037 144.872529 
z
" clip-path="url(#paa0dc03450)" style="fill: #ff0000; fill-opacity: 0.8; stroke: #ff0000; stroke-opacity: 0.8"/>
    <path d="M 90.451241 137.897843 
C 91.702202 137.897843 92.902095 137.400831 93.786657 136.516268 
C 94.67122 135.631706 95.168232 134.431813 95.168232 133.180852 
C 95.168232 131.929892 94.67122 130.729999 93.786657 129.845436 
C 92.902095 128.960874 91.702202 128.463862 90.451241 128.463862 
C 89.200281 128.463862 88.000388 128.960874 87.115825 129.845436 
C 86.231263 130.729999 85.734251 131.929892 85.734251 133.180852 
C 85.734251 134.431813 86.231263 135.631706 87.115825 136.516268 
C 88.000388 137.400831 89.200281 137.897843 90.451241 137.897843 
z
" clip-path="url(#paa0dc03450)" style="fill: #00ced1; fill-opacity: 0.8; stroke: #00ced1; stroke-opacity: 0.8"/>
    <path d="M 140.154067 70.886069 
C 140.971478 70.886069 141.75552 70.561308 142.333516 69.983311 
C 142.911513 69.405315 143.236274 68.621273 143.236274 67.803862 
C 143.236274 66.986451 142.911513 66.202409 142.333516 65.624412 
C 141.75552 65.046416 140.971478 64.721655 140.154067 64.721655 
C 139.336656 64.721655 138.552614 65.046416 137.974617 65.624412 
C 137.396621 66.202409 137.07186 66.986451 137.07186 67.803862 
C 137.07186 68.621273 137.396621 69.405315 137.974617 69.983311 
C 138.552614 70.561308 139.336656 70.886069 140.154067 70.886069 
z
" clip-path="url(#paa0dc03450)" style="fill: #ff0000; fill-opacity: 0.8; stroke: #ff0000; stroke-opacity: 0.8"/>
    <path d="M 124.8501 167.669534 
C 125.443112 167.669534 126.011916 167.433928 126.431239 167.014605 
C 126.850561 166.595282 127.086168 166.026478 127.086168 165.433466 
C 127.086168 164.840454 126.850561 164.27165 126.431239 163.852327 
C 126.011916 163.433004 125.443112 163.197398 124.8501 163.197398 
C 124.257088 163.197398 123.688284 163.433004 123.268961 163.852327 
C 122.849638 164.27165 122.614032 164.840454 122.614032 165.433466 
C 122.614032 166.026478 122.849638 166.595282 123.268961 167.014605 
C 123.688284 167.433928 124.257088 167.669534 124.8501 167.669534 
z
" clip-path="url(#paa0dc03450)" style="fill: #ff0000; fill-opacity: 0.8; stroke: #ff0000; stroke-opacity: 0.8"/>
    <path d="M 128.978287 155.979737 
C 131.430519 155.979737 133.782645 155.005455 135.516635 153.271464 
C 137.250626 151.537474 138.224908 149.185349 138.224908 146.733116 
C 138.224908 144.280883 137.250626 141.928758 135.516635 140.194768 
C 133.782645 138.460777 131.430519 137.486495 128.978287 137.486495 
C 126.526054 137.486495 124.173929 138.460777 122.439939 140.194768 
C 120.705948 141.928758 119.731666 144.280883 119.731666 146.733116 
C 119.731666 149.185349 120.705948 151.537474 122.439939 153.271464 
C 124.173929 155.005455 126.526054 155.979737 128.978287 155.979737 
z
" clip-path="url(#paa0dc03450)" style="fill: #00ced1; fill-opacity: 0.8; stroke: #00ced1; stroke-opacity: 0.8"/>
    <path d="M 114.933667 100.713564 
C 116.226107 100.713564 117.465786 100.200072 118.379679 99.286179 
C 119.293572 98.372286 119.807064 97.132607 119.807064 95.840167 
C 119.807064 94.547727 119.293572 93.308048 118.379679 92.394155 
C 117.465786 91.480261 116.226107 90.96677 114.933667 90.96677 
C 113.641227 90.96677 112.401548 91.480261 111.487655 92.394155 
C 110.573761 93.308048 110.06027 94.547727 110.06027 95.840167 
C 110.06027 97.132607 110.573761 98.372286 111.487655 99.286179 
C 112.401548 100.200072 113.641227 100.713564 114.933667 100.713564 
z
" clip-path="url(#paa0dc03450)" style="fill: #0000ff; fill-opacity: 0.8; stroke: #0000ff; stroke-opacity: 0.8"/>
    <path d="M 261.382602 299.880988 
C 262.320237 299.880988 263.219595 299.508462 263.882602 298.845455 
C 264.54561 298.182447 264.918136 297.283089 264.918136 296.345455 
C 264.918136 295.40782 264.54561 294.508462 263.882602 293.845455 
C 263.219595 293.182447 262.320237 292.809921 261.382602 292.809921 
C 260.444968 292.809921 259.54561 293.182447 258.882602 293.845455 
C 258.219595 294.508462 257.847068 295.40782 257.847068 296.345455 
C 257.847068 297.283089 258.219595 298.182447 258.882602 298.845455 
C 259.54561 299.508462 260.444968 299.880988 261.382602 299.880988 
z
" clip-path="url(#paa0dc03450)" style="fill: #00ced1; fill-opacity: 0.8; stroke: #00ced1; stroke-opacity: 0.8"/>
    <path d="M 171.308408 141.689089 
C 172.255373 141.689089 173.163679 141.312856 173.833284 140.643251 
C 174.502889 139.973646 174.879122 139.065339 174.879122 138.118374 
C 174.879122 137.17141 174.502889 136.263103 173.833284 135.593498 
C 173.163679 134.923893 172.255373 134.54766 171.308408 134.54766 
C 170.361444 134.54766 169.453137 134.923893 168.783532 135.593498 
C 168.113927 136.263103 167.737694 137.17141 167.737694 138.118374 
C 167.737694 139.065339 168.113927 139.973646 168.783532 140.643251 
C 169.453137 141.312856 170.361444 141.689089 171.308408 141.689089 
z
" clip-path="url(#paa0dc03450)" style="fill: #00ced1; fill-opacity: 0.8; stroke: #00ced1; stroke-opacity: 0.8"/>
    <path d="M 194.258788 69.704035 
C 194.9084 69.704035 195.531494 69.445942 195.990839 68.986596 
C 196.450184 68.527251 196.708278 67.904158 196.708278 67.254545 
C 196.708278 66.604933 196.450184 65.98184 195.990839 65.522495 
C 195.531494 65.063149 194.9084 64.805056 194.258788 64.805056 
C 193.609176 64.805056 192.986082 65.063149 192.526737 65.522495 
C 192.067392 65.98184 191.809298 66.604933 191.809298 67.254545 
C 191.809298 67.904158 192.067392 68.527251 192.526737 68.986596 
C 192.986082 69.445942 193.609176 69.704035 194.258788 69.704035 
z
" clip-path="url(#paa0dc03450)" style="fill: #008000; fill-opacity: 0.8; stroke: #008000; stroke-opacity: 0.8"/>
   </g>
   <g id="text_1">
    <g clip-path="url(#paa0dc03450)">
     <!-- medicus -->
     <g style="opacity: 0.8" transform="translate(100.206216 136.335984) scale(0.06 -0.06)">
      <defs>
       <path id="LiberationSans-6d" d="M 2400 0 
L 2400 2144 
Q 2400 2391 2369 2556 
Q 2338 2722 2264 2823 
Q 2191 2925 2072 2967 
Q 1953 3009 1781 3009 
Q 1603 3009 1459 2939 
Q 1316 2869 1214 2736 
Q 1113 2603 1058 2408 
Q 1003 2213 1003 1959 
L 1003 0 
L 444 0 
L 444 2659 
Q 444 2766 442 2883 
Q 441 3000 437 3104 
Q 434 3209 431 3284 
Q 428 3359 425 3381 
L 956 3381 
Q 959 3366 962 3297 
Q 966 3228 970 3139 
Q 975 3050 978 2958 
Q 981 2866 981 2803 
L 991 2803 
Q 1066 2950 1153 3069 
Q 1241 3188 1358 3270 
Q 1475 3353 1626 3398 
Q 1778 3444 1978 3444 
Q 2363 3444 2586 3291 
Q 2809 3138 2897 2803 
L 2906 2803 
Q 2981 2950 3075 3069 
Q 3169 3188 3294 3270 
Q 3419 3353 3575 3398 
Q 3731 3444 3931 3444 
Q 4188 3444 4373 3375 
Q 4559 3306 4678 3162 
Q 4797 3019 4853 2792 
Q 4909 2566 4909 2253 
L 4909 0 
L 4353 0 
L 4353 2144 
Q 4353 2391 4322 2556 
Q 4291 2722 4217 2823 
Q 4144 2925 4025 2967 
Q 3906 3009 3734 3009 
Q 3556 3009 3412 2942 
Q 3269 2875 3167 2744 
Q 3066 2613 3011 2416 
Q 2956 2219 2956 1959 
L 2956 0 
L 2400 0 
z
" transform="scale(0.015625)"/>
       <path id="LiberationSans-65" d="M 863 1572 
Q 863 1306 917 1082 
Q 972 859 1086 698 
Q 1200 538 1378 448 
Q 1556 359 1806 359 
Q 2172 359 2392 506 
Q 2613 653 2691 878 
L 3184 738 
Q 3131 597 3036 455 
Q 2941 313 2781 198 
Q 2622 84 2383 10 
Q 2144 -63 1806 -63 
Q 1056 -63 664 384 
Q 272 831 272 1713 
Q 272 2188 390 2517 
Q 509 2847 715 3053 
Q 922 3259 1197 3351 
Q 1472 3444 1784 3444 
Q 2209 3444 2495 3306 
Q 2781 3169 2954 2926 
Q 3128 2684 3201 2356 
Q 3275 2028 3275 1647 
L 3275 1572 
L 863 1572 
z
M 2694 2003 
Q 2647 2538 2422 2783 
Q 2197 3028 1775 3028 
Q 1634 3028 1479 2983 
Q 1325 2938 1194 2822 
Q 1063 2706 972 2507 
Q 881 2309 869 2003 
L 2694 2003 
z
" transform="scale(0.015625)"/>
       <path id="LiberationSans-64" d="M 2566 544 
Q 2409 219 2151 78 
Q 1894 -63 1513 -63 
Q 872 -63 570 368 
Q 269 800 269 1675 
Q 269 3444 1513 3444 
Q 1897 3444 2153 3303 
Q 2409 3163 2566 2856 
L 2572 2856 
Q 2572 2888 2570 2955 
Q 2569 3022 2567 3095 
Q 2566 3169 2566 3234 
Q 2566 3300 2566 3328 
L 2566 4638 
L 3128 4638 
L 3128 697 
Q 3128 575 3129 462 
Q 3131 350 3134 256 
Q 3138 163 3141 95 
Q 3144 28 3147 0 
L 2609 0 
Q 2603 31 2598 89 
Q 2594 147 2589 222 
Q 2584 297 2581 380 
Q 2578 463 2578 544 
L 2566 544 
z
M 859 1694 
Q 859 1344 903 1094 
Q 947 844 1044 683 
Q 1141 522 1291 447 
Q 1441 372 1656 372 
Q 1878 372 2048 444 
Q 2219 516 2333 677 
Q 2447 838 2506 1097 
Q 2566 1356 2566 1731 
Q 2566 2091 2506 2339 
Q 2447 2588 2331 2741 
Q 2216 2894 2048 2961 
Q 1881 3028 1663 3028 
Q 1456 3028 1306 2956 
Q 1156 2884 1056 2725 
Q 956 2566 907 2311 
Q 859 2056 859 1694 
z
" transform="scale(0.015625)"/>
       <path id="LiberationSans-69" d="M 428 4100 
L 428 4638 
L 991 4638 
L 991 4100 
L 428 4100 
z
M 428 0 
L 428 3381 
L 991 3381 
L 991 0 
L 428 0 
z
" transform="scale(0.015625)"/>
       <path id="LiberationSans-63" d="M 859 1706 
Q 859 1416 901 1172 
Q 944 928 1044 751 
Q 1144 575 1308 478 
Q 1472 381 1713 381 
Q 2013 381 2214 543 
Q 2416 706 2463 1044 
L 3031 1006 
Q 3003 797 2909 603 
Q 2816 409 2655 262 
Q 2494 116 2262 26 
Q 2031 -63 1728 -63 
Q 1331 -63 1053 71 
Q 775 206 601 442 
Q 428 678 350 998 
Q 272 1319 272 1694 
Q 272 2034 328 2295 
Q 384 2556 486 2751 
Q 588 2947 725 3080 
Q 863 3213 1023 3292 
Q 1184 3372 1362 3408 
Q 1541 3444 1722 3444 
Q 2006 3444 2228 3366 
Q 2450 3288 2611 3152 
Q 2772 3016 2872 2831 
Q 2972 2647 3013 2434 
L 2434 2391 
Q 2391 2672 2212 2837 
Q 2034 3003 1706 3003 
Q 1466 3003 1305 2923 
Q 1144 2844 1044 2683 
Q 944 2522 901 2278 
Q 859 2034 859 1706 
z
" transform="scale(0.015625)"/>
       <path id="LiberationSans-75" d="M 981 3381 
L 981 1238 
Q 981 991 1017 825 
Q 1053 659 1134 557 
Q 1216 456 1348 414 
Q 1481 372 1678 372 
Q 1878 372 2039 442 
Q 2200 513 2314 645 
Q 2428 778 2490 973 
Q 2553 1169 2553 1422 
L 2553 3381 
L 3116 3381 
L 3116 722 
Q 3116 616 3117 498 
Q 3119 381 3122 276 
Q 3125 172 3128 97 
Q 3131 22 3134 0 
L 2603 0 
Q 2600 16 2597 84 
Q 2594 153 2589 242 
Q 2584 331 2581 423 
Q 2578 516 2578 578 
L 2569 578 
Q 2488 431 2391 312 
Q 2294 194 2166 111 
Q 2038 28 1872 -17 
Q 1706 -63 1488 -63 
Q 1206 -63 1003 6 
Q 800 75 669 219 
Q 538 363 477 588 
Q 416 813 416 1128 
L 416 3381 
L 981 3381 
z
" transform="scale(0.015625)"/>
       <path id="LiberationSans-73" d="M 2969 934 
Q 2969 697 2876 511 
Q 2784 325 2609 198 
Q 2434 72 2179 4 
Q 1925 -63 1597 -63 
Q 1303 -63 1067 -17 
Q 831 28 653 128 
Q 475 228 354 392 
Q 234 556 178 794 
L 675 891 
Q 747 619 972 492 
Q 1197 366 1597 366 
Q 1778 366 1929 391 
Q 2081 416 2190 477 
Q 2300 538 2361 639 
Q 2422 741 2422 891 
Q 2422 1044 2350 1142 
Q 2278 1241 2150 1306 
Q 2022 1372 1839 1420 
Q 1656 1469 1438 1528 
Q 1234 1581 1034 1647 
Q 834 1713 673 1820 
Q 513 1928 413 2087 
Q 313 2247 313 2488 
Q 313 2950 642 3192 
Q 972 3434 1603 3434 
Q 2163 3434 2492 3237 
Q 2822 3041 2909 2606 
L 2403 2544 
Q 2375 2675 2300 2764 
Q 2225 2853 2119 2908 
Q 2013 2963 1880 2986 
Q 1747 3009 1603 3009 
Q 1222 3009 1040 2893 
Q 859 2778 859 2544 
Q 859 2406 926 2317 
Q 994 2228 1114 2167 
Q 1234 2106 1403 2061 
Q 1572 2016 1775 1966 
Q 1909 1931 2050 1892 
Q 2191 1853 2323 1798 
Q 2456 1744 2573 1670 
Q 2691 1597 2778 1494 
Q 2866 1391 2917 1253 
Q 2969 1116 2969 934 
z
" transform="scale(0.015625)"/>
      </defs>
      <use xlink:href="#LiberationSans-6d"/>
      <use xlink:href="#LiberationSans-65" x="83.300781"/>
      <use xlink:href="#LiberationSans-64" x="138.916016"/>
      <use xlink:href="#LiberationSans-69" x="194.53125"/>
      <use xlink:href="#LiberationSans-63" x="216.748047"/>
      <use xlink:href="#LiberationSans-75" x="266.748047"/>
      <use xlink:href="#LiberationSans-73" x="322.363281"/>
     </g>
    </g>
   </g>
   <g id="text_2">
    <g clip-path="url(#paa0dc03450)">
     <!-- arcarius -->
     <g style="opacity: 0.8" transform="translate(289.120037 89.778415) scale(0.06 -0.06)">
      <defs>
       <path id="LiberationSans-61" d="M 1294 -63 
Q 784 -63 528 206 
Q 272 475 272 944 
Q 272 1278 398 1492 
Q 525 1706 729 1828 
Q 934 1950 1196 1997 
Q 1459 2044 1731 2050 
L 2491 2063 
L 2491 2247 
Q 2491 2456 2447 2603 
Q 2403 2750 2312 2840 
Q 2222 2931 2086 2973 
Q 1950 3016 1766 3016 
Q 1603 3016 1472 2992 
Q 1341 2969 1244 2908 
Q 1147 2847 1087 2742 
Q 1028 2638 1009 2478 
L 422 2531 
Q 453 2731 540 2898 
Q 628 3066 789 3187 
Q 950 3309 1192 3376 
Q 1434 3444 1778 3444 
Q 2416 3444 2737 3151 
Q 3059 2859 3059 2306 
L 3059 850 
Q 3059 600 3125 473 
Q 3191 347 3375 347 
Q 3422 347 3469 353 
Q 3516 359 3559 369 
L 3559 19 
Q 3453 -6 3348 -18 
Q 3244 -31 3125 -31 
Q 2966 -31 2852 11 
Q 2738 53 2666 139 
Q 2594 225 2556 351 
Q 2519 478 2509 647 
L 2491 647 
Q 2400 484 2292 353 
Q 2184 222 2040 130 
Q 1897 38 1714 -12 
Q 1531 -63 1294 -63 
z
M 1422 359 
Q 1691 359 1892 457 
Q 2094 556 2226 709 
Q 2359 863 2425 1044 
Q 2491 1225 2491 1391 
L 2491 1669 
L 1875 1656 
Q 1669 1653 1483 1626 
Q 1297 1600 1156 1522 
Q 1016 1444 933 1303 
Q 850 1163 850 934 
Q 850 659 998 509 
Q 1147 359 1422 359 
z
" transform="scale(0.015625)"/>
       <path id="LiberationSans-72" d="M 444 0 
L 444 2594 
Q 444 2700 442 2811 
Q 441 2922 437 3025 
Q 434 3128 431 3218 
Q 428 3309 425 3381 
L 956 3381 
Q 959 3309 964 3217 
Q 969 3125 973 3028 
Q 978 2931 979 2842 
Q 981 2753 981 2691 
L 994 2691 
Q 1053 2884 1120 3026 
Q 1188 3169 1278 3261 
Q 1369 3353 1494 3398 
Q 1619 3444 1797 3444 
Q 1866 3444 1928 3433 
Q 1991 3422 2025 3413 
L 2025 2897 
Q 1969 2913 1894 2920 
Q 1819 2928 1725 2928 
Q 1531 2928 1395 2840 
Q 1259 2753 1173 2598 
Q 1088 2444 1047 2230 
Q 1006 2016 1006 1763 
L 1006 0 
L 444 0 
z
" transform="scale(0.015625)"/>
      </defs>
      <use xlink:href="#LiberationSans-61"/>
      <use xlink:href="#LiberationSans-72" x="55.615234"/>
      <use xlink:href="#LiberationSans-63" x="88.916016"/>
      <use xlink:href="#LiberationSans-61" x="138.916016"/>
      <use xlink:href="#LiberationSans-72" x="194.53125"/>
      <use xlink:href="#LiberationSans-69" x="227.832031"/>
      <use xlink:href="#LiberationSans-75" x="250.048828"/>
      <use xlink:href="#LiberationSans-73" x="305.664062"/>
     </g>
    </g>
   </g>
   <g id="text_3">
    <g clip-path="url(#paa0dc03450)">
     <!-- argentarius -->
     <g style="opacity: 0.8" transform="translate(156.064616 114.397027) scale(0.06 -0.06)">
      <defs>
       <path id="LiberationSans-67" d="M 1713 -1328 
Q 1422 -1328 1197 -1268 
Q 972 -1209 812 -1098 
Q 653 -988 553 -834 
Q 453 -681 409 -494 
L 975 -413 
Q 1031 -647 1223 -773 
Q 1416 -900 1728 -900 
Q 1919 -900 2075 -847 
Q 2231 -794 2340 -676 
Q 2450 -559 2509 -371 
Q 2569 -184 2569 84 
L 2569 628 
L 2563 628 
Q 2500 500 2408 383 
Q 2316 266 2183 175 
Q 2050 84 1875 29 
Q 1700 -25 1475 -25 
Q 1153 -25 923 83 
Q 694 191 548 406 
Q 403 622 336 942 
Q 269 1263 269 1684 
Q 269 2091 336 2416 
Q 403 2741 554 2967 
Q 706 3194 948 3314 
Q 1191 3434 1538 3434 
Q 1897 3434 2161 3270 
Q 2425 3106 2569 2803 
L 2575 2803 
Q 2575 2881 2579 2978 
Q 2584 3075 2589 3161 
Q 2594 3247 2600 3309 
Q 2606 3372 2613 3381 
L 3147 3381 
Q 3144 3353 3141 3286 
Q 3138 3219 3134 3125 
Q 3131 3031 3129 2917 
Q 3128 2803 3128 2681 
L 3128 97 
Q 3128 -613 2779 -970 
Q 2431 -1328 1713 -1328 
z
M 2569 1691 
Q 2569 2044 2492 2295 
Q 2416 2547 2291 2706 
Q 2166 2866 2005 2941 
Q 1844 3016 1675 3016 
Q 1459 3016 1304 2941 
Q 1150 2866 1048 2705 
Q 947 2544 898 2292 
Q 850 2041 850 1691 
Q 850 1325 898 1076 
Q 947 828 1047 675 
Q 1147 522 1300 456 
Q 1453 391 1666 391 
Q 1834 391 1995 462 
Q 2156 534 2284 690 
Q 2413 847 2491 1094 
Q 2569 1341 2569 1691 
z
" transform="scale(0.015625)"/>
       <path id="LiberationSans-6e" d="M 2578 0 
L 2578 2144 
Q 2578 2391 2542 2556 
Q 2506 2722 2425 2823 
Q 2344 2925 2211 2967 
Q 2078 3009 1881 3009 
Q 1681 3009 1520 2939 
Q 1359 2869 1245 2736 
Q 1131 2603 1068 2408 
Q 1006 2213 1006 1959 
L 1006 0 
L 444 0 
L 444 2659 
Q 444 2766 442 2883 
Q 441 3000 437 3104 
Q 434 3209 431 3284 
Q 428 3359 425 3381 
L 956 3381 
Q 959 3366 962 3297 
Q 966 3228 970 3139 
Q 975 3050 978 2958 
Q 981 2866 981 2803 
L 991 2803 
Q 1072 2950 1169 3069 
Q 1266 3188 1394 3270 
Q 1522 3353 1687 3398 
Q 1853 3444 2072 3444 
Q 2353 3444 2556 3375 
Q 2759 3306 2890 3162 
Q 3022 3019 3083 2792 
Q 3144 2566 3144 2253 
L 3144 0 
L 2578 0 
z
" transform="scale(0.015625)"/>
       <path id="LiberationSans-74" d="M 1731 25 
Q 1603 -9 1470 -29 
Q 1338 -50 1163 -50 
Q 488 -50 488 716 
L 488 2972 
L 97 2972 
L 97 3381 
L 509 3381 
L 675 4138 
L 1050 4138 
L 1050 3381 
L 1675 3381 
L 1675 2972 
L 1050 2972 
L 1050 838 
Q 1050 594 1129 495 
Q 1209 397 1406 397 
Q 1488 397 1564 409 
Q 1641 422 1731 441 
L 1731 25 
z
" transform="scale(0.015625)"/>
      </defs>
      <use xlink:href="#LiberationSans-61"/>
      <use xlink:href="#LiberationSans-72" x="55.615234"/>
      <use xlink:href="#LiberationSans-67" x="88.916016"/>
      <use xlink:href="#LiberationSans-65" x="144.53125"/>
      <use xlink:href="#LiberationSans-6e" x="200.146484"/>
      <use xlink:href="#LiberationSans-74" x="255.761719"/>
      <use xlink:href="#LiberationSans-61" x="283.544922"/>
      <use xlink:href="#LiberationSans-72" x="339.160156"/>
      <use xlink:href="#LiberationSans-69" x="372.460938"/>
      <use xlink:href="#LiberationSans-75" x="394.677734"/>
      <use xlink:href="#LiberationSans-73" x="450.292969"/>
     </g>
    </g>
   </g>
   <g id="text_4">
    <g clip-path="url(#paa0dc03450)">
     <!-- curator -->
     <g style="opacity: 0.8" transform="translate(181.599155 105.304653) scale(0.06 -0.06)">
      <defs>
       <path id="LiberationSans-6f" d="M 3291 1694 
Q 3291 806 2900 371 
Q 2509 -63 1766 -63 
Q 1413 -63 1134 43 
Q 856 150 664 369 
Q 472 588 370 917 
Q 269 1247 269 1694 
Q 269 3444 1784 3444 
Q 2178 3444 2464 3334 
Q 2750 3225 2933 3006 
Q 3116 2788 3203 2459 
Q 3291 2131 3291 1694 
z
M 2700 1694 
Q 2700 2088 2639 2344 
Q 2578 2600 2461 2753 
Q 2344 2906 2175 2967 
Q 2006 3028 1794 3028 
Q 1578 3028 1404 2964 
Q 1231 2900 1109 2745 
Q 988 2591 923 2334 
Q 859 2078 859 1694 
Q 859 1300 928 1042 
Q 997 784 1117 631 
Q 1238 478 1402 415 
Q 1566 353 1759 353 
Q 1975 353 2150 414 
Q 2325 475 2447 628 
Q 2569 781 2634 1040 
Q 2700 1300 2700 1694 
z
" transform="scale(0.015625)"/>
      </defs>
      <use xlink:href="#LiberationSans-63"/>
      <use xlink:href="#LiberationSans-75" x="50"/>
      <use xlink:href="#LiberationSans-72" x="105.615234"/>
      <use xlink:href="#LiberationSans-61" x="138.916016"/>
      <use xlink:href="#LiberationSans-74" x="194.53125"/>
      <use xlink:href="#LiberationSans-6f" x="222.314453"/>
      <use xlink:href="#LiberationSans-72" x="277.929688"/>
     </g>
    </g>
   </g>
   <g id="text_5">
    <g clip-path="url(#paa0dc03450)">
     <!-- aerarius -->
     <g style="opacity: 0.8" transform="translate(58.373244 77.500279) scale(0.06 -0.06)">
      <use xlink:href="#LiberationSans-61"/>
      <use xlink:href="#LiberationSans-65" x="55.615234"/>
      <use xlink:href="#LiberationSans-72" x="111.230469"/>
      <use xlink:href="#LiberationSans-61" x="144.53125"/>
      <use xlink:href="#LiberationSans-72" x="200.146484"/>
      <use xlink:href="#LiberationSans-69" x="233.447266"/>
      <use xlink:href="#LiberationSans-75" x="255.664062"/>
      <use xlink:href="#LiberationSans-73" x="311.279297"/>
     </g>
    </g>
   </g>
   <g id="text_6">
    <g clip-path="url(#paa0dc03450)">
     <!-- gladiator -->
     <g style="opacity: 0.8" transform="translate(139.071162 143.874581) scale(0.06 -0.06)">
      <defs>
       <path id="LiberationSans-6c" d="M 431 0 
L 431 4638 
L 994 4638 
L 994 0 
L 431 0 
z
" transform="scale(0.015625)"/>
      </defs>
      <use xlink:href="#LiberationSans-67"/>
      <use xlink:href="#LiberationSans-6c" x="55.615234"/>
      <use xlink:href="#LiberationSans-61" x="77.832031"/>
      <use xlink:href="#LiberationSans-64" x="133.447266"/>
      <use xlink:href="#LiberationSans-69" x="189.0625"/>
      <use xlink:href="#LiberationSans-61" x="211.279297"/>
      <use xlink:href="#LiberationSans-74" x="266.894531"/>
      <use xlink:href="#LiberationSans-6f" x="294.677734"/>
      <use xlink:href="#LiberationSans-72" x="350.292969"/>
     </g>
    </g>
   </g>
   <g id="text_7">
    <g clip-path="url(#paa0dc03450)">
     <!-- centonarius -->
     <g style="opacity: 0.8" transform="translate(74.942648 134.732415) scale(0.06 -0.06)">
      <use xlink:href="#LiberationSans-63"/>
      <use xlink:href="#LiberationSans-65" x="50"/>
      <use xlink:href="#LiberationSans-6e" x="105.615234"/>
      <use xlink:href="#LiberationSans-74" x="161.230469"/>
      <use xlink:href="#LiberationSans-6f" x="189.013672"/>
      <use xlink:href="#LiberationSans-6e" x="244.628906"/>
      <use xlink:href="#LiberationSans-61" x="300.244141"/>
      <use xlink:href="#LiberationSans-72" x="355.859375"/>
      <use xlink:href="#LiberationSans-69" x="389.160156"/>
      <use xlink:href="#LiberationSans-75" x="411.376953"/>
      <use xlink:href="#LiberationSans-73" x="466.992188"/>
     </g>
    </g>
   </g>
   <g id="text_8">
    <g clip-path="url(#paa0dc03450)">
     <!-- scaenicus -->
     <g style="opacity: 0.8" transform="translate(126.814379 69.355424) scale(0.06 -0.06)">
      <use xlink:href="#LiberationSans-73"/>
      <use xlink:href="#LiberationSans-63" x="50"/>
      <use xlink:href="#LiberationSans-61" x="100"/>
      <use xlink:href="#LiberationSans-65" x="155.615234"/>
      <use xlink:href="#LiberationSans-6e" x="211.230469"/>
      <use xlink:href="#LiberationSans-69" x="266.845703"/>
      <use xlink:href="#LiberationSans-63" x="289.0625"/>
      <use xlink:href="#LiberationSans-75" x="339.0625"/>
      <use xlink:href="#LiberationSans-73" x="394.677734"/>
     </g>
    </g>
   </g>
   <g id="text_9">
    <g clip-path="url(#paa0dc03450)">
     <!-- architectus -->
     <g style="opacity: 0.8" transform="translate(110.344631 166.985028) scale(0.06 -0.06)">
      <defs>
       <path id="LiberationSans-68" d="M 991 2803 
Q 1084 2975 1193 3095 
Q 1303 3216 1434 3294 
Q 1566 3372 1722 3408 
Q 1878 3444 2072 3444 
Q 2397 3444 2605 3356 
Q 2813 3269 2933 3111 
Q 3053 2953 3098 2734 
Q 3144 2516 3144 2253 
L 3144 0 
L 2578 0 
L 2578 2144 
Q 2578 2359 2551 2521 
Q 2525 2684 2450 2792 
Q 2375 2900 2237 2954 
Q 2100 3009 1881 3009 
Q 1681 3009 1520 2937 
Q 1359 2866 1245 2734 
Q 1131 2603 1068 2415 
Q 1006 2228 1006 1994 
L 1006 0 
L 444 0 
L 444 4638 
L 1006 4638 
L 1006 3431 
Q 1006 3328 1003 3225 
Q 1000 3122 995 3034 
Q 991 2947 987 2886 
Q 984 2825 981 2803 
L 991 2803 
z
" transform="scale(0.015625)"/>
      </defs>
      <use xlink:href="#LiberationSans-61"/>
      <use xlink:href="#LiberationSans-72" x="55.615234"/>
      <use xlink:href="#LiberationSans-63" x="88.916016"/>
      <use xlink:href="#LiberationSans-68" x="138.916016"/>
      <use xlink:href="#LiberationSans-69" x="194.53125"/>
      <use xlink:href="#LiberationSans-74" x="216.748047"/>
      <use xlink:href="#LiberationSans-65" x="244.53125"/>
      <use xlink:href="#LiberationSans-63" x="300.146484"/>
      <use xlink:href="#LiberationSans-74" x="350.146484"/>
      <use xlink:href="#LiberationSans-75" x="377.929688"/>
      <use xlink:href="#LiberationSans-73" x="433.544922"/>
     </g>
    </g>
   </g>
   <g id="text_10">
    <g clip-path="url(#paa0dc03450)">
     <!-- faber -->
     <g style="opacity: 0.8" transform="translate(122.141099 148.284678) scale(0.06 -0.06)">
      <defs>
       <path id="LiberationSans-66" d="M 1128 2972 
L 1128 0 
L 566 0 
L 566 2972 
L 91 2972 
L 91 3381 
L 566 3381 
L 566 3763 
Q 566 3947 600 4105 
Q 634 4263 726 4380 
Q 819 4497 978 4564 
Q 1138 4631 1391 4631 
Q 1491 4631 1598 4622 
Q 1706 4613 1788 4594 
L 1788 4166 
Q 1734 4175 1664 4183 
Q 1594 4191 1538 4191 
Q 1413 4191 1333 4156 
Q 1253 4122 1208 4058 
Q 1163 3994 1145 3900 
Q 1128 3806 1128 3684 
L 1128 3381 
L 1788 3381 
L 1788 2972 
L 1128 2972 
z
" transform="scale(0.015625)"/>
       <path id="LiberationSans-62" d="M 3291 1706 
Q 3291 -63 2047 -63 
Q 1663 -63 1408 76 
Q 1153 216 994 525 
L 988 525 
Q 988 444 983 356 
Q 978 269 973 194 
Q 969 119 964 66 
Q 959 13 956 0 
L 413 0 
Q 416 28 419 95 
Q 422 163 425 256 
Q 428 350 429 462 
Q 431 575 431 697 
L 431 4638 
L 994 4638 
L 994 3316 
Q 994 3222 992 3136 
Q 991 3050 988 2984 
Q 984 2906 981 2838 
L 994 2838 
Q 1150 3163 1408 3303 
Q 1666 3444 2047 3444 
Q 2688 3444 2989 3012 
Q 3291 2581 3291 1706 
z
M 2700 1688 
Q 2700 2038 2656 2288 
Q 2613 2538 2516 2698 
Q 2419 2859 2269 2934 
Q 2119 3009 1903 3009 
Q 1681 3009 1511 2937 
Q 1341 2866 1227 2706 
Q 1113 2547 1053 2287 
Q 994 2028 994 1653 
Q 994 1291 1053 1044 
Q 1113 797 1227 642 
Q 1341 488 1509 420 
Q 1678 353 1897 353 
Q 2103 353 2253 425 
Q 2403 497 2503 656 
Q 2603 816 2651 1070 
Q 2700 1325 2700 1688 
z
" transform="scale(0.015625)"/>
      </defs>
      <use xlink:href="#LiberationSans-66"/>
      <use xlink:href="#LiberationSans-61" x="27.783203"/>
      <use xlink:href="#LiberationSans-62" x="83.398438"/>
      <use xlink:href="#LiberationSans-65" x="139.013672"/>
      <use xlink:href="#LiberationSans-72" x="194.628906"/>
     </g>
    </g>
   </g>
   <g id="text_11">
    <g clip-path="url(#paa0dc03450)">
     <!-- scriba -->
     <g style="opacity: 0.8" transform="translate(106.931635 97.391729) scale(0.06 -0.06)">
      <use xlink:href="#LiberationSans-73"/>
      <use xlink:href="#LiberationSans-63" x="50"/>
      <use xlink:href="#LiberationSans-72" x="100"/>
      <use xlink:href="#LiberationSans-69" x="133.300781"/>
      <use xlink:href="#LiberationSans-62" x="155.517578"/>
      <use xlink:href="#LiberationSans-61" x="211.132812"/>
     </g>
    </g>
   </g>
   <g id="text_12">
    <g clip-path="url(#paa0dc03450)">
     <!-- dendrophorus -->
     <g style="opacity: 0.8" transform="translate(242.870259 297.897017) scale(0.06 -0.06)">
      <defs>
       <path id="LiberationSans-70" d="M 3291 1706 
Q 3291 1322 3228 997 
Q 3166 672 3020 437 
Q 2875 203 2636 70 
Q 2397 -63 2047 -63 
Q 1684 -63 1412 75 
Q 1141 213 997 525 
L 981 525 
Q 984 519 986 469 
Q 988 419 989 344 
Q 991 269 992 176 
Q 994 84 994 -6 
L 994 -1328 
L 431 -1328 
L 431 2691 
Q 431 2813 429 2925 
Q 428 3038 425 3130 
Q 422 3222 419 3287 
Q 416 3353 413 3381 
L 956 3381 
Q 959 3372 964 3315 
Q 969 3259 973 3179 
Q 978 3100 983 3009 
Q 988 2919 988 2838 
L 1000 2838 
Q 1078 3000 1178 3114 
Q 1278 3228 1406 3301 
Q 1534 3375 1692 3408 
Q 1850 3441 2047 3441 
Q 2397 3441 2636 3316 
Q 2875 3191 3020 2964 
Q 3166 2738 3228 2417 
Q 3291 2097 3291 1706 
z
M 2700 1694 
Q 2700 2006 2662 2250 
Q 2625 2494 2533 2662 
Q 2441 2831 2287 2918 
Q 2134 3006 1903 3006 
Q 1716 3006 1550 2953 
Q 1384 2900 1261 2750 
Q 1138 2600 1066 2336 
Q 994 2072 994 1650 
Q 994 1291 1053 1042 
Q 1113 794 1227 641 
Q 1341 488 1509 420 
Q 1678 353 1897 353 
Q 2131 353 2286 443 
Q 2441 534 2533 706 
Q 2625 878 2662 1126 
Q 2700 1375 2700 1694 
z
" transform="scale(0.015625)"/>
      </defs>
      <use xlink:href="#LiberationSans-64"/>
      <use xlink:href="#LiberationSans-65" x="55.615234"/>
      <use xlink:href="#LiberationSans-6e" x="111.230469"/>
      <use xlink:href="#LiberationSans-64" x="166.845703"/>
      <use xlink:href="#LiberationSans-72" x="222.460938"/>
      <use xlink:href="#LiberationSans-6f" x="255.761719"/>
      <use xlink:href="#LiberationSans-70" x="311.376953"/>
      <use xlink:href="#LiberationSans-68" x="366.992188"/>
      <use xlink:href="#LiberationSans-6f" x="422.607422"/>
      <use xlink:href="#LiberationSans-72" x="478.222656"/>
      <use xlink:href="#LiberationSans-75" x="511.523438"/>
      <use xlink:href="#LiberationSans-73" x="567.138672"/>
     </g>
    </g>
   </g>
   <g id="text_13">
    <g clip-path="url(#paa0dc03450)">
     <!-- sagittarius -->
     <g style="opacity: 0.8" transform="translate(157.636377 139.669937) scale(0.06 -0.06)">
      <use xlink:href="#LiberationSans-73"/>
      <use xlink:href="#LiberationSans-61" x="50"/>
      <use xlink:href="#LiberationSans-67" x="105.615234"/>
      <use xlink:href="#LiberationSans-69" x="161.230469"/>
      <use xlink:href="#LiberationSans-74" x="183.447266"/>
      <use xlink:href="#LiberationSans-74" x="211.230469"/>
      <use xlink:href="#LiberationSans-61" x="239.013672"/>
      <use xlink:href="#LiberationSans-72" x="294.628906"/>
      <use xlink:href="#LiberationSans-69" x="327.929688"/>
      <use xlink:href="#LiberationSans-75" x="350.146484"/>
      <use xlink:href="#LiberationSans-73" x="405.761719"/>
     </g>
    </g>
   </g>
   <g id="text_14">
    <g clip-path="url(#paa0dc03450)">
     <!-- possessor -->
     <g style="opacity: 0.8" transform="translate(180.586757 68.806108) scale(0.06 -0.06)">
      <use xlink:href="#LiberationSans-70"/>
      <use xlink:href="#LiberationSans-6f" x="55.615234"/>
      <use xlink:href="#LiberationSans-73" x="111.230469"/>
      <use xlink:href="#LiberationSans-73" x="161.230469"/>
      <use xlink:href="#LiberationSans-65" x="211.230469"/>
      <use xlink:href="#LiberationSans-73" x="266.845703"/>
      <use xlink:href="#LiberationSans-73" x="316.845703"/>
      <use xlink:href="#LiberationSans-6f" x="366.845703"/>
      <use xlink:href="#LiberationSans-72" x="422.460938"/>
     </g>
    </g>
   </g>
  </g>
 </g>
 <defs>
  <clipPath id="paa0dc03450">
   <rect x="45" y="43.2" width="279" height="277.2"/>
  </clipPath>
 </defs>
</svg>
