<?xml version="1.0" encoding="utf-8" standalone="no"?>
<!DOCTYPE svg PUBLIC "-//W3C//DTD SVG 1.1//EN"
  "http://www.w3.org/Graphics/SVG/1.1/DTD/svg11.dtd">
<svg height="288pt" version="1.1" viewBox="0 0 374.4 288" width="374.4pt" xmlns="http://www.w3.org/2000/svg" xmlns:xlink="http://www.w3.org/1999/xlink">
 <metadata>
  <rdf:RDF xmlns:cc="http://creativecommons.org/ns#" xmlns:dc="http://purl.org/dc/elements/1.1/" xmlns:rdf="http://www.w3.org/1999/02/22-rdf-syntax-ns#">
   <cc:Work>
    <dc:type rdf:resource="http://purl.org/dc/dcmitype/StillImage"/>
    <dc:date>2023-11-14T16:49:20.840927</dc:date>
    <dc:format>image/svg+xml</dc:format>
    <dc:creator>
     <cc:Agent>
      <dc:title>Matplotlib v3.4.3, https://matplotlib.org/</dc:title>
     </cc:Agent>
    </dc:creator>
   </cc:Work>
  </rdf:RDF>
 </metadata>
 <defs>
  <style type="text/css">*{stroke-linecap:butt;stroke-linejoin:round;}</style>
 </defs>
 <g id="figure_1">
  <g id="patch_1">
   <path d="M 0 288 
L 374.4 288 
L 374.4 0 
L 0 0 
z
" style="fill:#ffffff;"/>
  </g>
  <g id="axes_1">
   <g id="patch_2">
    <path d="M 39.672 233.18625 
L 365.76 233.18625 
L 365.76 106.7 
L 39.672 106.7 
z
" style="fill:#ffffff;"/>
   </g>
   <g id="matplotlib.axis_1">
    <g id="xtick_1">
     <g id="line2d_1"/>
     <g id="text_1">
      <!-- large city -->
      <g style="fill:#262626;" transform="translate(87.767525 268.69625)rotate(-90)scale(0.08 -0.08)">
       <defs>
        <path d="M 431 0 
L 431 4638 
L 994 4638 
L 994 0 
L 431 0 
z
" id="LiberationSans-6c" transform="scale(0.015625)"/>
        <path d="M 1294 -63 
Q 784 -63 528 206 
Q 272 475 272 944 
Q 272 1469 617 1750 
Q 963 2031 1731 2050 
L 2491 2063 
L 2491 2247 
Q 2491 2659 2316 2837 
Q 2141 3016 1766 3016 
Q 1388 3016 1216 2887 
Q 1044 2759 1009 2478 
L 422 2531 
Q 566 3444 1778 3444 
Q 2416 3444 2737 3151 
Q 3059 2859 3059 2306 
L 3059 850 
Q 3059 600 3125 473 
Q 3191 347 3375 347 
Q 3456 347 3559 369 
L 3559 19 
Q 3347 -31 3125 -31 
Q 2813 -31 2670 133 
Q 2528 297 2509 647 
L 2491 647 
Q 2275 259 1989 98 
Q 1703 -63 1294 -63 
z
M 1422 359 
Q 1731 359 1972 500 
Q 2213 641 2352 886 
Q 2491 1131 2491 1391 
L 2491 1669 
L 1875 1656 
Q 1478 1650 1273 1575 
Q 1069 1500 959 1344 
Q 850 1188 850 934 
Q 850 659 998 509 
Q 1147 359 1422 359 
z
" id="LiberationSans-61" transform="scale(0.015625)"/>
        <path d="M 444 0 
L 444 2594 
Q 444 2950 425 3381 
L 956 3381 
Q 981 2806 981 2691 
L 994 2691 
Q 1128 3125 1303 3284 
Q 1478 3444 1797 3444 
Q 1909 3444 2025 3413 
L 2025 2897 
Q 1913 2928 1725 2928 
Q 1375 2928 1190 2626 
Q 1006 2325 1006 1763 
L 1006 0 
L 444 0 
z
" id="LiberationSans-72" transform="scale(0.015625)"/>
        <path d="M 1713 -1328 
Q 1159 -1328 831 -1111 
Q 503 -894 409 -494 
L 975 -413 
Q 1031 -647 1223 -773 
Q 1416 -900 1728 -900 
Q 2569 -900 2569 84 
L 2569 628 
L 2563 628 
Q 2403 303 2125 139 
Q 1847 -25 1475 -25 
Q 853 -25 561 387 
Q 269 800 269 1684 
Q 269 2581 583 3007 
Q 897 3434 1538 3434 
Q 1897 3434 2161 3270 
Q 2425 3106 2569 2803 
L 2575 2803 
Q 2575 2897 2587 3128 
Q 2600 3359 2613 3381 
L 3147 3381 
Q 3128 3213 3128 2681 
L 3128 97 
Q 3128 -1328 1713 -1328 
z
M 2569 1691 
Q 2569 2103 2456 2401 
Q 2344 2700 2139 2858 
Q 1934 3016 1675 3016 
Q 1244 3016 1047 2703 
Q 850 2391 850 1691 
Q 850 997 1034 694 
Q 1219 391 1666 391 
Q 1931 391 2137 547 
Q 2344 703 2456 995 
Q 2569 1288 2569 1691 
z
" id="LiberationSans-67" transform="scale(0.015625)"/>
        <path d="M 863 1572 
Q 863 991 1103 675 
Q 1344 359 1806 359 
Q 2172 359 2392 506 
Q 2613 653 2691 878 
L 3184 738 
Q 2881 -63 1806 -63 
Q 1056 -63 664 384 
Q 272 831 272 1713 
Q 272 2550 664 2997 
Q 1056 3444 1784 3444 
Q 3275 3444 3275 1647 
L 3275 1572 
L 863 1572 
z
M 2694 2003 
Q 2647 2538 2422 2783 
Q 2197 3028 1775 3028 
Q 1366 3028 1127 2754 
Q 888 2481 869 2003 
L 2694 2003 
z
" id="LiberationSans-65" transform="scale(0.015625)"/>
        <path id="LiberationSans-20" transform="scale(0.015625)"/>
        <path d="M 859 1706 
Q 859 1031 1071 706 
Q 1284 381 1713 381 
Q 2013 381 2214 543 
Q 2416 706 2463 1044 
L 3031 1006 
Q 2966 519 2616 228 
Q 2266 -63 1728 -63 
Q 1019 -63 645 385 
Q 272 834 272 1694 
Q 272 2547 647 2995 
Q 1022 3444 1722 3444 
Q 2241 3444 2583 3175 
Q 2925 2906 3013 2434 
L 2434 2391 
Q 2391 2672 2212 2837 
Q 2034 3003 1706 3003 
Q 1259 3003 1059 2706 
Q 859 2409 859 1706 
z
" id="LiberationSans-63" transform="scale(0.015625)"/>
        <path d="M 428 4100 
L 428 4638 
L 991 4638 
L 991 4100 
L 428 4100 
z
M 428 0 
L 428 3381 
L 991 3381 
L 991 0 
L 428 0 
z
" id="LiberationSans-69" transform="scale(0.015625)"/>
        <path d="M 1731 25 
Q 1453 -50 1163 -50 
Q 488 -50 488 716 
L 488 2972 
L 97 2972 
L 97 3381 
L 509 3381 
L 675 4138 
L 1050 4138 
L 1050 3381 
L 1675 3381 
L 1675 2972 
L 1050 2972 
L 1050 838 
Q 1050 594 1129 495 
Q 1209 397 1406 397 
Q 1519 397 1731 441 
L 1731 25 
z
" id="LiberationSans-74" transform="scale(0.015625)"/>
        <path d="M 597 -1328 
Q 366 -1328 209 -1294 
L 209 -872 
Q 328 -891 472 -891 
Q 997 -891 1303 -119 
L 1356 16 
L 16 3381 
L 616 3381 
L 1328 1513 
Q 1344 1469 1366 1408 
Q 1388 1347 1506 1000 
Q 1625 653 1634 613 
L 1853 1228 
L 2594 3381 
L 3188 3381 
L 1888 0 
Q 1678 -541 1497 -805 
Q 1316 -1069 1095 -1198 
Q 875 -1328 597 -1328 
z
" id="LiberationSans-79" transform="scale(0.015625)"/>
       </defs>
       <use xlink:href="#LiberationSans-6c"/>
       <use x="22.216797" xlink:href="#LiberationSans-61"/>
       <use x="77.832031" xlink:href="#LiberationSans-72"/>
       <use x="111.132812" xlink:href="#LiberationSans-67"/>
       <use x="166.748047" xlink:href="#LiberationSans-65"/>
       <use x="222.363281" xlink:href="#LiberationSans-20"/>
       <use x="250.146484" xlink:href="#LiberationSans-63"/>
       <use x="300.146484" xlink:href="#LiberationSans-69"/>
       <use x="322.363281" xlink:href="#LiberationSans-74"/>
       <use x="350.146484" xlink:href="#LiberationSans-79"/>
      </g>
     </g>
    </g>
    <g id="xtick_2">
     <g id="line2d_2"/>
     <g id="text_2">
      <!-- medium city -->
      <g style="fill:#262626;" transform="translate(165.779008 279.36)rotate(-90)scale(0.08 -0.08)">
       <defs>
        <path d="M 2400 0 
L 2400 2144 
Q 2400 2634 2265 2821 
Q 2131 3009 1781 3009 
Q 1422 3009 1212 2734 
Q 1003 2459 1003 1959 
L 1003 0 
L 444 0 
L 444 2659 
Q 444 3250 425 3381 
L 956 3381 
Q 959 3366 962 3297 
Q 966 3228 970 3139 
Q 975 3050 981 2803 
L 991 2803 
Q 1172 3163 1406 3303 
Q 1641 3444 1978 3444 
Q 2363 3444 2586 3291 
Q 2809 3138 2897 2803 
L 2906 2803 
Q 3081 3144 3329 3294 
Q 3578 3444 3931 3444 
Q 4444 3444 4676 3166 
Q 4909 2888 4909 2253 
L 4909 0 
L 4353 0 
L 4353 2144 
Q 4353 2634 4218 2821 
Q 4084 3009 3734 3009 
Q 3366 3009 3161 2736 
Q 2956 2463 2956 1959 
L 2956 0 
L 2400 0 
z
" id="LiberationSans-6d" transform="scale(0.015625)"/>
        <path d="M 2566 544 
Q 2409 219 2151 78 
Q 1894 -63 1513 -63 
Q 872 -63 570 368 
Q 269 800 269 1675 
Q 269 3444 1513 3444 
Q 1897 3444 2153 3303 
Q 2409 3163 2566 2856 
L 2572 2856 
L 2566 3234 
L 2566 4638 
L 3128 4638 
L 3128 697 
Q 3128 169 3147 0 
L 2609 0 
Q 2600 50 2589 231 
Q 2578 413 2578 544 
L 2566 544 
z
M 859 1694 
Q 859 984 1046 678 
Q 1234 372 1656 372 
Q 2134 372 2350 703 
Q 2566 1034 2566 1731 
Q 2566 2403 2350 2715 
Q 2134 3028 1663 3028 
Q 1238 3028 1048 2714 
Q 859 2400 859 1694 
z
" id="LiberationSans-64" transform="scale(0.015625)"/>
        <path d="M 981 3381 
L 981 1238 
Q 981 903 1047 718 
Q 1113 534 1256 453 
Q 1400 372 1678 372 
Q 2084 372 2318 650 
Q 2553 928 2553 1422 
L 2553 3381 
L 3116 3381 
L 3116 722 
Q 3116 131 3134 0 
L 2603 0 
Q 2600 16 2597 84 
Q 2594 153 2589 242 
Q 2584 331 2578 578 
L 2569 578 
Q 2375 228 2120 82 
Q 1866 -63 1488 -63 
Q 931 -63 673 214 
Q 416 491 416 1128 
L 416 3381 
L 981 3381 
z
" id="LiberationSans-75" transform="scale(0.015625)"/>
       </defs>
       <use xlink:href="#LiberationSans-6d"/>
       <use x="83.300781" xlink:href="#LiberationSans-65"/>
       <use x="138.916016" xlink:href="#LiberationSans-64"/>
       <use x="194.53125" xlink:href="#LiberationSans-69"/>
       <use x="216.748047" xlink:href="#LiberationSans-75"/>
       <use x="272.363281" xlink:href="#LiberationSans-6d"/>
       <use x="355.664062" xlink:href="#LiberationSans-20"/>
       <use x="383.447266" xlink:href="#LiberationSans-63"/>
       <use x="433.447266" xlink:href="#LiberationSans-69"/>
       <use x="455.664062" xlink:href="#LiberationSans-74"/>
       <use x="483.447266" xlink:href="#LiberationSans-79"/>
      </g>
     </g>
    </g>
    <g id="xtick_3">
     <g id="line2d_3"/>
     <g id="text_3">
      <!-- small city -->
      <g style="fill:#262626;" transform="translate(243.790492 269.57625)rotate(-90)scale(0.08 -0.08)">
       <defs>
        <path d="M 2969 934 
Q 2969 456 2608 196 
Q 2247 -63 1597 -63 
Q 966 -63 623 145 
Q 281 353 178 794 
L 675 891 
Q 747 619 972 492 
Q 1197 366 1597 366 
Q 2025 366 2223 497 
Q 2422 628 2422 891 
Q 2422 1091 2284 1216 
Q 2147 1341 1841 1422 
L 1438 1528 
Q 953 1653 748 1773 
Q 544 1894 428 2066 
Q 313 2238 313 2488 
Q 313 2950 642 3192 
Q 972 3434 1603 3434 
Q 2163 3434 2492 3237 
Q 2822 3041 2909 2606 
L 2403 2544 
Q 2356 2769 2151 2889 
Q 1947 3009 1603 3009 
Q 1222 3009 1040 2893 
Q 859 2778 859 2544 
Q 859 2400 934 2306 
Q 1009 2213 1156 2147 
Q 1303 2081 1775 1966 
Q 2222 1853 2419 1758 
Q 2616 1663 2730 1547 
Q 2844 1431 2906 1279 
Q 2969 1128 2969 934 
z
" id="LiberationSans-73" transform="scale(0.015625)"/>
       </defs>
       <use xlink:href="#LiberationSans-73"/>
       <use x="50" xlink:href="#LiberationSans-6d"/>
       <use x="133.300781" xlink:href="#LiberationSans-61"/>
       <use x="188.916016" xlink:href="#LiberationSans-6c"/>
       <use x="211.132812" xlink:href="#LiberationSans-6c"/>
       <use x="233.349609" xlink:href="#LiberationSans-20"/>
       <use x="261.132812" xlink:href="#LiberationSans-63"/>
       <use x="311.132812" xlink:href="#LiberationSans-69"/>
       <use x="333.349609" xlink:href="#LiberationSans-74"/>
       <use x="361.132812" xlink:href="#LiberationSans-79"/>
      </g>
     </g>
    </g>
    <g id="xtick_4">
     <g id="line2d_4"/>
     <g id="text_4">
      <!-- rural area -->
      <g style="fill:#262626;" transform="translate(321.801975 270.92125)rotate(-90)scale(0.08 -0.08)">
       <use xlink:href="#LiberationSans-72"/>
       <use x="33.300781" xlink:href="#LiberationSans-75"/>
       <use x="88.916016" xlink:href="#LiberationSans-72"/>
       <use x="122.216797" xlink:href="#LiberationSans-61"/>
       <use x="177.832031" xlink:href="#LiberationSans-6c"/>
       <use x="200.048828" xlink:href="#LiberationSans-20"/>
       <use x="227.832031" xlink:href="#LiberationSans-61"/>
       <use x="283.447266" xlink:href="#LiberationSans-72"/>
       <use x="316.748047" xlink:href="#LiberationSans-65"/>
       <use x="372.363281" xlink:href="#LiberationSans-61"/>
      </g>
     </g>
    </g>
   </g>
   <g id="matplotlib.axis_2">
    <g id="ytick_1">
     <g id="line2d_5"/>
     <g id="text_5">
      <!-- 0 -->
      <g style="fill:#262626;" transform="translate(34.512 234.73625)rotate(-90)scale(0.08 -0.08)">
       <defs>
        <path d="M 3309 2203 
Q 3309 1100 2920 518 
Q 2531 -63 1772 -63 
Q 1013 -63 631 515 
Q 250 1094 250 2203 
Q 250 3338 620 3903 
Q 991 4469 1791 4469 
Q 2569 4469 2939 3897 
Q 3309 3325 3309 2203 
z
M 2738 2203 
Q 2738 3156 2517 3584 
Q 2297 4013 1791 4013 
Q 1272 4013 1045 3591 
Q 819 3169 819 2203 
Q 819 1266 1048 831 
Q 1278 397 1778 397 
Q 2275 397 2506 840 
Q 2738 1284 2738 2203 
z
" id="LiberationSans-30" transform="scale(0.015625)"/>
       </defs>
       <use xlink:href="#LiberationSans-30"/>
      </g>
     </g>
    </g>
    <g id="ytick_2">
     <g id="line2d_6"/>
     <g id="text_6">
      <!-- 5 -->
      <g style="fill:#262626;" transform="translate(34.512 210.898884)rotate(-90)scale(0.08 -0.08)">
       <defs>
        <path d="M 3291 1434 
Q 3291 738 2877 337 
Q 2463 -63 1728 -63 
Q 1113 -63 734 206 
Q 356 475 256 984 
L 825 1050 
Q 1003 397 1741 397 
Q 2194 397 2450 670 
Q 2706 944 2706 1422 
Q 2706 1838 2448 2094 
Q 2191 2350 1753 2350 
Q 1525 2350 1328 2278 
Q 1131 2206 934 2034 
L 384 2034 
L 531 4403 
L 3034 4403 
L 3034 3925 
L 1044 3925 
L 959 2528 
Q 1325 2809 1869 2809 
Q 2519 2809 2905 2428 
Q 3291 2047 3291 1434 
z
" id="LiberationSans-35" transform="scale(0.015625)"/>
       </defs>
       <use xlink:href="#LiberationSans-35"/>
      </g>
     </g>
    </g>
    <g id="ytick_3">
     <g id="line2d_7"/>
     <g id="text_7">
      <!-- 10 -->
      <g style="fill:#262626;" transform="translate(34.512 191.510268)rotate(-90)scale(0.08 -0.08)">
       <defs>
        <path d="M 488 0 
L 488 478 
L 1609 478 
L 1609 3866 
L 616 3156 
L 616 3688 
L 1656 4403 
L 2175 4403 
L 2175 478 
L 3247 478 
L 3247 0 
L 488 0 
z
" id="LiberationSans-31" transform="scale(0.015625)"/>
       </defs>
       <use xlink:href="#LiberationSans-31"/>
       <use x="55.615234" xlink:href="#LiberationSans-30"/>
      </g>
     </g>
    </g>
    <g id="ytick_4">
     <g id="line2d_8"/>
     <g id="text_8">
      <!-- 15 -->
      <g style="fill:#262626;" transform="translate(34.512 167.672902)rotate(-90)scale(0.08 -0.08)">
       <use xlink:href="#LiberationSans-31"/>
       <use x="55.615234" xlink:href="#LiberationSans-35"/>
      </g>
     </g>
    </g>
    <g id="ytick_5">
     <g id="line2d_9"/>
     <g id="text_9">
      <!-- 20 -->
      <g style="fill:#262626;" transform="translate(34.512 143.835536)rotate(-90)scale(0.08 -0.08)">
       <defs>
        <path d="M 322 0 
L 322 397 
Q 481 763 711 1042 
Q 941 1322 1194 1548 
Q 1447 1775 1695 1969 
Q 1944 2163 2144 2356 
Q 2344 2550 2467 2762 
Q 2591 2975 2591 3244 
Q 2591 3606 2378 3806 
Q 2166 4006 1788 4006 
Q 1428 4006 1195 3811 
Q 963 3616 922 3263 
L 347 3316 
Q 409 3844 795 4156 
Q 1181 4469 1788 4469 
Q 2453 4469 2811 4155 
Q 3169 3841 3169 3263 
Q 3169 3006 3051 2753 
Q 2934 2500 2703 2247 
Q 2472 1994 1819 1463 
Q 1459 1169 1246 933 
Q 1034 697 941 478 
L 3238 478 
L 3238 0 
L 322 0 
z
" id="LiberationSans-32" transform="scale(0.015625)"/>
       </defs>
       <use xlink:href="#LiberationSans-32"/>
       <use x="55.615234" xlink:href="#LiberationSans-30"/>
      </g>
     </g>
    </g>
    <g id="ytick_6">
     <g id="line2d_10"/>
     <g id="text_10">
      <!-- 25 -->
      <g style="fill:#262626;" transform="translate(34.512 119.99817)rotate(-90)scale(0.08 -0.08)">
       <use xlink:href="#LiberationSans-32"/>
       <use x="55.615234" xlink:href="#LiberationSans-35"/>
      </g>
     </g>
    </g>
    <g id="text_11">
     <!-- Occupational industry types -->
     <g style="fill:#262626;" transform="translate(14.4375 219.076875)rotate(-90)scale(0.08 -0.08)">
      <defs>
       <path d="M 4672 2222 
Q 4672 1531 4408 1012 
Q 4144 494 3650 215 
Q 3156 -63 2484 -63 
Q 1806 -63 1314 212 
Q 822 488 562 1008 
Q 303 1528 303 2222 
Q 303 3278 881 3873 
Q 1459 4469 2491 4469 
Q 3163 4469 3656 4201 
Q 4150 3934 4411 3425 
Q 4672 2916 4672 2222 
z
M 4063 2222 
Q 4063 3044 3652 3512 
Q 3241 3981 2491 3981 
Q 1734 3981 1321 3518 
Q 909 3056 909 2222 
Q 909 1394 1326 908 
Q 1744 422 2484 422 
Q 3247 422 3655 892 
Q 4063 1363 4063 2222 
z
" id="LiberationSans-4f" transform="scale(0.015625)"/>
       <path d="M 3291 1706 
Q 3291 -63 2047 -63 
Q 1266 -63 997 525 
L 981 525 
Q 994 500 994 -6 
L 994 -1328 
L 431 -1328 
L 431 2691 
Q 431 3213 413 3381 
L 956 3381 
Q 959 3369 965 3292 
Q 972 3216 980 3056 
Q 988 2897 988 2838 
L 1000 2838 
Q 1150 3150 1397 3295 
Q 1644 3441 2047 3441 
Q 2672 3441 2981 3022 
Q 3291 2603 3291 1706 
z
M 2700 1694 
Q 2700 2400 2509 2703 
Q 2319 3006 1903 3006 
Q 1569 3006 1380 2865 
Q 1191 2725 1092 2426 
Q 994 2128 994 1650 
Q 994 984 1206 668 
Q 1419 353 1897 353 
Q 2316 353 2508 661 
Q 2700 969 2700 1694 
z
" id="LiberationSans-70" transform="scale(0.015625)"/>
       <path d="M 3291 1694 
Q 3291 806 2900 371 
Q 2509 -63 1766 -63 
Q 1025 -63 647 389 
Q 269 841 269 1694 
Q 269 3444 1784 3444 
Q 2559 3444 2925 3017 
Q 3291 2591 3291 1694 
z
M 2700 1694 
Q 2700 2394 2492 2711 
Q 2284 3028 1794 3028 
Q 1300 3028 1079 2704 
Q 859 2381 859 1694 
Q 859 1025 1076 689 
Q 1294 353 1759 353 
Q 2266 353 2483 678 
Q 2700 1003 2700 1694 
z
" id="LiberationSans-6f" transform="scale(0.015625)"/>
       <path d="M 2578 0 
L 2578 2144 
Q 2578 2478 2512 2662 
Q 2447 2847 2303 2928 
Q 2159 3009 1881 3009 
Q 1475 3009 1240 2731 
Q 1006 2453 1006 1959 
L 1006 0 
L 444 0 
L 444 2659 
Q 444 3250 425 3381 
L 956 3381 
Q 959 3366 962 3297 
Q 966 3228 970 3139 
Q 975 3050 981 2803 
L 991 2803 
Q 1184 3153 1439 3298 
Q 1694 3444 2072 3444 
Q 2628 3444 2886 3167 
Q 3144 2891 3144 2253 
L 3144 0 
L 2578 0 
z
" id="LiberationSans-6e" transform="scale(0.015625)"/>
      </defs>
      <use xlink:href="#LiberationSans-4f"/>
      <use x="77.783203" xlink:href="#LiberationSans-63"/>
      <use x="127.783203" xlink:href="#LiberationSans-63"/>
      <use x="177.783203" xlink:href="#LiberationSans-75"/>
      <use x="233.398438" xlink:href="#LiberationSans-70"/>
      <use x="289.013672" xlink:href="#LiberationSans-61"/>
      <use x="344.628906" xlink:href="#LiberationSans-74"/>
      <use x="372.412109" xlink:href="#LiberationSans-69"/>
      <use x="394.628906" xlink:href="#LiberationSans-6f"/>
      <use x="450.244141" xlink:href="#LiberationSans-6e"/>
      <use x="505.859375" xlink:href="#LiberationSans-61"/>
      <use x="561.474609" xlink:href="#LiberationSans-6c"/>
      <use x="583.691406" xlink:href="#LiberationSans-20"/>
      <use x="611.474609" xlink:href="#LiberationSans-69"/>
      <use x="633.691406" xlink:href="#LiberationSans-6e"/>
      <use x="689.306641" xlink:href="#LiberationSans-64"/>
      <use x="744.921875" xlink:href="#LiberationSans-75"/>
      <use x="800.537109" xlink:href="#LiberationSans-73"/>
      <use x="850.537109" xlink:href="#LiberationSans-74"/>
      <use x="878.320312" xlink:href="#LiberationSans-72"/>
      <use x="911.621094" xlink:href="#LiberationSans-79"/>
      <use x="961.621094" xlink:href="#LiberationSans-20"/>
      <use x="989.404297" xlink:href="#LiberationSans-74"/>
      <use x="1017.1875" xlink:href="#LiberationSans-79"/>
      <use x="1067.1875" xlink:href="#LiberationSans-70"/>
      <use x="1122.802734" xlink:href="#LiberationSans-65"/>
      <use x="1178.417969" xlink:href="#LiberationSans-73"/>
     </g>
     <!-- per 1,000 inscriptions -->
     <g style="fill:#262626;" transform="translate(23.0545 207.961875)rotate(-90)scale(0.08 -0.08)">
      <defs>
       <path d="M 1203 684 
L 1203 159 
Q 1203 -172 1143 -394 
Q 1084 -616 959 -819 
L 575 -819 
Q 869 -394 869 0 
L 594 0 
L 594 684 
L 1203 684 
z
" id="LiberationSans-2c" transform="scale(0.015625)"/>
      </defs>
      <use xlink:href="#LiberationSans-70"/>
      <use x="55.615234" xlink:href="#LiberationSans-65"/>
      <use x="111.230469" xlink:href="#LiberationSans-72"/>
      <use x="144.53125" xlink:href="#LiberationSans-20"/>
      <use x="172.314453" xlink:href="#LiberationSans-31"/>
      <use x="227.929688" xlink:href="#LiberationSans-2c"/>
      <use x="255.712891" xlink:href="#LiberationSans-30"/>
      <use x="311.328125" xlink:href="#LiberationSans-30"/>
      <use x="366.943359" xlink:href="#LiberationSans-30"/>
      <use x="422.558594" xlink:href="#LiberationSans-20"/>
      <use x="450.341797" xlink:href="#LiberationSans-69"/>
      <use x="472.558594" xlink:href="#LiberationSans-6e"/>
      <use x="528.173828" xlink:href="#LiberationSans-73"/>
      <use x="578.173828" xlink:href="#LiberationSans-63"/>
      <use x="628.173828" xlink:href="#LiberationSans-72"/>
      <use x="661.474609" xlink:href="#LiberationSans-69"/>
      <use x="683.691406" xlink:href="#LiberationSans-70"/>
      <use x="739.306641" xlink:href="#LiberationSans-74"/>
      <use x="767.089844" xlink:href="#LiberationSans-69"/>
      <use x="789.306641" xlink:href="#LiberationSans-6f"/>
      <use x="844.921875" xlink:href="#LiberationSans-6e"/>
      <use x="900.537109" xlink:href="#LiberationSans-73"/>
     </g>
    </g>
   </g>
   <g id="patch_3">
    <path clip-path="url(#p555d1f1bd3)" d="M 54.494182 233.18625 
L 116.903368 233.18625 
L 116.903368 215.683353 
L 54.494182 215.683353 
z
" style="fill:#1f77b4;"/>
   </g>
   <g id="patch_4">
    <path clip-path="url(#p555d1f1bd3)" d="M 132.505665 233.18625 
L 194.914852 233.18625 
L 194.914852 216.971835 
L 132.505665 216.971835 
z
" style="fill:#1f77b4;"/>
   </g>
   <g id="patch_5">
    <path clip-path="url(#p555d1f1bd3)" d="M 210.517148 233.18625 
L 272.926335 233.18625 
L 272.926335 217.631307 
L 210.517148 217.631307 
z
" style="fill:#1f77b4;"/>
   </g>
   <g id="patch_6">
    <path clip-path="url(#p555d1f1bd3)" d="M 288.528632 233.18625 
L 350.937818 233.18625 
L 350.937818 225.772924 
L 288.528632 225.772924 
z
" style="fill:#1f77b4;"/>
   </g>
   <g id="patch_7">
    <path clip-path="url(#p555d1f1bd3)" d="M 54.494182 215.683353 
L 116.903368 215.683353 
L 116.903368 195.871045 
L 54.494182 195.871045 
z
" style="fill:#ff7f0e;"/>
   </g>
   <g id="patch_8">
    <path clip-path="url(#p555d1f1bd3)" d="M 132.505665 216.971835 
L 194.914852 216.971835 
L 194.914852 198.580989 
L 132.505665 198.580989 
z
" style="fill:#ff7f0e;"/>
   </g>
   <g id="patch_9">
    <path clip-path="url(#p555d1f1bd3)" d="M 210.517148 217.631307 
L 272.926335 217.631307 
L 272.926335 183.422127 
L 210.517148 183.422127 
z
" style="fill:#ff7f0e;"/>
   </g>
   <g id="patch_10">
    <path clip-path="url(#p555d1f1bd3)" d="M 288.528632 225.772924 
L 350.937818 225.772924 
L 350.937818 214.434895 
L 288.528632 214.434895 
z
" style="fill:#ff7f0e;"/>
   </g>
   <g id="patch_11">
    <path clip-path="url(#p555d1f1bd3)" d="M 54.494182 195.871045 
L 116.903368 195.871045 
L 116.903368 186.451083 
L 54.494182 186.451083 
z
" style="fill:#2ca02c;"/>
   </g>
   <g id="patch_12">
    <path clip-path="url(#p555d1f1bd3)" d="M 132.505665 198.580989 
L 194.914852 198.580989 
L 194.914852 193.430101 
L 132.505665 193.430101 
z
" style="fill:#2ca02c;"/>
   </g>
   <g id="patch_13">
    <path clip-path="url(#p555d1f1bd3)" d="M 210.517148 183.422127 
L 272.926335 183.422127 
L 272.926335 174.650542 
L 210.517148 174.650542 
z
" style="fill:#2ca02c;"/>
   </g>
   <g id="patch_14">
    <path clip-path="url(#p555d1f1bd3)" d="M 288.528632 214.434895 
L 350.937818 214.434895 
L 350.937818 211.617161 
L 288.528632 211.617161 
z
" style="fill:#2ca02c;"/>
   </g>
   <g id="patch_15">
    <path clip-path="url(#p555d1f1bd3)" d="M 54.494182 186.451083 
L 116.903368 186.451083 
L 116.903368 173.93165 
L 54.494182 173.93165 
z
" style="fill:#d62728;"/>
   </g>
   <g id="patch_16">
    <path clip-path="url(#p555d1f1bd3)" d="M 132.505665 193.430101 
L 194.914852 193.430101 
L 194.914852 185.921413 
L 132.505665 185.921413 
z
" style="fill:#d62728;"/>
   </g>
   <g id="patch_17">
    <path clip-path="url(#p555d1f1bd3)" d="M 210.517148 174.650542 
L 272.926335 174.650542 
L 272.926335 169.270637 
L 210.517148 169.270637 
z
" style="fill:#d62728;"/>
   </g>
   <g id="patch_18">
    <path clip-path="url(#p555d1f1bd3)" d="M 288.528632 211.617161 
L 350.937818 211.617161 
L 350.937818 208.128537 
L 288.528632 208.128537 
z
" style="fill:#d62728;"/>
   </g>
   <g id="patch_19">
    <path clip-path="url(#p555d1f1bd3)" d="M 54.494182 173.93165 
L 116.903368 173.93165 
L 116.903368 160.926025 
L 54.494182 160.926025 
z
" style="fill:#9467bd;"/>
   </g>
   <g id="patch_20">
    <path clip-path="url(#p555d1f1bd3)" d="M 132.505665 185.921413 
L 194.914852 185.921413 
L 194.914852 179.899952 
L 132.505665 179.899952 
z
" style="fill:#9467bd;"/>
   </g>
   <g id="patch_21">
    <path clip-path="url(#p555d1f1bd3)" d="M 210.517148 169.270637 
L 272.926335 169.270637 
L 272.926335 165.645049 
L 210.517148 165.645049 
z
" style="fill:#9467bd;"/>
   </g>
   <g id="patch_22">
    <path clip-path="url(#p555d1f1bd3)" d="M 288.528632 208.128537 
L 350.937818 208.128537 
L 350.937818 205.914602 
L 288.528632 205.914602 
z
" style="fill:#9467bd;"/>
   </g>
   <g id="patch_23">
    <path clip-path="url(#p555d1f1bd3)" d="M 54.494182 160.926025 
L 116.903368 160.926025 
L 116.903368 156.914944 
L 54.494182 156.914944 
z
" style="fill:#8c564b;"/>
   </g>
   <g id="patch_24">
    <path clip-path="url(#p555d1f1bd3)" d="M 132.505665 179.899952 
L 194.914852 179.899952 
L 194.914852 177.723521 
L 132.505665 177.723521 
z
" style="fill:#8c564b;"/>
   </g>
   <g id="patch_25">
    <path clip-path="url(#p555d1f1bd3)" d="M 210.517148 165.645049 
L 272.926335 165.645049 
L 272.926335 163.890732 
L 210.517148 163.890732 
z
" style="fill:#8c564b;"/>
   </g>
   <g id="patch_26">
    <path clip-path="url(#p555d1f1bd3)" d="M 288.528632 205.914602 
L 350.937818 205.914602 
L 350.937818 204.841179 
L 288.528632 204.841179 
z
" style="fill:#8c564b;"/>
   </g>
   <g id="patch_27">
    <path clip-path="url(#p555d1f1bd3)" d="M 54.494182 156.914944 
L 116.903368 156.914944 
L 116.903368 116.074851 
L 54.494182 116.074851 
z
" style="fill:#e377c2;"/>
   </g>
   <g id="patch_28">
    <path clip-path="url(#p555d1f1bd3)" d="M 132.505665 177.723521 
L 194.914852 177.723521 
L 194.914852 145.149596 
L 132.505665 145.149596 
z
" style="fill:#e377c2;"/>
   </g>
   <g id="patch_29">
    <path clip-path="url(#p555d1f1bd3)" d="M 210.517148 163.890732 
L 272.926335 163.890732 
L 272.926335 112.723155 
L 210.517148 112.723155 
z
" style="fill:#e377c2;"/>
   </g>
   <g id="patch_30">
    <path clip-path="url(#p555d1f1bd3)" d="M 288.528632 204.841179 
L 350.937818 204.841179 
L 350.937818 181.661956 
L 288.528632 181.661956 
z
" style="fill:#e377c2;"/>
   </g>
   <g id="patch_31">
    <path d="M 39.672 233.18625 
L 39.672 106.7 
" style="fill:none;stroke:#262626;stroke-linecap:square;stroke-linejoin:miter;stroke-width:1.25;"/>
   </g>
   <g id="patch_32">
    <path d="M 365.76 233.18625 
L 365.76 106.7 
" style="fill:none;stroke:#262626;stroke-linecap:square;stroke-linejoin:miter;stroke-width:1.25;"/>
   </g>
   <g id="patch_33">
    <path d="M 39.672 233.18625 
L 365.76 233.18625 
" style="fill:none;stroke:#262626;stroke-linecap:square;stroke-linejoin:miter;stroke-width:1.25;"/>
   </g>
   <g id="patch_34">
    <path d="M 39.672 106.7 
L 365.76 106.7 
" style="fill:none;stroke:#262626;stroke-linecap:square;stroke-linejoin:miter;stroke-width:1.25;"/>
   </g>
   <g id="legend_1">
    <g id="text_12">
     <!-- Industry type (HISCO) -->
     <g style="fill:#262626;" transform="translate(122.85445 17.6375)scale(0.08 -0.08)">
      <defs>
       <path d="M 591 0 
L 591 4403 
L 1188 4403 
L 1188 0 
L 591 0 
z
" id="LiberationSans-49" transform="scale(0.015625)"/>
       <path d="M 397 1663 
Q 397 2566 680 3284 
Q 963 4003 1550 4638 
L 2094 4638 
Q 1509 3988 1236 3256 
Q 963 2525 963 1656 
Q 963 791 1233 62 
Q 1503 -666 2094 -1325 
L 1550 -1325 
Q 959 -688 678 32 
Q 397 753 397 1650 
L 397 1663 
z
" id="LiberationSans-28" transform="scale(0.015625)"/>
       <path d="M 3503 0 
L 3503 2041 
L 1122 2041 
L 1122 0 
L 525 0 
L 525 4403 
L 1122 4403 
L 1122 2541 
L 3503 2541 
L 3503 4403 
L 4100 4403 
L 4100 0 
L 3503 0 
z
" id="LiberationSans-48" transform="scale(0.015625)"/>
       <path d="M 3975 1216 
Q 3975 606 3498 271 
Q 3022 -63 2156 -63 
Q 547 -63 291 1056 
L 869 1172 
Q 969 775 1294 589 
Q 1619 403 2178 403 
Q 2756 403 3070 601 
Q 3384 800 3384 1184 
Q 3384 1400 3286 1534 
Q 3188 1669 3009 1756 
Q 2831 1844 2584 1903 
Q 2338 1963 2038 2031 
Q 1516 2147 1245 2262 
Q 975 2378 819 2520 
Q 663 2663 580 2853 
Q 497 3044 497 3291 
Q 497 3856 930 4162 
Q 1363 4469 2169 4469 
Q 2919 4469 3316 4239 
Q 3713 4009 3872 3456 
L 3284 3353 
Q 3188 3703 2916 3861 
Q 2644 4019 2163 4019 
Q 1634 4019 1356 3844 
Q 1078 3669 1078 3322 
Q 1078 3119 1186 2986 
Q 1294 2853 1497 2761 
Q 1700 2669 2306 2534 
Q 2509 2488 2711 2439 
Q 2913 2391 3097 2323 
Q 3281 2256 3442 2165 
Q 3603 2075 3722 1944 
Q 3841 1813 3908 1634 
Q 3975 1456 3975 1216 
z
" id="LiberationSans-53" transform="scale(0.015625)"/>
       <path d="M 2475 3981 
Q 1744 3981 1337 3511 
Q 931 3041 931 2222 
Q 931 1413 1354 920 
Q 1778 428 2500 428 
Q 3425 428 3891 1344 
L 4378 1100 
Q 4106 531 3614 234 
Q 3122 -63 2472 -63 
Q 1806 -63 1320 214 
Q 834 491 579 1005 
Q 325 1519 325 2222 
Q 325 3275 894 3872 
Q 1463 4469 2469 4469 
Q 3172 4469 3644 4194 
Q 4116 3919 4338 3378 
L 3772 3191 
Q 3619 3575 3280 3778 
Q 2941 3981 2475 3981 
z
" id="LiberationSans-43" transform="scale(0.015625)"/>
       <path d="M 1734 1650 
Q 1734 747 1451 28 
Q 1169 -691 581 -1325 
L 38 -1325 
Q 625 -669 897 57 
Q 1169 784 1169 1656 
Q 1169 2528 895 3256 
Q 622 3984 38 4638 
L 581 4638 
Q 1172 4000 1453 3279 
Q 1734 2559 1734 1663 
L 1734 1650 
z
" id="LiberationSans-29" transform="scale(0.015625)"/>
      </defs>
      <use xlink:href="#LiberationSans-49"/>
      <use x="27.783203" xlink:href="#LiberationSans-6e"/>
      <use x="83.398438" xlink:href="#LiberationSans-64"/>
      <use x="139.013672" xlink:href="#LiberationSans-75"/>
      <use x="194.628906" xlink:href="#LiberationSans-73"/>
      <use x="244.628906" xlink:href="#LiberationSans-74"/>
      <use x="272.412109" xlink:href="#LiberationSans-72"/>
      <use x="305.712891" xlink:href="#LiberationSans-79"/>
      <use x="355.712891" xlink:href="#LiberationSans-20"/>
      <use x="383.496094" xlink:href="#LiberationSans-74"/>
      <use x="411.279297" xlink:href="#LiberationSans-79"/>
      <use x="461.279297" xlink:href="#LiberationSans-70"/>
      <use x="516.894531" xlink:href="#LiberationSans-65"/>
      <use x="572.509766" xlink:href="#LiberationSans-20"/>
      <use x="600.292969" xlink:href="#LiberationSans-28"/>
      <use x="633.59375" xlink:href="#LiberationSans-48"/>
      <use x="705.810547" xlink:href="#LiberationSans-49"/>
      <use x="733.59375" xlink:href="#LiberationSans-53"/>
      <use x="800.292969" xlink:href="#LiberationSans-43"/>
      <use x="872.509766" xlink:href="#LiberationSans-4f"/>
      <use x="950.292969" xlink:href="#LiberationSans-29"/>
     </g>
    </g>
    <g id="patch_35">
     <path d="M 14.2632 29.095 
L 30.2632 29.095 
L 30.2632 23.495 
L 14.2632 23.495 
z
" style="fill:#1f77b4;"/>
    </g>
    <g id="text_13">
     <!-- Professional, technical and related workers -->
     <g style="fill:#262626;" transform="translate(36.6632 29.095)scale(0.08 -0.08)">
      <defs>
       <path d="M 3931 3078 
Q 3931 2453 3523 2084 
Q 3116 1716 2416 1716 
L 1122 1716 
L 1122 0 
L 525 0 
L 525 4403 
L 2378 4403 
Q 3119 4403 3525 4056 
Q 3931 3709 3931 3078 
z
M 3331 3072 
Q 3331 3925 2306 3925 
L 1122 3925 
L 1122 2188 
L 2331 2188 
Q 3331 2188 3331 3072 
z
" id="LiberationSans-50" transform="scale(0.015625)"/>
       <path d="M 1128 2972 
L 1128 0 
L 566 0 
L 566 2972 
L 91 2972 
L 91 3381 
L 566 3381 
L 566 3763 
Q 566 4225 769 4428 
Q 972 4631 1391 4631 
Q 1625 4631 1788 4594 
L 1788 4166 
Q 1647 4191 1538 4191 
Q 1322 4191 1225 4081 
Q 1128 3972 1128 3684 
L 1128 3381 
L 1788 3381 
L 1788 2972 
L 1128 2972 
z
" id="LiberationSans-66" transform="scale(0.015625)"/>
       <path d="M 991 2803 
Q 1172 3134 1426 3289 
Q 1681 3444 2072 3444 
Q 2622 3444 2883 3170 
Q 3144 2897 3144 2253 
L 3144 0 
L 2578 0 
L 2578 2144 
Q 2578 2500 2512 2673 
Q 2447 2847 2297 2928 
Q 2147 3009 1881 3009 
Q 1484 3009 1245 2734 
Q 1006 2459 1006 1994 
L 1006 0 
L 444 0 
L 444 4638 
L 1006 4638 
L 1006 3431 
Q 1006 3241 995 3037 
Q 984 2834 981 2803 
L 991 2803 
z
" id="LiberationSans-68" transform="scale(0.015625)"/>
       <path d="M 3669 0 
L 3016 0 
L 2425 2391 
L 2313 2919 
Q 2284 2778 2225 2514 
Q 2166 2250 1588 0 
L 938 0 
L -9 3381 
L 547 3381 
L 1119 1084 
Q 1141 1009 1253 466 
L 1306 697 
L 2013 3381 
L 2616 3381 
L 3206 1059 
L 3350 466 
L 3447 900 
L 4088 3381 
L 4638 3381 
L 3669 0 
z
" id="LiberationSans-77" transform="scale(0.015625)"/>
       <path d="M 2550 0 
L 1406 1544 
L 994 1203 
L 994 0 
L 431 0 
L 431 4638 
L 994 4638 
L 994 1741 
L 2478 3381 
L 3138 3381 
L 1766 1928 
L 3209 0 
L 2550 0 
z
" id="LiberationSans-6b" transform="scale(0.015625)"/>
      </defs>
      <use xlink:href="#LiberationSans-50"/>
      <use x="66.699219" xlink:href="#LiberationSans-72"/>
      <use x="100" xlink:href="#LiberationSans-6f"/>
      <use x="155.615234" xlink:href="#LiberationSans-66"/>
      <use x="183.398438" xlink:href="#LiberationSans-65"/>
      <use x="239.013672" xlink:href="#LiberationSans-73"/>
      <use x="289.013672" xlink:href="#LiberationSans-73"/>
      <use x="339.013672" xlink:href="#LiberationSans-69"/>
      <use x="361.230469" xlink:href="#LiberationSans-6f"/>
      <use x="416.845703" xlink:href="#LiberationSans-6e"/>
      <use x="472.460938" xlink:href="#LiberationSans-61"/>
      <use x="528.076172" xlink:href="#LiberationSans-6c"/>
      <use x="550.292969" xlink:href="#LiberationSans-2c"/>
      <use x="578.076172" xlink:href="#LiberationSans-20"/>
      <use x="605.859375" xlink:href="#LiberationSans-74"/>
      <use x="633.642578" xlink:href="#LiberationSans-65"/>
      <use x="689.257812" xlink:href="#LiberationSans-63"/>
      <use x="739.257812" xlink:href="#LiberationSans-68"/>
      <use x="794.873047" xlink:href="#LiberationSans-6e"/>
      <use x="850.488281" xlink:href="#LiberationSans-69"/>
      <use x="872.705078" xlink:href="#LiberationSans-63"/>
      <use x="922.705078" xlink:href="#LiberationSans-61"/>
      <use x="978.320312" xlink:href="#LiberationSans-6c"/>
      <use x="1000.537109" xlink:href="#LiberationSans-20"/>
      <use x="1028.320312" xlink:href="#LiberationSans-61"/>
      <use x="1083.935547" xlink:href="#LiberationSans-6e"/>
      <use x="1139.550781" xlink:href="#LiberationSans-64"/>
      <use x="1195.166016" xlink:href="#LiberationSans-20"/>
      <use x="1222.949219" xlink:href="#LiberationSans-72"/>
      <use x="1256.25" xlink:href="#LiberationSans-65"/>
      <use x="1311.865234" xlink:href="#LiberationSans-6c"/>
      <use x="1334.082031" xlink:href="#LiberationSans-61"/>
      <use x="1389.697266" xlink:href="#LiberationSans-74"/>
      <use x="1417.480469" xlink:href="#LiberationSans-65"/>
      <use x="1473.095703" xlink:href="#LiberationSans-64"/>
      <use x="1528.710938" xlink:href="#LiberationSans-20"/>
      <use x="1556.494141" xlink:href="#LiberationSans-77"/>
      <use x="1628.710938" xlink:href="#LiberationSans-6f"/>
      <use x="1684.326172" xlink:href="#LiberationSans-72"/>
      <use x="1717.626953" xlink:href="#LiberationSans-6b"/>
      <use x="1767.626953" xlink:href="#LiberationSans-65"/>
      <use x="1823.242188" xlink:href="#LiberationSans-72"/>
      <use x="1856.542969" xlink:href="#LiberationSans-73"/>
     </g>
    </g>
    <g id="patch_36">
     <path d="M 14.2632 40.5525 
L 30.2632 40.5525 
L 30.2632 34.9525 
L 14.2632 34.9525 
z
" style="fill:#ff7f0e;"/>
    </g>
    <g id="text_14">
     <!-- Administrative and managerial workers -->
     <g style="fill:#262626;" transform="translate(36.6632 40.5525)scale(0.08 -0.08)">
      <defs>
       <path d="M 3647 0 
L 3144 1288 
L 1138 1288 
L 631 0 
L 13 0 
L 1809 4403 
L 2488 4403 
L 4256 0 
L 3647 0 
z
M 2141 3953 
L 2113 3866 
Q 2034 3606 1881 3200 
L 1319 1753 
L 2966 1753 
L 2400 3206 
Q 2313 3422 2225 3694 
L 2141 3953 
z
" id="LiberationSans-41" transform="scale(0.015625)"/>
       <path d="M 1916 0 
L 1250 0 
L 22 3381 
L 622 3381 
L 1366 1181 
Q 1406 1056 1581 441 
L 1691 806 
L 1813 1175 
L 2581 3381 
L 3178 3381 
L 1916 0 
z
" id="LiberationSans-76" transform="scale(0.015625)"/>
      </defs>
      <use xlink:href="#LiberationSans-41"/>
      <use x="66.699219" xlink:href="#LiberationSans-64"/>
      <use x="122.314453" xlink:href="#LiberationSans-6d"/>
      <use x="205.615234" xlink:href="#LiberationSans-69"/>
      <use x="227.832031" xlink:href="#LiberationSans-6e"/>
      <use x="283.447266" xlink:href="#LiberationSans-69"/>
      <use x="305.664062" xlink:href="#LiberationSans-73"/>
      <use x="355.664062" xlink:href="#LiberationSans-74"/>
      <use x="383.447266" xlink:href="#LiberationSans-72"/>
      <use x="416.748047" xlink:href="#LiberationSans-61"/>
      <use x="472.363281" xlink:href="#LiberationSans-74"/>
      <use x="500.146484" xlink:href="#LiberationSans-69"/>
      <use x="522.363281" xlink:href="#LiberationSans-76"/>
      <use x="572.363281" xlink:href="#LiberationSans-65"/>
      <use x="627.978516" xlink:href="#LiberationSans-20"/>
      <use x="655.761719" xlink:href="#LiberationSans-61"/>
      <use x="711.376953" xlink:href="#LiberationSans-6e"/>
      <use x="766.992188" xlink:href="#LiberationSans-64"/>
      <use x="822.607422" xlink:href="#LiberationSans-20"/>
      <use x="850.390625" xlink:href="#LiberationSans-6d"/>
      <use x="933.691406" xlink:href="#LiberationSans-61"/>
      <use x="989.306641" xlink:href="#LiberationSans-6e"/>
      <use x="1044.921875" xlink:href="#LiberationSans-61"/>
      <use x="1100.537109" xlink:href="#LiberationSans-67"/>
      <use x="1156.152344" xlink:href="#LiberationSans-65"/>
      <use x="1211.767578" xlink:href="#LiberationSans-72"/>
      <use x="1245.068359" xlink:href="#LiberationSans-69"/>
      <use x="1267.285156" xlink:href="#LiberationSans-61"/>
      <use x="1322.900391" xlink:href="#LiberationSans-6c"/>
      <use x="1345.117188" xlink:href="#LiberationSans-20"/>
      <use x="1372.900391" xlink:href="#LiberationSans-77"/>
      <use x="1445.117188" xlink:href="#LiberationSans-6f"/>
      <use x="1500.732422" xlink:href="#LiberationSans-72"/>
      <use x="1534.033203" xlink:href="#LiberationSans-6b"/>
      <use x="1584.033203" xlink:href="#LiberationSans-65"/>
      <use x="1639.648438" xlink:href="#LiberationSans-72"/>
      <use x="1672.949219" xlink:href="#LiberationSans-73"/>
     </g>
    </g>
    <g id="patch_37">
     <path d="M 14.2632 52.01 
L 30.2632 52.01 
L 30.2632 46.41 
L 14.2632 46.41 
z
" style="fill:#2ca02c;"/>
    </g>
    <g id="text_15">
     <!-- Clerical and related workers -->
     <g style="fill:#262626;" transform="translate(36.6632 52.01)scale(0.08 -0.08)">
      <use xlink:href="#LiberationSans-43"/>
      <use x="72.216797" xlink:href="#LiberationSans-6c"/>
      <use x="94.433594" xlink:href="#LiberationSans-65"/>
      <use x="150.048828" xlink:href="#LiberationSans-72"/>
      <use x="183.349609" xlink:href="#LiberationSans-69"/>
      <use x="205.566406" xlink:href="#LiberationSans-63"/>
      <use x="255.566406" xlink:href="#LiberationSans-61"/>
      <use x="311.181641" xlink:href="#LiberationSans-6c"/>
      <use x="333.398438" xlink:href="#LiberationSans-20"/>
      <use x="361.181641" xlink:href="#LiberationSans-61"/>
      <use x="416.796875" xlink:href="#LiberationSans-6e"/>
      <use x="472.412109" xlink:href="#LiberationSans-64"/>
      <use x="528.027344" xlink:href="#LiberationSans-20"/>
      <use x="555.810547" xlink:href="#LiberationSans-72"/>
      <use x="589.111328" xlink:href="#LiberationSans-65"/>
      <use x="644.726562" xlink:href="#LiberationSans-6c"/>
      <use x="666.943359" xlink:href="#LiberationSans-61"/>
      <use x="722.558594" xlink:href="#LiberationSans-74"/>
      <use x="750.341797" xlink:href="#LiberationSans-65"/>
      <use x="805.957031" xlink:href="#LiberationSans-64"/>
      <use x="861.572266" xlink:href="#LiberationSans-20"/>
      <use x="889.355469" xlink:href="#LiberationSans-77"/>
      <use x="961.572266" xlink:href="#LiberationSans-6f"/>
      <use x="1017.1875" xlink:href="#LiberationSans-72"/>
      <use x="1050.488281" xlink:href="#LiberationSans-6b"/>
      <use x="1100.488281" xlink:href="#LiberationSans-65"/>
      <use x="1156.103516" xlink:href="#LiberationSans-72"/>
      <use x="1189.404297" xlink:href="#LiberationSans-73"/>
     </g>
    </g>
    <g id="patch_38">
     <path d="M 14.2632 63.4675 
L 30.2632 63.4675 
L 30.2632 57.8675 
L 14.2632 57.8675 
z
" style="fill:#d62728;"/>
    </g>
    <g id="text_16">
     <!-- Sales workers -->
     <g style="fill:#262626;" transform="translate(36.6632 63.4675)scale(0.08 -0.08)">
      <use xlink:href="#LiberationSans-53"/>
      <use x="66.699219" xlink:href="#LiberationSans-61"/>
      <use x="122.314453" xlink:href="#LiberationSans-6c"/>
      <use x="144.53125" xlink:href="#LiberationSans-65"/>
      <use x="200.146484" xlink:href="#LiberationSans-73"/>
      <use x="250.146484" xlink:href="#LiberationSans-20"/>
      <use x="277.929688" xlink:href="#LiberationSans-77"/>
      <use x="350.146484" xlink:href="#LiberationSans-6f"/>
      <use x="405.761719" xlink:href="#LiberationSans-72"/>
      <use x="439.0625" xlink:href="#LiberationSans-6b"/>
      <use x="489.0625" xlink:href="#LiberationSans-65"/>
      <use x="544.677734" xlink:href="#LiberationSans-72"/>
      <use x="577.978516" xlink:href="#LiberationSans-73"/>
     </g>
    </g>
    <g id="patch_39">
     <path d="M 14.2632 74.925 
L 30.2632 74.925 
L 30.2632 69.325 
L 14.2632 69.325 
z
" style="fill:#9467bd;"/>
    </g>
    <g id="text_17">
     <!-- Service workers -->
     <g style="fill:#262626;" transform="translate(36.6632 74.925)scale(0.08 -0.08)">
      <use xlink:href="#LiberationSans-53"/>
      <use x="66.699219" xlink:href="#LiberationSans-65"/>
      <use x="122.314453" xlink:href="#LiberationSans-72"/>
      <use x="155.615234" xlink:href="#LiberationSans-76"/>
      <use x="205.615234" xlink:href="#LiberationSans-69"/>
      <use x="227.832031" xlink:href="#LiberationSans-63"/>
      <use x="277.832031" xlink:href="#LiberationSans-65"/>
      <use x="333.447266" xlink:href="#LiberationSans-20"/>
      <use x="361.230469" xlink:href="#LiberationSans-77"/>
      <use x="433.447266" xlink:href="#LiberationSans-6f"/>
      <use x="489.0625" xlink:href="#LiberationSans-72"/>
      <use x="522.363281" xlink:href="#LiberationSans-6b"/>
      <use x="572.363281" xlink:href="#LiberationSans-65"/>
      <use x="627.978516" xlink:href="#LiberationSans-72"/>
      <use x="661.279297" xlink:href="#LiberationSans-73"/>
     </g>
    </g>
    <g id="patch_40">
     <path d="M 14.2632 86.3825 
L 30.2632 86.3825 
L 30.2632 80.7825 
L 14.2632 80.7825 
z
" style="fill:#8c564b;"/>
    </g>
    <g id="text_18">
     <!-- Agricultural, animal husbandry and forestry workers, fishermen and hunters -->
     <g style="fill:#262626;" transform="translate(36.6632 86.3825)scale(0.08 -0.08)">
      <defs>
       <path d="M 3291 1706 
Q 3291 -63 2047 -63 
Q 1663 -63 1408 76 
Q 1153 216 994 525 
L 988 525 
Q 988 428 975 229 
Q 963 31 956 0 
L 413 0 
Q 431 169 431 697 
L 431 4638 
L 994 4638 
L 994 3316 
Q 994 3113 981 2838 
L 994 2838 
Q 1150 3163 1408 3303 
Q 1666 3444 2047 3444 
Q 2688 3444 2989 3012 
Q 3291 2581 3291 1706 
z
M 2700 1688 
Q 2700 2397 2512 2703 
Q 2325 3009 1903 3009 
Q 1428 3009 1211 2684 
Q 994 2359 994 1653 
Q 994 988 1206 670 
Q 1419 353 1897 353 
Q 2322 353 2511 667 
Q 2700 981 2700 1688 
z
" id="LiberationSans-62" transform="scale(0.015625)"/>
      </defs>
      <use xlink:href="#LiberationSans-41"/>
      <use x="66.699219" xlink:href="#LiberationSans-67"/>
      <use x="122.314453" xlink:href="#LiberationSans-72"/>
      <use x="155.615234" xlink:href="#LiberationSans-69"/>
      <use x="177.832031" xlink:href="#LiberationSans-63"/>
      <use x="227.832031" xlink:href="#LiberationSans-75"/>
      <use x="283.447266" xlink:href="#LiberationSans-6c"/>
      <use x="305.664062" xlink:href="#LiberationSans-74"/>
      <use x="333.447266" xlink:href="#LiberationSans-75"/>
      <use x="389.0625" xlink:href="#LiberationSans-72"/>
      <use x="422.363281" xlink:href="#LiberationSans-61"/>
      <use x="477.978516" xlink:href="#LiberationSans-6c"/>
      <use x="500.195312" xlink:href="#LiberationSans-2c"/>
      <use x="527.978516" xlink:href="#LiberationSans-20"/>
      <use x="555.761719" xlink:href="#LiberationSans-61"/>
      <use x="611.376953" xlink:href="#LiberationSans-6e"/>
      <use x="666.992188" xlink:href="#LiberationSans-69"/>
      <use x="689.208984" xlink:href="#LiberationSans-6d"/>
      <use x="772.509766" xlink:href="#LiberationSans-61"/>
      <use x="828.125" xlink:href="#LiberationSans-6c"/>
      <use x="850.341797" xlink:href="#LiberationSans-20"/>
      <use x="878.125" xlink:href="#LiberationSans-68"/>
      <use x="933.740234" xlink:href="#LiberationSans-75"/>
      <use x="989.355469" xlink:href="#LiberationSans-73"/>
      <use x="1039.355469" xlink:href="#LiberationSans-62"/>
      <use x="1094.970703" xlink:href="#LiberationSans-61"/>
      <use x="1150.585938" xlink:href="#LiberationSans-6e"/>
      <use x="1206.201172" xlink:href="#LiberationSans-64"/>
      <use x="1261.816406" xlink:href="#LiberationSans-72"/>
      <use x="1295.117188" xlink:href="#LiberationSans-79"/>
      <use x="1345.117188" xlink:href="#LiberationSans-20"/>
      <use x="1372.900391" xlink:href="#LiberationSans-61"/>
      <use x="1428.515625" xlink:href="#LiberationSans-6e"/>
      <use x="1484.130859" xlink:href="#LiberationSans-64"/>
      <use x="1539.746094" xlink:href="#LiberationSans-20"/>
      <use x="1567.529297" xlink:href="#LiberationSans-66"/>
      <use x="1595.3125" xlink:href="#LiberationSans-6f"/>
      <use x="1650.927734" xlink:href="#LiberationSans-72"/>
      <use x="1684.228516" xlink:href="#LiberationSans-65"/>
      <use x="1739.84375" xlink:href="#LiberationSans-73"/>
      <use x="1789.84375" xlink:href="#LiberationSans-74"/>
      <use x="1817.626953" xlink:href="#LiberationSans-72"/>
      <use x="1850.927734" xlink:href="#LiberationSans-79"/>
      <use x="1900.927734" xlink:href="#LiberationSans-20"/>
      <use x="1928.710938" xlink:href="#LiberationSans-77"/>
      <use x="2000.927734" xlink:href="#LiberationSans-6f"/>
      <use x="2056.542969" xlink:href="#LiberationSans-72"/>
      <use x="2089.84375" xlink:href="#LiberationSans-6b"/>
      <use x="2139.84375" xlink:href="#LiberationSans-65"/>
      <use x="2195.458984" xlink:href="#LiberationSans-72"/>
      <use x="2228.759766" xlink:href="#LiberationSans-73"/>
      <use x="2278.759766" xlink:href="#LiberationSans-2c"/>
      <use x="2306.542969" xlink:href="#LiberationSans-20"/>
      <use x="2334.326172" xlink:href="#LiberationSans-66"/>
      <use x="2362.109375" xlink:href="#LiberationSans-69"/>
      <use x="2384.326172" xlink:href="#LiberationSans-73"/>
      <use x="2434.326172" xlink:href="#LiberationSans-68"/>
      <use x="2489.941406" xlink:href="#LiberationSans-65"/>
      <use x="2545.556641" xlink:href="#LiberationSans-72"/>
      <use x="2578.857422" xlink:href="#LiberationSans-6d"/>
      <use x="2662.158203" xlink:href="#LiberationSans-65"/>
      <use x="2717.773438" xlink:href="#LiberationSans-6e"/>
      <use x="2773.388672" xlink:href="#LiberationSans-20"/>
      <use x="2801.171875" xlink:href="#LiberationSans-61"/>
      <use x="2856.787109" xlink:href="#LiberationSans-6e"/>
      <use x="2912.402344" xlink:href="#LiberationSans-64"/>
      <use x="2968.017578" xlink:href="#LiberationSans-20"/>
      <use x="2995.800781" xlink:href="#LiberationSans-68"/>
      <use x="3051.416016" xlink:href="#LiberationSans-75"/>
      <use x="3107.03125" xlink:href="#LiberationSans-6e"/>
      <use x="3162.646484" xlink:href="#LiberationSans-74"/>
      <use x="3190.429688" xlink:href="#LiberationSans-65"/>
      <use x="3246.044922" xlink:href="#LiberationSans-72"/>
      <use x="3279.345703" xlink:href="#LiberationSans-73"/>
     </g>
    </g>
    <g id="patch_41">
     <path d="M 14.2632 97.84 
L 30.2632 97.84 
L 30.2632 92.24 
L 14.2632 92.24 
z
" style="fill:#e377c2;"/>
    </g>
    <g id="text_19">
     <!-- Production and related workers, transport equipment operators and labourers -->
     <g style="fill:#262626;" transform="translate(36.6632 97.84)scale(0.08 -0.08)">
      <defs>
       <path d="M 1513 -63 
Q 869 -63 569 371 
Q 269 806 269 1675 
Q 269 3444 1513 3444 
Q 1897 3444 2147 3308 
Q 2397 3172 2566 2856 
L 2572 2856 
Q 2572 2950 2584 3179 
Q 2597 3409 2609 3425 
L 3150 3425 
Q 3128 3241 3128 2503 
L 3128 -1328 
L 2566 -1328 
L 2566 44 
L 2578 556 
L 2572 556 
Q 2403 222 2156 79 
Q 1909 -63 1513 -63 
z
M 2566 1731 
Q 2566 2391 2350 2709 
Q 2134 3028 1663 3028 
Q 1234 3028 1046 2709 
Q 859 2391 859 1694 
Q 859 984 1048 678 
Q 1238 372 1656 372 
Q 2134 372 2350 712 
Q 2566 1053 2566 1731 
z
" id="LiberationSans-71" transform="scale(0.015625)"/>
      </defs>
      <use xlink:href="#LiberationSans-50"/>
      <use x="66.699219" xlink:href="#LiberationSans-72"/>
      <use x="100" xlink:href="#LiberationSans-6f"/>
      <use x="155.615234" xlink:href="#LiberationSans-64"/>
      <use x="211.230469" xlink:href="#LiberationSans-75"/>
      <use x="266.845703" xlink:href="#LiberationSans-63"/>
      <use x="316.845703" xlink:href="#LiberationSans-74"/>
      <use x="344.628906" xlink:href="#LiberationSans-69"/>
      <use x="366.845703" xlink:href="#LiberationSans-6f"/>
      <use x="422.460938" xlink:href="#LiberationSans-6e"/>
      <use x="478.076172" xlink:href="#LiberationSans-20"/>
      <use x="505.859375" xlink:href="#LiberationSans-61"/>
      <use x="561.474609" xlink:href="#LiberationSans-6e"/>
      <use x="617.089844" xlink:href="#LiberationSans-64"/>
      <use x="672.705078" xlink:href="#LiberationSans-20"/>
      <use x="700.488281" xlink:href="#LiberationSans-72"/>
      <use x="733.789062" xlink:href="#LiberationSans-65"/>
      <use x="789.404297" xlink:href="#LiberationSans-6c"/>
      <use x="811.621094" xlink:href="#LiberationSans-61"/>
      <use x="867.236328" xlink:href="#LiberationSans-74"/>
      <use x="895.019531" xlink:href="#LiberationSans-65"/>
      <use x="950.634766" xlink:href="#LiberationSans-64"/>
      <use x="1006.25" xlink:href="#LiberationSans-20"/>
      <use x="1034.033203" xlink:href="#LiberationSans-77"/>
      <use x="1106.25" xlink:href="#LiberationSans-6f"/>
      <use x="1161.865234" xlink:href="#LiberationSans-72"/>
      <use x="1195.166016" xlink:href="#LiberationSans-6b"/>
      <use x="1245.166016" xlink:href="#LiberationSans-65"/>
      <use x="1300.78125" xlink:href="#LiberationSans-72"/>
      <use x="1334.082031" xlink:href="#LiberationSans-73"/>
      <use x="1384.082031" xlink:href="#LiberationSans-2c"/>
      <use x="1411.865234" xlink:href="#LiberationSans-20"/>
      <use x="1439.648438" xlink:href="#LiberationSans-74"/>
      <use x="1467.431641" xlink:href="#LiberationSans-72"/>
      <use x="1500.732422" xlink:href="#LiberationSans-61"/>
      <use x="1556.347656" xlink:href="#LiberationSans-6e"/>
      <use x="1611.962891" xlink:href="#LiberationSans-73"/>
      <use x="1661.962891" xlink:href="#LiberationSans-70"/>
      <use x="1717.578125" xlink:href="#LiberationSans-6f"/>
      <use x="1773.193359" xlink:href="#LiberationSans-72"/>
      <use x="1806.494141" xlink:href="#LiberationSans-74"/>
      <use x="1834.277344" xlink:href="#LiberationSans-20"/>
      <use x="1862.060547" xlink:href="#LiberationSans-65"/>
      <use x="1917.675781" xlink:href="#LiberationSans-71"/>
      <use x="1973.291016" xlink:href="#LiberationSans-75"/>
      <use x="2028.90625" xlink:href="#LiberationSans-69"/>
      <use x="2051.123047" xlink:href="#LiberationSans-70"/>
      <use x="2106.738281" xlink:href="#LiberationSans-6d"/>
      <use x="2190.039062" xlink:href="#LiberationSans-65"/>
      <use x="2245.654297" xlink:href="#LiberationSans-6e"/>
      <use x="2301.269531" xlink:href="#LiberationSans-74"/>
      <use x="2329.052734" xlink:href="#LiberationSans-20"/>
      <use x="2356.835938" xlink:href="#LiberationSans-6f"/>
      <use x="2412.451172" xlink:href="#LiberationSans-70"/>
      <use x="2468.066406" xlink:href="#LiberationSans-65"/>
      <use x="2523.681641" xlink:href="#LiberationSans-72"/>
      <use x="2556.982422" xlink:href="#LiberationSans-61"/>
      <use x="2612.597656" xlink:href="#LiberationSans-74"/>
      <use x="2640.380859" xlink:href="#LiberationSans-6f"/>
      <use x="2695.996094" xlink:href="#LiberationSans-72"/>
      <use x="2729.296875" xlink:href="#LiberationSans-73"/>
      <use x="2779.296875" xlink:href="#LiberationSans-20"/>
      <use x="2807.080078" xlink:href="#LiberationSans-61"/>
      <use x="2862.695312" xlink:href="#LiberationSans-6e"/>
      <use x="2918.310547" xlink:href="#LiberationSans-64"/>
      <use x="2973.925781" xlink:href="#LiberationSans-20"/>
      <use x="3001.708984" xlink:href="#LiberationSans-6c"/>
      <use x="3023.925781" xlink:href="#LiberationSans-61"/>
      <use x="3079.541016" xlink:href="#LiberationSans-62"/>
      <use x="3135.15625" xlink:href="#LiberationSans-6f"/>
      <use x="3190.771484" xlink:href="#LiberationSans-75"/>
      <use x="3246.386719" xlink:href="#LiberationSans-72"/>
      <use x="3279.6875" xlink:href="#LiberationSans-65"/>
      <use x="3335.302734" xlink:href="#LiberationSans-72"/>
      <use x="3368.603516" xlink:href="#LiberationSans-73"/>
     </g>
    </g>
   </g>
  </g>
 </g>
 <defs>
  <clipPath id="p555d1f1bd3">
   <rect height="126.48625" width="326.088" x="39.672" y="106.7"/>
  </clipPath>
 </defs>
</svg>
